<svg id="Layer_1" data-name="Layer 1" xmlns="http://www.w3.org/2000/svg" viewBox="0 0 4470.61 447.85"><defs><style>.cls-1{fill:#72ae73;}</style></defs><path class="cls-1" d="M-276.71,363.28c-12.69,17-23,37.6-30.76,61.22-2.43,7.42-4.62,15.22-6.56,23.35H4635.42l-45-144.66c-8.05-2.21-36.49-9.86-80.85-20.35-48.62-11.5-126.84-28.85-223.41-46.2-108.52-19.51-217.62-35-324.25-46.2-133.27-13.93-263.05-21-385.74-21-87.29,0-172.37,3.6-252.85,10.69-88,7.75-172.78,19.87-252,36-74.5,15.21-160.95,28.49-256.94,39.46-88.31,10.09-186.78,18.47-292.68,24.91-183,11.12-392.54,16.76-622.71,16.76-265.71,0-512.06-7.62-671.94-14-173.24-6.93-285.09-13.94-286.2-14h-.19l-.18,0c-.74-.11-74.82-10.91-185.47-21.57-65-6.26-129.69-11.25-192.28-14.83-78.22-4.48-153.36-6.74-223.32-6.74-120.58,0-227.32,6.71-317.27,19.95-51.33,7.55-97.94,17.36-138.53,29.16-43.72,12.7-81.57,28-112.51,45.56A154.61,154.61,0,0,0-276.71,363.28Z"/></svg>