<svg id="Layer_1" data-name="Layer 1" xmlns="http://www.w3.org/2000/svg" viewBox="0 0 4470.61 447.85"><defs><style>.cls-1{fill:#72ae73;}</style></defs><path class="cls-1" d="M4598.11,87.56c12.68-17,23-37.59,30.75-61.21q3.65-11.14,6.56-23.36H-314l45,144.67c8.05,2.21,36.49,9.86,80.85,20.35,48.62,11.49,126.84,28.84,223.41,46.2,108.52,19.51,217.62,35,324.25,46.19,133.27,13.93,263.05,21,385.74,21,87.29,0,172.37-3.59,252.85-10.68,88-7.75,172.78-19.88,252-36,74.51-15.21,161-28.48,256.94-39.45,88.31-10.09,186.78-18.47,292.68-24.91,183-11.12,392.54-16.76,622.71-16.76,265.71,0,512.06,7.61,671.94,14,173.24,6.92,285.09,13.94,286.2,14h.19l.18,0c.74.11,74.82,10.9,185.48,21.56,65,6.27,129.68,11.26,192.27,14.84,78.22,4.47,153.36,6.74,223.32,6.74,120.58,0,227.32-6.71,317.27-20,51.33-7.55,97.94-17.36,138.53-29.16,43.72-12.7,81.57-28,112.51-45.56A154.79,154.79,0,0,0,4598.11,87.56Z"/></svg>