<svg xmlns="http://www.w3.org/2000/svg" viewBox="0 0 2050.18 426.77"><defs><style>.cls-1{fill:#f4f5f0;}.cls-2{fill:#4a984d;}.cls-3{fill:#72ae73;}</style></defs><g id="Layer_2" data-name="Layer 2"><rect class="cls-1" x="3" y="3" width="2044.18" height="420.77"/><path class="cls-2" d="M2044.18,6V420.77H6V6H2044.18m6-6H0V426.77H2050.18V0Z"/><path class="cls-3" d="M1.69,371.08c-5.36,11.19-9.72,24.76-13,40.31-1,4.89-2,10-2.77,15.38H2074.16l-19-95.27c-3.4-1.45-15.4-6.49-34.12-13.4-20.51-7.57-53.51-19-94.26-30.43A1258.06,1258.06,0,0,0,1790,257.25c-56.23-9.17-111-13.83-162.75-13.83a786.42,786.42,0,0,0-106.68,7,637,637,0,0,0-106.3,23.74c-31.43,10-67.91,18.76-108.41,26-37.25,6.65-78.8,12.17-123.48,16.41-77.22,7.32-165.61,11-262.72,11-112.11,0-216-5-283.5-9.23-73.09-4.56-120.29-9.18-120.75-9.23h-.08l-.08,0C515,309.08,483.69,302,437,295c-27.42-4.13-54.72-7.42-81.12-9.77-33-2.95-64.71-4.44-94.23-4.44-50.87,0-95.9,4.42-133.85,13.13-21.66,5-41.33,11.44-58.45,19.21-18.45,8.36-34.42,18.46-47.47,30C14.05,350,7.25,359.43,1.69,371.08Z"/></g></svg>