<svg id="Layer_1" data-name="Layer 1" xmlns="http://www.w3.org/2000/svg" viewBox="0 0 300 300"><defs><style>.cls-1{fill:#f4f5f0;}.cls-2{fill:#4a984d;}.cls-3{fill:#72ae73;}</style></defs><circle class="cls-1" cx="148.49" cy="155.06" r="124.59"/><path class="cls-2" d="M148.49,36.45a118.61,118.61,0,0,1,83.86,202.48A118.61,118.61,0,0,1,64.62,71.19a117.84,117.84,0,0,1,83.87-34.74m0-6A124.59,124.59,0,1,0,273.07,155.06,124.59,124.59,0,0,0,148.49,30.47Z"/><path class="cls-3" d="M165.5,168.7l5.62-2.42c1.33,6.67,2.62,13.19,4,19.9H127.81c.64-3.48,1.24-6.87,1.89-10.26,1.08-5.62,2.14-11.24,3.34-16.83a3.8,3.8,0,0,1,1.7-2c2.08-1.35,4.25-2.6,6.42-3.8a5.94,5.94,0,0,1,2.41-.81,4.75,4.75,0,0,0,4.46-2.9c.82-1.89.29-3.49-1-5a2.54,2.54,0,0,1-.58-1.83,45.51,45.51,0,0,0-.09-16.66,4.37,4.37,0,0,1,0-.81c10.88-1.9,22.52,1.15,28.47,10.56,4.38,6.92,3.71,14.48-2.15,20.21a59.23,59.23,0,0,1-7.94,6.09,3.5,3.5,0,0,1-5.15-.88c-1.05-1.77-.49-3.66,1.39-5.1a76.12,76.12,0,0,0,7.12-5.75c4.49-4.46,2.41-10.61-2.74-14.25l.67,4.07-10.94,4.95c1.33,3,2.54,5.92,3.84,8.76a2.74,2.74,0,0,1-.18,3c-1.8,2.75-.53,6.17,2.6,6.72a3.7,3.7,0,0,1,3.16,2.93A21.07,21.07,0,0,0,165.5,168.7Z"/><path class="cls-3" d="M139.65,109.86a11.75,11.75,0,1,1,11.57,11.86A11.72,11.72,0,0,1,139.65,109.86Z"/><path class="cls-3" d="M152.31,187.53h10.74a10.07,10.07,0,0,1,.15,1.25q0,14,0,28.06c0,2.91-1.33,4.79-3.8,5.61a5.28,5.28,0,0,1-7-4.76C152.21,207.72,152.31,197.75,152.31,187.53Z"/><path class="cls-3" d="M139.62,187.54h10.71a9.65,9.65,0,0,1,.18,1.27c0,9.28,0,18.56,0,27.84,0,4.62-4.13,7.42-7.93,5.5a4.76,4.76,0,0,1-2.92-4.27C139.59,207.84,139.62,197.8,139.62,187.54Z"/><path class="cls-3" d="M142.19,125.49c1.61,5.42,1.66,13.23.13,17.72L136,141.73l2.8-6.17-.48-.32a47.28,47.28,0,0,0-3.43,5c-.24.45.51,2,1.1,2.22a44.21,44.21,0,0,0,7.26,1.78c2.83.43,4.27,1.66,4.07,4s-2,3.61-4.77,3.11a43.59,43.59,0,0,1-9.46-2.39c-5.42-2.36-7-7.48-4.3-12.69C131.64,130.82,136.22,127.41,142.19,125.49Z"/><path class="cls-2" d="M156.5,145.78,168,140.67c3.58,4.28.82,9.8-7.36,14.35Z"/><path class="cls-2" d="M166.05,167.31l-1.6-3.62c5.42-3.21,10.35-6.81,13.17-12.95l4.24,9.55Z"/><path class="cls-2" d="M132.06,158.1l-2.17,11.22c-4.16-1.07-7.26-6.46-6.55-11.43,1.42.07,2.86.16,4.3.2S130.4,158.1,132.06,158.1Z"/><path class="cls-2" d="M123.89,153.63l3.81-7.09c1.84,1.28,3.63,2.41,5.25,3.75.39.32.38,1.41.19,2s-.78,1.47-1.28,1.52c-2.53.28-5.08.33-7.63.47Z"/></svg>