<svg id="Layer_1" data-name="Layer 1" xmlns="http://www.w3.org/2000/svg" viewBox="0 0 300 300"><defs><style>.cls-1{fill:#f4f5f0;}.cls-2{fill:#4a984d;}.cls-3{fill:#72ae73;}</style></defs><circle class="cls-1" cx="148.42" cy="155.54" r="125.07"/><path class="cls-2" d="M148.42,36.48a119.06,119.06,0,0,1,84.19,203.25A119.06,119.06,0,0,1,64.23,71.35a118.28,118.28,0,0,1,84.19-34.87m0-6A125.07,125.07,0,1,0,273.49,155.54,125.08,125.08,0,0,0,148.42,30.47Z"/><path class="cls-3" d="M197.91,140.48c-3,0-5.47.13-7.91,0-3.74-.24-5.16-2.92-2.94-5.86,6.42-8.51,13-16.92,19.56-25.32,1.86-2.37,4.07-2.27,5.87,0,6.54,8.42,13.06,16.86,19.43,25.42,2.08,2.79.7,5.44-2.8,5.7-2.56.18-5.14,0-8.12,0v4.58c0,19-.07,38,.06,57,0,3.64-.92,5.28-4.84,5a124.25,124.25,0,0,0-14.05,0c-3.7.19-4.31-1.68-4.3-4.77.07-18.87,0-37.73,0-56.6Z"/><path class="cls-3" d="M164.84,182.92c0-6.5.13-13-.05-19.5-.09-3.15.89-4.52,4.19-4.39,4.93.18,9.88.14,14.82,0,2.75-.07,4,.79,4,3.76-.1,13.52-.07,27,0,40.56,0,2.55-.76,3.84-3.57,3.77-5.32-.13-10.66-.1-16,0-2.55,0-3.44-1.09-3.41-3.54C164.89,196.69,164.84,189.81,164.84,182.92Z"/><path class="cls-3" d="M154.68,190.44c0,4.3-.08,8.6,0,12.89.07,2.6-.78,3.86-3.57,3.8-5.33-.12-10.67-.11-16,0-2.61.05-3.41-1.17-3.39-3.57q.07-13.27,0-26.56c0-2.7,1.09-3.69,3.76-3.63,5.21.13,10.42.12,15.63,0,2.75-.06,3.66,1.16,3.59,3.78C154.6,181.58,154.68,186,154.68,190.44Z"/><path class="cls-3" d="M110.08,207.09c-2.73,0-5.46-.05-8.19,0-2.25.06-3.4-.86-3.38-3.18,0-4.29,0-8.58,0-12.86,0-2.3,1.09-3.34,3.31-3.34,5.46,0,10.91,0,16.37,0,2.25,0,3.39,1,3.4,3.28,0,4.29,0,8.57,0,12.86,0,2.23-1,3.33-3.33,3.25C115.53,207,112.8,207.09,110.08,207.09Z"/><path class="cls-2" d="M99.8,104a11,11,0,1,1-.17,21.9A11,11,0,0,1,99.8,104Z"/><path class="cls-2" d="M82.32,172.76c-1.78,7.86-3.53,15.59-5.29,23.4h0c0,.14-.06.28-.1.42-.25,1.46-.36,5.13,5,5.13,5.86,0,7.26-3.07,7.5-3.8h0l0-.14v0h0l4.85-21.29Z"/><path class="cls-2" d="M102.35,177.76v5h0c0,.19,0,.39,0,.59,0,1.48.37,5.14,5.65,4.39,6.49-.93,7-4.89,7-5,0-1.64-.11-3.06-.14-4.69Z"/><path class="cls-2" d="M128.35,143.53a4.74,4.74,0,0,0-5.19-4,17.26,17.26,0,0,0-3.65.74c-6,1.56-6,1.62-9.69-3.34-2.38-3.23-4.86-6.15-8.95-7.34C91.78,127,83,126.15,74.66,132c-1.25.89-2.89,1.23-4.15,2.11A6.79,6.79,0,0,0,67.86,137q-2.14,6.35-3.75,12.85A5.15,5.15,0,0,0,74,152.58a32.55,32.55,0,0,0,1.8-6.28c.51-3.74,3-5.08,6.54-6-.57,6.09-1.09,12-1.67,17.82-.54,5.38.67,7.27,5.89,8.94l15.76,5.07v6h12.42c-.06-3.69-.13-7.37-.25-11.06-.09-2.9-1.81-4.78-4.55-5.69-3.43-1.14-6.86-2.26-10.59-3.48l3.08-13.66c1.94,2.49,3.25,4.65,5,6.28,1.26,1.15,3.29,2.41,4.75,2.19a86,86,0,0,0,13.28-3.25C128.14,148.57,129,146.15,128.35,143.53Z"/></svg>