<svg id="Layer_1" data-name="Layer 1" xmlns="http://www.w3.org/2000/svg" viewBox="0 0 52.4124 50.3467"><defs><style>.cls-1{fill:#f4f5f0;}</style></defs><path class="cls-1" d="M14.8923,44.2639a.7507.7507,0,0,1-.7393-.877L16.196,31.49l-8.64-8.4248a.75.75,0,0,1,.4161-1.2793l11.9326-1.7285L25.2482,9.2375a.75.75,0,0,1,.6724-.4179h0a.75.75,0,0,1,.6724.4179l5.3393,10.8194,11.9409,1.7353a.75.75,0,0,1,.4156,1.2793l-8.6407,8.4248,2.0406,11.8906a.75.75,0,0,1-1.0884.791l-10.68-5.6171L15.2414,44.1779A.7494.7494,0,0,1,14.8923,44.2639Zm11.0283-7.3008a.7475.7475,0,0,1,.3491.0859l9.6836,5.0938-1.85-10.7813a.7518.7518,0,0,1,.2158-.664l7.835-7.64L31.3264,21.4846a.7476.7476,0,0,1-.5645-.41L25.92,11.2639l-4.8452,9.8105a.7485.7485,0,0,1-.565.41L9.6911,23.052l7.8345,7.6386a.752.752,0,0,1,.2158.6641L15.8889,42.1428l9.6826-5.0938A.7472.7472,0,0,1,25.9206,36.9631Z"/></svg>