<svg id="Layer_1" data-name="Layer 1" xmlns="http://www.w3.org/2000/svg" viewBox="0 0 51.8447 50.3467"><defs><style>.cls-1{fill:#f4f5f0;}.cls-2{fill:#4a984d;}</style></defs><path class="cls-1" d="M16.8317,41.4313l-6.18-4.4873a7.0893,7.0893,0,0,1-4.4643-6.545V26.7926a7.0438,7.0438,0,0,1,7.0361-7.0361H24.0646a7.0439,7.0439,0,0,1,7.0362,7.0361V30.399a7.044,7.044,0,0,1-7.0362,7.0362H15.0339ZM13.2238,20.7565a6.0432,6.0432,0,0,0-6.0361,6.0361V30.399a6.081,6.081,0,0,0,3.8857,5.6358l.1143.0625,3.19,2.3164-.89-1.9785H24.0646a6.0433,6.0433,0,0,0,6.0362-6.0362V26.7926a6.0432,6.0432,0,0,0-6.0362-6.0361Z"/><path class="cls-2" d="M40.8107,10.4239H29.97a6.5552,6.5552,0,0,0-6.536,6.536v3.6063a6.5552,6.5552,0,0,0,6.536,6.536h9.1085L37.6854,30.2,42.14,26.965a6.5613,6.5613,0,0,0,5.2066-6.3988V16.96A6.5552,6.5552,0,0,0,40.8107,10.4239Z"/><path class="cls-1" d="M36.4587,31.7086l1.8467-4.1064H29.97a7.0439,7.0439,0,0,1-7.0361-7.0362V16.96A7.0438,7.0438,0,0,1,29.97,9.9235H40.8107A7.0439,7.0439,0,0,1,47.8469,16.96V20.566a7.0729,7.0729,0,0,1-5.4976,6.8662ZM29.97,10.9235A6.0432,6.0432,0,0,0,23.9338,16.96V20.566A6.0432,6.0432,0,0,0,29.97,26.6022h9.8814l-.94,2.0888,3.1265-2.2148a6.0669,6.0669,0,0,0,4.8086-5.91V16.96a6.0432,6.0432,0,0,0-6.0362-6.0361Z"/><path class="cls-1" d="M34.6847,13.1262a1.7719,1.7719,0,0,0-.2118.5135,5.8759,5.8759,0,0,1-1.4705,3.3152c-.1645.2038-.3633.3822-.5116.5965a1.0005,1.0005,0,0,1-1.0843.5092c-.013.1213-.0326.22-.0326.3177,0,1.4029.0049,2.8058.0008,4.2086-.0005.2047.0209.3282.2687.3832a20.7,20.7,0,0,0,5.2285.4812,1.814,1.814,0,0,0,1.37-.5728.8565.8565,0,0,0,.2583-.5419.9076.9076,0,0,1,.3522-.8256.68.68,0,0,0,.1687-.9415.52.52,0,0,1,.0931-.6755.6063.6063,0,0,0,.0464-.9371c-.3051-.4219.07-.6588.2459-.9513V17.77c-.2459-.4981-.4943-1.0018-1.1543-1.0225-.7051-.0221-1.4112-.0432-2.1163-.0307-.5913.0105-.7785-.2482-.5287-.8008.0482-.1068.1107-.2071.166-.3108A1.66,1.66,0,0,0,35,13.1262Z"/><path class="cls-1" d="M18.1366,34.2607a1.5154,1.5154,0,0,0,.2084-.4755A5.8226,5.8226,0,0,1,19.7431,30.52a5.6322,5.6322,0,0,1,.7736-.887,3.84,3.84,0,0,1,.831-.4178l.1012.093q0-.1872,0-.3743c-.0017-1.3638-.0135-2.7278.0025-4.0914.0036-.3058-.1038-.38-.3862-.4431a20.39,20.39,0,0,0-4.9957-.4685,1.8932,1.8932,0,0,0-1.4879.5771,2.0874,2.0874,0,0,0-.2748.5824,2.3769,2.3769,0,0,1-.2931.7185.7842.7842,0,0,0-.2009,1.0448.4932.4932,0,0,1-.1067.6379.6108.6108,0,0,0-.0456.9383c.3064.4226-.0721.6585-.2457.9517v.2361A1.5177,1.5177,0,0,0,15.0794,30.68c.5342-.0274,1.0716.0105,1.6066-.0083.59-.0207.7779.2483.5279.7995-.043.0949-.0973.1847-.1469.2766a1.665,1.665,0,0,0,.7548,2.5128Z"/></svg>