<svg id="Layer_1" data-name="Layer 1" xmlns="http://www.w3.org/2000/svg" viewBox="0 0 300 300"><defs><style>.cls-1{fill:#f4f5f0;}.cls-2{fill:#4a984d;}.cls-3{fill:#72ae73;}</style></defs><circle class="cls-1" cx="148.42" cy="155.06" r="124.58"/><path class="cls-2" d="M148.42,36.45a118.6,118.6,0,0,1,83.87,202.47A118.6,118.6,0,1,1,64.56,71.19a117.82,117.82,0,0,1,83.86-34.74m0-6A124.59,124.59,0,1,0,273,155.06,124.59,124.59,0,0,0,148.42,30.47Z"/><path class="cls-3" d="M194.77,215.58c-8.39,0-16.79-.08-25.18,0-2.31,0-2.82-.62-2.48-2.84a23.19,23.19,0,0,1,23-20.07c3.77,0,7.56-.11,11.33.08,10.53.52,20.1,9.73,21.08,20,.2,2.15-.23,2.89-2.55,2.85C211.57,215.49,203.17,215.58,194.77,215.58Z"/><path class="cls-3" d="M194.78,160a14.75,14.75,0,1,1,.12,29.5,14.75,14.75,0,0,1-.12-29.5Z"/><path class="cls-3" d="M95.79,213.87c-8.39,0-16.79-.08-25.18,0-2.31,0-2.83-.62-2.49-2.84a23.2,23.2,0,0,1,23-20.07c3.78,0,7.57-.11,11.33.08,10.54.52,20.11,9.73,21.09,20,.2,2.15-.23,2.89-2.56,2.85C112.58,213.79,104.19,213.87,95.79,213.87Z"/><path class="cls-3" d="M95.79,158.32a14.75,14.75,0,1,1,.12,29.5,14.75,14.75,0,0,1-.12-29.5Z"/><path class="cls-2" d="M148.42,36.45a118.6,118.6,0,0,1,83.87,202.47A118.6,118.6,0,1,1,64.56,71.19a117.82,117.82,0,0,1,83.86-34.74m0-6A124.59,124.59,0,1,0,273,155.06,124.59,124.59,0,0,0,148.42,30.47Z"/><path class="cls-2" d="M148.42,36.45a118.6,118.6,0,0,1,83.87,202.47A118.6,118.6,0,1,1,64.56,71.19a117.82,117.82,0,0,1,83.86-34.74m0-6A124.59,124.59,0,1,0,273,155.06,124.59,124.59,0,0,0,148.42,30.47Z"/><path class="cls-2" d="M148.42,36.45a118.6,118.6,0,0,1,83.87,202.47A118.6,118.6,0,1,1,64.56,71.19a117.82,117.82,0,0,1,83.86-34.74m0-6A124.59,124.59,0,1,0,273,155.06,124.59,124.59,0,0,0,148.42,30.47Z"/><path class="cls-2" d="M148.42,36.45a118.6,118.6,0,0,1,83.87,202.47A118.6,118.6,0,1,1,64.56,71.19a117.82,117.82,0,0,1,83.86-34.74m0-6A124.59,124.59,0,1,0,273,155.06,124.59,124.59,0,0,0,148.42,30.47Z"/><path class="cls-3" d="M184.77,140.59c7.31-4.71,12.52-11,11.94-20.33-.49-7.84-5.07-13.37-11.38-17.44-11.89-7.66-24.89-9.1-38.53-6.27l4.8,2.26h0a3.22,3.22,0,0,0,.43,0c12-1.38,23.32.28,33.23,7.64,10.07,7.47,11.25,18.77,3.06,27.43a25.62,25.62,0,0,1-8.43,6c-2.19.95-2.24,1.83-1,3.66,1.5,2.25,2.7,4.7,4.33,7.61a272.11,272.11,0,0,1-34.33-7.65h0l-3.9,1.93h-.11a5.15,5.15,0,0,1,.75.19,156.66,156.66,0,0,0,20.1,5.36c7.48,1.59,15,3.06,23.37,4.19-2-3.63-3.53-6.76-5.48-9.58C181.94,143.21,182.28,142.18,184.77,140.59Z"/><path class="cls-2" d="M148.7,144.56l5.27-2.49h0c.34-.45.92-.5,1.33-.71a44.41,44.41,0,0,0,10.33-7c8.88-8.53,8.93-19.49.17-28.2a41.61,41.61,0,0,0-10.39-7.26l-7.13-2.54h0a3.4,3.4,0,0,1-.75-.14,43,43,0,0,0-8.66-1.49c-12.31-1-23.78,1.33-33.77,8.93-9.78,7.43-12.07,18.68-5.89,28a28.35,28.35,0,0,0,9.74,9c1.58.89,1.66,1.61.76,3.05-1.65,2.64-3.11,5.39-4.64,8.11-.38.67-1.21,1.39-.78,2.13s1.49.29,2.21.17c13.6-2.34,27.2-4.7,40.33-9.1a6,6,0,0,1,2-.35Z"/></svg>