<svg id="Layer_1" data-name="Layer 1" xmlns="http://www.w3.org/2000/svg" viewBox="0 0 300 300"><defs><style>.cls-1{fill:#f4f5f0;}.cls-2{fill:#4a984d;}.cls-3,.cls-4{fill:#72ae73;}.cls-4{stroke:#f4f5f0;stroke-miterlimit:10;stroke-width:2px;}</style></defs><circle class="cls-1" cx="148.47" cy="155.47" r="125"/><path class="cls-2" d="M148.47,36.47a119,119,0,0,1,84.14,203.15A119,119,0,0,1,64.32,71.33a118.22,118.22,0,0,1,84.15-34.86m0-6a125,125,0,1,0,125,125,125,125,0,0,0-125-125Z"/><path class="cls-2" d="M74.93,144.32c0-4,0-8.08,0-12.12,0-2.85,1.24-4.53,4-4.58,6.83-.12,13.69-.63,20.5.33a4.89,4.89,0,0,0,2.84-.73c2.23-1,5.25-1.27,6.47-3.15s.88-4.72,1.22-7.14c.29-2.07.53-4.15.88-6.21a3.87,3.87,0,0,1,4.35-3.31,3.5,3.5,0,0,1,3.29,3.84c-.2,5.4-.45,10.81-.92,16.19-.2,2.24-2,3.57-4,4.55-3.14,1.6-6.29,3.18-9.49,4.66a2.41,2.41,0,0,0-1.55,2.48c-.16,5.4.18,10.9-.76,16.18-1.84,10.4-1.41,20.9-2.24,31.33a4,4,0,0,1-4.16,3.86c-2.45.09-4.91.1-7.35,0-2.81-.12-4.15-1.67-4.27-4.92-.28-7.27-.57-14.54-.69-21.82,0-1.88-.56-2.46-2.47-2.43-4.57.06-5.74-1.22-5.74-5.76Z"/><path class="cls-2" d="M140.05,82.74c16.44,0,32.88,0,49.32,0,1.86,0,2.41.38,2.41,2.34-.09,20,0,40.1-.11,60.15,0,2,.42,3,2.55,2.55s2,.82,1.94,2.24.21,2.51-2,2.51q-42.94-.13-85.9,0c-2.27,0-1.91-1.19-2-2.55s.1-2.27,2-2.25c13.55.1,27.11,0,40.67.1,1.78,0,2.55-.41,2.21-2.23s.44-2.29,2.22-2.25c5.34.11,10.68.09,16,0,1.52,0,2.39.22,2,2-.44,2.15.53,2.61,2.55,2.52,3.82-.17,7.65-.11,11.47,0,1.36,0,1.67-.4,1.66-1.7q-.06-28.56,0-57.12c0-1.49-.51-1.77-1.86-1.77q-45.21,0-90.43,0c-1.72,0-2.06.58-2,2.12.11,2.59,0,5.19,0,7.78,0,2.28-1.65,1.21-2.63,1.35s-2,.39-2-1.33c.1-4.32.1-8.66,0-13,0-1.73,1-1.36,2-1.36Z"/><path class="cls-2" d="M101.83,112.94a10.1,10.1,0,1,1-20.19.14,10.1,10.1,0,1,1,20.19-.14Z"/><path class="cls-2" d="M143.22,100.73q-15.24,0-30.48,0c-.81,0-1.95.48-2-1.16s1.15-1.15,1.94-1.15q30.69,0,61.38,0c.72,0,1.81-.52,1.88,1s-.92,1.32-1.84,1.32Z"/><path class="cls-2" d="M151.33,107.49q-11.46,0-22.92,0c-.82,0-2,.46-1.91-1.2,0-1.46,1-1.11,1.83-1.11q22.93,0,45.85,0c.81,0,1.77-.27,1.8,1.15,0,1.66-1.14,1.17-1.94,1.17C166.47,107.5,158.9,107.49,151.33,107.49Z"/><path class="cls-2" d="M151.26,111.81c7.57,0,15.14,0,22.71,0,.76,0,2-.6,2,1.08s-1.1,1.22-1.95,1.22q-22.82,0-45.62,0c-.88,0-2,.31-1.91-1.27s1.1-1,1.84-1C136,111.8,143.62,111.81,151.26,111.81Z"/><path class="cls-3" d="M127.54,205.74c-6.35,0-12.7-.06-19.05,0-1.75,0-2.14-.47-1.88-2.15A17.55,17.55,0,0,1,124,188.44c2.86,0,5.72-.08,8.57.06,8,.39,15.21,7.36,16,15.13.16,1.62-.17,2.18-1.93,2.15C140.24,205.67,133.89,205.74,127.54,205.74Z"/><path class="cls-3" d="M127.54,163.71a11.16,11.16,0,1,1,.09,22.32,11.16,11.16,0,0,1-.09-22.32Z"/><path class="cls-3" d="M87.13,205.74c-6.35,0-12.7-.06-19,0-1.75,0-2.14-.47-1.88-2.15a17.55,17.55,0,0,1,17.39-15.19c2.86,0,5.72-.08,8.58.06,8,.39,15.2,7.36,16,15.13.15,1.62-.18,2.18-1.94,2.15C99.84,205.67,93.48,205.74,87.13,205.74Z"/><path class="cls-3" d="M87.13,163.71a11.16,11.16,0,1,1,.1,22.32,11.16,11.16,0,0,1-.1-22.32Z"/><path class="cls-3" d="M207.71,205.74c-6.35,0-12.7-.06-19.05,0-1.75,0-2.14-.47-1.88-2.15a17.55,17.55,0,0,1,17.39-15.19c2.86,0,5.72-.08,8.57.06,8,.39,15.21,7.36,15.95,15.13.16,1.62-.17,2.18-1.93,2.15C220.41,205.67,214.06,205.74,207.71,205.74Z"/><path class="cls-3" d="M207.71,163.71A11.16,11.16,0,1,1,207.8,186a11.16,11.16,0,0,1-.09-22.32Z"/><path class="cls-3" d="M167.3,205.74c-6.35,0-12.7-.06-19.05,0-1.74,0-2.14-.47-1.88-2.15a17.56,17.56,0,0,1,17.4-15.19c2.85,0,5.72-.08,8.57.06,8,.39,15.21,7.36,15.95,15.13.15,1.62-.18,2.18-1.93,2.15C180,205.67,173.65,205.74,167.3,205.74Z"/><path class="cls-3" d="M167.3,163.71a11.16,11.16,0,1,1,.1,22.32,11.16,11.16,0,0,1-.1-22.32Z"/><path class="cls-3" d="M149.72,235.32c-6.35,0-12.7-.06-19.05,0-1.75,0-2.14-.47-1.88-2.15A17.54,17.54,0,0,1,146.18,218c2.86,0,5.72-.09,8.57.05,8,.4,15.21,7.37,15.95,15.13.16,1.63-.17,2.18-1.93,2.15C162.42,235.26,156.07,235.32,149.72,235.32Z"/><path class="cls-4" d="M149.72,193.3a11.16,11.16,0,1,1,.09,22.32,11.16,11.16,0,0,1-.09-22.32Z"/><path class="cls-3" d="M109.31,235.32c-6.35,0-12.7-.06-19,0-1.75,0-2.14-.47-1.88-2.15A17.54,17.54,0,0,1,105.77,218c2.86,0,5.72-.09,8.58.05,8,.4,15.2,7.37,15.94,15.13.16,1.63-.17,2.18-1.93,2.15C122,235.26,115.66,235.32,109.31,235.32Z"/><path class="cls-4" d="M109.31,193.3a11.16,11.16,0,1,1,.09,22.32,11.16,11.16,0,0,1-.09-22.32Z"/><path class="cls-4" d="M70.72,193.3a11.16,11.16,0,1,1,.09,22.32,11.16,11.16,0,0,1-.09-22.32Z"/><path class="cls-3" d="M189.48,235.32c-6.35,0-12.7-.06-19,0-1.75,0-2.14-.47-1.88-2.15A17.54,17.54,0,0,1,185.94,218c2.86,0,5.72-.09,8.58.05,8,.4,15.2,7.37,15.95,15.13.15,1.63-.18,2.18-1.94,2.15C202.19,235.26,195.83,235.32,189.48,235.32Z"/><path class="cls-4" d="M189.48,193.3a11.16,11.16,0,1,1,.1,22.32,11.16,11.16,0,0,1-.1-22.32Z"/><path class="cls-4" d="M225.15,193.3a11.16,11.16,0,1,1,.09,22.32,11.16,11.16,0,0,1-.09-22.32Z"/><path class="cls-3" d="M70.72,235.32c6.35,0,12.7-.06,19,0,1.76,0,2.09-.53,1.93-2.15-.74-7.76-8-14.73-16-15.13-2.85-.14-5.71-.08-8.57-.05a17.45,17.45,0,0,0-14.64,7.9,119.92,119.92,0,0,0,7.68,9.38Z"/><path class="cls-3" d="M243.91,226.7a17.58,17.58,0,0,0-13.73-8.62c-2.85-.14-5.71-.08-8.57-.05a17.54,17.54,0,0,0-17.39,15.18c-.26,1.68.13,2.18,1.88,2.15,6.35-.1,12.7,0,19.05,0,3.85,0,7.71,0,11.56,0C237.86,234,241.29,230.11,243.91,226.7Z"/></svg>