<svg id="Layer_1" data-name="Layer 1" xmlns="http://www.w3.org/2000/svg" viewBox="0 0 300 300"><defs><style>.cls-1{fill:#f4f5f0;}.cls-2{fill:#4a984d;}</style></defs><circle class="cls-1" cx="148.42" cy="155.4" r="124.93"/><path class="cls-2" d="M148.42,36.47A118.92,118.92,0,1,1,64.32,71.3a118.16,118.16,0,0,1,84.1-34.83m0-6A124.93,124.93,0,1,0,273.35,155.4,124.94,124.94,0,0,0,148.42,30.47Z"/><path class="cls-2" d="M100.71,183.54a2.79,2.79,0,0,1,2.79-2.78h.66a2.79,2.79,0,1,1,0,5.57h-.66A2.79,2.79,0,0,1,100.71,183.54Zm60.38-58.65A9.28,9.28,0,0,0,164,143h25.23a9.28,9.28,0,0,0,3-18.07,2.79,2.79,0,0,0-1.79,5.28,3.7,3.7,0,0,1-1.17,7.21H164a3.7,3.7,0,0,1-1.17-7.21,2.79,2.79,0,1,0-1.78-5.28ZM119.4,206.38a2.79,2.79,0,1,0-1.78,5.28,3.7,3.7,0,0,1-1.17,7.21H91.22a3.7,3.7,0,0,1-1.17-7.21,2.79,2.79,0,1,0-1.79-5.28,9.27,9.27,0,0,0,3,18.06h25.23a9.27,9.27,0,0,0,3-18.06Zm-23.22-2.22c-5-9.75-8-16.61-8-20.62a15.7,15.7,0,0,1,31.39,0c0,4-3.08,10.87-8,20.62,0,0-1.78,3.51-1.87,3.7-.71,1.5-2.05,4.29-5.79,4.29s-5.07-2.79-5.79-4.29C98,207.67,96.18,204.16,96.18,204.16Zm-2.47-20.62c0,3.48,5.21,13.72,7.43,18.1,0,0,2.37,4.74,2.53,4.93a.2.2,0,0,0,.32,0,6.86,6.86,0,0,0,.6-1.11c.11-.23,1.93-3.82,1.93-3.82,2.23-4.38,7.44-14.61,7.44-18.1a10.13,10.13,0,0,0-20.25,0ZM207.35,89.15v20a2.78,2.78,0,0,1-2.79,2.78H179.44v12.85h2.21a2.79,2.79,0,1,1,0,5.57h-10a2.79,2.79,0,0,1,0-5.57h2.21V89.15a2.79,2.79,0,0,1,2.79-2.79h27.9A2.79,2.79,0,0,1,207.35,89.15Zm-5.57,2.78H179.44v14.4h22.34Zm-17.19,60.69H104.7a17.19,17.19,0,0,1,0-34.38h56.18a2.79,2.79,0,1,0,0-5.57H104.7a22.76,22.76,0,0,0,0,45.52h79.89a17.19,17.19,0,1,1,0,34.37H128.41a2.79,2.79,0,0,0,0,5.57h56.18a22.76,22.76,0,1,0,0-45.51Z"/></svg>