<svg id="Layer_1" data-name="Layer 1" xmlns="http://www.w3.org/2000/svg" viewBox="0 0 300 300"><defs><style>.cls-1{fill:#f4f5f0;}.cls-2{fill:#4a984d;}.cls-3{fill:none;}</style></defs><circle class="cls-1" cx="148.42" cy="155.09" r="124.62"/><path class="cls-2" d="M148.42,36.46A118.63,118.63,0,1,1,64.53,71.2a117.89,117.89,0,0,1,83.89-34.74m0-6A124.62,124.62,0,1,0,273,155.09,124.63,124.63,0,0,0,148.42,30.47Z"/><path class="cls-3" d="M158.66,119.54h0Z"/><path class="cls-3" d="M162.57,114.84c-.18,0-.35,0-.53,0q.33,0,.66,0Z"/><path class="cls-3" d="M178.27,122.35c-.17,0-.34,0-.5,0l.55,0Z"/><path class="cls-3" d="M175.14,126.82h0Z"/><path class="cls-3" d="M144.6,113.32c-.26,0-.51,0-.76,0,.26,0,.51,0,.77,0Z"/><path class="cls-3" d="M134.69,119.36h0a9.94,9.94,0,0,1,.64-1.21A9.94,9.94,0,0,0,134.69,119.36Z"/><path class="cls-3" d="M138.22,115.13a9.85,9.85,0,0,0-2.26,2.11A9.85,9.85,0,0,1,138.22,115.13Z"/><path class="cls-3" d="M135.36,129.82h0Z"/><path class="cls-3" d="M137.39,123.12a10.48,10.48,0,0,0-.24,1.63A10.48,10.48,0,0,1,137.39,123.12Z"/><path class="cls-3" d="M127.6,118.92a12,12,0,0,1,1.25.25h0A12,12,0,0,0,127.6,118.92Z"/><path class="cls-3" d="M116.61,129.88l.23,0h-.23Z"/><path class="cls-3" d="M129.57,119.26h0Z"/><path class="cls-3" d="M125.83,114.91h-.06a9.17,9.17,0,0,1,1.17.06A10.34,10.34,0,0,0,125.83,114.91Z"/><path class="cls-3" d="M125.68,184.32h.49Z"/><path class="cls-3" d="M114.33,139.45a13.11,13.11,0,0,0-2.81,4.44A13.11,13.11,0,0,1,114.33,139.45Z"/><path class="cls-3" d="M126.77,188.17h0Z"/><path class="cls-3" d="M125.68,188.13c-.43,0-.89,0-1.4,0C124.79,188.09,125.25,188.11,125.68,188.13Z"/><path class="cls-3" d="M123.11,135.51a13.07,13.07,0,0,0-7.9,3.11A13.07,13.07,0,0,1,123.11,135.51Z"/><path class="cls-3" d="M127.26,160.18h0Z"/><path class="cls-3" d="M124.28,188.09c-.09,1.3-.24,2.49-.25,3.68C124,190.58,124.19,189.39,124.28,188.09Z"/><path class="cls-3" d="M133.35,146.83c-.61,0-1.23,0-1.85,0,.67,0,1.33,0,2,0Z"/><path class="cls-3" d="M124.05,200.63c0,3,0,5.91-.11,8.86C124,206.54,124.05,203.58,124.05,200.63Z"/><path class="cls-3" d="M127.33,188.15a4.52,4.52,0,0,0,.75-.13,3.66,3.66,0,0,0,.62-.25,3.66,3.66,0,0,1-.62.25A4.52,4.52,0,0,1,127.33,188.15Z"/><path class="cls-3" d="M123.07,162.7c-.16.17-.32.35-.47.53.48.14,1,.33,1.44.49-.48-.16-1-.35-1.44-.49C122.75,163.05,122.91,162.87,123.07,162.7Z"/><path class="cls-3" d="M120.14,211.22c0-.46,0-.94,0-1.39C120.16,210.28,120.12,210.76,120.14,211.22Z"/><path class="cls-3" d="M191.44,106.71A66,66,0,0,0,144.66,87.3,66,66,0,0,1,191.44,106.71Z"/><path class="cls-3" d="M136.39,150.61h0Z"/><path class="cls-3" d="M131.84,131.75l-6.81,0,7.06,0Z"/><path class="cls-3" d="M132.61,161l1.59.36Z"/><path class="cls-3" d="M120.15,199c0-3.51,0-7.06,0-10.71C120.16,191.9,120.15,195.45,120.15,199Z"/><path class="cls-2" d="M115.1,127.38a1.69,1.69,0,0,0,0,.23v.31a.66.66,0,0,0,0,.14v.17a.62.62,0,0,1,0,.13c0,.06,0,.12,0,.18s0,.07,0,.1a1.86,1.86,0,0,0,0,.27v0a1.43,1.43,0,0,0,.08.22l0,.08.09.14.06.08.11.11.08.06.14.08.1.05.17.06.13,0,.21,0H117c.15,0,.31,0,.49-.08h0a.6.6,0,0,0,.24-.14,1.3,1.3,0,0,0,.22-.28,7.74,7.74,0,0,0,.81-3c0-.33.06-.65.11-1a2.93,2.93,0,0,1,0-.29c0-.21.08-.42.13-.62s0-.21.08-.31.11-.37.17-.55.07-.2.11-.29a4.41,4.41,0,0,1,.24-.54,1.6,1.6,0,0,1,.1-.23c.13-.24.26-.48.4-.7l.06-.08c.13-.19.27-.37.41-.55l.17-.19c.12-.13.24-.26.36-.37l.21-.2.38-.31L122,120a4.43,4.43,0,0,1,.46-.29,1.18,1.18,0,0,1,.19-.11,5.42,5.42,0,0,1,.69-.32l.16,0a5.8,5.8,0,0,1,.59-.19l.27-.07.52-.1.31,0,.54,0,.3,0h.34c.3,0,.6,0,.91.07l.35,0a12,12,0,0,1,1.25.25h0a3.51,3.51,0,0,0,.66.08h.1a4,4,0,0,0,.6-.05l.14,0,.57-.1h.14l.47-.1.18,0c.22,0,.44-.08.65-.11a14.21,14.21,0,0,1-.92-1.37c-.1-.15-.2-.31-.31-.46a5.36,5.36,0,0,0-.65-.81,2.18,2.18,0,0,0-.62-.45l-.14-.08h0a11.33,11.33,0,0,0-1.21-.39l-.34-.08c-.31-.07-.62-.12-.93-.17l-.3,0a9.17,9.17,0,0,0-1.17-.06h-.27c-.31,0-.61,0-.92.07l-.4.06-.77.16-.4.11a6.81,6.81,0,0,0-.76.26l-.34.13a9.63,9.63,0,0,0-1,.5h0c-.33.19-.66.41-1,.64l-.29.22c-.21.17-.42.34-.62.53s-.21.19-.31.29-.37.38-.55.58a4.15,4.15,0,0,0-.27.32c-.2.23-.38.48-.56.73,0,.09-.11.16-.17.25-.22.34-.43.7-.62,1.07,0,.09-.08.18-.13.27-.14.29-.27.58-.39.89l-.15.42c-.09.28-.18.55-.26.84l-.12.46c-.07.3-.13.61-.18.91,0,.15-.05.29-.07.44-.06.45-.1.91-.12,1.39h0a2.45,2.45,0,0,1,0,.27v.1a1.27,1.27,0,0,1,0,.2v.33Z"/><path class="cls-3" d="M115.1,127.38a1.69,1.69,0,0,0,0,.23v.31a.66.66,0,0,0,0,.14v.17a.62.62,0,0,1,0,.13c0,.06,0,.12,0,.18s0,.07,0,.1a1.86,1.86,0,0,0,0,.27v0a1.43,1.43,0,0,0,.08.22l0,.08.09.14.06.08.11.11.08.06.14.08.1.05.17.06.13,0,.21,0h.19l.23,0H117c.15,0,.31,0,.49-.08h0a.6.6,0,0,0,.24-.14,1.3,1.3,0,0,0,.22-.28,7.74,7.74,0,0,0,.81-3c0-.33.06-.65.11-1a2.93,2.93,0,0,1,0-.29c0-.21.08-.42.13-.62s0-.21.08-.31.11-.37.17-.55.07-.2.11-.29a4.41,4.41,0,0,1,.24-.54,1.6,1.6,0,0,1,.1-.23c.13-.24.26-.48.4-.7l.06-.08c.13-.19.27-.37.41-.55l.17-.19c.12-.13.24-.26.36-.37l.21-.2.38-.31L122,120a4.43,4.43,0,0,1,.46-.29,1.18,1.18,0,0,1,.19-.11,5.42,5.42,0,0,1,.69-.32l.16,0a5.8,5.8,0,0,1,.59-.19l.27-.07.52-.1.31,0,.54,0,.3,0h.34c.3,0,.6,0,.91.07l.35,0a12,12,0,0,1,1.25.25h0a3.51,3.51,0,0,0,.66.08h.1a4,4,0,0,0,.6-.05l.14,0,.57-.1h.14l.47-.1.18,0c.22,0,.44-.08.65-.11a14.21,14.21,0,0,1-.92-1.37c-.1-.15-.2-.31-.31-.46a5.36,5.36,0,0,0-.65-.81,2.18,2.18,0,0,0-.62-.45l-.14-.08h0a11.33,11.33,0,0,0-1.21-.39l-.34-.08c-.31-.07-.62-.12-.93-.17l-.3,0a10.34,10.34,0,0,0-1.11-.07h-.33c-.31,0-.61,0-.92.07l-.4.06-.77.16-.4.11a6.81,6.81,0,0,0-.76.26l-.34.13a9.63,9.63,0,0,0-1,.5h0c-.33.19-.66.41-1,.64l-.29.22c-.21.17-.42.34-.62.53s-.21.19-.31.29-.37.38-.55.58a4.15,4.15,0,0,0-.27.32c-.2.23-.38.48-.56.73,0,.09-.11.16-.17.25-.22.34-.43.7-.62,1.07,0,.09-.08.18-.13.27-.14.29-.27.58-.39.89l-.15.42c-.09.28-.18.55-.26.84l-.12.46c-.07.3-.13.61-.18.91,0,.15-.05.29-.07.44-.06.45-.1.91-.12,1.39h0a2.45,2.45,0,0,1,0,.27v.1a1.27,1.27,0,0,1,0,.2v.33Z"/><path class="cls-3" d="M115.1,127.38a1.69,1.69,0,0,0,0,.23v.31a.66.66,0,0,0,0,.14v.17a.62.62,0,0,1,0,.13c0,.06,0,.12,0,.18s0,.07,0,.1a1.86,1.86,0,0,0,0,.27v0a1.43,1.43,0,0,0,.08.22l0,.08.09.14.06.08.11.11.08.06.14.08.1.05.17.06.13,0,.21,0h.19l.23,0H117c.15,0,.31,0,.49-.08h0a.6.6,0,0,0,.24-.14,1.3,1.3,0,0,0,.22-.28,7.74,7.74,0,0,0,.81-3c0-.33.06-.65.11-1a2.93,2.93,0,0,1,0-.29c0-.21.08-.42.13-.62s0-.21.08-.31.11-.37.17-.55.07-.2.11-.29a4.41,4.41,0,0,1,.24-.54,1.6,1.6,0,0,1,.1-.23c.13-.24.26-.48.4-.7l.06-.08c.13-.19.27-.37.41-.55l.17-.19c.12-.13.24-.26.36-.37l.21-.2.38-.31L122,120a4.43,4.43,0,0,1,.46-.29,1.18,1.18,0,0,1,.19-.11,5.42,5.42,0,0,1,.69-.32l.16,0a5.8,5.8,0,0,1,.59-.19l.27-.07.52-.1.31,0,.54,0,.3,0h.34c.3,0,.6,0,.91.07l.35,0a12,12,0,0,1,1.25.25h0a3.51,3.51,0,0,0,.66.08h.1a4,4,0,0,0,.6-.05l.14,0,.57-.1h.14l.47-.1.18,0c.22,0,.44-.08.65-.11a14.21,14.21,0,0,1-.92-1.37c-.1-.15-.2-.31-.31-.46a5.36,5.36,0,0,0-.65-.81,2.18,2.18,0,0,0-.62-.45l-.14-.08h0a11.33,11.33,0,0,0-1.21-.39l-.34-.08c-.31-.07-.62-.12-.93-.17l-.3,0a10.34,10.34,0,0,0-1.11-.07h-.33c-.31,0-.61,0-.92.07l-.4.06-.77.16-.4.11a6.81,6.81,0,0,0-.76.26l-.34.13a9.63,9.63,0,0,0-1,.5h0c-.33.19-.66.41-1,.64l-.29.22c-.21.17-.42.34-.62.53s-.21.19-.31.29-.37.38-.55.58a4.15,4.15,0,0,0-.27.32c-.2.23-.38.48-.56.73,0,.09-.11.16-.17.25-.22.34-.43.7-.62,1.07,0,.09-.08.18-.13.27-.14.29-.27.58-.39.89l-.15.42c-.09.28-.18.55-.26.84l-.12.46c-.07.3-.13.61-.18.91,0,.15-.05.29-.07.44-.06.45-.1.91-.12,1.39h0a2.45,2.45,0,0,1,0,.27v.1a1.27,1.27,0,0,1,0,.2v.33Z"/><path class="cls-3" d="M175.7,155.3h0Z"/><path class="cls-3" d="M178.23,159.46a7.55,7.55,0,0,0,.83-.05,7.92,7.92,0,0,1-.85.05Z"/><path class="cls-3" d="M162.65,159.47l.39,0c-.22,0-.45,0-.67,0Z"/><path class="cls-3" d="M171.72,150.57c.19-4.4,0-8.82,0-13.22C171.75,141.75,171.91,146.17,171.72,150.57Z"/><path class="cls-3" d="M159.42,155.07h0Z"/><path class="cls-3" d="M162.57,114.84c-.18,0-.35,0-.53,0q.33,0,.66,0Z"/><path class="cls-3" d="M158.66,119.54h0Z"/><path class="cls-3" d="M175.33,158.9a1.82,1.82,0,0,1-.68-.5A1.82,1.82,0,0,0,175.33,158.9Z"/><path class="cls-3" d="M166.33,208.52c-.06-3.31-.07-6.63-.07-10C166.26,201.89,166.27,205.21,166.33,208.52Z"/><path class="cls-3" d="M163.26,188.13h.33c-.27,0-.52,0-.77,0Z"/><path class="cls-3" d="M181.84,158.5a5.15,5.15,0,0,0,.58-.37,5.87,5.87,0,0,1-.59.37Z"/><path class="cls-3" d="M175.14,126.82h0Z"/><path class="cls-3" d="M186,146.17c0,1.76,0,3.51-.08,5.26C186,149.68,186,147.93,186,146.17Z"/><path class="cls-3" d="M178.27,122.35c-.17,0-.34,0-.5,0l.55,0Z"/><path class="cls-3" d="M186,132.76c0,2.71-.06,5.43-.06,8.15C186,138.19,186.05,135.47,186,132.76Z"/><path class="cls-3" d="M175.7,153.81a3.71,3.71,0,0,1,.83.08,7.08,7.08,0,0,0,1.55.2c1.28,0,2.48-.38,2.53-3.07.1-6.13.11-12.67,0-20-.05-3.23-1.62-3.23-2.37-3.23a7,7,0,0,0-2,.36,3.76,3.76,0,0,1-1.08.16,7.89,7.89,0,0,1-1.81-.27c0,1.73,0,3.45,0,5.15,0,1.38,0,2.76,0,4.15s0,2.73,0,4.1c0,3,.07,6.11-.07,9.19a11,11,0,0,1-.87,3.81l.42-.07c.27,0,.57-.13.89-.22A8.21,8.21,0,0,1,175.7,153.81Z"/><path class="cls-3" d="M134.69,119.36h0a9.94,9.94,0,0,1,.64-1.21A9.94,9.94,0,0,0,134.69,119.36Z"/><path class="cls-3" d="M144.6,113.32c-.26,0-.51,0-.76,0,.26,0,.51,0,.77,0Z"/><path class="cls-3" d="M138.22,115.13a9.85,9.85,0,0,0-2.26,2.11A9.85,9.85,0,0,1,138.22,115.13Z"/><path class="cls-3" d="M135.36,129.82h0Z"/><path class="cls-3" d="M149.22,158.37a10.53,10.53,0,0,0,4.6-3.84A10.53,10.53,0,0,1,149.22,158.37Z"/><path class="cls-3" d="M144.38,159.48h.21a8.44,8.44,0,0,1-1.23-.05A8.72,8.72,0,0,0,144.38,159.48Z"/><path class="cls-3" d="M137.39,123.12a10.48,10.48,0,0,0-.24,1.63A10.48,10.48,0,0,1,137.39,123.12Z"/><path class="cls-3" d="M138.07,130.28l1.93,0a10.77,10.77,0,0,1,10.48,8.17c0-4.79,0-9.36-.11-13.79-.06-3.68-2.39-6.16-5.79-6.16h-.06c-3.34,0-5.59,2.46-5.88,6.33a6.56,6.56,0,0,0,.11,1.29c.18,1.3.4,2.91-.63,4.09A.1.1,0,0,1,138.07,130.28Z"/><path class="cls-3" d="M159.42,153.58a3.29,3.29,0,0,1,1,.15,7.64,7.64,0,0,0,2.26.38c2.3,0,3.61-1.4,3.69-4,.24-8.45.29-17.09.12-25.69,0-2.6-1.54-4.22-3.9-4.22a6.41,6.41,0,0,0-2.41.51,4.05,4.05,0,0,1-1.53.27,11.17,11.17,0,0,1-1.56-.14c-.21,0-.42-.06-.61-.08a16.1,16.1,0,0,1,.58,4.14c0,2.79,0,5.62,0,8.35,0,1.07,0,2.13,0,3.2,0,1.29,0,2.58,0,3.86,0,2.75,0,5.59,0,8.39a12.78,12.78,0,0,1-1.39,5.62l.71-.13c.27-.05.59-.15.93-.25A7.67,7.67,0,0,1,159.42,153.58Z"/><path class="cls-3" d="M170.52,154.77c.13-.23.25-.47.36-.71a7.92,7.92,0,0,1-.37.71Z"/><path class="cls-3" d="M133.53,117.9l.14.17a11.78,11.78,0,0,1,2-2.72,12.44,12.44,0,0,1,9-3.53h0a11.89,11.89,0,0,1,10.64,6c.05-.11.1-.23.16-.35a5.58,5.58,0,0,1,2.11-2.83,10.42,10.42,0,0,1,5-1.31h0a10.77,10.77,0,0,1,10.5,9.2,3.34,3.34,0,0,1,.67-.5,9.33,9.33,0,0,1,4.53-1.2c4.87,0,8.8,3.91,9.13,9.1.16,2.55.12,5.12.08,7.61l0,1.85h0v1.5c0,1.08,0,2.16,0,3.24,0,2.41.06,4.9-.06,7.36a10,10,0,0,1-4.82,8.28l.39.65a9,9,0,0,0,.53.77,5.1,5.1,0,0,1,1.3,2.8c.19,4.29.14,8.64.07,12.33-.18,8.42-4,13.24-13.52,16.92v4.49c0,4.8,0,9.74,0,14.65a64.7,64.7,0,1,0-52.58.36c0-4.92,0-9.78,0-14.91v-4.63c-6.82-2-10.92-5.82-12.54-11.63a28.88,28.88,0,0,1-.91-7.4c-.09-7.09-.07-14.29,0-21.26v-2.88c0-12,7.79-19.71,19.76-19.77,2.27,0,4.55,0,6.82,0h.81l0,0c-1-1.21-.79-2.87-.6-4.21a7.22,7.22,0,0,0,.12-1.17,15,15,0,0,1,.63-4.55l-.23,0a8.66,8.66,0,0,0-1,.18,10.19,10.19,0,0,1-2,.26,4.32,4.32,0,0,1-1.11-.14,8.9,8.9,0,0,0-2.33-.33c-3.42,0-5.62,2.32-5.88,6.19,0,.44-.35,4.3-2.44,4.75a5.34,5.34,0,0,1-1.2.14,2.91,2.91,0,0,1-2.15-.81,4.22,4.22,0,0,1-.86-3.17c0-.28,0-.56,0-.75v-.2c.23-7.42,5.5-13,12.25-13a12.06,12.06,0,0,1,4.43.85,5.74,5.74,0,0,1,2.58,2.62A10.34,10.34,0,0,0,133.53,117.9Z"/><path class="cls-3" d="M144.63,154.18a5.54,5.54,0,0,0,2.47-.6,5.74,5.74,0,0,0,3.32-5.53c0-1.4,0-2.76,0-4.12a10.66,10.66,0,0,1-9.84,8c-.93.06-1.92.09-2.93.11a5.64,5.64,0,0,1,2.85.69A7.87,7.87,0,0,0,144.63,154.18Z"/><path class="cls-3" d="M170.46,154.88h0a.93.93,0,0,1-.05.1Z"/><path class="cls-3" d="M115.1,127.38a1.69,1.69,0,0,0,0,.23v.31a.66.66,0,0,0,0,.14v.17a.62.62,0,0,1,0,.13c0,.06,0,.12,0,.18s0,.07,0,.1a1.86,1.86,0,0,0,0,.27v0a1.43,1.43,0,0,0,.08.22l0,.08.09.14.06.08.11.11.08.06.14.08.1.05.17.06.13,0,.21,0h.19l.23,0H117c.15,0,.31,0,.49-.08h0a.6.6,0,0,0,.24-.14,1.3,1.3,0,0,0,.22-.28,7.74,7.74,0,0,0,.81-3c0-.33.06-.65.11-1a2.93,2.93,0,0,1,0-.29c0-.21.08-.42.13-.62s0-.21.08-.31.11-.37.17-.55.07-.2.11-.29a4.41,4.41,0,0,1,.24-.54,1.6,1.6,0,0,1,.1-.23c.13-.24.26-.48.4-.7l.06-.08c.13-.19.27-.37.41-.55l.17-.19c.12-.13.24-.26.36-.37l.21-.2.38-.31L122,120a4.43,4.43,0,0,1,.46-.29,1.18,1.18,0,0,1,.19-.11,5.42,5.42,0,0,1,.69-.32l.16,0a5.8,5.8,0,0,1,.59-.19l.27-.07.52-.1.31,0,.54,0,.3,0h.34c.3,0,.6,0,.91.07l.35,0a12,12,0,0,1,1.25.25h0a3.51,3.51,0,0,0,.66.08h.1a4,4,0,0,0,.6-.05l.14,0,.57-.1h.14l.47-.1.18,0c.22,0,.44-.08.65-.11a14.21,14.21,0,0,1-.92-1.37c-.1-.15-.2-.31-.31-.46a5.36,5.36,0,0,0-.65-.81,2.18,2.18,0,0,0-.62-.45l-.14-.08h0a11.33,11.33,0,0,0-1.21-.39l-.34-.08c-.31-.07-.62-.12-.93-.17l-.3,0a10.34,10.34,0,0,0-1.11-.07h-.33c-.31,0-.61,0-.92.07l-.4.06-.77.16-.4.11a6.81,6.81,0,0,0-.76.26l-.34.13a9.63,9.63,0,0,0-1,.5h0c-.33.19-.66.41-1,.64l-.29.22c-.21.17-.42.34-.62.53s-.21.19-.31.29-.37.38-.55.58a4.15,4.15,0,0,0-.27.32c-.2.23-.38.48-.56.73,0,.09-.11.16-.17.25-.22.34-.43.7-.62,1.07,0,.09-.08.18-.13.27-.14.29-.27.58-.39.89l-.15.42c-.09.28-.18.55-.26.84l-.12.46c-.07.3-.13.61-.18.91,0,.15-.05.29-.07.44-.06.45-.1.91-.12,1.39h0a2.45,2.45,0,0,1,0,.27v.1a1.27,1.27,0,0,1,0,.2v.33Z"/><path class="cls-3" d="M155.59,130.74c0,1.92,0,3.84,0,5.76s0,4.07,0,6.11c0-2,0-4.07,0-6.11S155.58,132.66,155.59,130.74Z"/><path class="cls-3" d="M164.05,184.37l-.73,0,.9,0Z"/><path class="cls-3" d="M125.68,184.32h.49Z"/><path class="cls-3" d="M125.68,188.13c-.43,0-.89,0-1.4,0C124.79,188.09,125.25,188.11,125.68,188.13Z"/><path class="cls-3" d="M126.77,188.17h0Z"/><path class="cls-3" d="M127.33,188.15a4.52,4.52,0,0,0,.75-.13,3.66,3.66,0,0,0,.62-.25,3.66,3.66,0,0,1-.62.25A4.52,4.52,0,0,1,127.33,188.15Z"/><path class="cls-3" d="M124.28,188.09c-.09,1.3-.24,2.49-.25,3.68C124,190.58,124.19,189.39,124.28,188.09Z"/><path class="cls-3" d="M133.35,146.83c-.61,0-1.23,0-1.85,0,.67,0,1.33,0,2,0Z"/><path class="cls-3" d="M114.33,139.45a13.11,13.11,0,0,0-2.81,4.44A13.11,13.11,0,0,1,114.33,139.45Z"/><path class="cls-3" d="M127.26,160.18h0Z"/><path class="cls-3" d="M123.11,135.51a13.07,13.07,0,0,0-7.9,3.11A13.07,13.07,0,0,1,123.11,135.51Z"/><path class="cls-3" d="M182.06,179.41a16.89,16.89,0,0,0,1.44-7c0-1.53.06-3.06.06-4.6,0,1.54,0,3.07-.06,4.6A16.89,16.89,0,0,1,182.06,179.41Z"/><path class="cls-3" d="M171.18,183.88a12.05,12.05,0,0,0,2.29-.87A12.05,12.05,0,0,1,171.18,183.88Z"/><path class="cls-3" d="M149.78,169.11a3.42,3.42,0,0,1,1.83-2.88c.7-.47,1.41-.9,2.13-1.32-.72.42-1.43.85-2.13,1.32A3.42,3.42,0,0,0,149.78,169.11Z"/><path class="cls-3" d="M160.29,165.13c-.72.43-1.45.84-2.18,1.25.73-.41,1.46-.82,2.18-1.25a6.81,6.81,0,0,0,1.52-1.47A6.81,6.81,0,0,1,160.29,165.13Z"/><path class="cls-3" d="M137.21,161.68a18.89,18.89,0,0,1,6.95,4.94A18.89,18.89,0,0,0,137.21,161.68Z"/><path class="cls-3" d="M123.07,162.7c-.16.17-.32.35-.47.53.48.14,1,.33,1.44.49-.48-.16-1-.35-1.44-.49C122.75,163.05,122.91,162.87,123.07,162.7Z"/><path class="cls-3" d="M124.05,200.63c0,3,0,5.91-.11,8.86C124,206.54,124.05,203.58,124.05,200.63Z"/><path class="cls-3" d="M120.14,211.22c0-.46,0-.94,0-1.39C120.16,210.28,120.12,210.76,120.14,211.22Z"/><path class="cls-3" d="M191.44,106.71A66,66,0,0,0,144.66,87.3,66,66,0,0,1,191.44,106.71Z"/><path class="cls-3" d="M120.15,199c0-3.51,0-7.06,0-10.71C120.16,191.9,120.15,195.45,120.15,199Z"/><path class="cls-3" d="M179.92,163.77a12.22,12.22,0,0,1,1.78-2.56A12.22,12.22,0,0,0,179.92,163.77Z"/><path class="cls-3" d="M178.24,178.41a14.49,14.49,0,0,0,1.62-6.6A14.49,14.49,0,0,1,178.24,178.41Z"/><path class="cls-3" d="M170,210.9a66.88,66.88,0,0,0,10.73-5.65A66.88,66.88,0,0,1,170,210.9Z"/><path class="cls-3" d="M151.3,173a8.75,8.75,0,0,1-.26,1.6A8.75,8.75,0,0,0,151.3,173Z"/><path class="cls-3" d="M131.84,131.75l-6.81,0,7.06,0Z"/><path class="cls-3" d="M134.2,161.38a22.87,22.87,0,0,1,6.85,2.71A22.87,22.87,0,0,0,134.2,161.38Z"/><path class="cls-3" d="M160,162.24h0Z"/><path class="cls-3" d="M132.61,161l1.59.36Z"/><path class="cls-3" d="M136.39,150.61h0Z"/><path class="cls-3" d="M146.08,148.26a9.47,9.47,0,0,1-5.57,2.23A9.47,9.47,0,0,0,146.08,148.26Z"/><path class="cls-2" d="M155.59,130.74h0c0-1.92,0-3.84,0-5.76a14,14,0,0,0-.68-4.25l-1.25-.06.74-1.26a10,10,0,0,0-.61-1.17,10.39,10.39,0,0,0-9.16-4.91c-.26,0-.51,0-.77,0l-.44,0c-.26,0-.51.07-.76.1s-.27,0-.39.06c-.29,0-.56.12-.83.19l-.27.07c-.31.09-.6.19-.89.3l-.15,0c-.3.12-.59.26-.88.41l-.1,0q-.47.25-.9.54h0a9.85,9.85,0,0,0-2.26,2.11l0,0c-.2.27-.39.54-.57.83l0,.05a9.94,9.94,0,0,0-.64,1.21l.52.65-.83.1h0a8.79,8.79,0,0,0-.32,1l0,0c-.06.22-.1.45-.14.68s-.07.31-.1.47a.13.13,0,0,1,0,.06,13.55,13.55,0,0,0-.16,2.42,27.8,27.8,0,0,0-.26,3.5,3.4,3.4,0,0,0,.07.34,1.81,1.81,0,0,0,.2.42,1.33,1.33,0,0,0,.53.49,2.29,2.29,0,0,0,1,.24h.46l.26,0,.25,0,.21-.05.2-.09.16-.08a.61.61,0,0,0,.16-.12l.12-.1a.83.83,0,0,0,.11-.15.94.94,0,0,0,.09-.12,1.42,1.42,0,0,0,.08-.18l.06-.14c0-.06,0-.13.05-.2l0-.15c0-.07,0-.15,0-.22s0-.1,0-.16v-.4c0-.09,0-.18,0-.27a.76.76,0,0,1,0-.15c0-.09,0-.19,0-.29s0-.09,0-.13c0-.29-.08-.57-.11-.84l0-.2a1.49,1.49,0,0,0,0-.21,1.7,1.7,0,0,1,0-.22.92.92,0,0,1,0-.16v-.28a.19.19,0,0,1,0-.08,10.48,10.48,0,0,1,.24-1.63,9.68,9.68,0,0,1,.77-2.16,7.25,7.25,0,0,1,2.26-2.66A7,7,0,0,1,144.5,117h.08l.36,0h.37l.38.05.36,0,.37.09.34.08.35.12a3,3,0,0,1,.32.12,3.49,3.49,0,0,1,.34.15l.3.14.32.19.28.17.3.23.25.19.29.26.23.21c.09.09.17.19.26.29s.14.15.2.24a3.71,3.71,0,0,1,.23.32c.06.09.13.17.18.25s.14.24.21.36.11.18.15.27.12.26.18.39.09.19.13.29.09.27.14.41.07.2.1.31.07.3.11.45.05.21.07.31.05.34.08.52,0,.19,0,.29,0,.43,0,.65c0,.06,0,.13,0,.19q.1,5.85.1,11.7t-.06,11.71a7.19,7.19,0,0,1-3.73,6.61l-.43.25h0a6.27,6.27,0,0,1-1,.38l-.28.09c-.23.06-.46.12-.68.16l-.28.05a6.36,6.36,0,0,1-.86.07h-.06a8.48,8.48,0,0,1-.87-.06l-.19,0a8.23,8.23,0,0,1-.86-.19l-.14,0-.78-.27-.14-.06a9.28,9.28,0,0,1-.85-.39l-.19-.1c-.29-.15-.57-.31-.86-.49h0a2.63,2.63,0,0,0-.69-.28,23.83,23.83,0,0,0-3-.29c0,.09.08.19.11.28s.17.45.25.68c.17.5.33,1,.53,1.46a2.87,2.87,0,0,0,.79,1.13,10.4,10.4,0,0,0,1.2.84l.21.14a12.16,12.16,0,0,0,1.19.61l.24.1a9.22,9.22,0,0,0,1.25.43h.07a10.6,10.6,0,0,0,1.25.24l.21,0a8.44,8.44,0,0,0,1.23.05l.46,0c.31,0,.61-.05.92-.1l.49-.08c.32-.06.63-.15.95-.24l.44-.12a12.86,12.86,0,0,0,1.37-.53,10.53,10.53,0,0,0,4.6-3.84c.15-.23.29-.47.42-.71a11.24,11.24,0,0,0,1.3-5.11c.06-2,.07-4.07.06-6.1s0-4.07,0-6.11S155.58,132.66,155.59,130.74Z"/><path class="cls-2" d="M170.11,127.56l1.18-2c.15-.25.29-.57.45-.9,0-.3,0-.61,0-.91h0a8.45,8.45,0,0,0-.14-1.14,3.4,3.4,0,0,0-.07-.34c-.05-.26-.12-.52-.19-.78,0-.11-.07-.22-.1-.33a8.09,8.09,0,0,0-.34-.86l-.06-.15a10.18,10.18,0,0,0-.5-.92l-.16-.26c-.14-.21-.29-.41-.44-.61l-.21-.27c-.18-.2-.36-.4-.54-.58l-.16-.17a9.45,9.45,0,0,0-.77-.65l-.22-.16c-.2-.15-.41-.29-.62-.42l-.29-.17c-.22-.12-.45-.23-.67-.33l-.25-.11a9.52,9.52,0,0,0-.94-.34l-.2,0a6.93,6.93,0,0,0-.79-.17l-.32,0-.74-.07h-.29q-.33,0-.66,0l-.47,0c-.23,0-.45.07-.68.11l-.44.09c-.25.06-.5.15-.75.23l-.36.12a9.76,9.76,0,0,0-1.09.51,2.51,2.51,0,0,0-.91,1c-.42.71-.73,1.61-1.15,2.32l.57,0,.2,0,.44.06.62.08h.1l.44,0h.16l.33,0,.15,0a2.26,2.26,0,0,0,.43-.11h0a7.94,7.94,0,0,1,.77-.28l.26-.06a4.77,4.77,0,0,1,.51-.13l.31-.05c.15,0,.3,0,.45-.06l.32,0,.33,0h.06a6,6,0,0,1,1,.08l.21,0a5,5,0,0,1,.78.23l.14,0a5.36,5.36,0,0,1,.79.41l.18.12a4.31,4.31,0,0,1,.62.51l.09.08a5.06,5.06,0,0,1,.57.71l.12.19a6.13,6.13,0,0,1,.41.81l0,.07a6,6,0,0,1,.28,1c0,.09,0,.17,0,.26a8.16,8.16,0,0,1,.11,1.14q.12,6.44.09,12.88t-.22,12.88a7.73,7.73,0,0,1-.11,1.11c0,.08,0,.16,0,.23a5.62,5.62,0,0,1-.26,1l0,.11a5.68,5.68,0,0,1-.37.74,1.4,1.4,0,0,0-.1.16,5,5,0,0,1-.53.67l-.12.11a4.51,4.51,0,0,1-.59.47l-.12.08a3.86,3.86,0,0,1-.76.38l-.18.07a5.05,5.05,0,0,1-.81.21l-.08,0a7.15,7.15,0,0,1-.94.08h-.33l-.28,0a3.42,3.42,0,0,1-.44,0l-.27,0-.51-.1-.23,0-.76-.21a1.68,1.68,0,0,0-.5-.07h-.13a4.12,4.12,0,0,0-.59.07h-.07l-.59.15-.15.05-.13,0-.38.12-.15,0c-.22.06-.44.12-.66.16.73,1,1.24,2.4,2.21,2.87h0a8,8,0,0,0,1,.42l.35.1.69.18.41.07.64.08.42,0c.22,0,.45,0,.67,0l.32,0a6.94,6.94,0,0,0,.9-.12h.08c.32-.07.64-.15.95-.25l.28-.1.65-.26.3-.14c.22-.11.43-.22.64-.35a1.71,1.71,0,0,0,.23-.13q.42-.27.81-.57l.12-.11a8.24,8.24,0,0,0,.62-.56l.23-.23c.16-.17.31-.35.46-.53l.2-.25c.17-.22.32-.45.47-.68a1.63,1.63,0,0,1,.11-.17.93.93,0,0,0,.05-.1l-.06-.08.11,0a7.92,7.92,0,0,0,.37-.71,1.86,1.86,0,0,0,.1-.25c.1-.24.19-.48.28-.73s.06-.23.1-.34.12-.49.17-.74.05-.22.07-.33c.05-.36.1-.73.12-1.1.19-4.4,0-8.82,0-13.22,0-2.25.06-4.5.08-6.74v-.05c0-.92,0-1.85,0-2.78Z"/><path class="cls-2" d="M181,158.92c.2-.08.4-.18.59-.27l.06,0,.15-.23.06.11a5.87,5.87,0,0,0,.59-.37l.17-.12.49-.4.21-.19c.14-.13.27-.27.4-.41l.2-.22c.13-.15.26-.32.38-.49a1.33,1.33,0,0,0,.14-.19c.16-.24.32-.49.46-.75l.06-.13a7,7,0,0,0,.31-.68c0-.09.07-.18.11-.28s.14-.39.2-.59l.09-.32c.05-.21.09-.43.13-.65l.06-.29c0-.32.08-.65.1-1,.09-1.75.09-3.5.08-5.26s0-3.51,0-5.26h0c0-2.72.1-5.44.06-8.15,0-.91,0-1.81-.1-2.72h0a7.88,7.88,0,0,0-.12-1c0-.1,0-.19-.06-.29s-.1-.46-.16-.68l-.09-.29c-.09-.27-.19-.54-.3-.79l0-.08c-.13-.28-.27-.54-.42-.8l-.14-.22c-.12-.19-.24-.36-.37-.53l-.17-.22a6.66,6.66,0,0,0-.5-.56l-.09-.09a6.75,6.75,0,0,0-.64-.56l-.2-.14a5.91,5.91,0,0,0-.52-.35l-.23-.14c-.2-.11-.41-.22-.62-.31l-.14-.07a7.58,7.58,0,0,0-.8-.28l-.21,0c-.21-.06-.42-.1-.63-.14l-.27,0-.68,0h-.19l-.55,0-.41,0c-.2,0-.39.07-.59.11l-.38.07c-.22.06-.44.14-.66.22l-.31.1a10.35,10.35,0,0,0-1,.45,1.39,1.39,0,0,0-.31.23,12.31,12.31,0,0,0-1.54,2.71l0,.07h0l.58.11.17,0,.45.1h0l.08,0,.51.1.14,0a4.93,4.93,0,0,0,.54,0h.1a2,2,0,0,0,.59-.08h0a10.8,10.8,0,0,1,1.22-.3l.11,0a6.48,6.48,0,0,1,1-.09h.14a4.56,4.56,0,0,1,.76.07l.13,0a2.7,2.7,0,0,1,.59.17l.12,0a3,3,0,0,1,.58.32l.11.09a3.24,3.24,0,0,1,.43.4.46.46,0,0,0,.07.07,3.87,3.87,0,0,1,.38.58s.05.1.08.16a3.94,3.94,0,0,1,.26.66.14.14,0,0,1,0,.07,5.18,5.18,0,0,1,.18.84l0,.22a7.53,7.53,0,0,1,.07,1h0c.09,6.68.11,13.36,0,20a8.61,8.61,0,0,1-.11,1.19,3.18,3.18,0,0,1-.08.33,6.08,6.08,0,0,1-.19.68c-.05.11-.09.22-.14.32a3.07,3.07,0,0,1-.31.53l-.17.25a3.56,3.56,0,0,1-.49.46l-.14.12a3.28,3.28,0,0,1-.77.39,1.68,1.68,0,0,1-.24.06,4.68,4.68,0,0,1-.67.15l-.36,0c-.12,0-.23,0-.35,0l-.39,0-.32,0a10.35,10.35,0,0,1-1.16-.19h0a2.28,2.28,0,0,0-.45,0h-.12a3.79,3.79,0,0,0-.58.05h0q-.31.06-.63.15l-.16,0-.17,0-.31.08-.13,0-.64.14a12.83,12.83,0,0,1,.8,1.32c.18.3.35.6.54.86a2.84,2.84,0,0,0,.3.37,1.82,1.82,0,0,0,.68.5h0c.29.11.58.2.87.28l.26.06.64.12.26,0a6.81,6.81,0,0,0,.78,0h.07a7.92,7.92,0,0,0,.85-.05l.25,0,.58-.11.29-.07.53-.17Z"/><path class="cls-2" d="M165.19,87.49a66.21,66.21,0,0,0-6.62-1.71c-2.25-.46-4.53-.81-6.86-1a69.31,69.31,0,0,0-14.11,0c-2.32.24-4.61.59-6.85,1a66.21,66.21,0,0,0-6.62,1.71,69.13,69.13,0,0,0-44,90.7c.33.85.67,1.7,1,2.53A68.94,68.94,0,0,0,84.79,188a70.12,70.12,0,0,0,9.67,13A69.28,69.28,0,0,0,124,219.46v-6.2h0c.09-2.95.11-5.89.1-8.83v0c0-2.94,0-5.87,0-8.81,0-1.19.16-2.37.25-3.67.5,0,1,0,1.39.05l.85,0h.79a4.52,4.52,0,0,0,.75-.12,3.66,3.66,0,0,0,.62-.25c.76-.38,1.47-1,2.21-1.43l-.37-.26-.36-.28-.73-.56a3.49,3.49,0,0,0-1.52-.75,9.52,9.52,0,0,0-1.32-.13l-.43,0c-.3,0-.6,0-.9,0l-1,0-1,0h-1.11a12.59,12.59,0,0,1-5.07-1.18c-.35-.16-.69-.35-1-.54a12.38,12.38,0,0,1-1.27-.87,10.95,10.95,0,0,1-3.67-5.31,11.5,11.5,0,0,1-.55-3.42q-.12-7.12-.12-14.27t.13-14.27a13.26,13.26,0,0,1,3.68-8.91c.28-.29.58-.56.88-.83a13.07,13.07,0,0,1,7.9-3.11h.23c1.29-.06,2.59-.1,3.89-.13h1.4c.88,0,1.75,0,2.63,0h.09l2.85,0h1.36l3.56.07h.63a5.53,5.53,0,0,1,4.83,2.57,5.63,5.63,0,0,1,.73,2.11,7,7,0,0,1,.07,1.22,5.31,5.31,0,0,1-4.49,5.31,9.43,9.43,0,0,1-1.23.14c-.85,0-1.7,0-2.55,0h-3.62c-.66,0-1.32,0-2,0a8.34,8.34,0,0,0-2.29.35c-.19.06-.37.14-.55.21a4.57,4.57,0,0,0-1.5,1c0,.05-.09.12-.14.17a5.1,5.1,0,0,0-1.08,2,7.35,7.35,0,0,0-.2.84,11.39,11.39,0,0,0-.13,1.37c-.06,1.89,0,3.78,0,5.66,0,.27,0,.53,0,.79a1.63,1.63,0,0,1-.11.42,2.68,2.68,0,0,1-.25.47c-.1.14-.2.29-.31.43l-.54.67c-.39.52-.83,1-1.26,1.51-.16.17-.32.35-.47.53.48.14,1,.33,1.44.49a5.89,5.89,0,0,0,1.46.32h0c.57,0,1.16.05,1.74.06h3.2l.56,0,.39,0,.61.06.32,0c.31,0,.62.09.92.15a22.78,22.78,0,0,1,4,1.22,19.05,19.05,0,0,1,6.93,4.92,22.07,22.07,0,0,1,1.89,2.47c.24.37.48.75.71,1.14a29.18,29.18,0,0,1,1.8,3.77,2.33,2.33,0,0,0,.36.6l.25.27c.45.45,1,.84,1.46,1.29.06-.27.12-.53.19-.8s.13-.53.2-.79a8.73,8.73,0,0,0,.25-1.6,3,3,0,0,0-.68-1.88,5.11,5.11,0,0,1-.49-.76,3,3,0,0,1-.35-1.22,3.41,3.41,0,0,1,1.83-2.87q1-.69,2.13-1.32c.72-.42,1.45-.82,2.18-1.23l2.2-1.2c.73-.41,1.46-.82,2.18-1.25a6.81,6.81,0,0,0,1.52-1.47c.19-.22.38-.44.57-.64h0a5.61,5.61,0,0,1-.57-.2l-.14,0-.25-.1-.19-.08-.14-.06-.57-.2h0a2.18,2.18,0,0,0-.49-.08h-.1a.77.77,0,0,0-.34.07c-3.14,1.5-6.21,3.14-9.43,4.86l-3.28,1.75a24.24,24.24,0,0,0-3.89-3.55c-.61-.45-1.26-.88-1.93-1.29a22.87,22.87,0,0,0-6.85-2.71l-1.59-.36c-2.43-.59-3-1.06-3.18-3.15,0-.29,0-.59,0-.94v0c0-.48,0-1,0-1.67s0-1.13,0-1.7a4.44,4.44,0,0,1,0-.73,1.33,1.33,0,0,1,0-.21,2.65,2.65,0,0,1,.06-.42c0-.07.05-.14.07-.21a2.23,2.23,0,0,1,.12-.31,2.14,2.14,0,0,1,.13-.19,1.24,1.24,0,0,1,.17-.23,1.22,1.22,0,0,1,.17-.15,2.31,2.31,0,0,1,.23-.18l.22-.1c.1,0,.19-.09.29-.12a2.3,2.3,0,0,1,.28-.06,1.86,1.86,0,0,1,.34-.06c.11,0,.22,0,.34,0h.53c1.33.06,2.65.09,4,.09h.07l1.44,0h.62l1.82-.08h.22a9.22,9.22,0,0,0,6.9-3.65c.13-.17.24-.34.36-.52a8.57,8.57,0,0,0,.84-1.62,9.4,9.4,0,0,0,.52-1.76c0-.18.06-.35.08-.53a8.9,8.9,0,0,0,.08-1.72h0A9.22,9.22,0,0,0,140,131.8c-2.63,0-5.26-.05-7.89-.05l-7.06,0q-1.05,0-2,.09a19.84,19.84,0,0,0-7.13,1.94c-5.72,2.86-9.08,8.61-9.1,16.25,0,8-.07,16.08,0,24.12a27.56,27.56,0,0,0,.87,7,14,14,0,0,0,2.43,5,13.47,13.47,0,0,0,2.18,2.22,16.6,16.6,0,0,0,2.65,1.74c.55.28,1.12.54,1.7.78s.91.36,1.38.53c.72.24,1.47.47,2.25.66,0,3.64,0,7.18,0,10.68s0,7,0,10.4c0,.13,0,.29,0,.44,0,.45-.05.93,0,1.39a65.92,65.92,0,0,1-12.92-6.91c-1.34-.92-2.65-1.88-3.91-2.89-.63-.51-1.26-1-1.87-1.55-1.23-1.06-2.41-2.16-3.56-3.3s-2.25-2.33-3.31-3.55a66.57,66.57,0,0,1-10.46-16.38c-.66-1.5-1.28-3-1.84-4.58s-1.06-3.13-1.5-4.73a65.29,65.29,0,0,1-2.18-12.43c-.13-1.71-.2-3.44-.2-5.18a66.11,66.11,0,0,1,4-22.73c.49-1.33,1-2.63,1.6-3.92.74-1.66,1.52-3.29,2.38-4.87q1.53-2.82,3.32-5.46c.59-.88,1.21-1.74,1.85-2.59a66.1,66.1,0,0,1,99.8-7.21,68.06,68.06,0,0,1,6.24,7.21c.63.85,1.25,1.71,1.85,2.59q1.78,2.64,3.31,5.46c.87,1.58,1.65,3.21,2.38,4.87.57,1.29,1.11,2.59,1.6,3.92a64.63,64.63,0,0,1,2.68,9.41,66.42,66.42,0,0,1,1.35,13.32c0,1.72-.07,3.43-.2,5.12a65.57,65.57,0,0,1-3.84,17.62c-.68,1.84-1.43,3.64-2.27,5.41-.45,1-.92,1.92-1.42,2.85-.38.71-.77,1.42-1.17,2.11a66.83,66.83,0,0,1-17.41,19.67c-1.28,1-2.59,1.89-3.94,2.76a65.69,65.69,0,0,1-10.7,5.63c0-.1,0-.19,0-.29,0-.29,0-.59,0-.86v0c0-1.18,0-2.37,0-3.55,0-2.38,0-4.75,0-7.12h0V192.23a27.37,27.37,0,0,0,9-4.87,15,15,0,0,0,1.38-1.38c.27-.32.52-.65.75-1a10.4,10.4,0,0,0,.56-.9,8.13,8.13,0,0,0,.43-.83,16.78,16.78,0,0,0,1.43-7c0-1.53.06-3.06.07-4.59s0-3.06,0-4.59c0-1,0-2-.1-3a3.25,3.25,0,0,0-.76-1.65c-.3-.41-.62-.82-.86-1.22a12.22,12.22,0,0,0-1.78,2.56,1.21,1.21,0,0,0-.07.37c-.06,1-.08,1.93-.09,2.89s0,1.92,0,2.88c0,1.93.05,3.86,0,5.78a14.5,14.5,0,0,1-1.62,6.58A12.71,12.71,0,0,1,177,184a10.94,10.94,0,0,1-2.59,2.3c-.33.21-.67.4-1,.58a13.9,13.9,0,0,1-2.29.87c-.41.11-.82.2-1.25.28a16.86,16.86,0,0,1-2.71.24h-3.88l-.51,0a12.85,12.85,0,0,0-1.38.12,1,1,0,0,0-.43.17,4,4,0,0,0-.84.77l-.49.55-.25.25c.68.59,1.28,1.55,2,1.7h0a6.66,6.66,0,0,0,1,.12l.36,0c.25,0,.5,0,.76,0h.23l1.16,0c.41,0,.83,0,1.29,0h0c0,3.58,0,7,0,10.41s0,6.69.07,10h0v6.86a67,67,0,0,0,9.95-4.18c1.59-.82,3.15-1.7,4.66-2.63s3-1.94,4.43-3a70.13,70.13,0,0,0,9.94-8.83,69.41,69.41,0,0,0,7.59-9.79A69.06,69.06,0,0,0,165.19,87.49Z"/><path class="cls-3" d="M144.63,154.18a5.54,5.54,0,0,0,2.47-.6,5.74,5.74,0,0,0,3.32-5.53c0-1.4,0-2.76,0-4.12a10.66,10.66,0,0,1-9.84,8c-.93.06-1.92.09-2.93.11a5.64,5.64,0,0,1,2.85.69A7.87,7.87,0,0,0,144.63,154.18Z"/><path class="cls-3" d="M138.07,130.28l1.93,0a10.77,10.77,0,0,1,10.48,8.17c0-4.79,0-9.36-.11-13.79-.06-3.68-2.39-6.16-5.79-6.16h-.06c-3.34,0-5.59,2.46-5.88,6.33a6.56,6.56,0,0,0,.11,1.29c.18,1.3.4,2.91-.63,4.09A.1.1,0,0,1,138.07,130.28Z"/><path class="cls-3" d="M159.42,153.58a3.29,3.29,0,0,1,1,.15,7.64,7.64,0,0,0,2.26.38c2.3,0,3.61-1.4,3.69-4,.24-8.45.29-17.09.12-25.69,0-2.6-1.54-4.22-3.9-4.22a6.41,6.41,0,0,0-2.41.51,4.05,4.05,0,0,1-1.53.27,11.17,11.17,0,0,1-1.56-.14c-.21,0-.42-.06-.61-.08a16.1,16.1,0,0,1,.58,4.14c0,2.79,0,5.62,0,8.35,0,1.07,0,2.13,0,3.2,0,1.29,0,2.58,0,3.86,0,2.75,0,5.59,0,8.39a12.78,12.78,0,0,1-1.39,5.62l.71-.13c.27-.05.59-.15.93-.25A7.67,7.67,0,0,1,159.42,153.58Z"/><path class="cls-3" d="M133.53,117.9l.14.17a11.78,11.78,0,0,1,2-2.72,12.44,12.44,0,0,1,9-3.53h0a11.89,11.89,0,0,1,10.64,6c.05-.11.1-.23.16-.35a5.58,5.58,0,0,1,2.11-2.83,10.42,10.42,0,0,1,5-1.31h0a10.77,10.77,0,0,1,10.5,9.2,3.34,3.34,0,0,1,.67-.5,9.33,9.33,0,0,1,4.53-1.2c4.87,0,8.8,3.91,9.13,9.1.16,2.55.12,5.12.08,7.61l0,1.85h0v1.5c0,1.08,0,2.16,0,3.24,0,2.41.06,4.9-.06,7.36a10,10,0,0,1-4.82,8.28l.39.65a9,9,0,0,0,.53.77,5.1,5.1,0,0,1,1.3,2.8c.19,4.29.14,8.64.07,12.33-.18,8.42-4,13.24-13.52,16.92v4.49c0,4.8,0,9.74,0,14.65a64.7,64.7,0,1,0-52.58.36c0-4.92,0-9.78,0-14.91v-4.63c-6.82-2-10.92-5.82-12.54-11.63a28.88,28.88,0,0,1-.91-7.4c-.09-7.09-.07-14.29,0-21.26v-2.88c0-12,7.79-19.71,19.76-19.77,2.27,0,4.55,0,6.82,0h.81l0,0c-1-1.21-.79-2.87-.6-4.21a7.22,7.22,0,0,0,.12-1.17,15,15,0,0,1,.63-4.55l-.23,0a8.66,8.66,0,0,0-1,.18,10.19,10.19,0,0,1-2,.26,4.32,4.32,0,0,1-1.11-.14,8.9,8.9,0,0,0-2.33-.33c-3.42,0-5.62,2.32-5.88,6.19,0,.44-.35,4.3-2.44,4.75a5.34,5.34,0,0,1-1.2.14,2.91,2.91,0,0,1-2.15-.81,4.22,4.22,0,0,1-.86-3.17c0-.28,0-.56,0-.75v-.2c.23-7.42,5.5-13,12.25-13a12.06,12.06,0,0,1,4.43.85,5.74,5.74,0,0,1,2.58,2.62A10.34,10.34,0,0,0,133.53,117.9Z"/><path class="cls-3" d="M155.59,130.74h0c0-1.92,0-3.84,0-5.76a14,14,0,0,0-.68-4.25l-1.25-.06.74-1.26a10,10,0,0,0-.61-1.17,10.39,10.39,0,0,0-9.16-4.91h0c-.26,0-.51,0-.76,0l-.44,0c-.26,0-.51.07-.76.1s-.27,0-.39.06c-.29,0-.56.12-.83.19l-.27.07c-.31.09-.6.19-.89.3l-.15,0c-.3.12-.59.26-.88.41l-.1,0q-.47.25-.9.54h0a9.85,9.85,0,0,0-2.26,2.11l0,0c-.2.27-.39.54-.57.83l0,.05a9.94,9.94,0,0,0-.64,1.21h0l.52.65-.83.1h0a8.79,8.79,0,0,0-.32,1l0,0c-.06.22-.1.45-.14.68s-.07.31-.1.47a.13.13,0,0,1,0,.06,13.55,13.55,0,0,0-.16,2.42,27.8,27.8,0,0,0-.26,3.5,3.4,3.4,0,0,0,.07.34,1.81,1.81,0,0,0,.2.42,1.33,1.33,0,0,0,.53.49,2.29,2.29,0,0,0,1,.24h.46l.26,0,.25,0,.21-.05.2-.09.16-.08a.61.61,0,0,0,.16-.12l.12-.1a.83.83,0,0,0,.11-.15.94.94,0,0,0,.09-.12,1.42,1.42,0,0,0,.08-.18l.06-.14c0-.06,0-.13.05-.2l0-.15c0-.07,0-.15,0-.22s0-.1,0-.16v-.4c0-.09,0-.18,0-.27a.76.76,0,0,1,0-.15c0-.09,0-.19,0-.29s0-.09,0-.13c0-.29-.08-.57-.11-.84l0-.2a1.49,1.49,0,0,0,0-.21,1.7,1.7,0,0,1,0-.22.92.92,0,0,1,0-.16v-.28a.19.19,0,0,1,0-.08,10.48,10.48,0,0,1,.24-1.63,9.68,9.68,0,0,1,.77-2.16,7.25,7.25,0,0,1,2.26-2.66A7,7,0,0,1,144.5,117h.08l.36,0h.37l.38.05.36,0,.37.09.34.08.35.12a3,3,0,0,1,.32.12,3.49,3.49,0,0,1,.34.15l.3.14.32.19.28.17.3.23.25.19.29.26.23.21c.09.09.17.19.26.29s.14.15.2.24a3.71,3.71,0,0,1,.23.32c.06.09.13.17.18.25s.14.24.21.36.11.18.15.27.12.26.18.39.09.19.13.29.09.27.14.41.07.2.1.31.07.3.11.45.05.21.07.31.05.34.08.52,0,.19,0,.29,0,.43,0,.65c0,.06,0,.13,0,.19q.1,5.85.1,11.7t-.06,11.71a7.19,7.19,0,0,1-3.73,6.61l-.43.25h0a6.27,6.27,0,0,1-1,.38l-.28.09c-.23.06-.46.12-.68.16l-.28.05a6.36,6.36,0,0,1-.86.07h-.06a8.48,8.48,0,0,1-.87-.06l-.19,0a8.23,8.23,0,0,1-.86-.19l-.14,0-.78-.27-.14-.06a9.28,9.28,0,0,1-.85-.39l-.19-.1c-.29-.15-.57-.31-.86-.49h0a2.63,2.63,0,0,0-.69-.28,23.83,23.83,0,0,0-3-.29c0,.09.08.19.11.28s.17.45.25.68c.17.5.33,1,.53,1.46a2.87,2.87,0,0,0,.79,1.13,10.4,10.4,0,0,0,1.2.84l.21.14a12.16,12.16,0,0,0,1.19.61l.24.1a9.22,9.22,0,0,0,1.25.43h.07a10.6,10.6,0,0,0,1.25.24l.21,0a8.72,8.72,0,0,0,1,.06h.21l.46,0c.31,0,.61-.05.92-.1l.49-.08c.32-.06.63-.15.95-.24l.44-.12a12.86,12.86,0,0,0,1.37-.53,10.53,10.53,0,0,0,4.6-3.84c.15-.23.29-.47.42-.71a11.24,11.24,0,0,0,1.3-5.11c.06-2,.07-4.07.06-6.1s0-4.07,0-6.11S155.58,132.66,155.59,130.74Z"/><path class="cls-3" d="M115.1,127.38a1.69,1.69,0,0,0,0,.23v.31a.66.66,0,0,0,0,.14v.17a.62.62,0,0,1,0,.13c0,.06,0,.12,0,.18s0,.07,0,.1a1.86,1.86,0,0,0,0,.27v0a1.43,1.43,0,0,0,.08.22l0,.08.09.14.06.08.11.11.08.06.14.08.1.05.17.06.13,0,.21,0h.19l.23,0H117c.15,0,.31,0,.49-.08h0a.6.6,0,0,0,.24-.14,1.3,1.3,0,0,0,.22-.28,7.74,7.74,0,0,0,.81-3c0-.33.06-.65.11-1a2.93,2.93,0,0,1,0-.29c0-.21.08-.42.13-.62s0-.21.08-.31.11-.37.17-.55.07-.2.11-.29a4.41,4.41,0,0,1,.24-.54,1.6,1.6,0,0,1,.1-.23c.13-.24.26-.48.4-.7l.06-.08c.13-.19.27-.37.41-.55l.17-.19c.12-.13.24-.26.36-.37l.21-.2.38-.31L122,120a4.43,4.43,0,0,1,.46-.29,1.18,1.18,0,0,1,.19-.11,5.42,5.42,0,0,1,.69-.32l.16,0a5.8,5.8,0,0,1,.59-.19l.27-.07.52-.1.31,0,.54,0,.3,0h.34c.3,0,.6,0,.91.07l.35,0a12,12,0,0,1,1.25.25h0a3.51,3.51,0,0,0,.66.08h.1a4,4,0,0,0,.6-.05l.14,0,.57-.1h.14l.47-.1.18,0c.22,0,.44-.08.65-.11a14.21,14.21,0,0,1-.92-1.37c-.1-.15-.2-.31-.31-.46a5.36,5.36,0,0,0-.65-.81,2.18,2.18,0,0,0-.62-.45l-.14-.08h0a11.33,11.33,0,0,0-1.21-.39l-.34-.08c-.31-.07-.62-.12-.93-.17l-.3,0a10.34,10.34,0,0,0-1.11-.07h-.33c-.31,0-.61,0-.92.07l-.4.06-.77.16-.4.11a6.81,6.81,0,0,0-.76.26l-.34.13a9.63,9.63,0,0,0-1,.5h0c-.33.19-.66.41-1,.64l-.29.22c-.21.17-.42.34-.62.53s-.21.19-.31.29-.37.38-.55.58a4.15,4.15,0,0,0-.27.32c-.2.23-.38.48-.56.73,0,.09-.11.16-.17.25-.22.34-.43.7-.62,1.07,0,.09-.08.18-.13.27-.14.29-.27.58-.39.89l-.15.42c-.09.28-.18.55-.26.84l-.12.46c-.07.3-.13.61-.18.91,0,.15-.05.29-.07.44-.06.45-.1.91-.12,1.39h0a2.45,2.45,0,0,1,0,.27v.1a1.27,1.27,0,0,1,0,.2v.33Z"/><path class="cls-3" d="M181,158.92c.2-.08.4-.18.59-.27l.06,0,.15-.23.06.11h0a5.15,5.15,0,0,0,.58-.37l.17-.12.49-.4.21-.19c.14-.13.27-.27.4-.41l.2-.22c.13-.15.26-.32.38-.49a1.33,1.33,0,0,0,.14-.19c.16-.24.32-.49.46-.75l.06-.13a7,7,0,0,0,.31-.68c0-.09.07-.18.11-.28s.14-.39.2-.59l.09-.32c.05-.21.09-.43.13-.65l.06-.29c0-.32.08-.65.1-1,.09-1.75.09-3.5.08-5.26s0-3.51,0-5.26h0c0-2.72.1-5.44.06-8.15,0-.91,0-1.81-.1-2.72h0a7.88,7.88,0,0,0-.12-1c0-.1,0-.19-.06-.29s-.1-.46-.16-.68l-.09-.29c-.09-.27-.19-.54-.3-.79l0-.08c-.13-.28-.27-.54-.42-.8l-.14-.22c-.12-.19-.24-.36-.37-.53l-.17-.22a6.66,6.66,0,0,0-.5-.56l-.09-.09a6.75,6.75,0,0,0-.64-.56l-.2-.14a5.91,5.91,0,0,0-.52-.35l-.23-.14c-.2-.11-.41-.22-.62-.31l-.14-.07a7.58,7.58,0,0,0-.8-.28l-.21,0c-.21-.06-.42-.1-.63-.14l-.27,0-.68,0h-.24c-.17,0-.34,0-.5,0l-.41,0c-.2,0-.39.07-.59.11l-.38.07c-.22.06-.44.14-.66.22l-.31.1a10.35,10.35,0,0,0-1,.45,1.39,1.39,0,0,0-.31.23,12.31,12.31,0,0,0-1.54,2.71l0,.07h0l.58.11.17,0,.45.1h0l.08,0,.51.1.14,0a4.93,4.93,0,0,0,.54,0h.1a2,2,0,0,0,.59-.08h0a10.8,10.8,0,0,1,1.22-.3l.11,0a6.48,6.48,0,0,1,1-.09h.14a4.56,4.56,0,0,1,.76.07l.13,0a2.7,2.7,0,0,1,.59.17l.12,0a3,3,0,0,1,.58.32l.11.09a3.24,3.24,0,0,1,.43.4.46.46,0,0,0,.07.07,3.87,3.87,0,0,1,.38.58s.05.1.08.16a3.94,3.94,0,0,1,.26.66.14.14,0,0,1,0,.07,5.18,5.18,0,0,1,.18.84l0,.22a7.53,7.53,0,0,1,.07,1h0c.09,6.68.11,13.36,0,20a8.61,8.61,0,0,1-.11,1.19,3.18,3.18,0,0,1-.08.33,6.08,6.08,0,0,1-.19.68c-.05.11-.09.22-.14.32a3.07,3.07,0,0,1-.31.53l-.17.25a3.56,3.56,0,0,1-.49.46l-.14.12a3.28,3.28,0,0,1-.77.39,1.68,1.68,0,0,1-.24.06,4.68,4.68,0,0,1-.67.15l-.36,0c-.12,0-.23,0-.35,0l-.39,0-.32,0a10.35,10.35,0,0,1-1.16-.19h0a2.28,2.28,0,0,0-.45,0h-.12a3.79,3.79,0,0,0-.58.05h0q-.31.06-.63.15l-.16,0-.17,0-.31.08-.13,0-.64.14a12.83,12.83,0,0,1,.8,1.32c.18.3.35.6.54.86a2.84,2.84,0,0,0,.3.37,1.82,1.82,0,0,0,.68.5h0c.29.11.58.2.87.28l.26.06.64.12.26,0a6.81,6.81,0,0,0,.78,0h.09a7.55,7.55,0,0,0,.83-.05l.25,0,.58-.11.29-.07.53-.17Z"/><path class="cls-3" d="M165.19,87.49a66.21,66.21,0,0,0-6.62-1.71c-2.25-.46-4.53-.81-6.86-1a69.31,69.31,0,0,0-14.11,0c-2.32.24-4.61.59-6.85,1a66.21,66.21,0,0,0-6.62,1.71,69.13,69.13,0,0,0-44,90.7c.33.85.67,1.7,1,2.53A68.94,68.94,0,0,0,84.79,188a70.12,70.12,0,0,0,9.67,13A69.28,69.28,0,0,0,124,219.46v-6.2h0c.09-2.95.11-5.89.1-8.83v0c0-2.94,0-5.87,0-8.81,0-1.19.16-2.37.25-3.67.5,0,1,0,1.39.05l.85,0h.24l.29,0h.26a4.52,4.52,0,0,0,.75-.12,3.66,3.66,0,0,0,.62-.25c.76-.38,1.47-1,2.21-1.43l-.37-.26-.36-.28-.73-.56a3.49,3.49,0,0,0-1.52-.75,9.52,9.52,0,0,0-1.32-.13l-.43,0h-.9l-1,0-1,0h-1.11a12.59,12.59,0,0,1-5.07-1.18c-.35-.16-.69-.35-1-.54a12.38,12.38,0,0,1-1.27-.87,10.95,10.95,0,0,1-3.67-5.31,11.5,11.5,0,0,1-.55-3.42q-.12-7.12-.12-14.27t.13-14.27a13.26,13.26,0,0,1,3.68-8.91c.28-.29.58-.56.88-.83a13.07,13.07,0,0,1,7.9-3.11h.23c1.29-.06,2.59-.1,3.89-.13h1.4c.88,0,1.75,0,2.63,0h.09l2.85,0h1.36l3.56.07h.63a5.53,5.53,0,0,1,4.83,2.57,5.63,5.63,0,0,1,.73,2.11,7,7,0,0,1,.07,1.22,5.31,5.31,0,0,1-4.49,5.31,9.43,9.43,0,0,1-1.23.14c-.85,0-1.7,0-2.55,0h-3.76c-.61,0-1.23,0-1.85,0a8.34,8.34,0,0,0-2.29.35c-.19.06-.37.14-.55.21a4.57,4.57,0,0,0-1.5,1c0,.05-.09.12-.14.17a5.1,5.1,0,0,0-1.08,2,7.35,7.35,0,0,0-.2.84,11.39,11.39,0,0,0-.13,1.37c-.06,1.89,0,3.78,0,5.66,0,.27,0,.53,0,.79a1.63,1.63,0,0,1-.11.42,2.68,2.68,0,0,1-.25.47c-.1.14-.2.29-.31.43l-.54.67c-.39.52-.83,1-1.26,1.51-.16.17-.32.35-.47.53.48.14,1,.33,1.44.49a5.89,5.89,0,0,0,1.46.32h0c.57,0,1.16.05,1.74.06h3.2l.56,0,.39,0,.61.06.32,0c.31,0,.62.09.92.15a22.78,22.78,0,0,1,4,1.22,19.05,19.05,0,0,1,6.93,4.92,22.07,22.07,0,0,1,1.89,2.47c.24.37.48.75.71,1.14a29.18,29.18,0,0,1,1.8,3.77,2.33,2.33,0,0,0,.36.6l.25.27c.45.45,1,.84,1.46,1.29.06-.27.12-.53.19-.8s.13-.53.2-.79a8.73,8.73,0,0,0,.25-1.6,3,3,0,0,0-.68-1.88,5.11,5.11,0,0,1-.49-.76,3,3,0,0,1-.35-1.22,3.41,3.41,0,0,1,1.83-2.87q1-.69,2.13-1.32c.72-.42,1.45-.82,2.18-1.23l2.2-1.2c.73-.41,1.46-.82,2.18-1.25a6.81,6.81,0,0,0,1.52-1.47c.19-.22.38-.44.57-.64h0a5.61,5.61,0,0,1-.57-.2l-.14,0-.25-.1-.19-.08-.14-.06-.57-.2h0a2.18,2.18,0,0,0-.49-.08h-.1a.77.77,0,0,0-.34.07c-3.14,1.5-6.21,3.14-9.43,4.86l-3.28,1.75a24.24,24.24,0,0,0-3.89-3.55c-.61-.45-1.26-.88-1.93-1.29a22.87,22.87,0,0,0-6.85-2.71l-1.59-.36c-2.43-.59-3-1.06-3.18-3.15,0-.29,0-.59,0-.94v0c0-.48,0-1,0-1.67s0-1.13,0-1.7a4.44,4.44,0,0,1,0-.73,1.33,1.33,0,0,1,0-.21,2.65,2.65,0,0,1,.06-.42c0-.07.05-.14.07-.21a2.23,2.23,0,0,1,.12-.31,2.14,2.14,0,0,1,.13-.19,1.24,1.24,0,0,1,.17-.23,1.22,1.22,0,0,1,.17-.15,2.31,2.31,0,0,1,.23-.18l.22-.1c.1,0,.19-.09.29-.12a2.3,2.3,0,0,1,.28-.06,1.86,1.86,0,0,1,.34-.06c.11,0,.22,0,.34,0h.53c1.33.06,2.65.09,4,.09h.07l1.44,0h.62l1.82-.08h.22a9.22,9.22,0,0,0,6.9-3.65c.13-.17.24-.34.36-.52a8.57,8.57,0,0,0,.84-1.62,9.4,9.4,0,0,0,.52-1.76c0-.18.06-.35.08-.53a8.9,8.9,0,0,0,.08-1.72h0A9.22,9.22,0,0,0,140,131.8c-2.63,0-5.26-.05-7.89-.05h-.25l-6.81,0q-1.05,0-2,.09a19.84,19.84,0,0,0-7.13,1.94c-5.72,2.86-9.08,8.61-9.1,16.25,0,8-.07,16.08,0,24.12a27.56,27.56,0,0,0,.87,7,14,14,0,0,0,2.43,5,13.47,13.47,0,0,0,2.18,2.22,16.6,16.6,0,0,0,2.65,1.74c.55.28,1.12.54,1.7.78s.91.36,1.38.53c.72.24,1.47.47,2.25.66,0,3.64,0,7.18,0,10.68s0,7,0,10.4c0,.13,0,.29,0,.44,0,.45-.05.93,0,1.39a65.92,65.92,0,0,1-12.92-6.91c-1.34-.92-2.65-1.88-3.91-2.89-.63-.51-1.26-1-1.87-1.55-1.23-1.06-2.41-2.16-3.56-3.3s-2.25-2.33-3.31-3.55a66.57,66.57,0,0,1-10.46-16.38c-.66-1.5-1.28-3-1.84-4.58s-1.06-3.13-1.5-4.73a65.29,65.29,0,0,1-2.18-12.43c-.13-1.71-.2-3.44-.2-5.18a66.11,66.11,0,0,1,4-22.73c.49-1.33,1-2.63,1.6-3.92.74-1.66,1.52-3.29,2.38-4.87q1.53-2.82,3.32-5.46c.59-.88,1.21-1.74,1.85-2.59a66.1,66.1,0,0,1,99.8-7.21,68.06,68.06,0,0,1,6.24,7.21c.63.85,1.25,1.71,1.85,2.59q1.78,2.64,3.31,5.46c.87,1.58,1.65,3.21,2.38,4.87.57,1.29,1.11,2.59,1.6,3.92a64.63,64.63,0,0,1,2.68,9.41,66.42,66.42,0,0,1,1.35,13.32c0,1.72-.07,3.43-.2,5.12a65.57,65.57,0,0,1-3.84,17.62c-.68,1.84-1.43,3.64-2.27,5.41-.45,1-.92,1.92-1.42,2.85-.38.71-.77,1.42-1.17,2.11a66.83,66.83,0,0,1-17.41,19.67c-1.28,1-2.59,1.89-3.94,2.76a65.69,65.69,0,0,1-10.7,5.63c0-.1,0-.19,0-.29,0-.29,0-.59,0-.86v0c0-1.18,0-2.37,0-3.55,0-2.38,0-4.75,0-7.12h0V192.23a27.37,27.37,0,0,0,9-4.87,15,15,0,0,0,1.38-1.38c.27-.32.52-.65.75-1a10.4,10.4,0,0,0,.56-.9,8.13,8.13,0,0,0,.43-.83,16.78,16.78,0,0,0,1.43-7c0-1.53.06-3.06.07-4.59s0-3.06,0-4.59c0-1,0-2-.1-3a3.25,3.25,0,0,0-.76-1.65c-.3-.41-.62-.82-.86-1.22a12.22,12.22,0,0,0-1.78,2.56,1.21,1.21,0,0,0-.07.37c-.06,1-.08,1.93-.09,2.89s0,1.92,0,2.88c0,1.93.05,3.86,0,5.78a14.5,14.5,0,0,1-1.62,6.58A12.71,12.71,0,0,1,177,184a10.94,10.94,0,0,1-2.59,2.3c-.33.21-.67.4-1,.58a13.9,13.9,0,0,1-2.29.87c-.41.11-.82.2-1.25.28a16.86,16.86,0,0,1-2.71.24h-3.88l-.51,0a12.85,12.85,0,0,0-1.38.12,1,1,0,0,0-.43.17,4,4,0,0,0-.84.77l-.49.55-.25.25c.68.59,1.28,1.55,2,1.7h0a6.66,6.66,0,0,0,1,.12l.36,0h1l1.16,0c.41,0,.83,0,1.29,0h0c0,3.58,0,7,0,10.41s0,6.69.07,10h0v6.86a67,67,0,0,0,9.95-4.18c1.59-.82,3.15-1.7,4.66-2.63s3-1.94,4.43-3a70.13,70.13,0,0,0,9.94-8.83,69.41,69.41,0,0,0,7.59-9.79A69.06,69.06,0,0,0,165.19,87.49Z"/><path class="cls-3" d="M170.11,127.56l1.18-2c.15-.25.29-.57.45-.9,0-.3,0-.61,0-.91h0a8.45,8.45,0,0,0-.14-1.14,3.4,3.4,0,0,0-.07-.34c-.05-.26-.12-.52-.19-.78,0-.11-.07-.22-.1-.33a8.09,8.09,0,0,0-.34-.86l-.06-.15a10.18,10.18,0,0,0-.5-.92l-.16-.26c-.14-.21-.29-.41-.44-.61l-.21-.27c-.18-.2-.36-.4-.54-.58l-.16-.17a9.45,9.45,0,0,0-.77-.65l-.22-.16c-.2-.15-.41-.29-.62-.42l-.29-.17c-.22-.12-.45-.23-.67-.33l-.25-.11a9.52,9.52,0,0,0-.94-.34l-.2,0a6.93,6.93,0,0,0-.79-.17l-.32,0-.74-.07h-.42c-.18,0-.35,0-.53,0l-.47,0c-.23,0-.45.07-.68.11l-.44.09c-.25.06-.5.15-.75.23l-.36.12a9.76,9.76,0,0,0-1.09.51,2.51,2.51,0,0,0-.91,1c-.42.71-.73,1.61-1.15,2.32l.57,0,.2,0,.44.06.62.08h.1l.44,0h.16l.33,0,.15,0a2.26,2.26,0,0,0,.43-.11h0a7.94,7.94,0,0,1,.77-.28l.26-.06a4.77,4.77,0,0,1,.51-.13l.31-.05c.15,0,.3,0,.45-.06l.32,0,.33,0h.06a6,6,0,0,1,1,.08l.21,0a5,5,0,0,1,.78.23l.14,0a5.36,5.36,0,0,1,.79.41l.18.12a4.31,4.31,0,0,1,.62.51l.09.08a5.06,5.06,0,0,1,.57.71l.12.19a6.13,6.13,0,0,1,.41.81l0,.07a6,6,0,0,1,.28,1c0,.09,0,.17,0,.26a8.16,8.16,0,0,1,.11,1.14q.12,6.44.09,12.88t-.22,12.88a7.73,7.73,0,0,1-.11,1.11c0,.08,0,.16,0,.23a5.62,5.62,0,0,1-.26,1l0,.11a5.68,5.68,0,0,1-.37.74,1.4,1.4,0,0,0-.1.16,5,5,0,0,1-.53.67l-.12.11a4.51,4.51,0,0,1-.59.47l-.12.08a3.86,3.86,0,0,1-.76.38l-.18.07a5.05,5.05,0,0,1-.81.21l-.08,0a7.15,7.15,0,0,1-.94.08h-.33l-.28,0a3.42,3.42,0,0,1-.44,0l-.27,0-.51-.1-.23,0-.76-.21a1.68,1.68,0,0,0-.5-.07h-.13a4.12,4.12,0,0,0-.59.07h-.07l-.59.15-.15.05-.13,0-.38.12-.15,0c-.22.06-.44.12-.66.16.73,1,1.24,2.4,2.21,2.87h0a8,8,0,0,0,1,.42l.35.1.69.18.41.07.64.08.42,0,.28,0,.39,0,.32,0a6.94,6.94,0,0,0,.9-.12h.08c.32-.07.64-.15.95-.25l.28-.1.65-.26.3-.14c.22-.11.43-.22.64-.35a1.71,1.71,0,0,0,.23-.13q.42-.27.81-.57l.12-.11a8.24,8.24,0,0,0,.62-.56l.23-.23c.16-.17.31-.35.46-.53l.2-.25c.17-.22.32-.45.47-.68a1.63,1.63,0,0,1,.11-.17l.05-.09h0l-.06-.08.11,0h0c.13-.23.25-.47.36-.71a1.86,1.86,0,0,0,.1-.25c.1-.24.19-.48.28-.73s.06-.23.1-.34.12-.49.17-.74.05-.22.07-.33c.05-.36.1-.73.12-1.1.19-4.4,0-8.82,0-13.22,0-2.25.06-4.5.08-6.74v-.05c0-.92,0-1.85,0-2.78Z"/><path class="cls-3" d="M175.7,153.81a3.71,3.71,0,0,1,.83.08,7.08,7.08,0,0,0,1.55.2c1.28,0,2.48-.38,2.53-3.07.1-6.13.11-12.67,0-20-.05-3.23-1.62-3.23-2.37-3.23a7,7,0,0,0-2,.36,3.76,3.76,0,0,1-1.08.16,7.89,7.89,0,0,1-1.81-.27c0,1.73,0,3.45,0,5.15,0,1.38,0,2.76,0,4.15s0,2.73,0,4.1c0,3,.07,6.11-.07,9.19a11,11,0,0,1-.87,3.81l.42-.07c.27,0,.57-.13.89-.22A8.21,8.21,0,0,1,175.7,153.81Z"/><path class="cls-2" d="M144.66,82.88A70.7,70.7,0,0,0,74,153.49a70,70,0,0,0,14,42.18,71.33,71.33,0,0,0,35.51,25.22l1.94.61v-8.24c.13-4,.11-8.07.1-12,0-1.88,0-3.76,0-5.64,0-.69.06-1.39.13-2.14.39,0,.76,0,1.11,0a6.15,6.15,0,0,0,1.7-.2A8,8,0,0,0,131,192c.26-.18.51-.36.77-.52l2-1.24-2-1.28c-.25-.16-.52-.38-.8-.6a6.1,6.1,0,0,0-2.76-1.48,15,15,0,0,0-2.48-.18l-1.54,0c-.49,0-1,0-1.46,0h-.49c-5.78-.15-10-4.29-10.13-9.85-.15-9.75-.15-19.33,0-28.49a11.62,11.62,0,0,1,11-11.39c2.5-.11,5.14-.17,8.09-.17,3.1,0,6.15.06,8.45.12a3.94,3.94,0,0,1,4.18,4.36c-.07,2.4-1.67,3.89-4.29,4-.78,0-1.63,0-2.68,0h-3.57l-1.88,0c-4.66.11-7.21,2.65-7.35,7.35,0,.92,0,1.83,0,2.72,0,1.27,0,2.47-.07,3.67a5.06,5.06,0,0,1-.55.75l-.35.45c-.34.45-.72.88-1.13,1.34l-.55.62L120,164l2.23.65c.27.08.55.18.83.28a9,9,0,0,0,2.39.6c.56,0,1.17.05,1.93.05h2.3a16.7,16.7,0,0,1,3.32.27c6.82,1.42,11.48,5.54,14.24,12.59a5.35,5.35,0,0,0,1.76,2.11c.24.2.46.39.63.56l1.94,2,.59-2.69c.06-.3.14-.6.21-.89a12.83,12.83,0,0,0,.47-2.54,4.56,4.56,0,0,0-1-2.89,1.76,1.76,0,0,1-.51-1.31,2.39,2.39,0,0,1,1.14-1.37c1.58-1,3.31-2,5-2.89,1.21-.66,2.46-1.34,3.67-2.07a7.94,7.94,0,0,0,1.83-1.71c.19-.22.37-.44.57-.64l1.75-1.81-2.43-.67a8.08,8.08,0,0,1-.78-.29,5.39,5.39,0,0,0-2-.55,2.36,2.36,0,0,0-1,.23c-3.15,1.51-6.21,3.15-9.45,4.88l-2.29,1.22a25.18,25.18,0,0,0-12.67-7.16c-1.65-.36-3.08-.67-3.36-1s-.28-1.81-.28-3.65c0-.18,0-.36,0-.53,0-.41,0-.83,0-1.28-.05-.87.12-1.13.18-1.19s.27-.23,1-.23h.22l1.49,0,.91,2c.14.31.26.68.39,1.07a6.07,6.07,0,0,0,1.72,3,11.93,11.93,0,0,0,7.57,2.78,13.14,13.14,0,0,0,5.46-1.25,12.23,12.23,0,0,0,5-4l.62.84c.18.25.36.56.56.88a5.53,5.53,0,0,0,2.19,2.44,10.14,10.14,0,0,0,4.47,1,10.5,10.5,0,0,0,8.76-4.77l.39.54c.19.26.38.6.59,1a5.21,5.21,0,0,0,2.39,2.6,9.47,9.47,0,0,0,3.45.66,9.15,9.15,0,0,0,2-.22l-.36.44a5.11,5.11,0,0,0-1.49,2.89c-.12,2.28-.1,4.58-.08,6.81,0,1.57,0,3.2,0,4.79-.16,6.88-4.33,11-11.14,11.1h-.3l-1.39,0-1.44,0a20.77,20.77,0,0,0-2.82.16,4,4,0,0,0-2.32,1.59,6.72,6.72,0,0,1-.5.53l-1.23,1.13,1.25,1.1a5.08,5.08,0,0,1,.51.52,4.32,4.32,0,0,0,2.24,1.53,10.46,10.46,0,0,0,2.08.18c.44,0,.9,0,1.39,0h.13c0,1.38,0,2.75,0,4.1,0,5.06,0,9.85.06,14.65v9l2-.65A70.61,70.61,0,0,0,144.66,82.88Zm10.88,65.83a11.24,11.24,0,0,1-1.3,5.11c-.13.24-.27.48-.42.71a10.53,10.53,0,0,1-4.6,3.84,12.86,12.86,0,0,1-1.37.53l-.44.12c-.32.09-.63.18-.95.24l-.49.08c-.31,0-.61.08-.92.1l-.46,0h-.21a8.72,8.72,0,0,1-1-.06l-.21,0a10.6,10.6,0,0,1-1.25-.24h-.07a9.22,9.22,0,0,1-1.25-.43l-.24-.1a12.16,12.16,0,0,1-1.19-.61l-.21-.14a10.4,10.4,0,0,1-1.2-.84,2.87,2.87,0,0,1-.79-1.13c-.2-.45-.36-1-.53-1.46-.08-.23-.16-.46-.25-.68s-.07-.19-.11-.28a23.83,23.83,0,0,1,3,.29,2.63,2.63,0,0,1,.69.28h0c.29.18.57.34.86.49l.19.1a9.28,9.28,0,0,0,.85.39l.14.06.78.27.14,0a8.23,8.23,0,0,0,.86.19l.19,0a8.48,8.48,0,0,0,.87.06h.06a6.36,6.36,0,0,0,.86-.07l.28-.05c.22,0,.45-.1.68-.16l.28-.09a6.27,6.27,0,0,0,1-.38h0l.43-.25a7.19,7.19,0,0,0,3.73-6.61q.08-5.85.06-11.71t-.1-11.7c0-.06,0-.13,0-.19,0-.22,0-.44,0-.65s0-.2,0-.29-.05-.35-.08-.52,0-.2-.07-.31-.07-.3-.11-.45-.07-.21-.1-.31-.09-.28-.14-.41-.09-.19-.13-.29-.11-.26-.18-.39-.1-.18-.15-.27-.13-.24-.21-.36-.12-.16-.18-.25a3.71,3.71,0,0,0-.23-.32c-.06-.09-.14-.16-.2-.24s-.17-.2-.26-.29l-.23-.21-.29-.26-.25-.19-.3-.23-.28-.17-.32-.19-.3-.14a3.49,3.49,0,0,0-.34-.15,3,3,0,0,0-.32-.12l-.35-.12-.34-.08-.37-.09-.36,0-.38-.05h-.37l-.36,0h-.08a7,7,0,0,0-4.08,1.26,7.25,7.25,0,0,0-2.26,2.66,9.68,9.68,0,0,0-.77,2.16,10.48,10.48,0,0,0-.24,1.63.19.19,0,0,0,0,.08v.28a.92.92,0,0,0,0,.16,1.7,1.7,0,0,0,0,.22,1.49,1.49,0,0,1,0,.21l0,.2c0,.27.07.55.11.84,0,0,0,.09,0,.13s0,.2,0,.29a.76.76,0,0,0,0,.15c0,.09,0,.18,0,.27v.4c0,.06,0,.11,0,.16s0,.15,0,.22l0,.15c0,.07,0,.14-.05.2l-.06.14a1.42,1.42,0,0,1-.08.18.94.94,0,0,1-.09.12.83.83,0,0,1-.11.15l-.12.1a.61.61,0,0,1-.16.12l-.16.08-.2.09-.21.05-.25,0-.26,0h-.46a2.29,2.29,0,0,1-1-.24,1.33,1.33,0,0,1-.53-.49,1.81,1.81,0,0,1-.2-.42,3.4,3.4,0,0,1-.07-.34,27.8,27.8,0,0,1,.26-3.5,13.55,13.55,0,0,1,.16-2.42.13.13,0,0,0,0-.06c0-.16.07-.31.1-.47s.08-.46.14-.68l0,0a8.79,8.79,0,0,1,.32-1h0l.83-.1-.52-.65h0a9.94,9.94,0,0,1,.64-1.21l0-.05c.18-.29.37-.56.57-.83l0,0a9.85,9.85,0,0,1,2.26-2.11h0q.44-.28.9-.54l.1,0c.29-.15.58-.29.88-.41l.15,0c.29-.11.58-.21.89-.3l.27-.07c.27-.07.54-.14.83-.19.12,0,.26,0,.39-.06s.5-.08.76-.1l.44,0c.25,0,.5,0,.76,0h0a10.39,10.39,0,0,1,9.16,4.91,10,10,0,0,1,.61,1.17l-.74,1.26,1.25.06a14,14,0,0,1,.68,4.25c0,1.92,0,3.84,0,5.76h0c0,1.92,0,3.84,0,5.76s0,4.07,0,6.11S155.6,146.68,155.54,148.71Zm-16.79-22.56a6.56,6.56,0,0,1-.11-1.29c.29-3.87,2.54-6.3,5.88-6.33h.06c3.4,0,5.73,2.48,5.79,6.16.08,4.43.11,9,.11,13.79A10.77,10.77,0,0,0,140,130.31l-1.93,0a.1.1,0,0,0,.05,0C139.15,129.06,138.93,127.45,138.75,126.15Zm-1.07,25.94c1,0,2-.05,2.93-.11a10.66,10.66,0,0,0,9.84-8c0,1.36,0,2.72,0,4.12a5.74,5.74,0,0,1-3.32,5.53,5.54,5.54,0,0,1-2.47.6,7.87,7.87,0,0,1-4.1-1.4A5.64,5.64,0,0,0,137.68,152.09Zm-22.59-25.24v-.1a2.45,2.45,0,0,0,0-.27h0c0-.48.06-.94.12-1.39,0-.15,0-.29.07-.44,0-.3.11-.61.18-.91l.12-.46c.08-.29.17-.56.26-.84L116,122c.12-.31.25-.6.39-.89,0-.09.08-.18.13-.27.19-.37.4-.73.62-1.07.06-.09.12-.16.17-.25.18-.25.36-.5.56-.73a4.15,4.15,0,0,1,.27-.32c.18-.2.36-.39.55-.58s.2-.2.31-.29.41-.36.62-.53l.29-.22c.32-.23.65-.45,1-.64h0a9.63,9.63,0,0,1,1-.5l.34-.13a6.81,6.81,0,0,1,.76-.26l.4-.11.77-.16.4-.06c.31,0,.61-.06.92-.07h.33a10.34,10.34,0,0,1,1.11.07l.3,0c.31,0,.62.1.93.17l.34.08a11.33,11.33,0,0,1,1.21.39h0l.14.08a2.18,2.18,0,0,1,.62.45,5.36,5.36,0,0,1,.65.81c.11.15.21.31.31.46a14.21,14.21,0,0,0,.92,1.37c-.21,0-.43.06-.65.11l-.18,0-.47.1h-.14l-.57.1-.14,0a4,4,0,0,1-.6.05h-.1a3.51,3.51,0,0,1-.66-.08h0a12,12,0,0,0-1.25-.25l-.35,0c-.31,0-.61-.06-.91-.07H126l-.3,0-.54,0-.31,0-.52.1-.27.07a5.8,5.8,0,0,0-.59.19l-.16,0a5.42,5.42,0,0,0-.69.32,1.18,1.18,0,0,0-.19.11,4.43,4.43,0,0,0-.46.29l-.23.16-.38.31-.21.2c-.12.11-.24.24-.36.37l-.17.19c-.14.18-.28.36-.41.55l-.06.08c-.14.22-.27.46-.4.7a1.6,1.6,0,0,0-.1.23,4.41,4.41,0,0,0-.24.54c0,.09-.07.19-.11.29s-.11.36-.17.55,0,.21-.08.31-.09.41-.13.62a2.93,2.93,0,0,0,0,.29c-.05.31-.09.63-.11,1a7.74,7.74,0,0,1-.81,3,1.3,1.3,0,0,1-.22.28.6.6,0,0,1-.24.14h0c-.18,0-.34.06-.49.08h-.15l-.23,0h-.19l-.21,0-.13,0-.17-.06-.1-.05-.14-.08-.08-.06-.11-.11-.06-.08-.09-.14,0-.08a1.43,1.43,0,0,1-.08-.22v0a1.86,1.86,0,0,1,0-.27s0-.06,0-.1,0-.12,0-.18a.62.62,0,0,0,0-.13v-.17a.66.66,0,0,1,0-.14v-.31a1.69,1.69,0,0,1,0-.23v-.33A1.27,1.27,0,0,0,115.09,126.85Zm15.17-12.58a12.06,12.06,0,0,0-4.43-.85c-6.75,0-12,5.6-12.25,13v.2c0,.19,0,.47,0,.75a4.22,4.22,0,0,0,.86,3.17,2.91,2.91,0,0,0,2.15.81,5.34,5.34,0,0,0,1.2-.14c2.09-.45,2.41-4.31,2.44-4.75.26-3.87,2.46-6.19,5.88-6.19a8.9,8.9,0,0,1,2.33.33,4.32,4.32,0,0,0,1.11.14,10.19,10.19,0,0,0,2-.26,8.66,8.66,0,0,1,1-.18l.23,0a15,15,0,0,0-.63,4.55A7.22,7.22,0,0,1,132,126c-.19,1.34-.42,3,.6,4.21l0,0h-.81c-2.27,0-4.55,0-6.82,0-12,.06-19.72,7.82-19.76,19.77v2.88c0,7,0,14.17,0,21.26a28.88,28.88,0,0,0,.91,7.4c1.62,5.81,5.72,9.63,12.54,11.63v4.63c0,5.13,0,10,0,14.91a64.68,64.68,0,1,1,52.58-.36c0-4.91,0-9.85,0-14.65v-4.49c9.53-3.68,13.34-8.5,13.52-16.92.07-3.69.12-8-.07-12.33a5.1,5.1,0,0,0-1.3-2.8,9,9,0,0,1-.53-.77l-.39-.65a10,10,0,0,0,4.82-8.28c.12-2.46.09-4.95.06-7.36,0-1.08,0-2.16,0-3.24v-1.5h0l0-1.85c0-2.49.08-5.06-.08-7.61-.33-5.19-4.26-9.1-9.13-9.1a9.33,9.33,0,0,0-4.53,1.2,3.34,3.34,0,0,0-.67.5,10.77,10.77,0,0,0-10.5-9.2h0a10.42,10.42,0,0,0-5,1.31,5.58,5.58,0,0,0-2.11,2.83c-.06.12-.11.24-.16.35a11.89,11.89,0,0,0-10.64-6h0a12.44,12.44,0,0,0-9,3.53,11.78,11.78,0,0,0-2,2.72l-.14-.17a10.34,10.34,0,0,1-.69-1A5.74,5.74,0,0,0,130.26,114.27Zm25.39,40.1a12.78,12.78,0,0,0,1.39-5.62c.08-2.8.06-5.64,0-8.39,0-1.28,0-2.57,0-3.86,0-1.07,0-2.13,0-3.2,0-2.73,0-5.56,0-8.35a16.1,16.1,0,0,0-.58-4.14c.19,0,.4,0,.61.08a11.17,11.17,0,0,0,1.56.14,4.05,4.05,0,0,0,1.53-.27,6.41,6.41,0,0,1,2.41-.51c2.36,0,3.86,1.62,3.9,4.22.17,8.6.12,17.24-.12,25.69-.08,2.55-1.39,4-3.69,4a7.64,7.64,0,0,1-2.26-.38,3.29,3.29,0,0,0-1-.15,7.67,7.67,0,0,0-2.13.41c-.34.1-.66.2-.93.25Zm16.18-23.76c0,2.24-.07,4.49-.08,6.74,0,4.4.16,8.82,0,13.22,0,.37-.07.74-.12,1.1,0,.11,0,.22-.07.33s-.1.5-.17.74-.07.23-.1.34-.18.49-.28.73a1.86,1.86,0,0,1-.1.25c-.11.24-.23.48-.36.71h0l-.11,0,.06.08h0l-.05.09a1.63,1.63,0,0,0-.11.17c-.15.23-.3.46-.47.68l-.2.25c-.15.18-.3.36-.46.53l-.23.23a8.24,8.24,0,0,1-.62.56l-.12.11q-.39.3-.81.57a1.71,1.71,0,0,1-.23.13c-.21.13-.42.24-.64.35l-.3.14-.65.26-.28.1c-.31.1-.63.18-.95.25h-.08a6.94,6.94,0,0,1-.9.12l-.32,0-.39,0-.28,0-.42,0-.64-.08-.41-.07-.69-.18-.35-.1a8,8,0,0,1-1-.42h0c-1-.47-1.48-1.89-2.21-2.87.22,0,.44-.1.66-.16l.15,0,.38-.12.13,0,.15-.05.59-.15h.07a4.12,4.12,0,0,1,.59-.07h.13a1.68,1.68,0,0,1,.5.07l.76.21.23,0,.51.1.27,0a3.42,3.42,0,0,0,.44,0l.28,0h.33a7.15,7.15,0,0,0,.94-.08l.08,0a5.05,5.05,0,0,0,.81-.21l.18-.07a3.86,3.86,0,0,0,.76-.38l.12-.08a4.51,4.51,0,0,0,.59-.47l.12-.11a5,5,0,0,0,.53-.67,1.4,1.4,0,0,1,.1-.16,5.68,5.68,0,0,0,.37-.74l0-.11a5.62,5.62,0,0,0,.26-1c0-.07,0-.15,0-.23a7.73,7.73,0,0,0,.11-1.11q.19-6.44.22-12.88T168,124.44a8.16,8.16,0,0,0-.11-1.14c0-.09,0-.17,0-.26a6,6,0,0,0-.28-1l0-.07a6.13,6.13,0,0,0-.41-.81L167,121a5.06,5.06,0,0,0-.57-.71l-.09-.08a4.31,4.31,0,0,0-.62-.51l-.18-.12a5.36,5.36,0,0,0-.79-.41l-.14,0a5,5,0,0,0-.78-.23l-.21,0a6,6,0,0,0-1-.08h-.06l-.33,0-.32,0c-.15,0-.3,0-.45.06l-.31.05a4.77,4.77,0,0,0-.51.13l-.26.06a7.94,7.94,0,0,0-.77.28h0a2.26,2.26,0,0,1-.43.11l-.15,0-.33,0h-.16l-.44,0H158l-.62-.08-.44-.06-.2,0-.57,0c.42-.71.73-1.61,1.15-2.32a2.51,2.51,0,0,1,.91-1,9.76,9.76,0,0,1,1.09-.51l.36-.12c.25-.08.5-.17.75-.23l.44-.09c.23,0,.45-.09.68-.11l.47,0c.18,0,.35,0,.53,0H163l.74.07.32,0a6.93,6.93,0,0,1,.79.17l.2,0a9.52,9.52,0,0,1,.94.34l.25.11c.22.1.45.21.67.33l.29.17c.21.13.42.27.62.42l.22.16a9.45,9.45,0,0,1,.77.65l.16.17c.18.18.36.38.54.58l.21.27c.15.2.3.4.44.61l.16.26a10.18,10.18,0,0,1,.5.92l.06.15a8.09,8.09,0,0,1,.34.86c0,.11.07.22.1.33.07.26.14.52.19.78a3.4,3.4,0,0,1,.07.34,8.45,8.45,0,0,1,.14,1.14h0c0,.3,0,.61,0,.91-.16.33-.3.65-.45.9l-1.18,2,1.72.22c0,.93,0,1.86,0,2.78Zm.51,23.84a11,11,0,0,0,.87-3.81c.14-3.08.1-6.18.07-9.19,0-1.37,0-2.74,0-4.1s0-2.77,0-4.15c0-1.7.05-3.42,0-5.15a7.89,7.89,0,0,0,1.81.27,3.76,3.76,0,0,0,1.08-.16,7,7,0,0,1,2-.36c.75,0,2.32,0,2.37,3.23.1,7.32.09,13.86,0,20-.05,2.69-1.25,3.07-2.53,3.07a7.08,7.08,0,0,1-1.55-.2,3.71,3.71,0,0,0-.83-.08,8.21,8.21,0,0,0-2,.35c-.32.09-.62.17-.89.22Zm7.84,4.74-.29.07-.58.11-.25,0a7.55,7.55,0,0,1-.83.05h-.09a6.81,6.81,0,0,1-.78,0l-.26,0-.64-.12-.26-.06c-.29-.08-.58-.17-.87-.28h0a1.82,1.82,0,0,1-.68-.5,2.84,2.84,0,0,1-.3-.37c-.19-.26-.36-.56-.54-.86a12.83,12.83,0,0,0-.8-1.32l.64-.14.13,0,.31-.08.17,0,.16,0q.32-.09.63-.15h0a3.79,3.79,0,0,1,.58-.05h.12a2.28,2.28,0,0,1,.45,0h0a10.35,10.35,0,0,0,1.16.19l.32,0,.39,0c.12,0,.23,0,.35,0l.36,0a4.68,4.68,0,0,0,.67-.15,1.68,1.68,0,0,0,.24-.06,3.28,3.28,0,0,0,.77-.39l.14-.12a3.56,3.56,0,0,0,.49-.46l.17-.25a3.07,3.07,0,0,0,.31-.53c0-.1.09-.21.14-.32a6.08,6.08,0,0,0,.19-.68,3.18,3.18,0,0,0,.08-.33,8.61,8.61,0,0,0,.11-1.19c.12-6.68.1-13.36,0-20h0a7.53,7.53,0,0,0-.07-1l0-.22a5.18,5.18,0,0,0-.18-.84.14.14,0,0,0,0-.07,3.94,3.94,0,0,0-.26-.66c0-.06-.05-.11-.08-.16a3.87,3.87,0,0,0-.38-.58.46.46,0,0,1-.07-.07,3.24,3.24,0,0,0-.43-.4l-.11-.09a3,3,0,0,0-.58-.32l-.12,0a2.7,2.7,0,0,0-.59-.17l-.13,0a4.56,4.56,0,0,0-.76-.07h-.14a6.48,6.48,0,0,0-1,.09l-.11,0a10.8,10.8,0,0,0-1.22.3h0a2,2,0,0,1-.59.08h-.1a4.93,4.93,0,0,1-.54,0l-.14,0-.51-.1-.08,0h0l-.45-.1-.17,0-.58-.11h0l0-.07a12.31,12.31,0,0,1,1.54-2.71,1.39,1.39,0,0,1,.31-.23,10.35,10.35,0,0,1,1-.45l.31-.1c.22-.08.44-.16.66-.22l.38-.07c.2,0,.39-.09.59-.11l.41,0c.16,0,.33,0,.5,0h.24l.68,0,.27,0c.21,0,.42.08.63.14l.21,0a7.58,7.58,0,0,1,.8.28l.14.07c.21.09.42.2.62.31l.23.14a5.91,5.91,0,0,1,.52.35l.2.14a6.75,6.75,0,0,1,.64.56l.09.09a6.66,6.66,0,0,1,.5.56l.17.22c.13.17.25.34.37.53l.14.22c.15.26.29.52.42.8l0,.08c.11.25.21.52.3.79l.09.29c.06.22.12.45.16.68s.05.19.06.29a7.88,7.88,0,0,1,.12,1h0c.05.91.08,1.81.1,2.72,0,2.71-.06,5.43-.06,8.15h0c0,1.75,0,3.51,0,5.26s0,3.51-.08,5.26c0,.34-.05.67-.1,1l-.06.29c0,.22-.08.44-.13.65l-.09.32c-.06.2-.13.4-.2.59s-.07.19-.11.28a7,7,0,0,1-.31.68l-.06.13c-.14.26-.3.51-.46.75a1.33,1.33,0,0,1-.14.19c-.12.17-.25.34-.38.49l-.2.22c-.13.14-.26.28-.4.41l-.21.19-.49.4-.17.12a5.15,5.15,0,0,1-.58.37h0l-.06-.11-.15.23-.06,0c-.19.09-.39.19-.59.27l-.26.1Zm15.08,41.33a70.13,70.13,0,0,1-9.94,8.83c-1.43,1-2.91,2-4.43,3s-3.07,1.81-4.66,2.63a67,67,0,0,1-9.95,4.18v-6.86h0c-.06-3.3-.07-6.61-.07-10s0-6.83,0-10.41h0c-.46,0-.88,0-1.29,0l-1.16,0h-1l-.36,0a6.66,6.66,0,0,1-1-.12h0c-.77-.15-1.37-1.11-2-1.7l.25-.25.49-.55a4,4,0,0,1,.84-.77,1,1,0,0,1,.43-.17,12.85,12.85,0,0,1,1.38-.12l.51,0h3.88a16.86,16.86,0,0,0,2.71-.24c.43-.08.84-.17,1.25-.28a13.9,13.9,0,0,0,2.29-.87c.35-.18.69-.37,1-.58A10.94,10.94,0,0,0,177,184a12.71,12.71,0,0,0,1.14-1.71,14.5,14.5,0,0,0,1.62-6.58c0-1.92,0-3.85,0-5.78q0-1.44,0-2.88c0-1,0-1.93.09-2.89a1.21,1.21,0,0,1,.07-.37,12.22,12.22,0,0,1,1.78-2.56c.24.4.56.81.86,1.22a3.25,3.25,0,0,1,.76,1.65c.05,1,.08,2,.1,3,0,1.53,0,3.06,0,4.59s0,3.06-.07,4.59a16.78,16.78,0,0,1-1.43,7,8.13,8.13,0,0,1-.43.83,10.4,10.4,0,0,1-.56.9c-.23.33-.48.66-.75,1a15,15,0,0,1-1.38,1.38,27.37,27.37,0,0,1-9,4.87v10.59h0c0,2.37,0,4.74,0,7.12,0,1.18,0,2.37,0,3.55v0c0,.27,0,.57,0,.86,0,.1,0,.19,0,.29A65.69,65.69,0,0,0,180.6,209c1.35-.87,2.66-1.8,3.94-2.76A66.83,66.83,0,0,0,202,186.6c.4-.69.79-1.4,1.17-2.11.5-.93,1-1.89,1.42-2.85.84-1.77,1.59-3.57,2.27-5.41a65.57,65.57,0,0,0,3.84-17.62c.13-1.69.2-3.4.2-5.12a66.42,66.42,0,0,0-1.35-13.32,64.63,64.63,0,0,0-2.68-9.41c-.49-1.33-1-2.63-1.6-3.92-.73-1.66-1.51-3.29-2.38-4.87q-1.53-2.82-3.31-5.46c-.6-.88-1.22-1.74-1.85-2.59a68.06,68.06,0,0,0-6.24-7.21,66.1,66.1,0,0,0-99.8,7.21c-.64.85-1.26,1.71-1.85,2.59Q88,119.15,86.47,122c-.86,1.58-1.64,3.21-2.38,4.87-.57,1.29-1.11,2.59-1.6,3.92a66.11,66.11,0,0,0-4,22.73c0,1.74.07,3.47.2,5.18a65.29,65.29,0,0,0,2.18,12.43q.66,2.4,1.5,4.73c.56,1.56,1.18,3.08,1.84,4.58a66.57,66.57,0,0,0,10.46,16.38c1.06,1.22,2.17,2.41,3.31,3.55s2.33,2.24,3.56,3.3c.61.52,1.24,1,1.87,1.55,1.26,1,2.57,2,3.91,2.89A65.92,65.92,0,0,0,120.22,215c0-.46,0-.94,0-1.39,0-.15,0-.31,0-.44,0-3.45,0-6.9,0-10.4s0-7,0-10.68c-.78-.19-1.53-.42-2.25-.66-.47-.17-.93-.34-1.38-.53s-1.15-.5-1.7-.78a16.6,16.6,0,0,1-2.65-1.74,13.47,13.47,0,0,1-2.18-2.22,14,14,0,0,1-2.43-5,27.56,27.56,0,0,1-.87-7c-.1-8-.06-16.08,0-24.12,0-7.64,3.38-13.39,9.1-16.25a19.84,19.84,0,0,1,7.13-1.94q1-.08,2-.09l6.81,0h.25c2.63,0,5.26,0,7.89.05a9.22,9.22,0,0,1,9.31,8.89h0a8.9,8.9,0,0,1-.08,1.72c0,.18-.05.35-.08.53a9.4,9.4,0,0,1-.52,1.76,8.57,8.57,0,0,1-.84,1.62c-.12.18-.23.35-.36.52a9.22,9.22,0,0,1-6.9,3.65h-.22l-1.82.08h-.62l-1.44,0h-.07c-1.33,0-2.65,0-4-.09h-.53c-.12,0-.23,0-.34,0a1.86,1.86,0,0,0-.34.06,2.3,2.3,0,0,0-.28.06c-.1,0-.19.08-.29.12l-.22.1a2.31,2.31,0,0,0-.23.18,1.22,1.22,0,0,0-.17.15,1.24,1.24,0,0,0-.17.23,2.14,2.14,0,0,0-.13.19,2.23,2.23,0,0,0-.12.31c0,.07,0,.14-.07.21a2.65,2.65,0,0,0-.06.42,1.33,1.33,0,0,0,0,.21,4.44,4.44,0,0,0,0,.73c0,.57,0,1.14,0,1.7s0,1.19,0,1.67v0c0,.35,0,.65,0,.94.15,2.09.75,2.56,3.18,3.15l1.59.36a22.87,22.87,0,0,1,6.85,2.71c.67.41,1.32.84,1.93,1.29a24.24,24.24,0,0,1,3.89,3.55l3.28-1.75c3.22-1.72,6.29-3.36,9.43-4.86a.77.77,0,0,1,.34-.07h.1a2.18,2.18,0,0,1,.49.08h0l.57.2.14.06.19.08.25.1.14,0a5.61,5.61,0,0,0,.57.2h0c-.19.2-.38.42-.57.64a6.81,6.81,0,0,1-1.52,1.47c-.72.43-1.45.84-2.18,1.25l-2.2,1.2c-.73.41-1.46.81-2.18,1.23s-1.44.86-2.13,1.32a3.41,3.41,0,0,0-1.83,2.87,3,3,0,0,0,.35,1.22,5.11,5.11,0,0,0,.49.76,3,3,0,0,1,.68,1.88,8.73,8.73,0,0,1-.25,1.6c-.07.26-.13.53-.2.79s-.13.53-.19.8c-.44-.45-1-.84-1.46-1.29l-.25-.27a2.33,2.33,0,0,1-.36-.6,29.18,29.18,0,0,0-1.8-3.77c-.23-.39-.47-.77-.71-1.14a22.07,22.07,0,0,0-1.89-2.47,19.05,19.05,0,0,0-6.93-4.92,22.78,22.78,0,0,0-4-1.22c-.3-.06-.61-.11-.92-.15l-.32,0-.61-.06-.39,0-.56,0h-3.2c-.58,0-1.17,0-1.74-.06h0a5.89,5.89,0,0,1-1.46-.32c-.48-.16-1-.35-1.44-.49.15-.18.31-.36.47-.53.43-.5.87-1,1.26-1.51l.54-.67c.11-.14.21-.29.31-.43a2.68,2.68,0,0,0,.25-.47,1.63,1.63,0,0,0,.11-.42c0-.26,0-.52,0-.79.08-1.88,0-3.77,0-5.66a11.39,11.39,0,0,1,.13-1.37,7.35,7.35,0,0,1,.2-.84,5.1,5.1,0,0,1,1.08-2c0-.05.09-.12.14-.17a4.57,4.57,0,0,1,1.5-1c.18-.07.36-.15.55-.21a8.34,8.34,0,0,1,2.29-.35c.62,0,1.24,0,1.85,0h3.76c.85,0,1.7,0,2.55,0a9.43,9.43,0,0,0,1.23-.14,5.31,5.31,0,0,0,4.49-5.31,7,7,0,0,0-.07-1.22,5.63,5.63,0,0,0-.73-2.11,5.53,5.53,0,0,0-4.83-2.57h-.63l-3.56-.07H134.2l-2.85,0h-.09c-.88,0-1.75,0-2.63,0h-1.4c-1.3,0-2.6.07-3.89.13h-.23a13.07,13.07,0,0,0-7.9,3.11c-.3.27-.6.54-.88.83a13.26,13.26,0,0,0-3.68,8.91q-.14,7.14-.13,14.27t.12,14.27a11.5,11.5,0,0,0,.55,3.42,10.95,10.95,0,0,0,3.67,5.31,12.38,12.38,0,0,0,1.27.87c.34.19.68.38,1,.54a12.59,12.59,0,0,0,5.07,1.18h1.11l1,0,1,0h.9l.43,0a9.52,9.52,0,0,1,1.32.13,3.49,3.49,0,0,1,1.52.75l.73.56.36.28.37.26c-.74.46-1.45,1-2.21,1.43a3.66,3.66,0,0,1-.62.25,4.52,4.52,0,0,1-.75.12h-.26l-.29,0h-.24l-.85,0c-.43,0-.89-.05-1.39-.05-.09,1.3-.25,2.48-.25,3.67,0,2.94,0,5.87,0,8.81v0c0,2.94,0,5.88-.1,8.83h0v6.2A69.28,69.28,0,0,1,94.46,201a70.12,70.12,0,0,1-9.67-13,68.94,68.94,0,0,1-3.66-7.29c-.36-.83-.7-1.68-1-2.53a69.13,69.13,0,0,1,44-90.7,66.21,66.21,0,0,1,6.62-1.71c2.24-.46,4.53-.81,6.85-1a69.31,69.31,0,0,1,14.11,0c2.33.24,4.61.59,6.86,1a66.21,66.21,0,0,1,6.62,1.71,69.09,69.09,0,0,1,30.07,113Z"/></svg>