<svg id="Layer_1" data-name="Layer 1" xmlns="http://www.w3.org/2000/svg" viewBox="0 0 300 300"><defs><style>.cls-1{fill:#f4f5f0;}.cls-2{fill:#4a984d;}.cls-3{fill:#72ae73;}</style></defs><circle class="cls-1" cx="148.42" cy="155.47" r="125"/><path class="cls-2" d="M148.42,36.47a119,119,0,0,1,84.15,203.15A119,119,0,1,1,64.28,71.33a118.2,118.2,0,0,1,84.14-34.86m0-6a125,125,0,1,0,125,125,125,125,0,0,0-125-125Z"/><circle class="cls-2" cx="143.27" cy="96.56" r="14.23"/><circle class="cls-3" cx="181.25" cy="145.61" r="9.86"/><path class="cls-3" d="M161.07,171.87s-.81-15.91,18.84-15.1c17.21,0,16.88,11.69,17.21,15.1Z"/><circle class="cls-3" cx="211.29" cy="145.61" r="9.86"/><path class="cls-3" d="M191.12,171.87S190.3,156,210,156.77c17.21,0,16.89,11.69,17.21,15.1Z"/><circle class="cls-3" cx="204.76" cy="113.25" r="9.86"/><path class="cls-3" d="M184.58,139.51s-.81-15.91,18.84-15.1c17.21,0,16.88,11.69,17.21,15.1Z"/><circle class="cls-3" cx="174.71" cy="113.25" r="9.86"/><path class="cls-3" d="M154.54,139.51s-.81-15.91,18.84-15.1c17.21,0,16.88,11.69,17.21,15.1Z"/><circle class="cls-3" cx="114.55" cy="113.25" r="9.86"/><path class="cls-3" d="M94.38,139.51s-.81-15.91,18.83-15.1c17.22,0,16.89,11.69,17.22,15.1Z"/><circle class="cls-3" cx="85.98" cy="113.25" r="9.86"/><path class="cls-3" d="M69.69,139.51s-.81-15.91,18.83-15.1c17.21,0,16.89,11.69,17.21,15.1Z"/><circle class="cls-3" cx="123.65" cy="145.61" r="9.86"/><path class="cls-3" d="M107,171.87s-.81-15.91,18.84-15.1c17.21,0,16.88,11.69,17.21,15.1Z"/><circle class="cls-3" cx="90.03" cy="145.61" r="9.86"/><path class="cls-3" d="M108.86,171.87S109.68,156,90,156.77c-17.21,0-16.89,11.69-17.21,15.1Z"/><path class="cls-2" d="M131.61,235s7.43.43,8.18-6,2.05-48.84,2.05-48.84a4.75,4.75,0,0,1,4.95-3.34,5.68,5.68,0,0,1,5,3.56l1.62,48.08s1.51,6.92,8.08,6.59a7.68,7.68,0,0,0,7.44-6.37L166.64,162s-1.29-3.23,2.26-36.87c0,0,18.76-16.17,30.52-40.43,0,0,1.29-5.18-3-7.66s-6.9,0-6.9,0-1.19-.75-4.64,6.69-19,27.27-26.63,32.56l-22.1.32S115,99.79,106.16,79c0,0-3.24-5.17-9.17-1.83S95.48,87.5,95.48,87.5s14,25.34,29.11,37.41c0,0,1.84,28.46,2.7,33.53l-2.7,69.76S124,233.7,131.61,235Z"/></svg>