<svg id="Layer_1" data-name="Layer 1" xmlns="http://www.w3.org/2000/svg" width="715.8716" height="568.7339" viewBox="0 0 715.8716 568.7339"><defs><style>.cls-1{fill:#f4f5f0;}.cls-2{fill:#4a984d;}.cls-3{fill:#fff;}.cls-4{fill:#72ae73;}</style></defs><path class="cls-1" d="M222.8879,382.19l-39.4037,22.75-.0467.0273a233.0831,233.0831,0,0,0,83.0291,83.0288l.0271-.0468,22.6883-39.2974A187.8458,187.8458,0,0,1,222.8879,382.19Z"/><path class="cls-2" d="M222.888,382.1906a187.8447,187.8447,0,0,0,66.294,66.4614l-22.6883,39.2974-.0271.0468a233.0831,233.0831,0,0,1-83.0291-83.0288l.0467-.0273,39.4038-22.7495m.3594-1.3623-.8594.4961-39.4038,22.7495-.0522.0307-.8633.5059.5063.8628a234.341,234.341,0,0,0,83.3857,83.3857l.869.5093.5032-.8725.027-.0469L290.048,449.152l.495-.8574-.8522-.5034A187.0684,187.0684,0,0,1,223.75,381.6837l-.5027-.8554Z"/><path class="cls-1" d="M373.2506,295.3784l-27.8788,16.0957a45.8561,45.8561,0,0,0,14.49,14.7568l16.1934-28.0478A12.9419,12.9419,0,0,1,373.2506,295.3784Z"/><path class="cls-2" d="M373.2505,295.3786a12.9424,12.9424,0,0,0,2.8045,2.8047l-16.1934,28.0478a45.8584,45.8584,0,0,1-14.49-14.7568l27.8788-16.0957m.2773-1.315-.7773.4488-27.8788,16.0957-.8874.5127.5339.8745a47.0829,47.0829,0,0,0,14.8059,15.0791l.881.5615.5225-.9048,16.1934-28.0478.4487-.7774-.7242-.53a11.9256,11.9256,0,0,1-2.5878-2.5879l-.53-.7246Z"/><path class="cls-1" d="M342.7875,312.9663l-37.043,21.3867a91.1551,91.1551,0,0,0,31.3309,31.3447l21.2944-36.883A49.0033,49.0033,0,0,1,342.7875,312.9663Z"/><path class="cls-2" d="M342.7875,312.9665A49.0011,49.0011,0,0,0,358.37,328.8146l-21.2943,36.8833a91.1551,91.1551,0,0,1-31.3309-31.3447l37.043-21.3867m.3457-1.3545-.8457.4882-37.043,21.3868-.88.5083.5218.8716a92.3525,92.3525,0,0,0,31.675,31.6889l.8718.522.5081-.88,21.2944-36.8833.48-.8306-.81-.5136a48.2089,48.2089,0,0,1-15.264-15.5244l-.5083-.834Z"/><path class="cls-1" d="M335.5759,368.2949a94.18,94.18,0,0,1-32.4287-32.4424l-37.7293,21.7832a138.1458,138.1458,0,0,0,48.361,48.4126Z"/><path class="cls-2" d="M303.1472,335.8527a94.18,94.18,0,0,0,32.4286,32.4424l-21.7969,37.7534a138.1458,138.1458,0,0,1-48.361-48.4126l37.7293-21.7832m.3529-1.3584-.8529.4922L264.9179,356.77l-.8753.5054.5146.87a139.3508,139.3508,0,0,0,48.7116,48.7632l.87.5166.5059-.8765,21.797-37.7534.4922-.8526-.8447-.5053A93.3753,93.3753,0,0,1,304.0055,335.34l-.5054-.8452Z"/><path class="cls-1" d="M290.6817,446.0542l21.5976-37.4082a141.171,141.171,0,0,1-49.459-49.5108l-37.3349,21.5557A184.8254,184.8254,0,0,0,290.6817,446.0542Z"/><path class="cls-2" d="M262.82,359.1354a141.17,141.17,0,0,0,49.459,49.5107l-21.5976,37.4083a184.8263,184.8263,0,0,1-65.1963-65.3633L262.82,359.1354m.357-1.3608-.857.4946-37.3349,21.5557-.8727.5039.5106.8691a186.0507,186.0507,0,0,0,65.55,65.7173l.87.5142.5052-.875,21.5976-37.4083.4943-.8559-.85-.5044a140.373,140.373,0,0,1-49.1081-49.16l-.5038-.8515Z"/><path class="cls-1" d="M382.2679,274.9853V242.1577a45.3647,45.3647,0,0,0-20.0944,5.697l16.26,28.1623A12.7879,12.7879,0,0,1,382.2679,274.9853Z"/><path class="cls-2" d="M382.2679,242.1579v32.8276a12.7879,12.7879,0,0,0-3.8349,1.0317l-16.26-28.1626a45.3683,45.3683,0,0,1,20.0944-5.6967m1-1.0459-1.0448.0468a46.0714,46.0714,0,0,0-20.5362,5.8223l-.8872.4941.5078.8794,16.2594,28.1626.45.7789.8218-.3648a11.809,11.809,0,0,1,3.5354-.9517l.8942-.0947V241.112Z"/><path class="cls-1" d="M382.2679,197.5756a89.89,89.89,0,0,0-42.6,11.2979l21.0147,36.3984a48.2831,48.2831,0,0,1,21.5855-6.114Z"/><path class="cls-2" d="M382.2679,197.5758v41.5821a48.2817,48.2817,0,0,0-21.5855,6.1142l-21.0148-36.3984a89.8906,89.8906,0,0,1,42.6-11.2979m1-1.0127-1.0127.0127a91.4254,91.4254,0,0,0-43.0728,11.4234l-.8893.4936.5085.8809,21.0147,36.3984.4933.8545.861-.4819a46.9793,46.9793,0,0,1,21.14-5.9878l.9578-.0405V196.5631Z"/><path class="cls-1" d="M382.2679,194.5756V150.934a136.2408,136.2408,0,0,0-65.8988,17.585l21.7989,37.7568A92.8741,92.8741,0,0,1,382.2679,194.5756Z"/><path class="cls-2" d="M382.2679,150.9342v43.6416a92.8737,92.8737,0,0,0-44.1,11.7l-21.7989-37.7568a136.2405,136.2405,0,0,1,65.8988-17.585m1-1.0088-1.0089.0088a137.9714,137.9714,0,0,0-66.3812,17.7139l-.88.4961.505.875,21.799,37.7568.4919.8521.86-.478A92.411,92.411,0,0,1,382.28,195.5758l.9878-.0122V149.9254Z"/><path class="cls-1" d="M382.2679,104.6084a182.2791,182.2791,0,0,0-89.0006,23.8969l21.6021,37.416a139.2241,139.2241,0,0,1,67.3985-17.9873Z"/><path class="cls-2" d="M382.2679,104.6086v43.3256a139.2238,139.2238,0,0,0-67.3985,17.9873l-21.6021-37.416a182.2788,182.2788,0,0,1,89.0006-23.8969m1-1.0079-1.008.0079a184.1983,184.1983,0,0,0-89.4874,24.0278l-.8742.498.503.8711,21.602,37.416.4952.8575.8623-.4864a138.96,138.96,0,0,1,66.9158-17.8584l.9913-.0088V103.6007Z"/><path class="cls-1" d="M291.7676,125.9077a185.2572,185.2572,0,0,1,90.5-24.2993V55.8544A230.8481,230.8481,0,0,0,268.843,86.2011l.0321.0557Z"/><path class="cls-2" d="M382.2679,55.8546v45.754a185.2572,185.2572,0,0,0-90.5,24.2993L268.8751,86.257l-.0321-.0557A230.8478,230.8478,0,0,1,382.2679,55.8546m-.0058-1A232.98,232.98,0,0,0,268.3474,85.3327l-.8719.4975.5009.87.032.0557,22.8931,39.6519.4971.8608.8639-.4917a185.18,185.18,0,0,1,90.0132-24.1684l.9922-.0079V54.8673l-1.0058-.0127Z"/><path class="cls-1" d="M197.32,289.166H151.7069A230.8441,230.8441,0,0,0,182.0534,402.59l.0558-.0322L221.51,379.81A185.27,185.27,0,0,1,197.32,289.166Z"/><path class="cls-2" d="M197.32,289.1662A185.27,185.27,0,0,0,221.51,379.81l-39.4005,22.7476-.0558.0322a230.8441,230.8441,0,0,1-30.3465-113.4238H197.32m.994-1H150.701l.0059,1.0058a232.9788,232.9788,0,0,0,30.4779,113.9136l.4981.8726.87-.502.0559-.0322L222.01,380.6764l.86-.4966-.49-.8632A185.1925,185.1925,0,0,1,198.32,289.16l-.006-.9941Z"/><path class="cls-1" d="M224.1074,378.31l37.335-21.5552a139.2246,139.2246,0,0,1-18.0351-67.5888H200.32A182.2844,182.2844,0,0,0,224.1074,378.31Z"/><path class="cls-2" d="M243.4073,289.1662a139.2246,139.2246,0,0,0,18.0351,67.5888L224.1074,378.31a182.2854,182.2854,0,0,1-23.787-89.144h43.0869m.9921-1H199.3143l.0061,1.0058a184.202,184.202,0,0,0,23.9173,89.6319l.4974.8759.8723-.5034,37.335-21.5552.8581-.4956-.4875-.8628a138.9463,138.9463,0,0,1-17.9057-67.1044l-.0079-.9922Z"/><path class="cls-1" d="M370.8375,289.166H338.7514a45.3822,45.3822,0,0,0,5.2644,19.915L371.8685,293A12.7821,12.7821,0,0,1,370.8375,289.166Z"/><path class="cls-2" d="M370.8375,289.1662a12.7792,12.7792,0,0,0,1.031,3.834l-27.8527,16.081a45.3808,45.3808,0,0,1-5.2644-19.915h32.0861m.8994-1H337.72l.0319,1.0307a46.1056,46.1056,0,0,0,5.3805,20.3531l.4857.9155.8977-.5181,27.8527-16.081.7785-.45-.3643-.8218a11.7821,11.7821,0,0,1-.9508-3.5342l-.095-.8945Z"/><path class="cls-1" d="M292.9722,289.166a89.8861,89.8861,0,0,0,11.3966,42.8051l37.06-21.3964a48.2959,48.2959,0,0,1-5.6772-21.4087Z"/><path class="cls-2" d="M335.7515,289.1662a48.2979,48.2979,0,0,0,5.6771,21.4087l-37.06,21.3964a89.8853,89.8853,0,0,1-11.3966-42.8051h42.7793m.9713-1H291.96l.0125,1.0122a91.404,91.404,0,0,0,11.5233,43.28l.4944.8863.8788-.5073,37.06-21.3965.838-.4839-.4559-.8535a47.0032,47.0032,0,0,1-5.56-20.9668l-.0283-.9707Z"/><path class="cls-1" d="M246.4073,289.166A136.2422,136.2422,0,0,0,264.04,355.2548l37.7313-21.7841a92.8675,92.8675,0,0,1-11.7992-44.3047Z"/><path class="cls-2" d="M289.9722,289.1662a92.8674,92.8674,0,0,0,11.7991,44.3047L264.04,355.255a136.2422,136.2422,0,0,1-17.6328-66.0888h43.5649m.9881-1H245.3991l.0082,1.0083a137.9566,137.9566,0,0,0,17.7621,66.5722l.4965.8789.8742-.5044,37.7312-21.7841.8539-.4932-.4809-.8608a92.3953,92.3953,0,0,1-11.6722-43.8287l-.0118-.9882Z"/><path class="cls-1" d="M335.7845,207.6469,313.9878,169.894a138.1465,138.1465,0,0,0-48.356,48.1748l37.7292,21.7827A94.19,94.19,0,0,1,335.7845,207.6469Z"/><path class="cls-2" d="M313.9878,169.8942l21.7967,37.7529a94.19,94.19,0,0,0-32.4235,32.2046L265.6318,218.069a138.1457,138.1457,0,0,1,48.356-48.1748m.361-1.3745-.87.5137a139.363,139.363,0,0,0-48.7065,48.5239l-.5189.8706.878.5073,37.7292,21.7827.8491.49.5069-.8394a93.3928,93.3928,0,0,1,32.0788-31.8623l.8482-.5049-.4935-.8545-21.7967-37.7529-.505-.8745Z"/><path class="cls-1" d="M358.3229,246.6845l-21.0389-36.44a91.162,91.162,0,0,0-31.3257,31.1064l36.7794,21.2346A49.0031,49.0031,0,0,1,358.3229,246.6845Z"/><path class="cls-2" d="M337.284,210.2448l21.0389,36.44a49.0024,49.0024,0,0,0-15.5852,15.9009l-36.7794-21.2344a91.1611,91.1611,0,0,1,31.3257-31.1064m.3592-1.3779-.8709.5185a92.3721,92.3721,0,0,0-31.67,31.4482l-.5282.8736.8839.51,36.7794,21.2344.8474.4893.5075-.8369a48.2089,48.2089,0,0,1,15.267-15.5757l.8082-.5142-.4789-.83-21.0389-36.44-.5068-.8779Z"/><path class="cls-1" d="M376.0554,277.3984l-16.2408-28.13A45.8564,45.8564,0,0,0,345.32,264.0764l27.9312,16.1262A12.9285,12.9285,0,0,1,376.0554,277.3984Z"/><path class="cls-2" d="M359.8146,249.2687l16.2408,28.13a12.9285,12.9285,0,0,0-2.8044,2.8042L345.32,264.0763a45.8577,45.8577,0,0,1,14.4949-14.8076m.343-1.4058-.8814.563a47.0748,47.0748,0,0,0-14.8111,15.1314l-.531.8735.8856.5117L372.751,281.069l.7773.4487.53-.7246a11.9246,11.9246,0,0,1,2.5876-2.5874l.7245-.53-.4488-.7773-16.2408-28.13-.523-.9058Z"/><path class="cls-1" d="M312.4882,167.2968,290.89,129.8881a184.8205,184.8205,0,0,0-65.1911,65.1255l37.3352,21.5552A141.1719,141.1719,0,0,1,312.4882,167.2968Z"/><path class="cls-2" d="M290.89,129.8883l21.598,37.4087a141.1711,141.1711,0,0,0-49.4538,49.272l-37.3352-21.5552a184.8211,184.8211,0,0,1,65.191-65.1255m.3616-1.374-.8693.5127a186.0564,186.0564,0,0,0-65.5443,65.478l-.5137.87.8747.5053,37.3352,21.5552.8545.4932.5048-.8477a140.3863,140.3863,0,0,1,49.1029-48.9223l.8527-.504-.4951-.8574-21.5979-37.4087-.5045-.874Z"/><path class="cls-1" d="M223.1018,193.5141a187.8435,187.8435,0,0,1,66.2888-66.2236L266.4937,87.6318l-.027-.0469a233.0792,233.0792,0,0,0-83.0291,83.0288l.0466.0269Z"/><path class="cls-2" d="M266.4667,87.5851l.027.0469,22.8969,39.6587a187.8427,187.8427,0,0,0-66.2888,66.2236l-39.6176-22.8735-.0466-.0269a233.0792,233.0792,0,0,1,83.0291-83.0288m.3639-1.3725-.87.51a234.34,234.34,0,0,0-83.3856,83.3858l-.51.8691.8729.5029.0466.0269,39.617,22.8735.8575.4951.5035-.853a187.0783,187.0783,0,0,1,65.9356-65.8706l.8538-.5029-.4955-.8584L267.36,87.132l-.0262-.0454-.5029-.874Z"/><path class="cls-1" d="M567.1721,286.416a182.2838,182.2838,0,0,0-24.0378-89.12l-37.7006,21.7666a139.216,139.216,0,0,1,18.1682,67.3531Z"/><path class="cls-2" d="M543.1343,197.2965a182.2838,182.2838,0,0,1,24.0378,89.12h-43.57a139.2149,139.2149,0,0,0-18.1682-67.3531l37.7007-21.7666m.37-1.3681-.87.5019-37.7007,21.7666-.86.4966.49.8633a138.9423,138.9423,0,0,1,18.0378,66.8706l.0112.9888h45.5677l-.0088-1.0088A184.182,184.182,0,0,0,544.0025,196.8l-.4984-.872Z"/><path class="cls-1" d="M520.6019,286.416a136.234,136.234,0,0,0-17.7658-65.8535l-37.8488,21.852a92.8586,92.8586,0,0,1,11.8939,44.0015Z"/><path class="cls-2" d="M502.8361,220.5627a136.2328,136.2328,0,0,1,17.7657,65.8535H476.8811a92.857,92.857,0,0,0-11.8938-44.0015l37.8488-21.852m.3724-1.37-.8724.5034-37.8488,21.8521-.8558.4941.4838.8618a92.3933,92.3933,0,0,1,11.766,43.5289l.0168.9829h45.7155l-.0118-1.0118a137.9546,137.9546,0,0,0-17.8961-66.3354l-.4972-.876Z"/><path class="cls-1" d="M473.8812,286.416A89.8783,89.8783,0,0,0,462.39,243.914l-35.4161,20.4475a48.299,48.299,0,0,1,5.9668,22.0545Z"/><path class="cls-2" d="M462.39,243.9142a89.8794,89.8794,0,0,1,11.4913,42.502H432.9405a48.3018,48.3018,0,0,0-5.9668-22.0547L462.39,243.9142m.3768-1.3721-.8768.5059-35.4161,20.4473-.8486.49.4725.8584a47.6191,47.6191,0,0,1,5.8432,21.5991l.0262.9732h42.932l-.018-1.0176a91.41,91.41,0,0,0-11.6191-42.9736l-.4953-.8829Z"/><path class="cls-1" d="M396.4483,286.416h33.4923a45.3888,45.3888,0,0,0-5.55-20.5633L395.4169,282.581A12.7815,12.7815,0,0,1,396.4483,286.416Z"/><path class="cls-2" d="M424.3907,265.8527a45.3881,45.3881,0,0,1,5.55,20.5635H396.4482a12.7813,12.7813,0,0,0-1.0313-3.835l28.9738-16.7285m.3859-1.3775-.8859.5113L394.9169,281.715l-.7786.45.3644.8218a11.7863,11.7863,0,0,1,.9511,3.5351l.095.8946H430.97l-.0293-1.0284a46.7127,46.7127,0,0,0-5.6723-21.0156l-.4913-.897Z"/><path class="cls-1" d="M570.1721,286.416h45.4068a230.8476,230.8476,0,0,0-30.3465-113.4253l-.0558.0322-39.4447,22.7734A185.2661,185.2661,0,0,1,570.1721,286.416Z"/><path class="cls-2" d="M585.2323,172.9909a230.8477,230.8477,0,0,1,30.3466,113.4253H570.1721a185.2683,185.2683,0,0,0-24.44-90.62l39.4447-22.7734.0557-.0322m.37-1.3687-.87.503-.0558.0322L545.2319,194.93l-.8623.4981.4942.8642a185.1762,185.1762,0,0,1,24.3084,90.1319l.0084.9917h47.4042l-.0059-1.0059a232.982,232.982,0,0,0-30.478-113.915l-.4983-.8731Z"/><path class="cls-1" d="M474.07,128.4155a182.2821,182.2821,0,0,0-89.0525-23.81v43.3321A139.2227,139.2227,0,0,1,452.35,166.0356Z"/><path class="cls-2" d="M385.0179,104.6056a182.2821,182.2821,0,0,1,89.0525,23.81l-21.72,37.62a139.2227,139.2227,0,0,0-67.3324-18.0981V104.6056m-1-1.0068v45.3281l.9893.0108a138.9571,138.9571,0,0,1,66.85,17.9682l.8631.4888.4959-.8589,21.72-37.62.5035-.8721-.8756-.4975a184.2022,184.2022,0,0,0-89.54-23.94l-1.0068-.0068Z"/><path class="cls-1" d="M450.8506,168.6333a136.24,136.24,0,0,0-65.8327-17.6958V194.581a92.8621,92.8621,0,0,1,43.9958,11.875Z"/><path class="cls-2" d="M385.0179,150.9377a136.24,136.24,0,0,1,65.8327,17.6958l-21.8369,37.8227a92.8621,92.8621,0,0,0-43.9958-11.875V150.9377m-1-1.0108v45.6377l.9832.0166a92.3961,92.3961,0,0,1,43.5233,11.7471l.8614.4834.4939-.8555,21.8369-37.8227.5042-.8736-.8775-.4966a137.9626,137.9626,0,0,0-66.3146-17.8256l-1.0108-.0108Z"/><path class="cls-1" d="M427.5139,209.0537a89.8789,89.8789,0,0,0-42.496-11.4727v41.5413a48.3007,48.3007,0,0,1,21.92,5.57Z"/><path class="cls-2" d="M385.0179,197.5812a89.8789,89.8789,0,0,1,42.496,11.4727L406.938,244.6925a48.3016,48.3016,0,0,0-21.92-5.57v-41.541m-1-1.0176v43.545l.9862.0136a46.9918,46.9918,0,0,1,21.4676,5.4551l.8512.4487.4811-.8335L428.38,209.5539l.5064-.877-.8835-.4956a91.4122,91.4122,0,0,0-42.9676-11.6l-1.0173-.0176Z"/><path class="cls-1" d="M388.8528,276.017,405.4442,247.28a45.3962,45.3962,0,0,0-20.4263-5.1572v32.863A12.7879,12.7879,0,0,1,388.8528,276.017Z"/><path class="cls-2" d="M385.0179,242.1222a45.4017,45.4017,0,0,1,20.4263,5.1572l-16.5914,28.7378a12.79,12.79,0,0,0-3.8349-1.0317V242.1222m-1-1.0146v34.7773l.8941.0947a11.809,11.809,0,0,1,3.5354.9517l.8219.3648.45-.7789L406.31,247.7794l.5215-.9033-.9243-.4829a46.1073,46.1073,0,0,0-20.875-5.271l-1.0145-.0146Z"/><path class="cls-1" d="M498.4107,86.2568l.032-.0557A230.8474,230.8474,0,0,0,385.0179,55.8544v45.751A185.2619,185.2619,0,0,1,475.57,125.8178Z"/><path class="cls-2" d="M385.0179,55.8546A230.8477,230.8477,0,0,1,498.4427,86.2013l-.0321.0557-22.84,39.561a185.2619,185.2619,0,0,0-90.5523-24.2124V55.8546m-1-1.0058v47.75l.9933.0068a185.183,185.183,0,0,1,90.0649,24.0821l.8635.4907.4966-.86,22.8405-39.561.0327-.0571.5006-.87-.8717-.4975A232.98,232.98,0,0,0,385.0237,54.8546l-1.0058-.0058Z"/><path class="cls-1" d="M544.3427,193.4223l39.4589-22.7817.0466-.0269A233.0786,233.0786,0,0,0,500.819,87.5849l-.0269.0469-22.8427,39.5649A187.8387,187.8387,0,0,1,544.3427,193.4223Z"/><path class="cls-2" d="M500.819,87.5851a233.0792,233.0792,0,0,1,83.0291,83.0288l-.0465.0269-39.4589,22.7817a187.839,187.839,0,0,0-66.3934-66.2256L500.792,87.632l.027-.0469m-.3636-1.3725-.503.8735-.0269.0469-22.8422,39.5639-.496.8594.8552.5024a187.07,187.07,0,0,1,66.0394,65.8731l.5038.8516.857-.4947,39.4589-22.7817.0462-.0269.8725-.5034-.51-.8686a234.3392,234.3392,0,0,0-83.3858-83.3858l-.87-.51Z"/><path class="cls-1" d="M476.45,129.7939,454.7286,167.416A141.1722,141.1722,0,0,1,504.05,216.6855l37.6954-21.7637A184.8245,184.8245,0,0,0,476.45,129.7939Z"/><path class="cls-2" d="M476.45,129.7941a184.824,184.824,0,0,1,65.2956,65.1279L504.05,216.6857a141.1719,141.1719,0,0,0-49.3211-49.2695l21.721-37.6221m-.362-1.373-.504.873-21.7211,37.6221-.4943.8559.8505.5044a140.3962,140.3962,0,0,1,48.9713,48.92l.5044.8492.8553-.4937,37.6955-21.7637.8752-.5053-.5146-.87a186.0519,186.0519,0,0,0-65.6493-65.48l-.8689-.5112Z"/><path class="cls-1" d="M431.3928,207.8349a94.1851,94.1851,0,0,1,32.2143,32.2l37.8453-21.85a138.1446,138.1446,0,0,0-48.2234-48.1714Z"/><path class="cls-2" d="M453.229,170.0138a138.1446,138.1446,0,0,1,48.2234,48.1714l-37.8454,21.85a94.1848,94.1848,0,0,0-32.2142-32.2l21.8362-37.8213m-.36-1.376-.5058.876-21.8362,37.8213-.4915.8516.8428.5058A93.3981,93.3981,0,0,1,462.75,240.55l.5061.8423.851-.4912,37.8454-21.85.8771-.5068-.5175-.8706a139.3764,139.3764,0,0,0-48.5729-48.52l-.87-.5157Z"/><path class="cls-1" d="M425.5744,261.9931,461.01,241.5346a91.1637,91.1637,0,0,0-31.1164-31.1025l-20.5567,35.6055A48.9959,48.9959,0,0,1,425.5744,261.9931Z"/><path class="cls-2" d="M429.8932,210.4323A91.1631,91.1631,0,0,1,461.01,241.5348l-35.4354,20.4585a48.9953,48.9953,0,0,0-16.2378-15.9556l20.5567-35.6054m-.3571-1.3814-.5089.8814-20.5567,35.6054-.4911.8506.8416.5064a48.1692,48.1692,0,0,1,15.9059,15.6294l.5122.8174.8352-.482L461.51,242.401l.8818-.5092-.5249-.8726a92.3825,92.3825,0,0,0-31.4582-31.4439l-.8723-.5244Z"/><path class="cls-1" d="M394.0347,280.2026,422.99,263.4848A45.8524,45.8524,0,0,0,407.8458,248.62L391.23,277.3984A12.9281,12.9281,0,0,1,394.0347,280.2026Z"/><path class="cls-2" d="M407.8457,248.62A45.8485,45.8485,0,0,1,422.99,263.485l-28.9556,16.7178a12.9263,12.9263,0,0,0-2.8044-2.8042L407.8457,248.62m-.3567-1.3819-.5093.8819-16.6154,28.7788-.4488.7773.7246.53a11.9241,11.9241,0,0,1,2.5875,2.5874l.53.7246.7772-.4487L423.49,264.3512l.8994-.5195-.5528-.8789a47.0413,47.0413,0,0,0-15.4753-15.19l-.8726-.5249Z"/><path class="cls-1" d="M200.3265,286.416h43.0869a139.2165,139.2165,0,0,1,18.2343-67.4712l-37.3353-21.5557A182.283,182.283,0,0,0,200.3265,286.416Z"/><path class="cls-2" d="M224.3124,197.3893l37.3353,21.5557a139.2165,139.2165,0,0,0-18.2343,67.4712H200.3266a182.2818,182.2818,0,0,1,23.9858-89.0269m-.37-1.3686-.4982.873a184.191,184.191,0,0,0-24.1173,89.5137l-.0088,1.0088h45.0843l.0112-.9888A138.9343,138.9343,0,0,1,262.5168,219.44l.4916-.8638-.8607-.497-37.3353-21.5557-.87-.5024Z"/><path class="cls-1" d="M264.2452,220.4443a136.2372,136.2372,0,0,0-17.8318,65.9717h43.5649a92.8575,92.8575,0,0,1,11.9982-44.1875Z"/><path class="cls-2" d="M264.2453,220.4445l37.7311,21.7842a92.8585,92.8585,0,0,0-11.9981,44.1875H246.4134a136.2362,136.2362,0,0,1,17.8319-65.9717m-.3716-1.3692-.4976.8746a137.949,137.949,0,0,0-17.9626,66.4545l-.0118,1.0118h45.56l.0168-.9829a92.3816,92.3816,0,0,1,11.869-43.7129l.4869-.8623-.8577-.4956-37.7311-21.7842-.8716-.503Z"/><path class="cls-1" d="M304.5739,243.728a89.88,89.88,0,0,0-11.5956,42.688h42.77a48.294,48.294,0,0,1,5.6359-21.4353Z"/><path class="cls-2" d="M304.5738,243.7282l36.8108,21.2524a48.2977,48.2977,0,0,0-5.636,21.4356h-42.77a89.8815,89.8815,0,0,1,11.5955-42.688m-.3747-1.3711-.4962.88a91.396,91.396,0,0,0-11.7244,43.1616l-.0179,1.0176h44.7615l.0262-.9732a47.0041,47.0041,0,0,1,5.5192-20.9927l.4534-.853-.8363-.4829L305.0738,242.862l-.8747-.5049Z"/><path class="cls-1" d="M371.869,282.581l-27.8972-16.1067a45.3829,45.3829,0,0,0-5.2233,19.9417h32.089A12.7786,12.7786,0,0,1,371.869,282.581Z"/><path class="cls-2" d="M343.9717,266.4743l27.8972,16.1069a12.7815,12.7815,0,0,0-1.0314,3.835h-32.089a45.3833,45.3833,0,0,1,5.2232-19.9419m-.4-1.3853-.4848.9185a46.1089,46.1089,0,0,0-5.3384,20.38l-.0293,1.0284h34.0173l.095-.8946a11.7865,11.7865,0,0,1,.9512-3.5351l.3643-.8218-.7785-.45-27.8972-16.1069-.9-.5191Z"/><path class="cls-1" d="M197.3265,286.416a185.2672,185.2672,0,0,1,24.3882-90.5269l-39.6055-22.8662-.0558-.0322A230.8476,230.8476,0,0,0,151.7069,286.416h45.62Z"/><path class="cls-2" d="M182.0534,172.9909l.0558.0322,39.6055,22.8662a185.266,185.266,0,0,0-24.3881,90.5269h-45.62a230.8476,230.8476,0,0,1,30.3465-113.4253m-.37-1.3687-.4982.8731a232.98,232.98,0,0,0-30.478,113.915l-.0059,1.0059h47.617l.0085-.9917a185.1853,185.1853,0,0,1,24.2567-90.04l.4934-.8642-.8619-.4976-39.6055-22.8662-.0557-.0317-.87-.503Z"/><path class="cls-1" d="M316.1573,407.4287a136.2418,136.2418,0,0,0,66.1106,17.7036V381.49a92.8732,92.8732,0,0,1-44.3113-11.8184Z"/><path class="cls-2" d="M337.9565,369.6715A92.8739,92.8739,0,0,0,382.2679,381.49v43.6426a136.2415,136.2415,0,0,1-66.1106-17.7036l21.7992-37.7574m-.3728-1.354-.4932.854-21.7993,37.7574-.5041.873.8774.4971a137.9512,137.9512,0,0,0,66.5945,17.8335l1.0089.0088V380.5021l-.9878-.0122a92.4028,92.4028,0,0,1-43.8355-11.6909l-.8609-.4815Z"/><path class="cls-1" d="M339.4562,367.0737a89.89,89.89,0,0,0,42.8117,11.416V336.3112a48.2822,48.2822,0,0,1-21.5371-6.0861Z"/><path class="cls-2" d="M360.7308,330.2252a48.2779,48.2779,0,0,0,21.5371,6.086V378.49a89.89,89.89,0,0,1-42.8117-11.416l21.2746-36.8487m-.3733-1.3535-.4928.8535L338.59,366.5739l-.5071.8784.8855.4946a91.4068,91.4068,0,0,0,43.2867,11.543l1.0127.0127v-44.15l-.9578-.0405a46.9786,46.9786,0,0,1-21.0921-5.96l-.8605-.4805Z"/><path class="cls-1" d="M378.4326,299.5649l-16.2107,28.0774a45.3623,45.3623,0,0,0,20.046,5.6692V300.5961A12.786,12.786,0,0,1,378.4326,299.5649Z"/><path class="cls-2" d="M378.4325,299.5651a12.7875,12.7875,0,0,0,3.8354,1.0312v32.7154a45.3622,45.3622,0,0,1-20.046-5.6695l16.2106-28.0771m-.4166-1.2783-.4494.7783-16.2106,28.0771-.5083.88.8886.4937a46.0671,46.0671,0,0,0,20.4869,5.7944l1.0448.0469V299.6969l-.8946-.0952a11.78,11.78,0,0,1-3.5358-.9512l-.8216-.3637Z"/><path class="cls-1" d="M293.0559,447.4418a182.2853,182.2853,0,0,0,89.212,24.0157V428.1323a139.22,139.22,0,0,1-67.61-18.106Z"/><path class="cls-2" d="M314.6575,410.0265a139.22,139.22,0,0,0,67.61,18.106v43.3252a182.2857,182.2857,0,0,1-89.2121-24.0157l21.6017-37.4155m-.37-1.3589-.496.8589L292.19,446.942l-.5023.87.8724.498a184.1837,184.1837,0,0,0,89.7,24.1475l1.008.0078V427.1413l-.9913-.0088A138.94,138.94,0,0,1,315.15,409.1564l-.863-.4888Z"/><path class="cls-1" d="M268.8751,489.3242l-.0321.0556a230.8457,230.8457,0,0,0,113.4249,30.3467v-45.269A185.2659,185.2659,0,0,1,291.556,450.04Z"/><path class="cls-2" d="M291.556,450.04a185.2659,185.2659,0,0,0,90.7119,24.418v45.269A230.8457,230.8457,0,0,1,268.843,489.38l.0321-.0556L291.556,450.04m-.3683-1.3623-.4977.8623-22.681,39.2847-.0323.0561-.5018.87.8724.4981a232.98,232.98,0,0,0,113.9148,30.478l1.0058.0059V473.4655l-.9922-.0078a185.1728,185.1728,0,0,1-90.2236-24.2862l-.8644-.4941Z"/><path class="cls-1" d="M567.1783,289.166h-43.57a139.2227,139.2227,0,0,1-17.969,67.4707l37.7,21.7661A182.2854,182.2854,0,0,0,567.1783,289.166Z"/><path class="cls-2" d="M567.1783,289.1662a182.2865,182.2865,0,0,1-23.839,89.2368l-37.7-21.7661a139.2238,139.2238,0,0,0,17.969-67.4707h43.57m1.0061-1H522.6159l-.0079.9922a138.955,138.955,0,0,1-17.84,66.9873l-.4862.8623.8573.4951,37.7,21.7661.8718.5029.4975-.875a184.1928,184.1928,0,0,0,23.97-89.7251l.0061-1.0058Z"/><path class="cls-1" d="M462.5949,331.7851a89.8889,89.8889,0,0,0,11.2924-42.6191h-40.95a48.2962,48.2962,0,0,1-6.012,22.0254Z"/><path class="cls-2" d="M473.8872,289.1662a89.8877,89.8877,0,0,1-11.2924,42.6191l-35.6692-20.5937a48.2981,48.2981,0,0,0,6.012-22.0254h40.95m1.0125-1H431.9663l-.0283.9707a47.6172,47.6172,0,0,1-5.8875,21.5708l-.4751.8589.85.4912,35.6692,20.5937.881.5083.4934-.8891a91.4241,91.4241,0,0,0,11.418-43.0923l.0125-1.0122Z"/><path class="cls-1" d="M395.4172,293l28.9255,16.7a45.3834,45.3834,0,0,0,5.5951-20.5342H396.4483A12.7793,12.7793,0,0,1,395.4172,293Z"/><path class="cls-2" d="M429.9377,289.1662A45.3814,45.3814,0,0,1,424.3426,309.7L395.4172,293a12.7792,12.7792,0,0,0,1.031-3.834h33.49m1.0314-1h-35.42l-.095.8945a11.7792,11.7792,0,0,1-.9508,3.5342l-.3643.8218.7785.45,28.9254,16.7.884.51.4921-.8945a46.7017,46.7017,0,0,0,5.7185-20.9854l.0319-1.0307Z"/><path class="cls-1" d="M503.0413,355.1367A136.2393,136.2393,0,0,0,520.608,289.166H476.8873a92.8658,92.8658,0,0,1-11.6949,44.1186Z"/><path class="cls-2" d="M520.608,289.1662a136.2394,136.2394,0,0,1-17.5668,65.9707l-37.8488-21.8521a92.8658,92.8658,0,0,0,11.6948-44.1186H520.608m1.0081-1H475.8992l-.0119.9882a92.4032,92.4032,0,0,1-11.569,43.6446l-.4779.86.852.4922,37.8488,21.8521.8751.5049.4961-.88a137.9652,137.9652,0,0,0,17.6956-66.4536l.0081-1.0083Z"/><path class="cls-1" d="M545.937,379.9028l39.24,22.6548.0558.0322A230.8441,230.8441,0,0,0,615.5789,289.166H570.1783A185.27,185.27,0,0,1,545.937,379.9028Z"/><path class="cls-2" d="M615.5789,289.1662A230.8462,230.8462,0,0,1,585.2324,402.59l-.0558-.0322-39.24-22.6548a185.2711,185.2711,0,0,0,24.2414-90.7368h45.4006m1.0059-1H569.1842l-.0059.9941a185.1873,185.1873,0,0,1-24.1106,90.2485l-.4912.8633.86.4971,39.24,22.6548.0559.0322.87.502.4981-.8726a232.98,232.98,0,0,0,30.478-113.9136l.0059-1.0058Z"/><path class="cls-1" d="M385.0179,381.4843v43.6446a136.2426,136.2426,0,0,0,66.0445-17.8145l-21.8372-37.8232A92.86,92.86,0,0,1,385.0179,381.4843Z"/><path class="cls-2" d="M429.2252,369.4914l21.8372,37.8232a136.2426,136.2426,0,0,1-66.0445,17.8145V381.4845a92.86,92.86,0,0,0,44.2073-11.9931m.3709-1.3575-.8624.4864a92.3794,92.3794,0,0,1-43.7326,11.8642l-.9832.0166V426.14l1.0108-.0107a137.9479,137.9479,0,0,0,66.528-17.9454l.875-.4975-.5033-.8716-21.8372-37.8232-.4951-.8575Z"/><path class="cls-1" d="M385.0179,378.4843a89.8753,89.8753,0,0,0,42.7076-11.5908l-20.8371-36.0911a48.3016,48.3016,0,0,1-21.87,5.5445Z"/><path class="cls-2" d="M406.8883,330.8024l20.8372,36.0913a89.8767,89.8767,0,0,1-42.7076,11.5908V336.3468a48.2982,48.2982,0,0,0,21.87-5.5444m.3855-1.3325-.8507.4472a46.9949,46.9949,0,0,1-21.4189,5.43l-.9863.0137v44.1416l1.0172-.0176a91.3957,91.3957,0,0,0,43.1816-11.72l.88-.4961-.5051-.875-20.8371-36.0913-.4806-.8325Z"/><path class="cls-1" d="M388.8532,299.5649a12.7868,12.7868,0,0,1-3.8353,1.0312v32.751a45.3976,45.3976,0,0,0,20.3767-5.1318Z"/><path class="cls-2" d="M388.8532,299.5651l16.5414,28.65a45.4,45.4,0,0,1-20.3767,5.1318v-32.751a12.7876,12.7876,0,0,0,3.8353-1.0312m.4167-1.2783-.8217.3637a11.78,11.78,0,0,1-3.5358.9512l-.8945.0952V334.362l1.0146-.0147a46.1084,46.1084,0,0,0,20.8242-5.2451l.926-.4824-.5221-.9043-16.5414-28.65-.4493-.7783Z"/><path class="cls-1" d="M385.0179,471.46a182.2834,182.2834,0,0,0,89.264-23.9282l-21.72-37.62a139.22,139.22,0,0,1-67.5443,18.2168Z"/><path class="cls-2" d="M452.5622,409.9123l21.72,37.62a182.2837,182.2837,0,0,1-89.264,23.9282v-43.331a139.22,139.22,0,0,0,67.5443-18.2168m.3692-1.36-.8637.4912a138.9361,138.9361,0,0,1-67.06,18.086l-.9893.0107v45.3271l1.0068-.0068a184.1831,184.1831,0,0,0,89.7523-24.06l.8737-.4975-.5028-.8711-21.72-37.62-.4968-.86Z"/><path class="cls-1" d="M475.7817,450.1293A185.2689,185.2689,0,0,1,385.0179,474.46v45.2666A230.8457,230.8457,0,0,0,498.4428,489.38l-.0321-.0556Z"/><path class="cls-2" d="M475.7817,450.13l22.6289,39.1949.0322.0556a230.8457,230.8457,0,0,1-113.4249,30.3467V474.46A185.2689,185.2689,0,0,0,475.7817,450.13m.3687-1.3613-.8639.4927A185.1832,185.1832,0,0,1,385.0112,473.46l-.9933.0068V520.714l1.0058.0127a232.9808,232.9808,0,0,0,113.9148-30.478l.8731-.4985-.503-.8707-.0321-.0556L476.6477,449.63l-.4973-.8613Z"/><path class="cls-1" d="M541.9591,380.7822,504.2639,359.019a141.1725,141.1725,0,0,1-49.3263,49.5078l21.7207,37.6211A184.8227,184.8227,0,0,0,541.9591,380.7822Z"/><path class="cls-2" d="M504.2638,359.0192l37.6952,21.7632a184.8211,184.8211,0,0,1-65.3008,65.3657L454.9375,408.527a141.1716,141.1716,0,0,0,49.3263-49.5078m-.3578-1.3613-.5034.853a140.3852,140.3852,0,0,1-48.9764,49.1567l-.8482.5049.4935.8545,21.7207,37.6211.5047.874.8694-.5127a186.04,186.04,0,0,0,65.6545-65.72l.5115-.8691-.8733-.5044L504.7638,358.153l-.8578-.4951Z"/><path class="cls-1" d="M431.6014,368.1069l21.8365,37.8223a138.1531,138.1531,0,0,0,48.2284-48.41l-37.8454-21.85A94.1827,94.1827,0,0,1,431.6014,368.1069Z"/><path class="cls-2" d="M463.8208,335.67l37.8455,21.85a138.1525,138.1525,0,0,1-48.2285,48.41l-21.8364-37.8223A94.1824,94.1824,0,0,0,463.8208,335.67m-.3548-1.3594-.5046.8482a93.3865,93.3865,0,0,1-31.8769,32.0927l-.8395.5069.49.8491,21.8365,37.8223.5068.8779.8708-.5186a139.3694,139.3694,0,0,0,48.578-48.7607l.5134-.87-.8745-.5049-37.8455-21.85-.8548-.4932Z"/><path class="cls-1" d="M391.2308,298.1831l16.5668,28.6943a45.85,45.85,0,0,0,15.1406-14.8118l-28.903-16.6872A12.9419,12.9419,0,0,1,391.2308,298.1831Z"/><path class="cls-2" d="M394.0352,295.3786l28.903,16.687a45.8487,45.8487,0,0,1-15.1407,14.812l-16.5667-28.6943a12.9441,12.9441,0,0,0,2.8044-2.8047m-.2773-1.315-.53.7246a11.9261,11.9261,0,0,1-2.5879,2.5879l-.7241.53.4486.7774,16.5668,28.6943.5087.8809.8721-.5235A47.0393,47.0393,0,0,0,423.7836,312.6l.5558-.88-.9012-.52-28.903-16.687-.7773-.4488Z"/><path class="cls-1" d="M409.2883,329.46l20.8135,36.05a91.16,91.16,0,0,0,31.1218-31.34l-35.7014-20.6123A48.9948,48.9948,0,0,1,409.2883,329.46Z"/><path class="cls-2" d="M425.5221,313.5578,461.2236,334.17a91.16,91.16,0,0,1-31.1218,31.34l-20.8135-36.05a48.9974,48.9974,0,0,0,16.2338-15.9018m-.3335-1.3472-.5128.8145a48.176,48.176,0,0,1-15.902,15.5771l-.8432.5059.4917.8515,20.8135,36.05.51.8838.8732-.5278a92.3721,92.3721,0,0,0,31.4636-31.6841l.5184-.8711-.8776-.5068-35.7015-20.6123-.8335-.481Z"/><path class="cls-1" d="M544.5565,382.2817a187.8424,187.8424,0,0,1-66.3985,66.4639l22.6341,39.2036.0271.0468a233.0831,233.0831,0,0,0,83.0291-83.0288l-.0467-.0273Z"/><path class="cls-2" d="M544.5565,382.2819,583.8016,404.94l.0466.0273a233.0816,233.0816,0,0,1-83.0291,83.0288l-.0271-.0468-22.6341-39.2036a187.8418,187.8418,0,0,0,66.3986-66.4639m-.3589-1.3618-.503.8545a187.0554,187.0554,0,0,1-66.0446,66.11l-.8535.5034.4954.858,22.6341,39.2036.0275.0473.5038.8711.8678-.5088a234.341,234.341,0,0,0,83.3857-83.3857l.5063-.8633-.8636-.5054-.0467-.0273-39.25-22.6616-.8589-.4956Z"/><path class="cls-1" d="M443.406,49.6388V40.42L441.03,42.1125l-1.4946-2.2686,4.267-2.7725h2.9532V49.6388Z"/><path class="cls-1" d="M555.4134,117.0148V114.62c2.1606-1.8545,3.0429-2.6475,3.8169-3.4571,1.2246-1.2783,1.6923-2.1972,1.6923-2.8632,0-1.0079-.6479-1.584-1.7822-1.584a7.61,7.61,0,0,0-3.2949.8642l-.126-2.6113a11.0894,11.0894,0,0,1,3.7451-.7383c3.0069,0,4.8072,1.3692,4.8072,3.6914,0,1.5664-1.0264,3.6914-4.7354,6.7158h4.97v2.377Z"/><path class="cls-1" d="M628.46,214.0089a2.8091,2.8091,0,0,1,2.503,2.8623c0,2.81-2.5381,3.9073-5.5274,3.9073a11.5728,11.5728,0,0,1-3.6367-.4317l.1621-2.6474a6.3152,6.3152,0,0,0,3.0781.5947c1.2969,0,2.5752-.4326,2.5752-1.6025,0-.9-.7207-1.44-2.3232-1.44-.5215,0-.9717.0176-1.3682.0362v-2.2325c.3067.0352.8106.0352,1.2608.0352,1.3867,0,2.2324-.5762,2.2324-1.3857,0-.9-.63-1.44-2.1787-1.44a7.5814,7.5814,0,0,0-2.8984.5039l-.1622-2.4668a12.2447,12.2447,0,0,1,3.6368-.5224c3.0791,0,4.9511,1.1347,4.9511,3.4394a2.7916,2.7916,0,0,1-2.3047,2.7549Z"/><path class="cls-1" d="M627.3694,356.048v-2.3945h-5.6176v-2.6651l5.0415-7.5078h3.7089v7.9043h1.7828v2.2686h-1.7828v2.3945Zm.2158-9.9746H627.55l-3.4214,5.3115h3.457Z"/><path class="cls-1" d="M565.7815,468.5041a6.8842,6.8842,0,0,0,3.0606.6845c1.6562,0,2.539-.7207,2.539-2.0166,0-1.2783-1.2246-1.8369-2.8085-1.8369a10.8407,10.8407,0,0,0-2.7188.3067l.09-6.752h8.1924v2.2686h-5.3115v2.0888c.252-.0185.72-.0722,1.044-.0722,2.4492,0,4.7539,1.0976,4.7539,3.8886,0,3.0069-2.0352,4.6094-5.5459,4.6094a13.29,13.29,0,0,1-3.3487-.45Z"/><path class="cls-1" d="M455.158,527.2511a4.8085,4.8085,0,0,0-2.6289-.666c-2.0166,0-2.9346,1.1524-2.9526,3.6914h.0361a3.0555,3.0555,0,0,1,2.7187-1.2773,3.694,3.694,0,0,1,3.7632,3.9609,4.412,4.412,0,0,1-4.7177,4.2481c-3.1866,0-4.8252-2.2676-4.8252-5.959,0-4.4121,1.7822-7.041,5.5634-7.041a8.6283,8.6283,0,0,1,3.2412.5761Zm-2.1968,6.0137c0-1.1328-.5039-1.998-1.602-1.998a1.6689,1.6689,0,0,0-1.6387,1.8554,1.7126,1.7126,0,0,0,1.6387,1.9258A1.6088,1.6088,0,0,0,452.9612,533.2648Z"/><path class="cls-1" d="M308.7351,536.9933l4.6817-10.1914h-5.6177v-2.376h9.0386v2.7188l-4.5015,9.8486Z"/><path class="cls-1" d="M202.8973,464.8136c1.7465.54,2.539,1.53,2.539,3.0967,0,2.4307-1.9087,3.7627-4.9336,3.7627-3.0971,0-4.8974-1.2783-4.8974-3.583a3.0358,3.0358,0,0,1,2.4848-3.0967v-.0176a3.0042,3.0042,0,0,1-2.1606-2.6836c0-2.3584,1.7641-3.6191,4.7173-3.6191,2.6826,0,4.3213,1.1523,4.3213,3.2236a2.9819,2.9819,0,0,1-2.0708,2.8809Zm-4.0513,3.0244a1.58,1.58,0,0,0,1.6206,1.5664,1.5986,1.5986,0,0,0,1.7285-1.62c0-.8466-.5942-1.44-1.8906-1.8183C199.2962,466.4337,198.846,467.01,198.846,467.838Zm3.0972-5.6718a1.38,1.38,0,0,0-1.5308-1.3321,1.4446,1.4446,0,0,0-1.458,1.4766c0,.63.3057,1.1523,1.5664,1.6562C201.5472,463.3908,201.9432,462.9044,201.9432,462.1662Z"/><path class="cls-1" d="M134.0721,350.3869a3.0557,3.0557,0,0,1-2.7188,1.2783,3.6938,3.6938,0,0,1-3.7632-3.9609,4.4134,4.4134,0,0,1,4.7173-4.25c3.2051,0,4.8257,2.2871,4.8257,5.9785,0,4.5009-1.8726,7.0215-5.5459,7.0215a8.5708,8.5708,0,0,1-3.2588-.5762l.1978-2.4668a4.7907,4.7907,0,0,0,2.6469.666c1.9624,0,2.917-1.1162,2.9351-3.69Zm-.1079-2.8448a1.7042,1.7042,0,0,0-1.6387-1.9267,1.6028,1.6028,0,0,0-1.6026,1.7822c0,1.1885.54,1.999,1.6026,1.999A1.6607,1.6607,0,0,0,133.9642,347.5421Z"/><path class="cls-1" d="M132.3367,220.5627v-9.2188l-2.3765,1.6924-1.4946-2.2686,4.2671-2.7724h2.9531v12.5674Z"/><path class="cls-1" d="M138.9417,214.2785c0-4.6992,1.6924-6.5,4.8794-6.5,3.2588,0,4.8794,1.8906,4.8794,6.5,0,4.6455-1.6568,6.5-4.8794,6.5C140.6521,220.7785,138.9417,218.9777,138.9417,214.2785Zm6.5176,0c0-3.24-.5581-4.2305-1.6382-4.2305-1.0625,0-1.6387.9541-1.6387,4.2305,0,3.2949.5943,4.2314,1.6387,4.2314C144.8831,218.51,145.4593,217.5558,145.4593,214.2785Z"/><path class="cls-1" d="M200.6463,117.0148v-9.2187l-2.3765,1.6923-1.4946-2.2685,4.2671-2.7725h2.9531v12.5674Z"/><path class="cls-1" d="M211.6624,117.0148v-9.2187l-2.377,1.6923-1.4941-2.2685,4.2671-2.7725h2.9531v12.5674Z"/><path class="cls-1" d="M304.47,49.6388V40.42l-2.3764,1.6924-1.4947-2.2686,4.2671-2.7725h2.9531V49.6388Z"/><path class="cls-1" d="M311.2005,49.6388V47.2443c2.1606-1.8545,3.043-2.6475,3.8169-3.457,1.2246-1.2784,1.6928-2.1973,1.6928-2.8633,0-1.0078-.6484-1.584-1.7827-1.584a7.6083,7.6083,0,0,0-3.2949.8643l-.126-2.6114a11.092,11.092,0,0,1,3.7452-.7383c3.0068,0,4.8071,1.3692,4.8071,3.6915,0,1.5664-1.0264,3.6914-4.7354,6.7158h4.97v2.3769Z"/><circle class="cls-2" cx="338.8141" cy="287.7347" r="9.6881"/><path class="cls-3" d="M338.8143,298.423a10.688,10.688,0,1,1,10.6879-10.6885A10.7,10.7,0,0,1,338.8143,298.423Zm0-19.376a8.688,8.688,0,1,0,8.6879,8.6875A8.6978,8.6978,0,0,0,338.8143,279.047Z"/><circle class="cls-2" cx="383.6214" cy="287.7347" r="9.6881"/><path class="cls-4" d="M383.6214,298.423a10.688,10.688,0,1,1,10.688-10.6885A10.7,10.7,0,0,1,383.6214,298.423Zm0-19.376a8.688,8.688,0,1,0,8.688,8.6875A8.6978,8.6978,0,0,0,383.6214,279.047Z"/><circle class="cls-2" cx="292.3554" cy="287.7347" r="9.6881"/><path class="cls-3" d="M292.3553,298.423a10.688,10.688,0,1,1,10.688-10.6885A10.7,10.7,0,0,1,292.3553,298.423Zm0-19.376a8.688,8.688,0,1,0,8.688,8.6875A8.6978,8.6978,0,0,0,292.3553,279.047Z"/><circle class="cls-2" cx="245.6765" cy="287.7347" r="9.6881"/><path class="cls-3" d="M245.6766,298.423a10.688,10.688,0,1,1,10.6879-10.6885A10.7,10.7,0,0,1,245.6766,298.423Zm0-19.376a8.688,8.688,0,1,0,8.6879,8.6875A8.6978,8.6978,0,0,0,245.6766,279.047Z"/><circle class="cls-2" cx="198.4377" cy="287.7347" r="9.6881"/><path class="cls-3" d="M198.4378,298.423a10.688,10.688,0,1,1,10.688-10.6885A10.7,10.7,0,0,1,198.4378,298.423Zm0-19.376a8.688,8.688,0,1,0,8.688,8.6875A8.6978,8.6978,0,0,0,198.4378,279.047Z"/><path class="cls-3" d="M198.2469,290.9367v-1.3291h-2.9087v-1.4795l2.61-4.168h1.92v4.3877h.9234v1.26h-.9234v1.3291Zm.1118-5.5371H198.34l-1.7715,2.9482h1.79Z"/><circle class="cls-2" cx="151.7069" cy="287.7347" r="9.6881"/><path class="cls-3" d="M151.7068,298.423a10.688,10.688,0,1,1,10.688-10.6885A10.7,10.7,0,0,1,151.7068,298.423Zm0-19.376a8.688,8.688,0,1,0,8.688,8.6875A8.6978,8.6978,0,0,0,151.7068,279.047Z"/><path class="cls-3" d="M149.5086,289.298a3.37,3.37,0,0,0,1.5849.3789c.8575,0,1.3145-.3994,1.3145-1.1191,0-.709-.6343-1.02-1.4546-1.02a5.2674,5.2674,0,0,0-1.4077.17l.0469-3.7481h4.2417v1.26h-2.7505v1.1592c.1308-.01.373-.04.541-.04,1.2681,0,2.4614.6094,2.4614,2.1592,0,1.6689-1.0537,2.5586-2.8716,2.5586a6.4852,6.4852,0,0,1-1.7343-.25Z"/><path class="cls-3" d="M246.2581,287.1789a1.5282,1.5282,0,0,1,1.2959,1.5888c0,1.56-1.3149,2.169-2.8623,2.169a5.6075,5.6075,0,0,1-1.8833-.24l.084-1.4687a3.0881,3.0881,0,0,0,1.5942.3291c.6714,0,1.333-.2393,1.333-.8887,0-.5-.373-.8-1.2026-.8-.27,0-.5034.01-.7085.02v-1.2392a6.1863,6.1863,0,0,0,.6528.0205c.7178,0,1.1558-.32,1.1558-.7695,0-.5-.3262-.8-1.1279-.8a3.6813,3.6813,0,0,0-1.501.28l-.084-1.37a5.9589,5.9589,0,0,1,1.8833-.289c1.5942,0,2.564.6289,2.564,1.9082a1.5263,1.5263,0,0,1-1.1934,1.5293Z"/><path class="cls-3" d="M289.5735,290.9367v-1.3291c1.1187-1.0293,1.5757-1.47,1.9766-1.919a2.7188,2.7188,0,0,0,.8765-1.5888.82.82,0,0,0-.9234-.88,3.7394,3.7394,0,0,0-1.706.48l-.065-1.4492a5.4132,5.4132,0,0,1,1.939-.4092c1.5571,0,2.4892.7588,2.4892,2.0488,0,.8691-.5312,2.0488-2.4521,3.7275h2.5732v1.3194Z"/><path class="cls-3" d="M337.9729,290.9367V285.82l-1.23.9394-.774-1.2587,2.2095-1.54h1.5293v6.9766Z"/><path class="cls-3" d="M381.0232,287.3293c0-2.6094.8765-3.6075,2.5269-3.6075,1.6875,0,2.5264,1.0489,2.5264,3.6075,0,2.5781-.858,3.6074-2.5264,3.6074C381.909,290.9367,381.0232,289.9367,381.0232,287.3293Zm3.375,0c0-1.7989-.289-2.35-.8481-2.35-.55,0-.8486.5313-.8486,2.35,0,1.8281.3076,2.3476.8486,2.3476C384.1,289.6769,384.3982,289.1476,384.3982,287.3293Z"/><path class="cls-1" d="M12.3914,345.3429a48.5517,48.5517,0,0,1-.6943,8.2168,35.8269,35.8269,0,0,1-2.3291,7.92q.0526.1231.1582.3516c.07.1524.1406.3125.2109.4824s.1318.3321.1846.4844a1.17,1.17,0,0,1,.0791.334.4641.4641,0,0,1-.1407.3691.8276.8276,0,0,1-.3515.1758,1.7668,1.7668,0,0,1-.4307.0527H8.7a5.4992,5.4992,0,0,1-.8086-.0527,1.3715,1.3715,0,0,1-.7031-.3691,2.9611,2.9611,0,0,1-.5713-1.0645q-.3252-.8524-.7119-2.1269t-.8-2.8731q-.4131-1.6-.8262-3.2969t-.8-3.375q-.3867-1.6787-.7119-3.1191t-.5625-2.5488q-.2373-1.1074-.36-1.6348-.1934-.8964-.4306-1.7754a6.9147,6.9147,0,0,1-.2373-1.81.3827.3827,0,0,1,.2285-.4043,1.31,1.31,0,0,1,.4746-.0879,2.67,2.67,0,0,1,.9668.1758,1.44,1.44,0,0,1,.7207.5976,2.1576,2.1576,0,0,1,.22.6582c.0527.2754.0967.502.1318.6778q.5625,2.5664,1.16,5.1054t1.2656,5.09q.4219,1.6.835,3.164t.9228,3.1289A32.2871,32.2871,0,0,0,9.35,352.1105a46.037,46.037,0,0,0,.3691-5.8184q0-.4569-.0088-1.1425t-.0263-1.4688q-.0177-.7822-.0616-1.6074t-.1142-1.582q-.07-.7559-.1846-1.3985a5.1957,5.1957,0,0,0-.2724-1.0273,2.0986,2.0986,0,0,0-.1143-.2559.5629.5629,0,0,1-.0615-.2715.4.4,0,0,1,.1582-.3339,1.2262,1.2262,0,0,1,.3691-.1934,1.8249,1.8249,0,0,1,.4395-.0879q.2285-.0176.3691-.0176a3.2429,3.2429,0,0,1,.835.0957,1.5767,1.5767,0,0,1,.7119.4668,1.5029,1.5029,0,0,1,.2637.7207q.1054.5625.1757,1.336t.1143,1.66q.0439.8877.0615,1.7149t.0176,1.4765Z"/><path class="cls-1" d="M26.1551,359.6691a.6474.6474,0,0,1-.0088.1055.7271.7271,0,0,1-.044.1406H26.12a4,4,0,0,1-.6416,1.1855,5.8838,5.8838,0,0,1-1.0371,1.0547,5.568,5.568,0,0,1-1.2656.7559,3.3569,3.3569,0,0,1-1.3272.291,2.9127,2.9127,0,0,1-1.248-.2559,3.1856,3.1856,0,0,1-.958-.6855,4.28,4.28,0,0,1-.7031-.9844,6.1463,6.1463,0,0,1-.4659-1.1679,10.6741,10.6741,0,0,1-.5185,1.0371,5.8159,5.8159,0,0,1-.7031.9921,3.5858,3.5858,0,0,1-.8965.7383,2.1543,2.1543,0,0,1-1.0987.291,1.7439,1.7439,0,0,1-1.0547-.3085,2.1547,2.1547,0,0,1-.6591-.7735,3.5824,3.5824,0,0,1-.334-1.0273,6.3326,6.3326,0,0,1-.0967-1.0723,13.1515,13.1515,0,0,1,.2461-2.4785,19.9091,19.9091,0,0,1,.668-2.5488,21.8518,21.8518,0,0,1,.9843-2.4532,17.6339,17.6339,0,0,1,1.2129-2.17,3.8158,3.8158,0,0,1,.211-.334,2.4322,2.4322,0,0,1,.2724-.3261,1.5339,1.5339,0,0,1,.3164-.2461.6746.6746,0,0,1,.3428-.0957.7936.7936,0,0,1,.6152.2714,1.4612,1.4612,0,0,1,.334.59,3.1228,3.1228,0,0,1,.5713.166,1.8445,1.8445,0,0,1,.5186.3086,3.144,3.144,0,0,1,.914-.8711,2.2962,2.2962,0,0,1,1.2305-.3242,2.1937,2.1937,0,0,1,1.0107.2285,2.3168,2.3168,0,0,1,.7559.6055,2.781,2.781,0,0,1,.4746.8711,3.152,3.152,0,0,1,.167,1.0195,4.1269,4.1269,0,0,1-.3164,1.4941,7.7811,7.7811,0,0,1-.8262,1.5547,9.1447,9.1447,0,0,1-1.1338,1.3633,4.7676,4.7676,0,0,1-1.2392.9141q.0351.3514.1494.957a10.4984,10.4984,0,0,0,.2988,1.1953,4.7757,4.7757,0,0,0,.4483,1.0293q.2635.4395.58.4395a.816.816,0,0,0,.4747-.2032,3.044,3.044,0,0,0,.5009-.4922,5.4515,5.4515,0,0,0,.4219-.5878,4.6568,4.6568,0,0,0,.2725-.4922.4056.4056,0,0,1,.07-.1055l.0176-.0176q.123-.2285.2373-.4219a1.0345,1.0345,0,0,1,.3252-.3339h-.0176a.249.249,0,0,1,.1406-.08,1.4761,1.4761,0,0,1,.1758-.0078,1.1732,1.1732,0,0,1,.4658.123,3.0089,3.0089,0,0,1,.5273.3067,2.4282,2.4282,0,0,1,.44.4043A.6791.6791,0,0,1,26.1551,359.6691ZM17.19,353.2355a.6023.6023,0,0,0-.0176-.1152c-.0117-.0528-.0234-.1075-.0351-.166a16.4958,16.4958,0,0,0-1.2129,3.5507,17.5311,17.5311,0,0,0-.4043,3.7618v.1582a.5792.5792,0,0,0,.0176.1406v.0351a6.0718,6.0718,0,0,0,.7295-1.5742,18.708,18.708,0,0,0,.5185-1.9941,19.6533,19.6533,0,0,0,.3076-2.0488Q17.19,353.9728,17.19,353.2355Zm4.4473-.9668q0-.1758-.0176-.3691a1.1059,1.1059,0,0,0-.0879-.3516,2.9484,2.9484,0,0,0-.4219.7031,5.52,5.52,0,0,0-.29.8614q-.1143.4569-.2021.914t-.1407.8613a6.46,6.46,0,0,0,.8086-1.24A3.03,3.03,0,0,0,21.6375,352.2687Z"/><path class="cls-1" d="M28.3523,363.1671a2.5737,2.5737,0,0,1-.5713-.07,2.0618,2.0618,0,0,1-.58-.2285,1.575,1.575,0,0,1-.4571-.3965.9.9,0,0,1-.1845-.57c0-.3281.0146-.6543.0439-.9765s.0615-.6407.0967-.9571v.0176l.1055-1.1777q.0526-.6329.0879-1.3887t.0615-1.5391q.0264-.7821.0439-1.5371t.0176-1.3886c0-.2461-.0029-.4961-.0088-.7481s-.0088-.5059-.0088-.7637c-.0117-.2226-.0176-.4726-.0176-.748v-.7637a1.6293,1.6293,0,0,1,.0967-.6074c.0645-.1582.249-.2363.5537-.2363a2.0052,2.0052,0,0,1,.8526.2109,1.2206,1.2206,0,0,1,.624.5977h-.0176a2.1452,2.1452,0,0,1,.1319.623c.0293.2871.05.543.0615.7656q.2988-.457.6767-.9668a7.9209,7.9209,0,0,1,.8174-.9414,4.5707,4.5707,0,0,1,.9317-.7109,2.0911,2.0911,0,0,1,1.0546-.2813,1.5681,1.5681,0,0,1,1.125.3692,2.1429,2.1429,0,0,1,.5625.9219,4.27,4.27,0,0,1,.1934,1.1777q.0175.624.0176,1.1348v.1406c0,.1406-.0029.2773-.0088.4121a1.2164,1.2164,0,0,1-.07.3691.569.569,0,0,1-.211.2735.7064.7064,0,0,1-.413.1054,2.473,2.473,0,0,1-.5977-.08,2.2563,2.2563,0,0,1-.5889-.2364,1.6894,1.6894,0,0,1-.4658-.3965.933.933,0,0,1-.2109-.5527v-.2812a2.2506,2.2506,0,0,1,.0176-.2813c0-.0586.0029-.1328.0087-.2207s.0088-.1719.0088-.2539a5.6151,5.6151,0,0,0-.9931,1.3887,15.013,15.013,0,0,0-.7735,1.7578q-.3427.9317-.5888,1.8711T29.3543,357.7v.0528q-.0528.5449-.07,1.0722t-.0352,1.09q-.0175.6328-.0439,1.2832t-.0967,1.2656a.8871.8871,0,0,1-.2022.5176A.7167.7167,0,0,1,28.3523,363.1671Z"/><path class="cls-1" d="M43.03,362.341a.57.57,0,0,1-.0879.3242.6863.6863,0,0,1-.22.2109.9824.9824,0,0,1-.2813.1153,1.2666,1.2666,0,0,1-.29.0351,2.1942,2.1942,0,0,1-.4571-.0527,3.17,3.17,0,0,1-.4922-.15,1.9525,1.9525,0,0,1-.4482-.2461,1.0549,1.0549,0,0,1-.3076-.3418,1.4751,1.4751,0,0,1-.1494-.4844c-.0293-.1933-.0557-.3886-.0791-.5879a6.7878,6.7878,0,0,1-.4131.8262,3.0743,3.0743,0,0,1-.5713.7109,2.7533,2.7533,0,0,1-.7471.4922,2.2372,2.2372,0,0,1-.9228.1856,2.3289,2.3289,0,0,1-1.45-.4219,2.8843,2.8843,0,0,1-.8613-1.0644,4.5484,4.5484,0,0,1-.4043-1.4063,11.6863,11.6863,0,0,1-.0967-1.4668q0-.58.0527-1.3184t.1406-1.5117q.0879-.7734.211-1.5039t.2636-1.291q.1758-.65.4307-1.4336a7.4621,7.4621,0,0,1,.65-1.459,4.2251,4.2251,0,0,1,.9756-1.15,2.3787,2.3787,0,0,1,1.3887-.5273q-.0528-1.4238-.15-2.6289t-.2021-2.4688l-.1758-1.9511-.07-.7032c-.0234-.1875-.041-.3789-.0527-.5722s-.0176-.3828-.0176-.57a.6479.6479,0,0,1,.22-.5625.955.955,0,0,1,.5713-.1582,2.4366,2.4366,0,0,1,1.1777.2285,1.2855,1.2855,0,0,1,.5713.6152,2.478,2.478,0,0,1,.1846.9043c.0117.3457.0176.7188.0176,1.1172a5.0569,5.0569,0,0,0,.0879.8789l.0879.65.1406,1.793.07.8437.07.8438.3691,3.7793.7032,7.0664.0527.65q.07.7206.1318,1.4941a10.3968,10.3968,0,0,0,.2373,1.5293q.0528.1934.0967.3691A1.5172,1.5172,0,0,1,43.03,362.341Zm-4.0957-10.2832c0-.1289-.003-.2735-.0088-.4317s-.0088-.3066-.0088-.4472v-.4746c-.082.1171-.1875.2773-.3164.4824a4.0985,4.0985,0,0,0-.2988.5547,8.7014,8.7014,0,0,0-.51,1.5722q-.2286.958-.3955,2.0039t-.2549,2.0391q-.0879.9932-.0879,1.6621,0,.2461.0088.5625a4.8483,4.8483,0,0,0,.0615.6406,3.62,3.62,0,0,0,.1582.625,1.4268,1.4268,0,0,0,.2813.4922,3.1971,3.1971,0,0,0,.4746-1.0293,12.7675,12.7675,0,0,0,.36-1.582q.1494-.8877.2549-1.8711t.167-1.9082q.0615-.9228.0879-1.6875T38.9344,352.0578Z"/><path class="cls-1" d="M46.5105,348.1027a.5894.5894,0,0,1-.1318.43.6814.6814,0,0,1-.4834.1328,4.2534,4.2534,0,0,1-.4922-.0449,5.7321,5.7321,0,0,1-.6767-.1309,2.1278,2.1278,0,0,1-.5977-.2461.4552.4552,0,0,1-.2549-.3867,3.831,3.831,0,0,1,.0528-.3965c.0351-.2168.0791-.4473.1318-.6933s.1-.4688.1406-.668a1.091,1.091,0,0,1,.0967-.334v.0176a.375.375,0,0,1,.2109-.1758.8942.8942,0,0,1,.2461-.0352,2.5252,2.5252,0,0,1,.4131.043,4.0176,4.0176,0,0,1,.51.1231,2.2378,2.2378,0,0,1,.4658.2031.5656.5656,0,0,1,.2637.2637,1.2308,1.2308,0,0,1,.0615.3769,3.4091,3.4091,0,0,1-.0088.4316c0,.0469-.0029.1016-.0088.1661s-.0088.1152-.0088.15q0,.0878.0088.1757t.0264.1758a1.7312,1.7312,0,0,1,.0264.1934Q46.51,347.98,46.5105,348.1027Zm.65,14.01a.7407.7407,0,0,1-.1845.57.8624.8624,0,0,1-.5889.1679,2.3114,2.3114,0,0,1-.4658-.0527,3.0733,3.0733,0,0,1-.501-.15,2.4028,2.4028,0,0,1-.457-.2363,1.0156,1.0156,0,0,1-.3164-.3164,1.9968,1.9968,0,0,1-.1231-.65q-.0526-.5449-.0791-1.3535t-.0527-1.8106q-.0264-1.0018-.0352-2.0215t-.0088-1.9863v-3.041q0-.1758.0088-.3516a.8255.8255,0,0,1,.07-.3086.5315.5315,0,0,1,.1934-.2187.68.68,0,0,1,.3779-.0879,1.3961,1.3961,0,0,1,1.1338.43,2.1643,2.1643,0,0,1,.4483,1.1523q.0877,1.0723.1318,2.1348t.0791,2.1543q.0351.9843.0615,1.9414t.1143,1.9082q.0176.1934.0351.3691t.0528.3516c.0234.2344.0468.4649.07.6934A7.009,7.009,0,0,1,47.1609,362.1125Z"/><path class="cls-1" d="M578.948,98.27a.5192.5192,0,0,1-.2285.4219,1.8409,1.8409,0,0,1-.5449.2812,4.0967,4.0967,0,0,1-.6416.1582,3.41,3.41,0,0,1-.5186.0527.1956.1956,0,0,0-.0878.0176.0875.0875,0,0,1-.0879-.0176,1.7949,1.7949,0,0,1-.6153-.2373,2.5318,2.5318,0,0,1-.4746-.3867,4.77,4.77,0,0,1-.4043-.4834q-.1934-.2637-.4043-.5449-1.4062-1.7754-2.6455-3.6475a33.6676,33.6676,0,0,1-2.2412-3.9462l-.2109.246v6.7852q0,.1933-.0176.4307a1.84,1.84,0,0,1-.0879.4482.884.884,0,0,1-.2109.3516.523.523,0,0,1-.3868.1406,2.1062,2.1062,0,0,1-.9228-.1758,1.3793,1.3793,0,0,1-.5625-.4834,1.8721,1.8721,0,0,1-.2725-.73,5.6947,5.6947,0,0,1-.07-.9316q0-1.6524-.0351-3.2871t-.0352-3.2871q0-.7207.0527-1.4063t.0528-1.4062q0-2.5137-.1934-5.001t-.4043-4.9834q-.0526-.58-.1142-1.16a10.969,10.969,0,0,1-.0616-1.16.5668.5668,0,0,1,.2813-.5625,1.3178,1.3178,0,0,1,.5976-.1406,2.6074,2.6074,0,0,1,1.5469.4042,1.6822,1.6822,0,0,1,.5625,1.459q0,1.6.1055,3.1289.0879,1.9161.1142,3.7969t.0616,3.7969a20.0019,20.0019,0,0,0,2.9883-5.1065,30.7879,30.7879,0,0,0,1.6523-5.7216q.0176-.1758.0615-.4395a3.9119,3.9119,0,0,1,.1231-.5185,1.3039,1.3039,0,0,1,.2285-.4395.4837.4837,0,0,1,.3955-.1846,1.8821,1.8821,0,0,1,.58.0967,1.8507,1.8507,0,0,1,.5361.2725,1.4728,1.4728,0,0,1,.3867.4218,1.03,1.03,0,0,1,.1494.545,6.0011,6.0011,0,0,1-.1845,1.4941q-.1847.7208-.378,1.459-.3692,1.4941-.7822,2.76a22.8236,22.8236,0,0,1-.9492,2.4345,20.8967,20.8967,0,0,1-1.2393,2.3028,24.5253,24.5253,0,0,1-1.67,2.3466l.7383,1.4766a35.224,35.224,0,0,0,2.0742,3.4541,30.526,30.526,0,0,0,2.4961,3.19,11.8688,11.8688,0,0,0,.94.9405,4.9837,4.9837,0,0,1,.8526.9931A.38.38,0,0,1,578.948,98.27Z"/><path class="cls-1" d="M586.4539,98.3224a.5705.5705,0,0,1-.1758.4834.8057.8057,0,0,1-.4922.1319,1.4505,1.4505,0,0,1-1.1865-.44,2.8833,2.8833,0,0,1-.5361-1.16q-.0528-.246-.1055-.5009t-.0879-.501a1.6481,1.6481,0,0,0-.07-.3164,1.7,1.7,0,0,1-.07-.334,10.3459,10.3459,0,0,1-.5186,1.0635,5.9733,5.9733,0,0,1-.7119,1.0195,3.7192,3.7192,0,0,1-.9053.7647,2.1047,2.1047,0,0,1-1.0986.2988,1.7434,1.7434,0,0,1-1.0547-.3076,2.156,2.156,0,0,1-.6592-.7735,3.5889,3.5889,0,0,1-.3339-1.0283,6.3317,6.3317,0,0,1-.0967-1.0723,15.554,15.554,0,0,1,.2373-2.5927,22.9641,22.9641,0,0,1,.6592-2.795,24.3752,24.3752,0,0,1,.9843-2.6894,13.3335,13.3335,0,0,1,1.2305-2.2588v.0176l.1055-.1582q.1934-.2637.4482-.5713a.7656.7656,0,0,1,.6065-.3076.74.74,0,0,1,.58.29,1.8355,1.8355,0,0,1,.3516.6065,3.1943,3.1943,0,0,1,.7383.22,1.2292,1.2292,0,0,1,.4394.3252,1.0241,1.0241,0,0,1,.211.4482,2.7377,2.7377,0,0,1,.0527.5537v.2637a2.2506,2.2506,0,0,1-.0176.2813,2.741,2.741,0,0,0-.0175.3339v.3516a2.24,2.24,0,0,0,.0615.457q.0615.2813.1318.58l.1231.65q.0879.51.1494,1.16t.1494,1.3007q.07.6681.1406,1.292t.1406,1.1514l.4219,2.6016.0528.2988q.0351.2284.0791.4219A1.9914,1.9914,0,0,1,586.4539,98.3224ZM582.4285,88.215a.6051.6051,0,0,0-.0176-.1143q-.0176-.0791-.0351-.167a13.9741,13.9741,0,0,0-.7119,1.8721,20.269,20.269,0,0,0-.51,2.0567q-.2022,1.0458-.2988,2.0918t-.0967,1.9775V96.09a.5738.5738,0,0,0,.0176.1406v.0176a6.4831,6.4831,0,0,0,.73-1.7139,22.273,22.273,0,0,0,.5185-2.2324q.2109-1.169.3076-2.2676T582.4285,88.215Z"/><path class="cls-1" d="M591.27,98.1115a.5734.5734,0,0,1-.0879.3252.6032.6032,0,0,1-.22.2021.9418.9418,0,0,1-.2813.0967,1.666,1.666,0,0,1-.29.0264,2.6782,2.6782,0,0,1-.4482-.044,3.0012,3.0012,0,0,1-.501-.1318,2.1257,2.1257,0,0,1-.4483-.22.9046.9046,0,0,1-.3076-.3252,2.0808,2.0808,0,0,1-.1845-.6592q-.0792-.4835-.1319-1.125t-.0879-1.3711q-.0351-.7294-.0615-1.3975t-.0352-1.2041q-.0087-.5361-.0087-.8,0-1.23.0439-2.3818t.0967-2.3643a.8959.8959,0,0,0-.1758.0176.8959.8959,0,0,1-.1758.0176q-.2284.0351-.4658.0527t-.4834.0176a1.2459,1.2459,0,0,1-.5273-.1055.4669.4669,0,0,1-.2286-.4746,1.1631,1.1631,0,0,1,.1934-.7031,1.3484,1.3484,0,0,1,.4922-.4131,2.3517,2.3517,0,0,1,.65-.2109q.3516-.0615.6855-.0967a.1817.1817,0,0,0,.07-.0088.1823.1823,0,0,1,.07-.0088q.0177-.2109.0352-.5185t.0352-.6768q.0175-.58.0527-1.2393t.07-1.2656q.0351-.6065.0879-1.0722a4.9693,4.9693,0,0,1,.1055-.6592,1.3555,1.3555,0,0,1,.2021-.3692.5345.5345,0,0,1,.4307-.1406,1.35,1.35,0,0,1,1.09.457,1.6822,1.6822,0,0,1,.3867,1.125q0,.7736-.0439,1.5469t-.0791,1.5645l-.0527.8965a7.7054,7.7054,0,0,0,.8789-.1582q.4218-.0879.8525-.1583a5.1886,5.1886,0,0,1,.835-.07.758.758,0,0,1,.5449.1846.7068.7068,0,0,1,.1933.5361,2.1056,2.1056,0,0,1-.1406.7559,1.0516,1.0516,0,0,1-.4922.5625h.0176a2.2664,2.2664,0,0,1-.4219.0967q-.3514.0615-.8.1142t-.8789.1055q-.4307.0528-.6416.07h-.0176q-.0351.9844-.0527,1.9424t-.0176,1.9424q0,1.3534.0791,2.874t.2725,2.8916l.1406.791q.07.2988.1231.5889A3.1947,3.1947,0,0,1,591.27,98.1115Z"/><path class="cls-1" d="M600.78,95.3341a2.3729,2.3729,0,0,1-.29,1.09,4.232,4.232,0,0,1-.747,1.0283,3.976,3.976,0,0,1-1.0459.7646,2.5656,2.5656,0,0,1-1.169.2989,2.9371,2.9371,0,0,1-1.4238-.3252,3.3749,3.3749,0,0,1-1.0371-.8789,4.7894,4.7894,0,0,1-.7119-1.2569,9.385,9.385,0,0,1-.4307-1.45,11.9218,11.9218,0,0,1-.22-1.4941q-.0615-.747-.0615-1.3623,0-.5274.0615-1.248a14.2928,14.2928,0,0,1,.2109-1.4942,10.9321,10.9321,0,0,1,.4131-1.5293,6.0521,6.0521,0,0,1,.6592-1.3535,3.3966,3.3966,0,0,1,.9492-.9668,2.2437,2.2437,0,0,1,1.2744-.3691,2.1931,2.1931,0,0,1,1.0108.2285,2.3213,2.3213,0,0,1,.7558.6064,2.7781,2.7781,0,0,1,.4746.87,3.15,3.15,0,0,1,.167,1.02,4.1273,4.1273,0,0,1-.3164,1.4941,8.4722,8.4722,0,0,1-1.9424,2.9268,5.26,5.26,0,0,1-1.2392.9228q.0351.3165.1406.9229a9.7319,9.7319,0,0,0,.29,1.2041,5.0238,5.0238,0,0,0,.4395,1.0371.7228.7228,0,0,0,.6064.4394.4777.4777,0,0,0,.3076-.1054,1.0409,1.0409,0,0,0,.2374-.2813,2.3606,2.3606,0,0,0,.1845-.3867q.0792-.2109.1494-.4043l.1055-.2461c.0234-.0351.0381-.0586.044-.07l.0263-.0527q.123-.2286.2373-.4219a1.0379,1.0379,0,0,1,.3252-.334h-.0176a.2509.2509,0,0,1,.1495-.0791,1.3453,1.3453,0,0,1,.1494-.0088.899.899,0,0,1,.4218.1231,1.94,1.94,0,0,1,.4219.3076,1.7179,1.7179,0,0,1,.3164.4043A.8773.8773,0,0,1,600.78,95.3341Zm-3.48-7.7519q0-.1758-.0176-.3692a.93.93,0,0,0-.0879-.3339,3.1055,3.1055,0,0,0-.4306.7119,5.9948,5.9948,0,0,0-.3076.8613q-.1232.4482-.2022.9053t-.1143.8437a6.4545,6.4545,0,0,0,.8086-1.2392A3.034,3.034,0,0,0,597.3,87.5822Z"/><path class="cls-1" d="M610.5359,94.1916a1.1238,1.1238,0,0,1-.0966.413,3.8584,3.8584,0,0,1-.2461.4922q-.15.255-.3252.5186t-.334.4746l-.2637.3691-.2637.4571-.2285.4218q.0176.3516.0528.7559t.07.7734q.1933,1.8106.3427,3.6914t.1495,3.6915a12.4411,12.4411,0,0,1-.1583,1.96,5.6138,5.6138,0,0,1-.5888,1.793,3.6383,3.6383,0,0,1-1.1865,1.31,3.39,3.39,0,0,1-1.9336.51,2.8912,2.8912,0,0,1-1.3711-.2988,2.4932,2.4932,0,0,1-.9053-.8,3.4617,3.4617,0,0,1-.501-1.169,6.0094,6.0094,0,0,1-.1582-1.3886,12.885,12.885,0,0,1,.334-2.8828,22.2976,22.2976,0,0,1,.87-2.8829,28.6694,28.6694,0,0,1,1.2217-2.7861q.6855-1.3623,1.3887-2.61V96.925a1.0609,1.0609,0,0,0-.0176-.15q-.2286.422-.5186.87a4.6082,4.6082,0,0,1-.65.8,3.4341,3.4341,0,0,1-.791.58,2.0109,2.0109,0,0,1-.958.2286,2.0631,2.0631,0,0,1-1.23-.3516,2.5677,2.5677,0,0,1-.7823-.8965,4.1857,4.1857,0,0,1-.4131-1.1953,6.6335,6.6335,0,0,1-.123-1.23A10.9164,10.9164,0,0,1,601,94.2619q.079-.65.1846-1.2657.1758-.9843.4482-2.1357a21.6292,21.6292,0,0,1,.6768-2.2852,15.69,15.69,0,0,1,.94-2.1357,6.92,6.92,0,0,1,1.2568-1.7051l.1407-.123a4.58,4.58,0,0,1,.5273-.4483,1.0279,1.0279,0,0,1,.6152-.22.58.58,0,0,1,.3428.1055.9479.9479,0,0,1,.2549.2724,1.5558,1.5558,0,0,1,.167.36,1.2173,1.2173,0,0,1,.0615.3691.8583.8583,0,0,1-.1582.4571h.0352a1.4107,1.4107,0,0,1,1.4414.9843,1.1116,1.1116,0,0,1,.29.4219,1.4287,1.4287,0,0,1,.0967.5274,2.9617,2.9617,0,0,1-.0176.3076,2.2407,2.2407,0,0,1-.0527.3076q-.0353.1583-.0528.2988a2.1366,2.1366,0,0,0-.0175.2637q0,.4043.0175,1.0019t.0528,1.2481q.0351.65.0791,1.2744t.0791,1.0811a1.4668,1.4668,0,0,1,.29-.2813.6486.6486,0,0,1,.3955-.123.9569.9569,0,0,1,.4483.1406,2.2589,2.2589,0,0,1,.4746.3516,2.379,2.379,0,0,1,.3691.4482A.8279.8279,0,0,1,610.5359,94.1916Zm-4.834-7.2422q0-.1055.0088-.2285a1.5424,1.5424,0,0,1,.044-.2637l-.1231.1582q-.1405.1583-.2636.2988a2.89,2.89,0,0,0-.2286.2988,6.7433,6.7433,0,0,0-.8,1.7315,19.4094,19.4094,0,0,0-.5712,2.2324q-.2286,1.1689-.3428,2.294t-.1143,1.9335q0,.4044.0176.8086a2.3438,2.3438,0,0,0,.1758.7911,2.5386,2.5386,0,0,0,.4043-.5713q.1581-.3077.2988-.6416a11.7957,11.7957,0,0,0,.668-2.0039q.2813-1.1427.457-2.3555t.2637-2.3818Q605.6844,87.8811,605.7019,86.9494Zm1.336,18.7734q0-1.1954-.0528-2.2412t-.1582-2.2412q-.3164.7559-.6416,1.626t-.5712,1.7578q-.2461.8877-.4043,1.7666a9.4354,9.4354,0,0,0-.1582,1.67v.123a7.7531,7.7531,0,0,0,.0527.87,1.2927,1.2927,0,0,0,.334.7646h.1933a.8.8,0,0,0,.5889-.2373,1.909,1.909,0,0,0,.3955-.6064,4.0225,4.0225,0,0,0,.2461-.8262,8.135,8.135,0,0,0,.123-.9141q.0353-.457.044-.8613T607.0379,105.7228Z"/><path class="cls-1" d="M618.6394,91.3439a18.4193,18.4193,0,0,1-.2548,3.05,8.41,8.41,0,0,1-1.0459,2.874,6.4193,6.4193,0,0,1-.5625.7823,5.1214,5.1214,0,0,1-.6944.6855,3.2812,3.2812,0,0,1-.8261.4922,2.6041,2.6041,0,0,1-2.2852-.1758,3.4408,3.4408,0,0,1-.9844-.9492,5.7327,5.7327,0,0,1-.6855-1.3359,9.8463,9.8463,0,0,1-.4219-1.5293,14.5478,14.5478,0,0,1-.2109-1.5206q-.0615-.7381-.0616-1.3007,0-.6329.0528-1.3887t.1845-1.5469a14.3567,14.3567,0,0,1,.3516-1.5644,7.6973,7.6973,0,0,1,.5713-1.45,5.6,5.6,0,0,1,.8437-1.2129,3.79,3.79,0,0,1,1.1426-.8526v.0176a2.38,2.38,0,0,1,1.125-.2988.8736.8736,0,0,1,.5449.1494.5569.5569,0,0,1,.1758.501,2.498,2.498,0,0,1,1.5645.9316,5.5846,5.5846,0,0,1,.9228,1.7578,10.2072,10.2072,0,0,1,.44,2.0567A17.2807,17.2807,0,0,1,618.6394,91.3439Zm-3.9726-4.3945a.8463.8463,0,0,1-.5625-.2285,5.2723,5.2723,0,0,0-.5625,1.1689,9.58,9.58,0,0,0-.36,1.3535,12.4793,12.4793,0,0,0-.1845,1.3975q-.0528.7031-.0528,1.3183,0,.51.0528,1.31a13.8576,13.8576,0,0,0,.2021,1.6084,8.4007,8.4007,0,0,0,.4219,1.5117,2.31,2.31,0,0,0,.7119,1.0371,2.4036,2.4036,0,0,0,.9053-1.0107,7.1088,7.1088,0,0,0,.5713-1.52,10.8235,10.8235,0,0,0,.29-1.67q.0791-.8437.0791-1.4414,0-.44-.0527-1.1426t-.1758-1.4326a8.4088,8.4088,0,0,0-.3428-1.3623,2.35,2.35,0,0,0-.5537-.9493A1.2321,1.2321,0,0,1,614.6668,86.9494Z"/><path class="cls-1" d="M621.54,98.8322a2.58,2.58,0,0,1-.5713-.07,2.0678,2.0678,0,0,1-.58-.2285,1.5707,1.5707,0,0,1-.4571-.3956.9026.9026,0,0,1-.1845-.5712q0-.4923.0439-.9756t.0967-.958v.0175l.1055-1.1777q.0526-.6329.0879-1.3887t.0615-1.538q.0264-.7822.0439-1.5381t.0176-1.3887q0-.3692-.0088-.7471t-.0088-.7646q-.0175-.3341-.0176-.7471v-.7646a1.6242,1.6242,0,0,1,.0967-.6065q.0967-.2373.5537-.2373a2.0052,2.0052,0,0,1,.8526.2109,1.2214,1.2214,0,0,1,.624.5977h-.0176a2.1536,2.1536,0,0,1,.1319.624q.044.4307.0615.7647.2988-.457.6767-.9668a7.9116,7.9116,0,0,1,.8174-.9405,4.5764,4.5764,0,0,1,.9317-.7119,2.091,2.091,0,0,1,1.0546-.2812,1.568,1.568,0,0,1,1.125.3691,2.1464,2.1464,0,0,1,.5625.9229,4.27,4.27,0,0,1,.1934,1.1777q.0176.624.0176,1.1338v.1406q0,.2109-.0088.4131a1.2164,1.2164,0,0,1-.07.3691.5665.5665,0,0,1-.211.2725.7064.7064,0,0,1-.413.1055,2.47,2.47,0,0,1-.5977-.0791,2.2617,2.2617,0,0,1-.5889-.2373,1.6894,1.6894,0,0,1-.4658-.3955.9362.9362,0,0,1-.2109-.5537v-.2813a2.2491,2.2491,0,0,1,.0176-.2812q0-.0879.0087-.22t.0088-.2549a5.6151,5.6151,0,0,0-.9931,1.3887,15.013,15.013,0,0,0-.7735,1.7578q-.3428.9316-.5888,1.8721t-.4219,1.6963v.0527q-.0528.545-.07,1.0723t-.0352,1.09q-.0175.6328-.0439,1.2832t-.0967,1.2657a.89.89,0,0,1-.2022.5185A.7162.7162,0,0,1,621.54,98.8322Z"/><path class="cls-1" d="M630.8035,83.7677a.592.592,0,0,1-.1318.4307.682.682,0,0,1-.4834.1318,4.1957,4.1957,0,0,1-.4922-.0439,5.7363,5.7363,0,0,1-.6768-.1319,2.1283,2.1283,0,0,1-.5976-.246.4552.4552,0,0,1-.2549-.3868,3.8481,3.8481,0,0,1,.0527-.3955q.0528-.3252.1319-.6943t.1406-.668a1.089,1.089,0,0,1,.0967-.334v.0176a.3758.3758,0,0,1,.2109-.1758.8935.8935,0,0,1,.2461-.0351,2.5426,2.5426,0,0,1,.4131.0439,4.0161,4.0161,0,0,1,.51.1231,2.2367,2.2367,0,0,1,.4659.2021.5652.5652,0,0,1,.2636.2637,1.2346,1.2346,0,0,1,.0616.3779,3.4134,3.4134,0,0,1-.0088.4307q0,.07-.0088.167t-.0088.1494a1.7538,1.7538,0,0,0,.0088.1758,1.7765,1.7765,0,0,0,.0264.1758,1.7041,1.7041,0,0,1,.0263.1933Q630.8036,83.6447,630.8035,83.7677Zm.65,14.01a.7427.7427,0,0,1-.1846.5713.8621.8621,0,0,1-.5888.167,2.313,2.313,0,0,1-.4659-.0528,3.0556,3.0556,0,0,1-.5009-.1494,2.4044,2.4044,0,0,1-.4571-.2373,1.0156,1.0156,0,0,1-.3164-.3164,1.9979,1.9979,0,0,1-.123-.65q-.0528-.5449-.0791-1.3535t-.0528-1.8105q-.0262-1.002-.0351-2.0215t-.0088-1.9863V86.8966q0-.1758.0088-.3515a.8178.8178,0,0,1,.07-.3076.5336.5336,0,0,1,.1934-.22.68.68,0,0,1,.3779-.0879,1.3967,1.3967,0,0,1,1.1338.4307,2.1608,2.1608,0,0,1,.4482,1.1514q.0879,1.0722.1319,2.1357t.0791,2.1533q.0351.9844.0615,1.9424t.1142,1.9072q.0177.1934.0352.3692t.0527.3515q.0353.3516.07.6944A6.96,6.96,0,0,1,631.4539,97.7775Z"/><path class="cls-1" d="M639.8387,95.3341a2.3729,2.3729,0,0,1-.29,1.09,4.232,4.232,0,0,1-.747,1.0283,3.976,3.976,0,0,1-1.0459.7646,2.5656,2.5656,0,0,1-1.169.2989,2.9371,2.9371,0,0,1-1.4238-.3252,3.3738,3.3738,0,0,1-1.0371-.8789,4.7894,4.7894,0,0,1-.7119-1.2569,9.385,9.385,0,0,1-.4307-1.45,11.9218,11.9218,0,0,1-.22-1.4941q-.0615-.747-.0616-1.3623,0-.5274.0616-1.248a14.2928,14.2928,0,0,1,.2109-1.4942,10.9321,10.9321,0,0,1,.4131-1.5293,6.0521,6.0521,0,0,1,.6592-1.3535,3.3953,3.3953,0,0,1,.9492-.9668,2.2437,2.2437,0,0,1,1.2744-.3691,2.1924,2.1924,0,0,1,1.0107.2285,2.3206,2.3206,0,0,1,.7559.6064,2.7781,2.7781,0,0,1,.4746.87,3.153,3.153,0,0,1,.167,1.02,4.1273,4.1273,0,0,1-.3164,1.4941,8.4722,8.4722,0,0,1-1.9424,2.9268,5.26,5.26,0,0,1-1.2392.9228q.0351.3165.1406.9229a9.7319,9.7319,0,0,0,.29,1.2041,5.0238,5.0238,0,0,0,.44,1.0371.7227.7227,0,0,0,.6064.4394.4777.4777,0,0,0,.3076-.1054,1.0389,1.0389,0,0,0,.2373-.2813,2.3527,2.3527,0,0,0,.1846-.3867q.0792-.2109.1494-.4043l.1055-.2461c.0234-.0351.0381-.0586.0439-.07l.0264-.0527q.123-.2286.2373-.4219a1.0379,1.0379,0,0,1,.3252-.334h-.0176a.251.251,0,0,1,.1494-.0791,1.3484,1.3484,0,0,1,.15-.0088.899.899,0,0,1,.4218.1231,1.94,1.94,0,0,1,.4219.3076,1.7179,1.7179,0,0,1,.3164.4043A.8784.8784,0,0,1,639.8387,95.3341Zm-3.4805-7.7519q0-.1758-.0176-.3692a.93.93,0,0,0-.0879-.3339,3.1055,3.1055,0,0,0-.4306.7119,6.0072,6.0072,0,0,0-.3077.8613q-.123.4482-.2021.9053t-.1143.8437a6.4545,6.4545,0,0,0,.8086-1.2392A3.034,3.034,0,0,0,636.3582,87.5822Z"/><path class="cls-1" d="M642.282,98.8322a2.5789,2.5789,0,0,1-.5713-.07,2.0678,2.0678,0,0,1-.58-.2285,1.5707,1.5707,0,0,1-.4571-.3956.9026.9026,0,0,1-.1845-.5712q0-.4923.0439-.9756t.0967-.958v.0175l.1054-1.1777q.0528-.6329.0879-1.3887t.0616-1.538q.0263-.7822.0439-1.5381t.0176-1.3887q0-.3692-.0088-.7471t-.0088-.7646q-.0176-.3341-.0176-.7471v-.7646a1.6242,1.6242,0,0,1,.0967-.6065q.0967-.2373.5537-.2373a2.0052,2.0052,0,0,1,.8526.2109,1.2214,1.2214,0,0,1,.624.5977H643.02a2.1542,2.1542,0,0,1,.1318.624q.0439.4307.0616.7647.2988-.457.6767-.9668a7.9116,7.9116,0,0,1,.8174-.9405,4.5786,4.5786,0,0,1,.9316-.7119,2.0916,2.0916,0,0,1,1.0547-.2812,1.568,1.568,0,0,1,1.125.3691,2.1483,2.1483,0,0,1,.5625.9229,4.27,4.27,0,0,1,.1934,1.1777q.0175.624.0176,1.1338v.1406q0,.2109-.0088.4131a1.2164,1.2164,0,0,1-.07.3691.5671.5671,0,0,1-.211.2725.7065.7065,0,0,1-.4131.1055,2.469,2.469,0,0,1-.5976-.0791,2.2617,2.2617,0,0,1-.5889-.2373,1.6894,1.6894,0,0,1-.4658-.3955.9362.9362,0,0,1-.2109-.5537v-.2813a2.2681,2.2681,0,0,1,.0175-.2812q0-.0879.0088-.22t.0088-.2549a5.6151,5.6151,0,0,0-.9931,1.3887,14.9963,14.9963,0,0,0-.7735,1.7578q-.3428.9316-.5888,1.8721t-.4219,1.6963v.0527q-.0528.545-.07,1.0723t-.0352,1.09q-.0176.6328-.0439,1.2832t-.0967,1.2657a.8909.8909,0,0,1-.2022.5185A.7162.7162,0,0,1,642.282,98.8322Z"/><path class="cls-1" d="M30.4623,315.8361c.7246-2.4011,1.0134-5.0553,2.2393-7.1651,17.687-30.44,55.7656-47.5114,85.897-37.0571a11.8038,11.8038,0,0,0,2.18.27c-.7237-1.9483-1.3146-3.5392-2.43-6.5419,2.5245.975,4.2673,1.1176,5.0809,2.0614a82.63,82.63,0,0,1,6.8214,9.1658c1.6392,2.5421.8553,4.2465-2.3018,5.0041-4.026.9661-7.9269,2.4647-11.9632,3.3708-1.5256.3425-3.2783-.327-4.9275-.5352,1.049-1.46,1.79-3.528,3.2138-4.249,2.62-1.3268,5.6406-1.8617,9.3881-2.9976a48.973,48.973,0,0,0-22.9893-3.7733c-25.09,1.8046-44.8027,13.5223-59.9673,33.3215q-3.4827,4.5469-7.1177,8.9759c-.3592.4387-1.0918.5717-1.6517.8461Z"/><path class="cls-1" d="M477.3425,38.7533a9.2215,9.2215,0,0,1,2.7572.7083c.8839.5537,2.2446,1.7378,2.09,2.264-.3088,1.0514-1.5039,2.6093-2.3435,2.6158-6.29.0491-12.59-.1267-18.8649-.5585-.6549-.0451-1.9816-2.7816-1.6149-3.3093,4.0837-5.8769,8.4514-11.5522,15.8062-15.9262-.1625,3.4549-.26,5.5311-.3794,8.0681,22.7655-7.0216,43.9962-4.2243,63.2516,10.0056A62.7749,62.7749,0,0,1,560.218,73.0592c-19.4094-31.3288-46.4448-44.2749-82.5433-35.788Z"/></svg>