<svg id="Layer_1" data-name="Layer 1" xmlns="http://www.w3.org/2000/svg" viewBox="0 0 300 300"><defs><style>.cls-1{fill:#f4f5f0;}.cls-2{fill:#4a984d;}.cls-3{fill:#72ae73;}</style></defs><circle class="cls-1" cx="148.42" cy="155.54" r="125"/><path class="cls-2" d="M148.42,36.54A119,119,0,1,1,64.28,71.4a118.22,118.22,0,0,1,84.14-34.86m0-6a125,125,0,1,0,125,125,125,125,0,0,0-125-125Z"/><path class="cls-2" d="M74.88,162c0-5.2,0-10.39,0-15.58,0-3.67,1.59-5.83,5.2-5.89,8.79-.16,17.6-.82,26.36.42a6.2,6.2,0,0,0,3.65-.94c2.86-1.28,6.76-1.63,8.32-4s1.13-6.07,1.57-9.19c.38-2.66.67-5.33,1.13-8a5,5,0,0,1,5.59-4.25,4.52,4.52,0,0,1,4.24,4.94c-.27,6.94-.58,13.89-1.2,20.8-.25,2.89-2.62,4.6-5.08,5.85-4,2.07-8.09,4.1-12.2,6a3.09,3.09,0,0,0-2,3.18c-.2,6.94.23,14-1,20.8-2.37,13.37-1.81,26.87-2.89,40.29-.24,3-2.18,4.83-5.34,5s-6.31.13-9.46,0c-3.61-.15-5.33-2.14-5.49-6.32-.36-9.35-.72-18.7-.88-28,0-2.43-.72-3.17-3.18-3.13-5.88.08-7.38-1.57-7.38-7.41Z"/><path class="cls-2" d="M158.6,82.82c21.14,0,42.28,0,63.42,0,2.39,0,3.1.49,3.09,3-.11,25.78,0,51.56-.13,77.34,0,2.62.53,3.83,3.27,3.27,2.58-.53,2.54,1.06,2.49,2.88s.27,3.23-2.56,3.22q-55.21-.17-110.42,0c-2.92,0-2.46-1.52-2.56-3.27-.11-1.94.14-2.92,2.6-2.9,17.43.13,34.86,0,52.29.13,2.29,0,3.27-.52,2.84-2.87s.57-2.94,2.86-2.89c6.86.15,13.72.12,20.58,0,1.95,0,3.07.29,2.62,2.51-.56,2.77.68,3.36,3.28,3.24,4.91-.22,9.83-.14,14.74,0,1.76,0,2.15-.52,2.14-2.19q-.08-36.72,0-73.44c0-1.91-.65-2.27-2.39-2.27q-58.12.06-116.27,0c-2.2,0-2.64.76-2.56,2.73.14,3.33,0,6.67,0,10,.06,2.93-2.12,1.55-3.38,1.73s-2.57.51-2.52-1.71q.19-8.34,0-16.69c0-2.22,1.33-1.75,2.54-1.75Z"/><path class="cls-3" d="M148.41,229.92c-7.41,0-14.82-.07-22.24.05-2,0-2.49-.55-2.19-2.51a20.49,20.49,0,0,1,20.3-17.73c3.34,0,6.68-.09,10,.07,9.3.46,17.75,8.6,18.62,17.66.18,1.9-.2,2.55-2.25,2.51C163.24,229.85,155.83,229.92,148.41,229.92Z"/><path class="cls-3" d="M206.24,229.92c-7.32,0-14.64-.09-22,.06-2.25,0-2.85-.58-2.56-2.78,1.16-9.07,9.41-16.92,18.58-17.38,3.79-.19,7.6-.19,11.39,0,9.5.4,17.73,8.15,19,17.6.24,1.86-.08,2.62-2.19,2.58C221.05,229.85,213.64,229.92,206.24,229.92Z"/><path class="cls-3" d="M148.42,180.87a13,13,0,1,1,.1,26,13,13,0,0,1-.1-26Z"/><path class="cls-2" d="M109.47,121.65a13,13,0,1,1-25.95.18,13,13,0,1,1,26-.18Z"/><path class="cls-3" d="M208.67,206.92c-7.33-.15-12.69-6-12.55-13.69a13,13,0,1,1,12.55,13.69Z"/><path class="cls-2" d="M162.68,106q-19.59,0-39.18,0c-1,0-2.5.62-2.54-1.49s1.48-1.47,2.5-1.47q39.45,0,78.91,0c.93,0,2.33-.67,2.42,1.28s-1.18,1.7-2.37,1.7Z"/><path class="cls-2" d="M173.11,114.63c-9.82,0-19.64,0-29.47,0-1.06,0-2.53.58-2.45-1.55.06-1.87,1.35-1.43,2.36-1.43q29.46,0,58.94,0c1,0,2.27-.36,2.31,1.48,0,2.13-1.46,1.49-2.5,1.49C192.57,114.65,182.84,114.63,173.11,114.63Z"/><path class="cls-2" d="M173,120.2c9.73,0,19.46,0,29.19,0,1,0,2.56-.77,2.59,1.4s-1.41,1.56-2.5,1.56q-29.33,0-58.66,0c-1.13,0-2.5.4-2.45-1.63s1.41-1.35,2.36-1.35C153.37,120.19,163.2,120.2,173,120.2Z"/></svg>