<svg id="Layer_1" data-name="Layer 1" xmlns="http://www.w3.org/2000/svg" width="587.5596" height="568.7339" viewBox="0 0 587.5596 568.7339"><defs><style>.cls-1{fill:#f4f5f0;}.cls-2{fill:#4a984d;}.cls-3{fill:#72ae73;}.cls-4{fill:#fff;}</style></defs><path class="cls-1" d="M134.63,382.19,95.2264,404.94l-.0467.0273a233.0831,233.0831,0,0,0,83.0291,83.0288l.0271-.0468,22.6883-39.2974A187.8447,187.8447,0,0,1,134.63,382.19Z"/><path class="cls-2" d="M134.63,382.19a187.845,187.845,0,0,0,66.2941,66.4614l-22.6883,39.2974-.0271.0468A233.0831,233.0831,0,0,1,95.18,404.9672l.0467-.0273L134.63,382.19m.09-.3406-.2149.124-39.4037,22.75-.048.0281-.2159.1265.1266.2158a233.5852,233.5852,0,0,0,83.1182,83.1179l.2172.1275.1259-.2181.027-.0468,22.6883-39.2974.1238-.2143-.2131-.1258a187.8182,187.8182,0,0,1-66.2057-66.373l-.1257-.2139Z"/><path class="cls-3" d="M284.9928,295.3784,257.114,311.4741a45.8561,45.8561,0,0,0,14.49,14.7568l16.1934-28.0478A12.9419,12.9419,0,0,1,284.9928,295.3784Z"/><path class="cls-3" d="M254.53,312.9663l-37.043,21.3867a91.1545,91.1545,0,0,0,31.331,31.3447l21.2943-36.883A49.0033,49.0033,0,0,1,254.53,312.9663Z"/><path class="cls-3" d="M247.3181,368.2949a94.18,94.18,0,0,1-32.4287-32.4424L177.16,357.6357a138.1458,138.1458,0,0,0,48.361,48.4126Z"/><path class="cls-3" d="M202.4239,446.0542l21.5976-37.4082a141.171,141.171,0,0,1-49.459-49.5108l-37.3349,21.5557A184.8254,184.8254,0,0,0,202.4239,446.0542Z"/><path class="cls-3" d="M294.01,274.9853V242.1577a45.3647,45.3647,0,0,0-20.0944,5.697l16.26,28.1623A12.7879,12.7879,0,0,1,294.01,274.9853Z"/><path class="cls-3" d="M294.01,197.5756a89.89,89.89,0,0,0-42.6,11.2979l21.0147,36.3984a48.2831,48.2831,0,0,1,21.5855-6.114Z"/><path class="cls-3" d="M294.01,194.5756V150.934a136.2411,136.2411,0,0,0-65.8988,17.585L249.91,206.2758A92.8741,92.8741,0,0,1,294.01,194.5756Z"/><path class="cls-3" d="M294.01,104.6084A182.2791,182.2791,0,0,0,205.01,128.5053l21.6021,37.416A139.2241,139.2241,0,0,1,294.01,147.934Z"/><path class="cls-3" d="M203.51,125.9077a185.2572,185.2572,0,0,1,90.5-24.2993V55.8544A230.8481,230.8481,0,0,0,180.5852,86.2011l.0321.0557Z"/><path class="cls-1" d="M109.0626,289.166H63.4491A230.8441,230.8441,0,0,0,93.7956,402.59l.0558-.0322L133.2519,379.81A185.27,185.27,0,0,1,109.0626,289.166Z"/><path class="cls-2" d="M109.0626,289.166a185.27,185.27,0,0,0,24.1893,90.644L93.8514,402.5576l-.0559.0322A230.845,230.845,0,0,1,63.4491,289.166h45.6135m.2485-.25H63.1976l.0015.2514A232.2282,232.2282,0,0,0,93.5784,402.7138l.1245.218.2176-.1254.0559-.0323,39.4005-22.7475.215-.1243-.1226-.2158a185.9437,185.9437,0,0,1-24.1567-90.522l-.0015-.2485Z"/><path class="cls-1" d="M135.85,378.31l37.335-21.5552A139.2246,139.2246,0,0,1,155.15,289.166H112.0626A182.2854,182.2854,0,0,0,135.85,378.31Z"/><path class="cls-2" d="M155.15,289.166a139.2246,139.2246,0,0,0,18.0351,67.5888L135.85,378.31a182.2844,182.2844,0,0,1-23.787-89.144H155.15m.248-.25H111.8111l.0015.2514a183.4485,183.4485,0,0,0,23.82,89.2661l.1243.219.2181-.1259,37.335-21.5552.2145-.124-.1219-.2156A139.7022,139.7022,0,0,1,155.4,289.164l-.002-.248Z"/><path class="cls-3" d="M282.58,289.166H250.4936a45.3822,45.3822,0,0,0,5.2644,19.915L283.6107,293A12.7821,12.7821,0,0,1,282.58,289.166Z"/><path class="cls-3" d="M204.7144,289.166a89.8861,89.8861,0,0,0,11.3966,42.8051l37.06-21.3964a48.2959,48.2959,0,0,1-5.6772-21.4087Z"/><path class="cls-3" d="M158.15,289.166a136.2422,136.2422,0,0,0,17.6328,66.0888l37.7313-21.7841a92.8675,92.8675,0,0,1-11.7992-44.3047Z"/><path class="cls-1" d="M247.5267,207.6469,225.73,169.894a138.1465,138.1465,0,0,0-48.356,48.1748l37.7292,21.7827A94.191,94.191,0,0,1,247.5267,207.6469Z"/><path class="cls-2" d="M225.73,169.894l21.7967,37.7529a94.19,94.19,0,0,0-32.4235,32.2046L177.374,218.0688A138.1465,138.1465,0,0,1,225.73,169.894m.09-.3438-.2174.1285a138.6184,138.6184,0,0,0-48.4436,48.2622l-.13.2177.2195.1268,37.7292,21.7827.2123.1225.1267-.21a94.1458,94.1458,0,0,1,32.3373-32.1189l.2121-.1262-.1234-.2137L225.9465,169.769l-.1263-.2188Z"/><path class="cls-3" d="M270.0651,246.6845l-21.0389-36.44a91.162,91.162,0,0,0-31.3257,31.1064L254.48,262.5856A49.0031,49.0031,0,0,1,270.0651,246.6845Z"/><path class="cls-3" d="M287.7976,277.3984l-16.2408-28.13a45.8564,45.8564,0,0,0-14.4948,14.8079l27.9312,16.1262A12.9285,12.9285,0,0,1,287.7976,277.3984Z"/><path class="cls-1" d="M224.23,167.2968l-21.5979-37.4087a184.8205,184.8205,0,0,0-65.1911,65.1255l37.3352,21.5552A141.1719,141.1719,0,0,1,224.23,167.2968Z"/><path class="cls-2" d="M202.6325,129.8881,224.23,167.2968a141.1719,141.1719,0,0,0-49.4538,49.272l-37.3352-21.5552a184.82,184.82,0,0,1,65.1911-65.1255m.09-.3435-.2174.1282a185.3032,185.3032,0,0,0-65.2793,65.2136l-.1285.2176.2187.1262,37.3352,21.5552.2136.1232.1262-.2119a141.14,141.14,0,0,1,49.3661-49.1845l.2132-.126-.1238-.2144L202.849,129.7631l-.1261-.2185Z"/><path class="cls-1" d="M134.844,193.5141a187.8435,187.8435,0,0,1,66.2888-66.2236L178.2359,87.6318l-.027-.0469A233.0792,233.0792,0,0,0,95.18,170.6137l.0466.0269Z"/><path class="cls-2" d="M178.2089,87.5849l.027.0469,22.8969,39.6587a187.8446,187.8446,0,0,0-66.2889,66.2236L95.2264,170.6406l-.0466-.0269a233.0784,233.0784,0,0,1,83.0291-83.0288m.091-.3432-.2175.1276a233.5831,233.5831,0,0,0-83.1182,83.118l-.1274.2172.2181.1258.0466.0268,39.6174,22.8736.2144.1237.1259-.2131A187.8288,187.8288,0,0,1,201.26,127.5058l.2134-.1257-.1239-.2146-22.897-39.6587-.0267-.0466-.1257-.2185Z"/><path class="cls-3" d="M478.9143,286.416a182.2838,182.2838,0,0,0-24.0378-89.12l-37.7006,21.7666a139.2149,139.2149,0,0,1,18.1682,67.3531Z"/><path class="cls-3" d="M432.3441,286.416a136.234,136.234,0,0,0-17.7658-65.8535L376.73,242.4145a92.8586,92.8586,0,0,1,11.8939,44.0015Z"/><path class="cls-3" d="M385.6234,286.416a89.8783,89.8783,0,0,0-11.4914-42.502l-35.4161,20.4475a48.299,48.299,0,0,1,5.9668,22.0545Z"/><path class="cls-3" d="M308.1905,286.416h33.4923a45.3876,45.3876,0,0,0-5.55-20.5633L307.1591,282.581A12.7815,12.7815,0,0,1,308.1905,286.416Z"/><path class="cls-1" d="M481.9143,286.416h45.4068a230.8476,230.8476,0,0,0-30.3465-113.4253l-.0558.0322-39.4447,22.7734A185.2661,185.2661,0,0,1,481.9143,286.416Z"/><path class="cls-2" d="M496.9746,172.9907A230.8476,230.8476,0,0,1,527.3211,286.416H481.9143a185.2661,185.2661,0,0,0-24.44-90.62l39.4447-22.7734.0558-.0322m.0925-.3423-.2176.1257-.0558.0323L457.3491,195.58l-.2155.1245.1235.2161a185.9287,185.9287,0,0,1,24.4073,90.4978l.0021.2478h45.9061l-.0015-.2515a232.2317,232.2317,0,0,0-30.3794-113.5478l-.1246-.2183Z"/><path class="cls-3" d="M385.8126,128.4155a182.2821,182.2821,0,0,0-89.0525-23.81v43.3321a139.2227,139.2227,0,0,1,67.3324,18.0981Z"/><path class="cls-3" d="M362.5928,168.6333A136.24,136.24,0,0,0,296.76,150.9375V194.581a92.8621,92.8621,0,0,1,43.9958,11.875Z"/><path class="cls-3" d="M339.2561,209.0537A89.8789,89.8789,0,0,0,296.76,197.581v41.5413a48.3007,48.3007,0,0,1,21.92,5.57Z"/><path class="cls-3" d="M300.595,276.017,317.1864,247.28a45.3962,45.3962,0,0,0-20.4263-5.1572v32.863A12.7879,12.7879,0,0,1,300.595,276.017Z"/><path class="cls-1" d="M410.1529,86.2568l.032-.0557A230.8474,230.8474,0,0,0,296.76,55.8544v45.751a185.2619,185.2619,0,0,1,90.5523,24.2124Z"/><path class="cls-2" d="M296.76,55.8544A230.8474,230.8474,0,0,1,410.1849,86.2011l-.032.0557-22.84,39.561A185.2619,185.2619,0,0,0,296.76,101.6054V55.8544m-.25-.2514v46.2507l.2483.0017a185.9392,185.9392,0,0,1,90.4305,24.18l.2159.1228.1241-.2151,22.84-39.561.0322-.0559.1251-.2175-.2179-.1243a232.2289,232.2289,0,0,0-113.5472-30.38l-.2515-.0014Z"/><path class="cls-1" d="M456.0849,193.4223l39.4589-22.7817.0466-.0269a233.0786,233.0786,0,0,0-83.0292-83.0288l-.0269.0469-22.8427,39.5649A187.8387,187.8387,0,0,1,456.0849,193.4223Z"/><path class="cls-2" d="M412.5612,87.5849A233.0786,233.0786,0,0,1,495.59,170.6137l-.0466.0269-39.4589,22.7817a187.8387,187.8387,0,0,0-66.3933-66.2256l22.8427-39.5649.0269-.0469m-.0909-.3432-.1257.2185-.027.0468-22.8425,39.5647-.1241.2149.2139.1257A187.817,187.817,0,0,1,455.87,193.55l.126.2129.2142-.1235,39.4589-22.7818.0464-.0268.2182-.1258-.1274-.2172a233.5825,233.5825,0,0,0-83.1183-83.118l-.2174-.1276Z"/><path class="cls-1" d="M388.1919,129.7939,366.4708,167.416a141.1722,141.1722,0,0,1,49.3212,49.2695l37.6954-21.7637A184.8245,184.8245,0,0,0,388.1919,129.7939Z"/><path class="cls-2" d="M388.1918,129.7939a184.824,184.824,0,0,1,65.2956,65.1279L415.792,216.6855a141.1722,141.1722,0,0,0-49.3212-49.2695l21.721-37.6221m-.0905-.3433-.126.2183-21.721,37.6221-.1236.2141.2126.126a141.1458,141.1458,0,0,1,49.2337,49.1821l.1261.2121.2139-.1232,37.6954-21.7637.2188-.1265-.1286-.2173a185.306,185.306,0,0,0-65.384-65.2163l-.2173-.1277Z"/><path class="cls-3" d="M343.135,207.8349a94.1851,94.1851,0,0,1,32.2143,32.2l37.8453-21.85a138.1446,138.1446,0,0,0-48.2234-48.1714Z"/><path class="cls-3" d="M337.3166,261.9931l35.4353-20.4585a91.1637,91.1637,0,0,0-31.1164-31.1025l-20.5567,35.6055A48.9959,48.9959,0,0,1,337.3166,261.9931Z"/><path class="cls-3" d="M305.7769,280.2026l28.9557-16.7178A45.8524,45.8524,0,0,0,319.588,248.62l-16.6154,28.7788A12.9281,12.9281,0,0,1,305.7769,280.2026Z"/><path class="cls-3" d="M112.0687,286.416h43.0869A139.2165,139.2165,0,0,1,173.39,218.9448l-37.3353-21.5557A182.283,182.283,0,0,0,112.0687,286.416Z"/><path class="cls-3" d="M175.9875,220.4443a136.2362,136.2362,0,0,0-17.8319,65.9717h43.5649a92.8575,92.8575,0,0,1,11.9982-44.1875Z"/><path class="cls-3" d="M216.3161,243.728a89.88,89.88,0,0,0-11.5956,42.688h42.77a48.294,48.294,0,0,1,5.6359-21.4353Z"/><path class="cls-3" d="M283.6112,282.581,255.714,266.4743a45.3829,45.3829,0,0,0-5.2233,19.9417H282.58A12.7786,12.7786,0,0,1,283.6112,282.581Z"/><path class="cls-3" d="M109.0687,286.416a185.2672,185.2672,0,0,1,24.3882-90.5269L93.8514,173.0229l-.0558-.0322A230.8476,230.8476,0,0,0,63.4491,286.416h45.62Z"/><path class="cls-1" d="M227.9,407.4287A136.2418,136.2418,0,0,0,294.01,425.1323V381.49a92.8732,92.8732,0,0,1-44.3113-11.8184Z"/><path class="cls-2" d="M249.6988,369.6713A92.8732,92.8732,0,0,0,294.01,381.49v43.6426A136.2418,136.2418,0,0,1,227.9,407.4287l21.7993-37.7574m-.0933-.3386-.1232.2136L227.683,407.3037l-.1261.2182.2194.1243a137.2012,137.2012,0,0,0,66.2316,17.7361l.2522.0022V381.2426l-.2469-.0029a93.1507,93.1507,0,0,1-44.1924-11.7866l-.2153-.12Z"/><path class="cls-3" d="M251.1984,367.0737A89.89,89.89,0,0,0,294.01,378.49V336.3112a48.2822,48.2822,0,0,1-21.5371-6.0861Z"/><path class="cls-3" d="M290.1748,299.5649l-16.2107,28.0774a45.3623,45.3623,0,0,0,20.046,5.6692V300.5961A12.786,12.786,0,0,1,290.1748,299.5649Z"/><path class="cls-1" d="M204.7981,447.4418a182.2853,182.2853,0,0,0,89.212,24.0157V428.1323a139.22,139.22,0,0,1-67.61-18.106Z"/><path class="cls-2" d="M226.4,410.0263a139.22,139.22,0,0,0,67.61,18.106v43.3252a182.285,182.285,0,0,1-89.212-24.0157L226.4,410.0263m-.0926-.34-.1239.2148-21.6017,37.4155-.1256.2176.2182.1245a183.4348,183.4348,0,0,0,89.334,24.0486l.252.0019V427.8845l-.2478-.0022a139.6914,139.6914,0,0,1-67.4894-18.0735l-.2158-.1223Z"/><path class="cls-1" d="M180.6173,489.3242l-.0321.0556A230.8457,230.8457,0,0,0,294.01,519.7265v-45.269a185.2659,185.2659,0,0,1-90.7119-24.418Z"/><path class="cls-2" d="M203.2982,450.04a185.2659,185.2659,0,0,0,90.7119,24.418v45.269A230.8457,230.8457,0,0,1,180.5852,489.38l.0321-.0556L203.2982,450.04m-.092-.3406-.1245.2156-22.6809,39.2847-.0322.0559-.1255.2175.2182.1243a232.2287,232.2287,0,0,0,113.5474,30.38l.2514.0015V474.2094l-.248-.0019a185.9234,185.9234,0,0,1-90.59-24.385l-.2161-.1236Z"/><path class="cls-1" d="M478.9205,289.166H435.35a139.2227,139.2227,0,0,1-17.969,67.4707l37.7,21.7661A182.2854,182.2854,0,0,0,478.9205,289.166Z"/><path class="cls-2" d="M478.9205,289.166a182.2854,182.2854,0,0,1-23.839,89.2368l-37.7-21.7661A139.2227,139.2227,0,0,0,435.35,289.166h43.57m.2515-.25h-44.07l-.002.248a139.7058,139.7058,0,0,1-17.9368,67.35l-.1215.2155.2143.1238,37.7,21.7661.218.1258.1243-.2188a183.44,183.44,0,0,0,23.8717-89.3589l.0015-.2514Z"/><path class="cls-3" d="M374.3371,331.7851A89.8889,89.8889,0,0,0,385.63,289.166H344.68a48.2962,48.2962,0,0,1-6.012,22.0254Z"/><path class="cls-3" d="M307.1594,293l28.9255,16.7A45.3834,45.3834,0,0,0,341.68,289.166h-33.49A12.7793,12.7793,0,0,1,307.1594,293Z"/><path class="cls-3" d="M414.7835,355.1367A136.2393,136.2393,0,0,0,432.35,289.166H388.63a92.8658,92.8658,0,0,1-11.6949,44.1186Z"/><path class="cls-1" d="M457.6792,379.9028l39.24,22.6548.0558.0322A230.8441,230.8441,0,0,0,527.3211,289.166H481.9205A185.27,185.27,0,0,1,457.6792,379.9028Z"/><path class="cls-2" d="M527.3211,289.166A230.8451,230.8451,0,0,1,496.9746,402.59l-.0558-.0322-39.24-22.6548a185.27,185.27,0,0,0,24.2413-90.7368h45.4006m.2515-.25H481.672l-.0015.2485a185.9373,185.9373,0,0,1-24.2087,90.6148l-.1227.2158.2151.1242,39.24,22.6548.0559.0323.2175.1254.1246-.218a232.2292,232.2292,0,0,0,30.3793-113.5464l.0015-.2514Z"/><path class="cls-3" d="M296.76,381.4843v43.6446a136.2433,136.2433,0,0,0,66.0446-17.8145l-21.8373-37.8232A92.86,92.86,0,0,1,296.76,381.4843Z"/><path class="cls-3" d="M296.76,378.4843a89.8753,89.8753,0,0,0,42.7076-11.5908l-20.8371-36.0911a48.3016,48.3016,0,0,1-21.87,5.5445Z"/><path class="cls-3" d="M300.5954,299.5649a12.7868,12.7868,0,0,1-3.8353,1.0312v32.751a45.3976,45.3976,0,0,0,20.3767-5.1318Z"/><path class="cls-3" d="M296.76,471.46a182.2834,182.2834,0,0,0,89.264-23.9282l-21.72-37.62A139.22,139.22,0,0,1,296.76,428.1289Z"/><path class="cls-3" d="M387.5239,450.1293A185.2686,185.2686,0,0,1,296.76,474.46v45.2666A230.8457,230.8457,0,0,0,410.185,489.38l-.0321-.0556Z"/><path class="cls-3" d="M453.7013,380.7822,416.0061,359.019A141.1725,141.1725,0,0,1,366.68,408.5268l21.7207,37.6211A184.8227,184.8227,0,0,0,453.7013,380.7822Z"/><path class="cls-3" d="M343.3436,368.1069,365.18,405.9292a138.1531,138.1531,0,0,0,48.2284-48.41l-37.8454-21.85A94.1827,94.1827,0,0,1,343.3436,368.1069Z"/><path class="cls-3" d="M302.973,298.1831,319.54,326.8774A45.85,45.85,0,0,0,334.68,312.0656l-28.903-16.6872A12.9419,12.9419,0,0,1,302.973,298.1831Z"/><path class="cls-3" d="M321.0305,329.46l20.8135,36.05a91.16,91.16,0,0,0,31.1218-31.34l-35.7014-20.6123A48.9948,48.9948,0,0,1,321.0305,329.46Z"/><path class="cls-3" d="M456.2987,382.2817A187.8424,187.8424,0,0,1,389.9,448.7456l22.6341,39.2036.0271.0468a233.0831,233.0831,0,0,0,83.0291-83.0288l-.0467-.0273Z"/><path class="cls-2" d="M355.1482,49.6386V40.42l-2.3765,1.6924-1.4946-2.2686,4.2671-2.7725h2.9531V49.6386Z"/><path class="cls-2" d="M467.156,117.0146V114.62c2.1606-1.8545,3.043-2.6475,3.8169-3.4571,1.2246-1.2783,1.6924-2.1972,1.6924-2.8632,0-1.0079-.648-1.584-1.7823-1.584a7.61,7.61,0,0,0-3.2949.8642l-.126-2.6113a11.09,11.09,0,0,1,3.7452-.7383c3.0068,0,4.8071,1.3692,4.8071,3.6914,0,1.5664-1.0264,3.6914-4.7354,6.7159h4.97v2.3769Z"/><path class="cls-2" d="M540.2029,214.0087a2.8091,2.8091,0,0,1,2.5029,2.8623c0,2.81-2.5386,3.9073-5.5273,3.9073a11.5788,11.5788,0,0,1-3.6373-.4317l.1622-2.6474a6.3179,6.3179,0,0,0,3.0786.5947c1.2964,0,2.5747-.4326,2.5747-1.6025,0-.9-.72-1.44-2.3228-1.44-.522,0-.9721.0176-1.3681.0362v-2.2325c.3061.0352.81.0352,1.26.0352,1.3867,0,2.2329-.5762,2.2329-1.3857,0-.9-.63-1.4405-2.1787-1.4405a7.5858,7.5858,0,0,0-2.8989.5039l-.1621-2.4668a12.25,12.25,0,0,1,3.6372-.5224c3.0791,0,4.9512,1.1347,4.9512,3.4394a2.7921,2.7921,0,0,1-2.3047,2.7549Z"/><path class="cls-2" d="M539.1116,356.0478v-2.3945h-5.6177v-2.6651l5.0415-7.5078h3.709v7.9043h1.7827v2.2686h-1.7827v2.3945Zm.2158-9.9746h-.0357l-3.4214,5.3115h3.4571Z"/><path class="cls-2" d="M477.5237,468.5039a6.8856,6.8856,0,0,0,3.061.6845c1.6563,0,2.5386-.7207,2.5386-2.0166,0-1.2783-1.2241-1.8369-2.8086-1.8369a10.8463,10.8463,0,0,0-2.7188.3067l.09-6.752h8.1924v2.2686h-5.3116v2.0888c.252-.0185.72-.0722,1.0445-.0722,2.4487,0,4.7534,1.0976,4.7534,3.8886,0,3.0069-2.0347,4.6094-5.5459,4.6094a13.2919,13.2919,0,0,1-3.3486-.45Z"/><path class="cls-2" d="M366.9,527.2519a4.8,4.8,0,0,0-2.6289-.666c-2.0166,0-2.9345,1.1523-2.9526,3.6914h.0361a3.0541,3.0541,0,0,1,2.7188-1.2783,3.6946,3.6946,0,0,1,3.7632,3.9609,4.4127,4.4127,0,0,1-4.7178,4.249c-3.1865,0-4.8252-2.2685-4.8252-5.96,0-4.4112,1.7822-7.04,5.5635-7.04a8.6093,8.6093,0,0,1,3.2412.5762Zm-2.1967,6.0137c0-1.1338-.504-1.9981-1.6021-1.9981a1.6686,1.6686,0,0,0-1.6387,1.8545,1.713,1.713,0,0,0,1.6387,1.9268A1.6089,1.6089,0,0,0,364.7034,533.2656Z"/><path class="cls-2" d="M220.4773,546.2275l4.6816-10.1914h-5.6177V533.66H228.58v2.7188l-4.5014,9.8486Z"/><path class="cls-2" d="M114.6394,464.8134c1.7466.54,2.5391,1.53,2.5391,3.0967,0,2.4307-1.9087,3.7627-4.9336,3.7627-3.0972,0-4.8975-1.2783-4.8975-3.583a3.0358,3.0358,0,0,1,2.4849-3.0967v-.0176a3.0041,3.0041,0,0,1-2.1607-2.6836c0-2.3584,1.7642-3.6191,4.7173-3.6191,2.6826,0,4.3213,1.1524,4.3213,3.2236a2.9818,2.9818,0,0,1-2.0708,2.8809Zm-4.0513,3.0244a1.58,1.58,0,0,0,1.6206,1.5665,1.5987,1.5987,0,0,0,1.7285-1.62c0-.8466-.5942-1.44-1.8906-1.8183C111.0383,466.4335,110.5881,467.01,110.5881,467.8378Zm3.0972-5.6718a1.38,1.38,0,0,0-1.5308-1.3321,1.4446,1.4446,0,0,0-1.458,1.4766c0,.63.3057,1.1523,1.5664,1.6563C113.2893,463.3906,113.6853,462.9043,113.6853,462.166Z"/><path class="cls-2" d="M45.8147,350.3867a3.0557,3.0557,0,0,1-2.7188,1.2783,3.6939,3.6939,0,0,1-3.7632-3.9609,4.4134,4.4134,0,0,1,4.7173-4.25c3.2051,0,4.8257,2.2871,4.8257,5.9785,0,4.5009-1.8725,7.0215-5.5459,7.0215a8.5708,8.5708,0,0,1-3.2588-.5762l.1978-2.4668a4.7908,4.7908,0,0,0,2.647.666c1.9624,0,2.9169-1.1162,2.935-3.69Zm-.1079-2.8448a1.7042,1.7042,0,0,0-1.6387-1.9267,1.6028,1.6028,0,0,0-1.6025,1.7822c0,1.1885.54,1.999,1.6025,1.999A1.6607,1.6607,0,0,0,45.7068,347.5419Z"/><path class="cls-2" d="M44.0788,220.5625v-9.2188l-2.3764,1.6924-1.4947-2.2686,4.2671-2.7724H47.428v12.5674Z"/><path class="cls-2" d="M50.6838,214.2783c0-4.6992,1.6924-6.5,4.8794-6.5,3.2588,0,4.8794,1.8906,4.8794,6.5,0,4.6455-1.6567,6.5-4.8794,6.5C52.3943,220.7783,50.6838,218.9775,50.6838,214.2783Zm6.5176,0c0-3.24-.5581-4.2305-1.6382-4.2305-1.0625,0-1.6387.9541-1.6387,4.2305,0,3.2949.5943,4.2314,1.6387,4.2314C56.6252,218.51,57.2014,217.5556,57.2014,214.2783Z"/><path class="cls-2" d="M112.3884,117.0146v-9.2187l-2.3765,1.6923-1.4946-2.2685,4.2671-2.7725h2.9531v12.5674Z"/><path class="cls-2" d="M123.4045,117.0146v-9.2187l-2.3769,1.6923-1.4942-2.2685,4.2671-2.7725h2.9531v12.5674Z"/><path class="cls-2" d="M216.2117,49.6386V40.42l-2.3765,1.6924-1.4946-2.2686,4.2671-2.7725h2.9531V49.6386Z"/><path class="cls-2" d="M222.9426,49.6386V47.2441c2.1607-1.8545,3.043-2.6475,3.8169-3.457,1.2246-1.2784,1.6929-2.1973,1.6929-2.8633,0-1.0078-.6485-1.584-1.7827-1.584a7.61,7.61,0,0,0-3.295.8643l-.1259-2.6114a11.0914,11.0914,0,0,1,3.7451-.7383c3.0068,0,4.8071,1.3692,4.8071,3.6915,0,1.5664-1.0264,3.6914-4.7353,6.7158h4.97v2.3769Z"/><circle class="cls-2" cx="250.5563" cy="287.7347" r="9.6881"/><path class="cls-4" d="M250.5564,298.4228a10.688,10.688,0,1,1,10.688-10.6885A10.7,10.7,0,0,1,250.5564,298.4228Zm0-19.376a8.688,8.688,0,1,0,8.688,8.6875A8.6978,8.6978,0,0,0,250.5564,279.0468Z"/><circle class="cls-2" cx="295.804" cy="287.7347" r="9.6881"/><path class="cls-3" d="M295.8039,298.4228a10.688,10.688,0,1,1,10.688-10.6885A10.7,10.7,0,0,1,295.8039,298.4228Zm0-19.376a8.688,8.688,0,1,0,8.688,8.6875A8.6978,8.6978,0,0,0,295.8039,279.0468Z"/><circle class="cls-2" cx="204.0976" cy="287.7347" r="9.6881"/><path class="cls-4" d="M204.0974,298.4228a10.688,10.688,0,1,1,10.6885-10.6885A10.7,10.7,0,0,1,204.0974,298.4228Zm0-19.376a8.688,8.688,0,1,0,8.6885,8.6875A8.6978,8.6978,0,0,0,204.0974,279.0468Z"/><circle class="cls-2" cx="157.4187" cy="287.7347" r="9.6881"/><path class="cls-4" d="M157.4187,298.4228a10.688,10.688,0,1,1,10.688-10.6885A10.7,10.7,0,0,1,157.4187,298.4228Zm0-19.376a8.688,8.688,0,1,0,8.688,8.6875A8.6978,8.6978,0,0,0,157.4187,279.0468Z"/><circle class="cls-2" cx="110.1799" cy="287.7347" r="9.6881"/><path class="cls-4" d="M110.18,298.4228a10.688,10.688,0,1,1,10.688-10.6885A10.7,10.7,0,0,1,110.18,298.4228Zm0-19.376a8.688,8.688,0,1,0,8.688,8.6875A8.6978,8.6978,0,0,0,110.18,279.0468Z"/><path class="cls-4" d="M109.989,290.9365v-1.3291H107.08v-1.4795l2.61-4.168h1.92v4.3877h.9233v1.26h-.9233v1.3291Zm.1118-5.5371h-.0185l-1.7715,2.9482h1.79Z"/><circle class="cls-2" cx="63.4491" cy="287.7347" r="9.6881"/><path class="cls-4" d="M63.449,298.4228a10.688,10.688,0,1,1,10.6879-10.6885A10.7,10.7,0,0,1,63.449,298.4228Zm0-19.376a8.688,8.688,0,1,0,8.6879,8.6875A8.6978,8.6978,0,0,0,63.449,279.0468Z"/><path class="cls-4" d="M61.2507,289.2978a3.37,3.37,0,0,0,1.585.3789c.8574,0,1.3144-.3994,1.3144-1.1191,0-.709-.6342-1.02-1.4546-1.02a5.2674,5.2674,0,0,0-1.4077.17l.0469-3.7481h4.2417v1.26H62.8259v1.1592c.1309-.01.3731-.04.541-.04,1.2681,0,2.4615.6094,2.4615,2.1592,0,1.6689-1.0538,2.5586-2.8716,2.5586a6.486,6.486,0,0,1-1.7344-.25Z"/><path class="cls-4" d="M158,287.1787a1.5282,1.5282,0,0,1,1.2959,1.5888c0,1.56-1.3149,2.169-2.8623,2.169a5.6079,5.6079,0,0,1-1.8833-.24l.084-1.4687a3.0883,3.0883,0,0,0,1.5942.3291c.6714,0,1.3331-.2393,1.3331-.8887,0-.5-.3731-.8-1.2027-.8-.27,0-.5034.01-.7085.02v-1.2393a6.1883,6.1883,0,0,0,.6529.0205c.7177,0,1.1557-.32,1.1557-.7695,0-.5-.3262-.8-1.1279-.8a3.6813,3.6813,0,0,0-1.501.28l-.084-1.37a5.96,5.96,0,0,1,1.8833-.289c1.5943,0,2.564.6289,2.564,1.9082A1.5263,1.5263,0,0,1,158,287.1582Z"/><path class="cls-4" d="M201.3157,290.9365v-1.3291c1.1186-1.0293,1.5756-1.47,1.9765-1.919a2.7188,2.7188,0,0,0,.8765-1.5888.82.82,0,0,0-.9234-.88,3.74,3.74,0,0,0-1.706.48l-.0649-1.4492a5.4127,5.4127,0,0,1,1.9389-.4092c1.5571,0,2.4893.7588,2.4893,2.0488,0,.8691-.5313,2.0488-2.4522,3.7275h2.5733v1.3194Z"/><path class="cls-4" d="M249.7151,290.9365v-5.1172l-1.2305.9394-.7739-1.2587,2.2095-1.54h1.5292v6.9766Z"/><path class="cls-4" d="M293.2058,287.3281c0-2.6084.8765-3.6074,2.5269-3.6074,1.6875,0,2.5263,1.0488,2.5263,3.6074,0,2.5791-.8579,3.6084-2.5263,3.6084C294.0915,290.9365,293.2058,289.9365,293.2058,287.3281Zm3.375,0c0-1.7988-.2891-2.3487-.8481-2.3487-.55,0-.8487.53-.8487,2.3487,0,1.8291.3076,2.3486.8487,2.3486C296.2825,289.6767,296.5808,289.1474,296.5808,287.3281Z"/></svg>