<svg id="Layer_1" data-name="Layer 1" xmlns="http://www.w3.org/2000/svg" width="318.688" height="308.4771" viewBox="0 0 318.688 308.4771"><defs><style>.cls-1{fill:#f4f5f0;}.cls-2{fill:#72ae73;}.cls-3{fill:#4a984d;}.cls-4{fill:#fff;}</style></defs><path class="cls-1" d="M76.6916,195.9375l-19.2083,11.09-.0227.0133a113.62,113.62,0,0,0,40.4745,40.4743l.0131-.0228,11.06-19.1564A91.5693,91.5693,0,0,1,76.6916,195.9375Z"/><path class="cls-2" d="M76.5608,196.4353a92.0511,92.0511,0,0,0,31.95,32.03L97.8028,247.0128a113.3788,113.3788,0,0,1-39.84-39.84l18.5982-10.7375m.1308-.4977-19.2083,11.09-.0227.0133A113.62,113.62,0,0,0,97.9351,247.515l.0131-.0228,11.06-19.1564a91.5693,91.5693,0,0,1-32.3166-32.3982Z"/><path class="cls-3" d="M76.6916,195.9375a91.5693,91.5693,0,0,0,32.3166,32.3982l-11.06,19.1564-.0132.0228a113.6205,113.6205,0,0,1-40.4744-40.4743l.0227-.0133,19.2083-11.09m.0438-.166-.1047.06-19.2083,11.09-.0234.0137-.1053.0616.0618.1052A113.8657,113.8657,0,0,0,97.8734,247.62l.1059.0621.0613-.1062.0132-.0229,11.06-19.1564.06-.1045-.1039-.0613a91.5551,91.5551,0,0,1-32.2735-32.3551l-.0613-.1042Z"/><path class="cls-2" d="M98.046,247.9325l-.2647-.1542a114.05,114.05,0,0,1-40.5834-40.5836l-.1547-.2628.2633-.1542,19.4946-11.2552.1531.2608a91.3733,91.3733,0,0,0,32.2092,32.29l.26.1538-.1513.2613ZM57.7114,207.1066a113.5679,113.5679,0,0,0,40.1575,40.1575l10.8905-18.8634a91.8665,91.8665,0,0,1-32.1332-32.2142Z"/><path class="cls-2" d="M149.9894,153.6189l-13.59,7.8463a22.3536,22.3536,0,0,0,7.0634,7.1935l7.8939-13.6726A6.3018,6.3018,0,0,1,149.9894,153.6189Z"/><path class="cls-2" d="M135.14,162.1926,117.082,172.618a44.4351,44.4351,0,0,0,15.273,15.28l10.38-17.9795A23.8863,23.8863,0,0,1,135.14,162.1926Z"/><path class="cls-2" d="M131.624,189.1638a45.9092,45.9092,0,0,1-15.8081-15.8148L97.4238,183.9677a67.3435,67.3435,0,0,0,23.5747,23.6Z"/><path class="cls-2" d="M109.7393,227.0694l10.5282-18.2355a68.8161,68.8161,0,0,1-24.11-24.1352l-18.2,10.5078A90.0978,90.0978,0,0,0,109.7393,227.0694Z"/><path class="cls-2" d="M154.3851,143.6779V127.6753a22.1146,22.1146,0,0,0-9.7955,2.7771l7.9261,13.7284A6.2314,6.2314,0,0,1,154.3851,143.6779Z"/><path class="cls-2" d="M154.3851,105.9427a43.82,43.82,0,0,0-20.7665,5.5074l10.2441,17.7433a23.5363,23.5363,0,0,1,10.5224-2.98Z"/><path class="cls-2" d="M154.3851,104.48V83.2062a66.4128,66.4128,0,0,0-32.1239,8.5722l10.6264,18.4054A45.2738,45.2738,0,0,1,154.3851,104.48Z"/><path class="cls-2" d="M154.3851,60.6236A88.8563,88.8563,0,0,0,111,72.2728l10.53,18.2393a67.868,67.868,0,0,1,32.855-8.7684Z"/><path class="cls-2" d="M110.2686,71.0065a90.3078,90.3078,0,0,1,44.1165-11.8453V36.8574A112.5325,112.5325,0,0,0,99.0935,51.6506l.0156.0271Z"/><path class="cls-1" d="M64.2281,150.5906H41.9927a112.5318,112.5318,0,0,0,14.7931,55.2911l.0273-.0158L76.02,194.7771A90.313,90.313,0,0,1,64.2281,150.5906Z"/><path class="cls-2" d="M63.8654,150.9563a91.1432,91.1432,0,0,0,11.6578,43.6855L56.9218,205.3812a112.72,112.72,0,0,1-14.5607-54.4249H63.8654m.3627-.3656H41.9927a112.5312,112.5312,0,0,0,14.7931,55.291l.0273-.0157L76.02,194.7772a90.313,90.313,0,0,1-11.7917-44.1865Z"/><path class="cls-3" d="M64.2281,150.5906A90.313,90.313,0,0,0,76.02,194.7771L56.8131,205.8659l-.0273.0158a112.5318,112.5318,0,0,1-14.7931-55.2911H64.2281m.1211-.1219H41.87l.0008.1226A113.2044,113.2044,0,0,0,56.68,205.9421l.0607.1063.106-.0612.0273-.0157,19.2067-11.0888.1048-.0606-.06-.1052A90.6423,90.6423,0,0,1,64.35,150.59l-.0008-.1211Z"/><path class="cls-2" d="M56.6729,206.2983l-.1517-.2652a113.391,113.391,0,0,1-14.8331-55.441l-.0017-.3061H64.5307l.002.3027a90.4585,90.4585,0,0,0,11.7519,44.0378l.1493.2633-.2619.1514ZM42.1767,150.7735a112.9053,112.9053,0,0,0,14.6771,54.8578l18.9174-10.9219a90.9517,90.9517,0,0,1-11.7248-43.9359Z"/><path class="cls-1" d="M77.286,194.0459l18.2-10.5076a67.8692,67.8692,0,0,1-8.7917-32.9477H65.6905A88.86,88.86,0,0,0,77.286,194.0459Z"/><path class="cls-2" d="M86.3325,150.9563A68.5981,68.5981,0,0,0,94.99,183.4025L77.4228,193.545a88.9405,88.9405,0,0,1-11.3637-42.5887H86.3325m.3617-.3656H65.6905A88.86,88.86,0,0,0,77.286,194.046l18.2-10.5076a67.8692,67.8692,0,0,1-8.7917-32.9477Z"/><path class="cls-3" d="M86.6942,150.5906a67.8692,67.8692,0,0,0,8.7917,32.9477l-18.2,10.5076a88.86,88.86,0,0,1-11.5955-43.4553H86.6942m.1209-.1219H65.5679l.0008.1226A89.4254,89.4254,0,0,0,77.18,194.1061l.0606.1068.1063-.0614,18.2-10.5076.1046-.06-.0594-.1051A68.1,68.1,0,0,1,86.8161,150.59l-.001-.1209Z"/><path class="cls-2" d="M77.1729,194.4633l-.1516-.2666a89.612,89.612,0,0,1-11.6356-43.6046l-.0016-.3061H86.9964l.0024.3023a67.92,67.92,0,0,0,8.7524,32.8l.1485.2627-.2616.1514Zm-11.2983-43.69a89.1172,89.1172,0,0,0,11.48,43.0219L95.2378,183.47a68.4162,68.4162,0,0,1-8.7248-32.6968Z"/><path class="cls-2" d="M148.8131,150.5906H133.172a22.1215,22.1215,0,0,0,2.5662,9.708l13.5775-7.8391A6.2279,6.2279,0,0,1,148.8131,150.5906Z"/><path class="cls-2" d="M110.8558,150.5906a43.8169,43.8169,0,0,0,5.5556,20.8663l18.0657-10.43a23.5418,23.5418,0,0,1-2.7675-10.4361Z"/><path class="cls-2" d="M88.1567,150.5906a66.415,66.415,0,0,0,8.5955,32.2165l18.393-10.6192a45.27,45.27,0,0,1-5.7518-21.5973Z"/><path class="cls-1" d="M131.7257,110.8522,121.1,92.4486a67.3431,67.3431,0,0,0-23.5723,23.484l18.392,10.6185A45.9151,45.9151,0,0,1,131.7257,110.8522Z"/><path class="cls-2" d="M120.9689,92.9522l10.26,17.7716a46.394,46.394,0,0,0-15.4356,15.3323L98.0328,115.802a67.0943,67.0943,0,0,1,22.9361-22.85m.1315-.5035a67.3431,67.3431,0,0,0-23.5723,23.484l18.392,10.6185a45.9151,45.9151,0,0,1,15.8056-15.6989L121.1,92.4487Z"/><path class="cls-3" d="M121.1,92.4486l10.6253,18.4036A45.9151,45.9151,0,0,0,115.92,126.5511l-18.392-10.6185A67.3431,67.3431,0,0,1,121.1,92.4486m.0439-.1675-.1059.0626A67.5717,67.5717,0,0,0,97.4234,115.87l-.0632.1062.107.0617,18.392,10.6185.1034.06.0618-.1024a45.8935,45.8935,0,0,1,15.7636-15.6571l.1033-.0615-.06-.1041L121.2059,92.3877l-.0616-.1066Z"/><path class="cls-2" d="M116.0263,126.9639l-.2582-.1485-18.66-10.7735.1576-.2651a67.7564,67.7564,0,0,1,23.6791-23.5906l.2647-.1566.1542.2666L132.14,110.96l-.2585.1538a45.7126,45.7126,0,0,0-15.7005,15.5948ZM97.78,115.8667l18.0765,10.4369a46.208,46.208,0,0,1,15.6208-15.5163L121.0343,92.7A67.274,67.274,0,0,0,97.78,115.8667Z"/><path class="cls-2" d="M142.7125,129.882l-10.2559-17.7635a44.4388,44.4388,0,0,0-15.27,15.1635l17.929,10.3514A23.8883,23.8883,0,0,1,142.7125,129.882Z"/><path class="cls-2" d="M151.3567,144.8542l-7.917-13.7126a22.3544,22.3544,0,0,0-7.0658,7.2184l13.6157,7.8611A6.3026,6.3026,0,0,1,151.3567,144.8542Z"/><path class="cls-1" d="M120.3694,91.1826,109.8409,72.9469A90.0941,90.0941,0,0,0,78.062,104.6938l18.2,10.5076A68.8162,68.8162,0,0,1,120.3694,91.1826Z"/><path class="cls-2" d="M109.7091,73.45l10.1631,17.6028a69.3013,69.3013,0,0,0-23.739,23.6522L78.5653,104.5623A89.84,89.84,0,0,1,109.7091,73.45m.1318-.503a90.0952,90.0952,0,0,0-31.7789,31.747l18.2,10.5076a68.8162,68.8162,0,0,1,24.1074-24.0188L109.8409,72.9469Z"/><path class="cls-3" d="M109.8409,72.9469l10.5285,18.2357a68.8173,68.8173,0,0,0-24.1075,24.0188l-18.2-10.5076a90.0941,90.0941,0,0,1,31.7789-31.7469m.0441-.1675-.106.0625a90.33,90.33,0,0,0-31.8219,31.79l-.0626.106.1066.0616,18.2,10.5075.1041.06.0615-.1033a68.8026,68.8026,0,0,1,24.0647-23.9761l.1039-.0614-.06-.1045L109.9465,72.8859l-.0615-.1065Z"/><path class="cls-2" d="M96.37,115.6154l-18.727-10.8125.1573-.2642a90.5138,90.5138,0,0,1,31.8862-31.8543l.2647-.1557.1537.2657,10.6792,18.4968-.2594.1533a68.626,68.626,0,0,0-24.0007,23.9124ZM78.3135,104.6282l17.884,10.3245a69.1231,69.1231,0,0,1,23.9231-23.8352L109.7751,73.1981A90.0378,90.0378,0,0,0,78.3135,104.6282Z"/><path class="cls-1" d="M76.7958,103.9628A91.5681,91.5681,0,0,1,109.11,71.6806L97.9482,52.348l-.0131-.0228A113.62,113.62,0,0,0,57.4606,92.8l.0227.0131Z"/><path class="cls-2" d="M97.8028,52.8275l10.81,18.7227a92.0639,92.0639,0,0,0-31.9467,31.9155L57.9628,92.6672a113.375,113.375,0,0,1,39.84-39.84m.1323-.5022A113.6192,113.6192,0,0,0,57.4606,92.8l.0227.0131,19.3125,11.15A91.5681,91.5681,0,0,1,109.11,71.6807L97.9482,52.3481l-.0131-.0228Z"/><path class="cls-3" d="M97.9351,52.3252l.0131.0228L109.11,71.6806a91.5681,91.5681,0,0,0-32.3141,32.2822l-19.3125-11.15L57.4606,92.8A113.62,113.62,0,0,1,97.9351,52.3252m.0443-.1674-.106.0623A113.8662,113.8662,0,0,0,57.3555,92.7378l-.0621.106.1064.0613.0227.013,19.3124,11.15.1045.06.0614-.1039a91.5623,91.5623,0,0,1,32.271-32.2393l.104-.0613-.06-.1046L98.0538,52.2871l-.0131-.0228-.0613-.1065Z"/><path class="cls-2" d="M76.9047,104.3778l-.2614-.1514L57.0425,92.91l.1554-.2647A114.0531,114.0531,0,0,1,97.7808,52.0625l.2649-.1562.1536.2666L109.5242,71.79l-.26.1533a91.3721,91.3721,0,0,0-32.2063,32.1747ZM57.7116,92.7332l19.0191,10.981a91.8692,91.8692,0,0,1,32.13-32.099L97.8689,52.5761A113.5614,113.5614,0,0,0,57.7116,92.7332Z"/><path class="cls-2" d="M244.521,149.25a88.8578,88.8578,0,0,0-11.7178-43.4434l-18.3781,10.6106a67.8626,67.8626,0,0,1,8.8565,32.8328Z"/><path class="cls-2" d="M221.8192,149.25a66.41,66.41,0,0,0-8.66-32.1018l-18.45,10.6523a45.2648,45.2648,0,0,1,5.7979,21.45Z"/><path class="cls-2" d="M199.0441,149.25a43.8137,43.8137,0,0,0-5.6017-20.7186L176.178,138.499a23.545,23.545,0,0,1,2.9086,10.751Z"/><path class="cls-2" d="M161.2976,149.25h16.3267a22.1257,22.1257,0,0,0-2.7054-10.024l-14.124,8.1546A6.2274,6.2274,0,0,1,161.2976,149.25Z"/><path class="cls-1" d="M245.9834,149.25H268.118a112.5334,112.5334,0,0,0-14.7931-55.2918l-.0272.0157L234.07,105.0753A90.3132,90.3132,0,0,1,245.9834,149.25Z"/><path class="cls-2" d="M253.1889,94.4589A112.722,112.722,0,0,1,267.75,148.8845H246.3452A91.1251,91.1251,0,0,0,234.5669,105.21l18.622-10.7515m.136-.5006-.0272.0157L234.07,105.0754A90.3132,90.3132,0,0,1,245.9834,149.25H268.118a112.5334,112.5334,0,0,0-14.7931-55.2918Z"/><path class="cls-3" d="M253.3249,93.9582A112.5334,112.5334,0,0,1,268.118,149.25H245.9834A90.3132,90.3132,0,0,0,234.07,105.0753l19.2282-11.1014.0272-.0157m.0451-.1669-.1061.0613-.0272.0157L234.0085,104.97l-.1051.0607.06.1053a90.6357,90.6357,0,0,1,11.8978,44.1153l.0011.1208h22.378l-.0007-.1226a113.2075,113.2075,0,0,0-14.8092-55.3516l-.0607-.1064Z"/><path class="cls-2" d="M268.4243,149.5548H245.6811l-.0023-.3023a90.4513,90.4513,0,0,0-11.8739-44.0259l-.1506-.2637.263-.1514,19.52-11.27.1519.2657a113.3941,113.3941,0,0,1,14.8332,55.4415Zm-22.26-.4875H267.934a112.9047,112.9047,0,0,0-14.677-54.8588l-18.9387,10.9343A90.94,90.94,0,0,1,246.1646,149.0673Z"/><path class="cls-2" d="M199.1364,72.229a88.8576,88.8576,0,0,0-43.4108-11.6068V81.7454a67.8687,67.8687,0,0,1,32.8228,8.8224Z"/><path class="cls-2" d="M187.8173,91.8341a66.4147,66.4147,0,0,0-32.0917-8.6263v21.2751a45.2667,45.2667,0,0,1,21.4468,5.7888Z"/><path class="cls-2" d="M176.4413,111.5379a43.8134,43.8134,0,0,0-20.7157-5.5926v20.25a23.5453,23.5453,0,0,1,10.6855,2.7152Z"/><path class="cls-2" d="M157.5951,144.1808l8.0878-14.0088a22.1287,22.1287,0,0,0-9.9573-2.514v16.02A6.232,6.232,0,0,1,157.5951,144.1808Z"/><path class="cls-1" d="M211.0016,51.6777l.0156-.0271a112.5322,112.5322,0,0,0-55.2916-14.7932V59.16a90.31,90.31,0,0,1,44.1419,11.8029Z"/><path class="cls-2" d="M199.9139,71.133l-.1079-.0616a90.6506,90.6506,0,0,0-44.0816-11.7871l-.124-.0009V36.74l.1255-.0078a113.2047,113.2047,0,0,1,55.3535,14.81l.1084.0616-.0776.1367ZM155.85,59.0353a90.891,90.891,0,0,1,43.9707,11.7578l11.0254-19.0957A112.9552,112.9552,0,0,0,155.85,36.9836Z"/><path class="cls-3" d="M155.7256,36.8574a112.5322,112.5322,0,0,1,55.2916,14.7932l-.0156.0271-11.1341,19.285A90.31,90.31,0,0,0,155.7256,59.16V36.8574m-.1218-.1226v22.546l.121.0009a90.6392,90.6392,0,0,1,44.0825,11.7869l.1052.06.0605-.1049,11.1341-19.2849.0157-.0273.0611-.106-.1063-.0606a113.2052,113.2052,0,0,0-55.3512-14.8093l-.1226-.0007Z"/><path class="cls-2" d="M199.9583,71.298l-.2124-.1211A90.52,90.52,0,0,0,155.724,59.4064l-.2452-.002V36.6086l.2486.0019A113.3333,113.3333,0,0,1,211.14,51.4367l.2158.123-.14.2412ZM155.85,59.0353a90.891,90.891,0,0,1,43.9707,11.7578l11.0254-19.0957A112.9552,112.9552,0,0,0,155.85,36.9836Z"/><path class="cls-1" d="M233.3923,103.9181l19.2351-11.1055L252.65,92.8a113.62,113.62,0,0,0-40.4745-40.4743l-.0131.0228L201.0273,71.6349A91.566,91.566,0,0,1,233.3923,103.9181Z"/><path class="cls-2" d="M212.3079,52.8275a113.3785,113.3785,0,0,1,39.84,39.84l-18.6259,10.7537a92.05,92.05,0,0,0-31.9972-31.9166l10.783-18.6768m-.1323-.5022-.0131.0228L201.0273,71.635a91.566,91.566,0,0,1,32.365,32.2832l19.2351-11.1055L252.65,92.8a113.6192,113.6192,0,0,0-40.4745-40.4743Z"/><path class="cls-1" d="M200.2962,72.9009l-10.5885,18.34a68.8163,68.8163,0,0,1,24.0428,24.0176L232.126,104.649A90.0965,90.0965,0,0,0,200.2962,72.9009Z"/><path class="cls-2" d="M200.4282,73.4037a89.8429,89.8429,0,0,1,31.1944,31.1141L213.88,114.7616a69.304,69.304,0,0,0-23.675-23.65l10.2236-17.7076m-.132-.5027-10.5885,18.34a68.8163,68.8163,0,0,1,24.0428,24.0176l18.3755-10.6093a90.0965,90.0965,0,0,0-31.83-31.7481Z"/><path class="cls-3" d="M200.2962,72.9009a90.0965,90.0965,0,0,1,31.83,31.7481l-18.3755,10.6093a68.8168,68.8168,0,0,0-24.0427-24.0176l10.5884-18.34m-.0441-.1673-.0615.1064L189.6022,91.18l-.06.1044.1036.0614a68.8042,68.8042,0,0,1,24,23.975l.0615.1034.1042-.06,18.3756-10.6092.1066-.0616-.0627-.106A90.3322,90.3322,0,0,0,200.358,72.7958l-.1059-.0622Z"/><path class="cls-2" d="M213.6421,115.6725l-.1535-.2585a68.622,68.622,0,0,0-23.9364-23.9114l-.259-.1533,10.8925-18.8672.2651.1561a90.5145,90.5145,0,0,1,31.9374,31.8558l.1571.2646ZM189.9564,91.176A69.1186,69.1186,0,0,1,213.8152,115.01l18.0591-10.4265a90.0166,90.0166,0,0,0-31.512-31.431Z"/><path class="cls-2" d="M178.3322,110.9438a45.9135,45.9135,0,0,1,15.7036,15.6968l18.4486-10.6514A67.3417,67.3417,0,0,0,188.9767,92.507Z"/><path class="cls-2" d="M175.4958,137.3445l17.2738-9.973A44.4392,44.4392,0,0,0,177.6012,112.21L167.58,129.5666A23.8822,23.8822,0,0,1,175.4958,137.3445Z"/><path class="cls-2" d="M160.1211,146.2211l14.1151-8.1494a22.351,22.351,0,0,0-7.3826-7.2464l-8.1,14.0289A6.3,6.3,0,0,1,160.1211,146.2211Z"/><path class="cls-2" d="M65.6935,149.25H86.6972a67.8646,67.8646,0,0,1,8.8888-32.89l-18.2-10.5078A88.8581,88.8581,0,0,0,65.6935,149.25Z"/><path class="cls-2" d="M96.8522,117.0906A66.4121,66.4121,0,0,0,88.16,149.25h21.2368a45.2664,45.2664,0,0,1,5.8487-21.54Z"/><path class="cls-2" d="M116.5113,128.4407a43.8151,43.8151,0,0,0-5.6525,20.8093h20.8494a23.5417,23.5417,0,0,1,2.7474-10.4491Z"/><path class="cls-2" d="M149.3159,147.3806l-13.5992-7.8516a22.1226,22.1226,0,0,0-2.5461,9.721h15.6425A6.2275,6.2275,0,0,1,149.3159,147.3806Z"/><path class="cls-2" d="M64.2311,149.25A90.3117,90.3117,0,0,1,76.12,105.1206L56.8131,93.9739l-.0272-.0157A112.5324,112.5324,0,0,0,41.9927,149.25H64.2311Z"/><path class="cls-1" d="M122.1579,208.2405a66.414,66.414,0,0,0,32.2272,8.63V195.5959a45.2722,45.2722,0,0,1-21.6006-5.7611Z"/><path class="cls-2" d="M132.9215,190.3288a45.9041,45.9041,0,0,0,21.098,5.6269v20.545a66.3988,66.3988,0,0,1-31.36-8.3975l10.2621-17.7744m-.137-.4939-10.6266,18.4057a66.414,66.414,0,0,0,32.2272,8.63V195.596a45.2734,45.2734,0,0,1-21.6006-5.7611Z"/><path class="cls-3" d="M132.7845,189.8348a45.2722,45.2722,0,0,0,21.6006,5.7611v21.2746a66.414,66.414,0,0,1-32.2272-8.63l10.6266-18.4057m-.0454-.1651-.06.1041L122.0524,208.18l-.0615.1064.107.0606a66.8822,66.8822,0,0,0,32.2861,8.6459l.123.001V195.4755l-.12-.0015a45.4072,45.4072,0,0,1-21.5426-5.7456l-.1049-.0587Z"/><path class="cls-2" d="M154.69,217.1784l-.308-.0034a67.0658,67.0658,0,0,1-32.3739-8.6693l-.2673-.1523.1535-.2652,10.7768-18.6658.262.1466a45.2293,45.2293,0,0,0,21.4558,5.7221l.3011.0038Zm-32.2813-9.0064a66.5744,66.5744,0,0,0,31.7938,8.5137v-20.91a45.7194,45.7194,0,0,1-21.35-5.6945Z"/><path class="cls-2" d="M133.5155,188.5685a43.8185,43.8185,0,0,0,20.87,5.565V173.5726a23.5363,23.5363,0,0,1-10.4988-2.9668Z"/><path class="cls-2" d="M152.5155,155.66l-7.9023,13.6869a22.112,22.112,0,0,0,9.7719,2.7636V156.1625A6.2353,6.2353,0,0,1,152.5155,155.66Z"/><path class="cls-1" d="M110.8966,227.7458a88.86,88.86,0,0,0,43.4885,11.707v-21.12a67.866,67.866,0,0,1-32.9583-8.8261Z"/><path class="cls-2" d="M121.5626,210.0029a68.5872,68.5872,0,0,0,32.4569,8.6917v20.3889A88.9336,88.9336,0,0,1,111.3973,227.61l10.1653-17.6071m-.1358-.496-10.53,18.239a88.86,88.86,0,0,0,43.4885,11.707v-21.12a67.866,67.866,0,0,1-32.9583-8.8261Z"/><path class="cls-3" d="M121.4268,209.5068a67.866,67.866,0,0,0,32.9583,8.8261v21.12a88.86,88.86,0,0,1-43.4885-11.707l10.53-18.239m-.0451-.1657-.06.1047-10.53,18.2391-.0612.106.1063.0607a89.42,89.42,0,0,0,43.548,11.7231l.1229.0009V218.2121l-.1208-.001a68.0953,68.0953,0,0,1-32.8993-8.81l-.1052-.06Z"/><path class="cls-2" d="M154.69,239.76l-.3071-.0024A89.6,89.6,0,0,1,110.7455,228.01l-.2656-.1519,10.8339-18.7658.263.149a67.9113,67.9113,0,0,0,32.8111,8.7864l.3019.0038Zm-43.543-12.0816a89.1158,89.1158,0,0,0,43.0555,11.59V218.5137a68.3936,68.3936,0,0,1-32.7076-8.7588Z"/><path class="cls-1" d="M99.1091,248.1623l-.0156.0272a112.5325,112.5325,0,0,0,55.2916,14.7932V240.9152a90.312,90.312,0,0,1-44.22-11.9031Z"/><path class="cls-2" d="M110.3005,229.5094a91.1226,91.1226,0,0,0,43.719,11.768v21.3372a112.7226,112.7226,0,0,1-54.4254-14.5609l10.7064-18.5443m-.135-.4972-11.0564,19.15-.0156.0272a112.5322,112.5322,0,0,0,55.2916,14.7932V240.9153a90.312,90.312,0,0,1-44.22-11.9031Z"/><path class="cls-3" d="M110.1655,229.0121a90.312,90.312,0,0,0,44.22,11.9031v22.0675A112.5322,112.5322,0,0,1,99.0935,248.19l.0156-.0272,11.0564-19.15m-.0449-.166-.0607.1051-11.0563,19.15-.0157.0273-.0612.106.1064.0606a113.2052,113.2052,0,0,0,55.3513,14.8092l.1226.0008v-22.311l-.1209-.0009a90.6332,90.6332,0,0,1-44.16-11.8871l-.1053-.06Z"/><path class="cls-2" d="M154.69,263.2889l-.3061-.0015a113.3883,113.3883,0,0,1-55.4413-14.8331l-.2659-.1514,11.3771-19.7051.2628.1495A90.4408,90.4408,0,0,0,154.3875,240.61l.3023.0024ZM99.3437,248.1215a112.9049,112.9049,0,0,0,54.8586,14.677v-21.702a90.9459,90.9459,0,0,1-43.97-11.8355Z"/><path class="cls-1" d="M244.524,150.5906H223.2846a67.8665,67.8665,0,0,1-8.7594,32.89l18.3779,10.61A88.8591,88.8591,0,0,0,244.524,150.5906Z"/><path class="cls-2" d="M244.1554,150.9563A88.94,88.94,0,0,1,232.7665,193.59l-17.7459-10.2455a68.5967,68.5967,0,0,0,8.6258-32.3884h20.509m.3686-.3656H223.2846a67.8665,67.8665,0,0,1-8.7594,32.89l18.3779,10.61a88.8591,88.8591,0,0,0,11.6209-43.5Z"/><path class="cls-3" d="M244.524,150.5906a88.8591,88.8591,0,0,1-11.6209,43.5005l-18.3779-10.61a67.8665,67.8665,0,0,0,8.7594-32.89H244.524m.1226-.1219H223.1637l-.0009.1209a68.1043,68.1043,0,0,1-8.7437,32.8313l-.0593.1051.1045.06,18.3779,10.61.1062.0613.0607-.1067a89.4224,89.4224,0,0,0,11.6368-43.56l.0007-.1226Z"/><path class="cls-2" d="M233.0166,194.5085l-18.9048-10.9149.148-.2623a67.92,67.92,0,0,0,8.72-32.743l.0023-.3023H244.83l-.0016.3061a89.6074,89.6074,0,0,1-11.6608,43.65Zm-18.2434-11.0958,18.0618,10.4279A89.12,89.12,0,0,0,244.34,150.7735H223.4659A68.4182,68.4182,0,0,1,214.7732,183.4127Z"/><path class="cls-2" d="M193.5423,171.3663a43.8183,43.8183,0,0,0,5.5048-20.7757H179.0852a23.5421,23.5421,0,0,1-2.9307,10.7367Z"/><path class="cls-2" d="M160.795,152.46l14.1,8.1409a22.1224,22.1224,0,0,0,2.7275-10.01H161.2976A6.2279,6.2279,0,0,1,160.795,152.46Z"/><path class="cls-2" d="M213.2589,182.75a66.4127,66.4127,0,0,0,8.5633-32.1589H200.51a45.27,45.27,0,0,1-5.7009,21.5066Z"/><path class="cls-1" d="M234.1694,194.8223l19.1283,11.0436.0272.0158a112.5308,112.5308,0,0,0,14.7931-55.2911H245.9864A90.3139,90.3139,0,0,1,234.1694,194.8223Z"/><path class="cls-2" d="M267.75,150.9563a112.7221,112.7221,0,0,1-14.5607,54.4249L234.6661,194.687a91.1294,91.1294,0,0,0,11.683-43.7307H267.75m.3683-.3656H245.9864a90.3139,90.3139,0,0,1-11.817,44.2317l19.1283,11.0436.0272.0157a112.53,112.53,0,0,0,14.7931-55.291Z"/><path class="cls-3" d="M268.118,150.5906a112.5308,112.5308,0,0,1-14.7931,55.2911l-.0272-.0158-19.1283-11.0436a90.3139,90.3139,0,0,0,11.817-44.2317H268.118m.1226-.1219H245.8653l-.0008.1211a90.64,90.64,0,0,1-11.801,44.1723l-.06.1052.1049.0606,19.1282,11.0436.0273.0157.106.0612.0607-.1063A113.2045,113.2045,0,0,0,268.24,150.5913l.0007-.1226Z"/><path class="cls-2" d="M253.4379,206.2983l-.265-.1523-19.4177-11.211.1492-.2632a90.46,90.46,0,0,0,11.7775-44.0831l.0019-.3027h22.7405l-.0016.3061A113.3884,113.3884,0,0,1,253.59,206.0327Zm-19.02-11.5437,18.8392,10.8767a112.9081,112.9081,0,0,0,14.677-54.8578H246.1681A90.9474,90.9474,0,0,1,234.4178,194.7546Z"/><path class="cls-2" d="M155.7256,195.5933v21.2755a66.4143,66.4143,0,0,0,32.195-8.684l-10.6451-18.4379A45.2655,45.2655,0,0,1,155.7256,195.5933Z"/><path class="cls-2" d="M155.7256,194.1309a43.8137,43.8137,0,0,0,20.8189-5.65l-10.1576-17.5935a23.5453,23.5453,0,0,1-10.6613,2.7028Z"/><path class="cls-2" d="M157.5953,155.66a6.2352,6.2352,0,0,1-1.87.5027v15.9652a22.13,22.13,0,0,0,9.9331-2.5016Z"/><path class="cls-2" d="M155.7256,239.454A88.8586,88.8586,0,0,0,199.24,227.79l-10.5878-18.3385a67.8666,67.8666,0,0,1-32.9261,8.88Z"/><path class="cls-2" d="M199.9706,229.0559a90.3136,90.3136,0,0,1-44.245,11.8605v22.0663A112.5326,112.5326,0,0,0,211.0173,248.19l-.0157-.0272Z"/><path class="cls-2" d="M232.23,195.251l-18.3754-10.609A68.8179,68.8179,0,0,1,189.81,208.7758l10.5883,18.3393A90.0955,90.0955,0,0,0,232.23,195.251Z"/><path class="cls-2" d="M178.4339,189.0721,189.0786,207.51a67.3458,67.3458,0,0,0,23.51-23.5984L194.14,173.26A45.91,45.91,0,0,1,178.4339,189.0721Z"/><path class="cls-2" d="M158.7543,154.9861l8.0758,13.9878a22.35,22.35,0,0,0,7.3807-7.22l-14.0894-8.1346A6.3062,6.3062,0,0,1,158.7543,154.9861Z"/><path class="cls-2" d="M167.5568,170.2327l10.1461,17.5734a44.4387,44.4387,0,0,0,15.171-15.2773L175.47,162.4808A23.8838,23.8838,0,0,1,167.5568,170.2327Z"/><path class="cls-2" d="M233.4965,195.982a91.5681,91.5681,0,0,1-32.3676,32.3994l11.0336,19.1107.0132.0228A113.6216,113.6216,0,0,0,252.65,207.0406l-.0228-.0133Z"/><path class="cls-3" d="M184.1883,33.8274V29.3335l-1.1585.8249-.7286-1.1058,2.08-1.3515h1.44v6.1263Z"/><path class="cls-3" d="M238.7891,66.6713V65.5041c1.0533-.904,1.4834-1.2906,1.8606-1.6852a2.3349,2.3349,0,0,0,.825-1.3958c0-.4913-.3158-.7722-.8688-.7722A3.71,3.71,0,0,0,239,62.0722l-.0615-1.2729a5.4052,5.4052,0,0,1,1.8257-.36c1.4657,0,2.3433.6674,2.3433,1.8,0,.7635-.5,1.7994-2.3083,3.2737h2.4226v1.1587Z"/><path class="cls-3" d="M274.3975,113.9534a1.3694,1.3694,0,0,1,1.22,1.3953c0,1.37-1.2375,1.9047-2.6944,1.9047a5.646,5.646,0,0,1-1.7731-.21l.0791-1.2906a3.08,3.08,0,0,0,1.5007.29c.632,0,1.2551-.2109,1.2551-.7812,0-.4389-.3511-.7022-1.1323-.7022-.2544,0-.4739.0086-.6669.0177v-1.0883c.1492.0171.3949.0171.6143.0171.676,0,1.0885-.2808,1.0885-.6755,0-.4389-.3073-.7021-1.062-.7021a3.6985,3.6985,0,0,0-1.4132.2456l-.079-1.2025a5.9715,5.9715,0,0,1,1.773-.2547c1.501,0,2.4136.5532,2.4136,1.6767a1.3611,1.3611,0,0,1-1.1235,1.3429Z"/><path class="cls-3" d="M273.8655,183.1937v-1.1673h-2.7384v-1.2991l2.4576-3.66h1.808v3.8531h.869v1.1059h-.869v1.1673Zm.1052-4.8624h-.0173l-1.6679,2.5892h1.6852Z"/><path class="cls-3" d="M243.8431,238.013a3.3559,3.3559,0,0,0,1.4921.3337c.8074,0,1.2375-.3513,1.2375-.983,0-.6232-.5967-.8955-1.3691-.8955a5.29,5.29,0,0,0-1.3253.15l.0438-3.2914h3.9936v1.1059h-2.5893V235.45c.1229-.009.3511-.0352.5092-.0352,1.1937,0,2.3171.5351,2.3171,1.8956,0,1.4658-.9918,2.247-2.7034,2.247a6.4777,6.4777,0,0,1-1.6324-.2195Z"/><path class="cls-3" d="M189.917,266.6511a2.34,2.34,0,0,0-1.2815-.3247c-.983,0-1.43.5618-1.4393,1.8h.0176a1.4889,1.4889,0,0,1,1.3253-.6231,1.8009,1.8009,0,0,1,1.8345,1.9308,2.1511,2.1511,0,0,1-2.3,2.0713c-1.5534,0-2.3522-1.1059-2.3522-2.9053,0-2.15.8688-3.4319,2.7121-3.4319a4.1975,4.1975,0,0,1,1.58.2809Zm-1.0708,2.9315c0-.5527-.2457-.974-.781-.974a.8134.8134,0,0,0-.7988.904.8351.8351,0,0,0,.7988.9393A.7843.7843,0,0,0,188.8462,269.5826Z"/><path class="cls-3" d="M118.54,275.9012l2.2822-4.968h-2.7385v-1.1583H122.49V271.1l-2.1944,4.8009Z"/><path class="cls-3" d="M66.9466,236.214a1.4816,1.4816,0,0,1,1.2378,1.51c0,1.1848-.93,1.8342-2.405,1.8342-1.51,0-2.3874-.6232-2.3874-1.7466a1.48,1.48,0,0,1,1.2113-1.51v-.0086a1.4645,1.4645,0,0,1-1.0533-1.3081c0-1.15.86-1.7643,2.3-1.7643,1.3077,0,2.1065.5618,2.1065,1.5715a1.4536,1.4536,0,0,1-1.01,1.4043Zm-1.9748,1.4743a.77.77,0,0,0,.79.7636.7793.7793,0,0,0,.8426-.79c0-.4128-.29-.7022-.9217-.8864C65.1912,237.0038,64.9718,237.2846,64.9718,237.6883Zm1.51-2.7649a.6727.6727,0,0,0-.7462-.6493.7042.7042,0,0,0-.7107.72c0,.3071.149.5617.7636.8074C66.2885,235.52,66.4815,235.2833,66.4815,234.9234Z"/><path class="cls-3" d="M33.3964,180.434a1.4894,1.4894,0,0,1-1.3253.6232,1.8006,1.8006,0,0,1-1.8344-1.9309,2.1514,2.1514,0,0,1,2.3-2.0717c1.5624,0,2.3524,1.1149,2.3524,2.9143,0,2.1941-.9128,3.4228-2.7035,3.4228a4.1761,4.1761,0,0,1-1.5885-.2809l.0964-1.2025a2.3345,2.3345,0,0,0,1.29.3247c.9566,0,1.4219-.5441,1.4307-1.799Zm-.0526-1.3867a.8308.8308,0,0,0-.7988-.9393.7813.7813,0,0,0-.7812.8688c0,.5794.2633.9745.7812.9745A.81.81,0,0,0,33.3438,179.0473Z"/><path class="cls-3" d="M32.55,117.1482v-4.4939l-1.1585.825-.7286-1.1059,2.08-1.3515h1.44v6.1263Z"/><path class="cls-3" d="M35.77,114.0848c0-2.2907.825-3.1686,2.3786-3.1686,1.5886,0,2.3786.9216,2.3786,3.1686,0,2.2646-.8077,3.1686-2.3786,3.1686C36.6038,117.2534,35.77,116.3755,35.77,114.0848Zm3.1772,0c0-1.5795-.2721-2.0622-.7986-2.0622-.518,0-.7988.4651-.7988,2.0622,0,1.6062.29,2.0627.7988,2.0627C38.6663,116.1475,38.9472,115.6824,38.9472,114.0848Z"/><path class="cls-3" d="M65.8494,66.6713V62.1775l-1.1585.8249-.7286-1.1058,2.08-1.3515h1.44v6.1262Z"/><path class="cls-3" d="M71.2194,66.6713V62.1775l-1.1587.8249-.7283-1.1058,2.08-1.3515h1.44v6.1262Z"/><path class="cls-3" d="M116.46,33.8274V29.3335l-1.1584.8249-.7286-1.1058,2.08-1.3515h1.44v6.1263Z"/><path class="cls-3" d="M119.7416,33.8274V32.66c1.0532-.904,1.4834-1.2906,1.8606-1.6852a2.3355,2.3355,0,0,0,.8252-1.3958c0-.4913-.316-.7722-.869-.7722a3.7089,3.7089,0,0,0-1.6062.4214l-.0614-1.273a5.4077,5.4077,0,0,1,1.8257-.36c1.4657,0,2.3433.6674,2.3433,1.7995,0,.7635-.5,1.7994-2.3083,3.2738h2.4226v1.1587Z"/><circle class="cls-3" cx="133.2025" cy="149.8928" r="4.7227"/><path class="cls-4" d="M133.2026,155.103a5.21,5.21,0,1,1,5.21-5.21A5.2161,5.2161,0,0,1,133.2026,155.103Zm0-9.4453a4.2352,4.2352,0,1,0,4.2351,4.235A4.24,4.24,0,0,0,133.2026,145.6577Z"/><circle class="cls-3" cx="155.2596" cy="149.8928" r="4.7227"/><path class="cls-2" d="M155.26,155.103a5.21,5.21,0,1,1,5.21-5.21A5.2161,5.2161,0,0,1,155.26,155.103Zm0-9.4453a4.2352,4.2352,0,1,0,4.2352,4.235A4.24,4.24,0,0,0,155.26,145.6577Z"/><circle class="cls-3" cx="110.5551" cy="149.8928" r="4.7227"/><path class="cls-4" d="M110.555,155.103a5.21,5.21,0,1,1,5.21-5.21A5.2161,5.2161,0,0,1,110.555,155.103Zm0-9.4453a4.2352,4.2352,0,1,0,4.2354,4.235A4.24,4.24,0,0,0,110.555,145.6577Z"/><circle class="cls-3" cx="87.8004" cy="149.8928" r="4.7227"/><path class="cls-4" d="M87.8,155.103a5.21,5.21,0,1,1,5.21-5.21A5.2161,5.2161,0,0,1,87.8,155.103Zm0-9.4453a4.2352,4.2352,0,1,0,4.2352,4.235A4.24,4.24,0,0,0,87.8,145.6577Z"/><circle class="cls-3" cx="64.7727" cy="149.8928" r="4.7227"/><path class="cls-4" d="M64.7728,155.103a5.21,5.21,0,1,1,5.21-5.21A5.2161,5.2161,0,0,1,64.7728,155.103Zm0-9.4453a4.2352,4.2352,0,1,0,4.2351,4.235A4.24,4.24,0,0,0,64.7728,145.6577Z"/><path class="cls-4" d="M64.68,151.4536v-.6479H63.2618v-.7212l1.2725-2.0318H65.47v2.1389h.45v.6141h-.45v.6479Zm.0545-2.6992h-.009l-.8636,1.4372h.8726Z"/><circle class="cls-3" cx="41.9927" cy="149.8928" r="4.7227"/><path class="cls-4" d="M41.9927,155.103a5.21,5.21,0,1,1,5.21-5.21A5.2161,5.2161,0,0,1,41.9927,155.103Zm0-9.4453a4.2352,4.2352,0,1,0,4.2351,4.235A4.24,4.24,0,0,0,41.9927,145.6577Z"/><path class="cls-4" d="M40.9211,150.6548a1.6422,1.6422,0,0,0,.7726.1847c.418,0,.6408-.1947.6408-.5455,0-.3456-.3092-.497-.7091-.497a2.5685,2.5685,0,0,0-.6862.0828l.0228-1.8271H43.03v.6141H41.689v.5651c.0637-.0047.1818-.0195.2637-.0195.6181,0,1.2.297,1.2,1.0525,0,.8136-.5137,1.2473-1.4,1.2473a3.1581,3.1581,0,0,1-.8454-.1219Z"/><path class="cls-4" d="M88.0839,149.6218a.7449.7449,0,0,1,.6317.7745c0,.76-.641,1.0573-1.3953,1.0573a2.733,2.733,0,0,1-.918-.1171l.0409-.716a1.5051,1.5051,0,0,0,.7772.1605c.3272,0,.65-.1167.65-.4332,0-.2438-.1819-.39-.5863-.39-.1319,0-.2454.0047-.3454.01v-.6041a3.0153,3.0153,0,0,0,.3183.01c.35,0,.5634-.1561.5634-.3751,0-.2438-.159-.39-.55-.39a1.7949,1.7949,0,0,0-.7317.1366l-.0409-.6679a2.906,2.906,0,0,1,.9181-.1409c.7771,0,1.25.3066,1.25.93a.7439.7439,0,0,1-.5817.7455Z"/><path class="cls-4" d="M109.199,151.4536v-.6479c.5453-.5017.7681-.7164.9635-.9354a1.3254,1.3254,0,0,0,.4273-.7745.4.4,0,0,0-.45-.429,1.8228,1.8228,0,0,0-.8317.2338l-.0316-.7065a2.64,2.64,0,0,1,.9452-.1994c.759,0,1.2134.37,1.2134.9987,0,.4237-.259.9988-1.1953,1.8171h1.2543v.6431Z"/><path class="cls-4" d="M132.7924,151.4536v-2.4945l-.6.458-.3772-.6136,1.077-.7508h.7455v3.4009Z"/><path class="cls-4" d="M153.993,149.6946c0-1.2715.4273-1.7585,1.2318-1.7585.8226,0,1.2315.5113,1.2315,1.7585,0,1.2573-.4182,1.759-1.2315,1.759C154.4248,151.4536,153.993,150.9662,153.993,149.6946Zm1.6452,0c0-.8768-.1409-1.1449-.4134-1.1449-.2683,0-.4137.2585-.4137,1.1449,0,.8917.15,1.1449.4137,1.1449C155.4928,150.84,155.6382,150.5815,155.6382,149.6946Z"/></svg>