<svg id="Layer_1" data-name="Layer 1" xmlns="http://www.w3.org/2000/svg" viewBox="0 0 300 300"><defs><style>.cls-1{fill:#f4f5f0;}.cls-2{fill:#72ae73;}.cls-3{fill:#4a984d;}</style></defs><circle class="cls-1" cx="148.42" cy="155.47" r="125"/><path class="cls-2" d="M131.93,276.24c-2.37-2.08-5.67-1.24-8.27-2.6-.79-4.35,1.09-5.45,5.33-5.36q18.93.42,37.89,0c4.34-.1,6.07,1.18,5.37,5.46-2.5,1.55-5.78.57-8.16,2.5Z"/><path class="cls-2" d="M136.76,252.33c5.11-7.22,5.23-12.23.91-16.66a10.14,10.14,0,0,0-9-3.21c-4.35.63-5.4-1.18-5.1-5.22.35-4.65.1-9.34.06-14,0-1.16.35-2.74-1.39-2.94s-1.75,1.33-2,2.53c-1,5.4-2,10.79-2.85,16.21-.34,2.09-.74,3.7-3.45,3.45a2.24,2.24,0,0,0-2.5,2.6c.14,1.55,1.68,1.09,2.66,1.11,4.81.06,9.62-.05,14.42.06,5.51.14,8.35,2.58,8.4,7a8.4,8.4,0,0,1-8.58,8.65c-7.41.17-14.84.19-22.25,0-6-.16-9.65-4.62-8.64-10.5,1.93-11.35,4.14-22.67,6-34,1.16-7.3,5.07-12.07,11.58-15.36,13.34-6.76,26.49-13.89,39.8-20.71,2.5-1.28,3.45-2.81,3.68-5.65,1.78-22,3.76-44,5.69-66,.63-7.12,5.52-11.12,11.43-9.39,4.23,1.24,6.54,4.87,6.11,10-1.53,18-2.61,36.16-4.8,54.13-3.79,31.09-5.72,62.24-4.69,93.55.12,3.57-.78,4.71-4.5,4.61C157.66,252.15,147.53,252.33,136.76,252.33Z"/><path class="cls-2" d="M128.13,128.5c13.69,0,24.48,10.61,24.4,24.07a24.25,24.25,0,1,1-24.4-24.07Z"/><path class="cls-2" d="M97.94,263.38c-3.35-1.48-8.25-3.44-11-5.84,23.85,0,49.57-.11,73.42-.12,15.9,0,33.65.07,49.55.12-2.76,2.39-7.65,4.36-11,5.84-14.83-.06-29.67-.18-44.5-.17C135.58,263.21,116.76,263.32,97.94,263.38Z"/><path class="cls-2" d="M176.85,223.85c0-3.42.06-6.85,0-10.28-.06-2.68,1.14-2.7,3-1.56a7.11,7.11,0,0,1,3.61,6.1c.11,3.84.06,7.68,0,11.52a6.86,6.86,0,0,1-1.26,3.85c-1.05,1.52-2.56,3.17-4.24,2.81-2.07-.44-1-2.75-1.06-4.21C176.72,229.35,176.84,226.6,176.85,223.85Z"/><path class="cls-2" d="M180.57,241.06c0,3.41,0,6.42,0,9.43,0,.82,0,1.74-1.18,1.77a3.42,3.42,0,0,1-2-.29c-1.61-1.21-.32-9.71,1.57-10.62A7.2,7.2,0,0,1,180.57,241.06Z"/><path class="cls-2" d="M176.93,272.66c0-.93-.06-1.87,0-2.8.08-1.24,1-1.43,2-1.42,2.2,0,1.47,1.76,1.71,2.93C179.58,272.32,178.19,272.31,176.93,272.66Z"/><path class="cls-2" d="M115.25,271.17c.1-1.3-.17-2.92,1.94-2.7,2.65.28,1.38,2.35,1.62,3.73A6.79,6.79,0,0,1,115.25,271.17Z"/><path class="cls-3" d="M148.42,36.47a119,119,0,0,1,84.15,203.15A119,119,0,1,1,64.28,71.33a118.2,118.2,0,0,1,84.14-34.86m0-6a125,125,0,1,0,125,125,125,125,0,0,0-125-125Z"/></svg>