<svg id="Layer_1" data-name="Layer 1" xmlns="http://www.w3.org/2000/svg" viewBox="0 0 828.3394 599.7798"><defs><style>.cls-1{fill:#e0dcdc;}.cls-2{fill:#176938;}.cls-3{opacity:0.33;isolation:isolate;}.cls-4{fill:#7b6840;}.cls-5{fill:#606161;}.cls-6{fill:#606261;}.cls-7{fill:#a09f9f;}.cls-8{fill:#9f9e9f;}.cls-9{fill:#dcdbdb;}</style></defs><rect class="cls-1" x="182.9743" y="385.7577" width="434.2805" height="86.4268"/><rect class="cls-2" x="174.3889" y="374.1673" width="449.4482" height="11.7334"/><rect class="cls-2" x="174.3889" y="468.3211" width="449.4482" height="11.7334"/><rect class="cls-3" x="291.151" y="443.8525" width="326.1039" height="1.0016"/><rect class="cls-3" x="279.1313" y="437.1273" width="337.9805" height="1.0016"/><rect class="cls-3" x="237.0626" y="458.3047" width="380.1922" height="1.0016"/><rect class="cls-3" x="302.0259" y="451.1502" width="315.229" height="1.0016"/><rect class="cls-3" x="255.2352" y="413.5173" width="361.8766" height="1.0016"/><rect class="cls-3" x="208.8738" y="406.792" width="408.3811" height="1.0016"/><rect class="cls-3" x="224.3276" y="399.2082" width="392.9273" height="1.0016"/><rect class="cls-3" x="208.8738" y="392.483" width="408.3811" height="1.0016"/><rect class="cls-3" x="204.4379" y="428.1126" width="412.6739" height="1.0016"/><rect class="cls-3" x="247.5083" y="420.8149" width="369.7466" height="1.0016"/><polygon class="cls-1" points="99.982 283.448 534.262 283.448 526.678 369.875 92.398 369.875 99.982 283.448"/><polygon class="cls-2" points="94.401 271.714 543.849 271.714 542.705 283.448 93.399 283.448 94.401 271.714"/><polygon class="cls-2" points="86.102 365.868 535.55 365.868 534.548 377.602 85.1 377.602 86.102 365.868"/><polygon class="cls-2" points="534.978 274.433 543.563 274.433 535.55 365.868 526.965 365.868 534.978 274.433"/><polygon class="cls-3" points="420.934 341.4 94.83 341.4 94.83 342.401 420.791 342.401 420.934 341.4"/><polygon class="cls-3" points="433.526 334.817 95.403 334.817 95.403 335.676 433.383 335.676 433.526 334.817"/><polygon class="cls-3" points="473.878 355.995 93.686 355.995 93.543 356.853 473.735 356.853 473.878 355.995"/><polygon class="cls-3" points="409.487 348.697 94.258 348.697 94.115 349.699 409.344 349.699 409.487 348.697"/><polygon class="cls-3" points="459.426 311.207 97.549 311.207 97.406 312.066 459.426 312.066 459.426 311.207"/><polygon class="cls-3" points="506.503 304.482 98.121 304.482 97.978 305.484 506.36 305.484 506.503 304.482"/><polygon class="cls-3" points="491.764 296.755 98.837 296.755 98.694 297.757 491.621 297.757 491.764 296.755"/><polygon class="cls-3" points="507.647 290.173 99.409 290.173 99.266 291.032 507.647 291.032 507.647 290.173"/><polygon class="cls-3" points="509.078 325.66 96.261 325.66 96.118 326.661 508.935 326.661 509.078 325.66"/><polygon class="cls-3" points="466.58 318.362 96.834 318.362 96.834 319.364 466.58 319.364 466.58 318.362"/><polygon class="cls-1" points="483.894 104.727 647.876 477.336 737.165 451.723 573.183 79.114 483.894 104.727"/><polygon class="cls-2" points="469.299 102.581 639.005 488.211 651.024 484.777 481.319 99.147 469.299 102.581"/><polygon class="cls-2" points="566.744 74.678 736.45 460.308 748.469 456.731 578.763 71.101 566.744 74.678"/><polygon class="cls-2" points="638.575 480.055 641.867 487.352 736.45 460.308 733.158 452.867 638.575 480.055"/><polygon class="cls-3" points="667.05 367.299 543.849 87.556 544.851 87.27 668.052 367.013 667.05 367.299"/><polygon class="cls-3" points="702.537 409.511 558.874 83.264 559.875 82.978 703.539 409.225 702.537 409.511"/><polygon class="cls-3" points="659.896 448.861 505.644 98.574 506.646 98.288 660.754 448.575 659.896 448.861"/><polygon class="cls-3" points="645.015 453.153 490.763 102.724 491.764 102.438 646.016 452.867 645.015 453.153"/><polygon class="cls-3" points="683.506 446.428 527.537 92.278 528.539 91.992 684.364 446.142 683.506 446.428"/><polygon class="cls-3" points="659.61 411.657 519.953 94.425 520.955 94.139 660.611 411.371 659.61 411.657"/><path class="cls-4" d="M346.0978,99.8623s129.64-73.5487,177.2895,41.9256c0,.7154,3.4342,13.0212,22.7515,5.2943a25.6135,25.6135,0,0,0,14.3091-14.309s4.4358-4.5789-7.1546-26.758A127.2065,127.2065,0,0,0,523.8166,69.527,117.6217,117.6217,0,0,0,475.595,46.06a175.7193,175.7193,0,0,0-52.8-4.15,208.4862,208.4862,0,0,0-71.5454,18.6018L331.0733,70.5287a22.3223,22.3223,0,0,0-10.8749,16.0261,15.3106,15.3106,0,0,0,7.5839,14.3091A23.61,23.61,0,0,0,346.0978,99.8623Z"/><path class="cls-5" d="M535.6931,151.5181a148.3849,148.3849,0,0,1-16.4555,88.43c-23.753,45.6459-40.4946,75.9812-40.4946,75.9812l-12.3058,23.61a6.5823,6.5823,0,0,0,5.4374,8.8717,11.1611,11.1611,0,0,0,11.59-4.0066l4.5789-7.87a34.6279,34.6279,0,0,0,24.6116-4.2928c11.7335-7.2976,14.3091-12.4489,14.3091-12.4489l28.6182-55.6623a22.4654,22.4654,0,0,0-2.1464-21.4636,20.1762,20.1762,0,0,0-12.7351-7.2976,168.5626,168.5626,0,0,0,15.4539-58.81,117.7678,117.7678,0,0,0-2.1464-34.6279c-3.72-9.444-18.7449,7.4407-18.7449,7.4407Z"/><path class="cls-6" d="M550.4315,139.3553a4.0065,4.0065,0,0,1,3.72,2.8619,117.761,117.761,0,0,1,2.1464,34.6279,168.5591,168.5591,0,0,1-15.4538,58.81,20.1763,20.1763,0,0,1,12.7351,7.2977,22.4651,22.4651,0,0,1,2.1463,21.4636L527.1077,320.079s-2.0033,5.1513-14.3091,12.4489a32.3382,32.3382,0,0,1-17.314,4.722,33.0541,33.0541,0,0,1-7.2976-.7154l-4.5789,7.87a11.018,11.018,0,0,1-8.8716,4.2927h-2.7187a6.5825,6.5825,0,0,1-5.4375-8.8717l12.3059-23.61s16.7416-30.3353,40.4946-75.9812a148.386,148.386,0,0,0,16.4555-88.43v-1.86s9.1578-10.3026,14.3091-10.3026m0-5.0082c-7.5838,0-16.3124,9.1578-18.7449,11.8766a5.0082,5.0082,0,0,0-1.2879,4.2927v1.86a145.38,145.38,0,0,1-16.0261,85.139c-23.4669,45.2167-40.2086,75.695-40.3516,75.9812l-12.4489,23.61v.7154a12.4485,12.4485,0,0,0,0,10.0164,11.4473,11.4473,0,0,0,8.4424,5.4374h3.72a15.31,15.31,0,0,0,14.1659-7.0114L490.62,341.4h4.7221a39.2064,39.2064,0,0,0,20.0327-5.4374,38.6353,38.6353,0,0,0,15.74-14.3091l28.6181-55.09a27.6161,27.6161,0,0,0-2.1464-26.3287,22.1781,22.1781,0,0,0-9.8733-8.1562,159.5463,159.5463,0,0,0,13.5937-55.6623,120.2,120.2,0,0,0-2.4325-36.4882,9.0148,9.0148,0,0,0-8.4424-6.01Z"/><path class="cls-7" d="M524.8182,226.9269l-14.309-3.4342a2.7188,2.7188,0,0,0-3.0049,1.431l-58.0949,110.323a1.5739,1.5739,0,0,0,1.0016,2.2894L464.72,340.97a2.5756,2.5756,0,0,0,2.8618-1.4309l58.0949-110.323a1.4309,1.4309,0,0,0-.8586-2.29Z"/><path class="cls-8" d="M465.0063,344.6906h-1.2878l-14.3091-3.5772a5.0082,5.0082,0,0,1-3.4342-2.8618,5.1509,5.1509,0,0,1,0-4.5789L504.07,223.35a6.5822,6.5822,0,0,1,6.8683-3.291l14.3091,3.5772a5.0084,5.0084,0,0,1,3.4342,2.8618,5.1509,5.1509,0,0,1,0,4.5789L470.5868,341.4A6.2958,6.2958,0,0,1,465.0063,344.6906ZM453.13,334.6743l11.4473,2.7187,57.2363-107.6043-11.59-2.7187Z"/><path class="cls-5" d="M331.36,103.2965a180.4372,180.4372,0,0,0-57.2364,71.5454c-17.6,42.9272-28.6181,71.5454-28.6181,71.5454l-9.0147,22.036a10.3027,10.3027,0,0,1-11.3042,4.4358c-7.4407-2.0033-5.8667-7.4408-5.8667-7.4408l2.7187-7.5838a22.8946,22.8946,0,0,1-16.0262-12.7351A19.46,19.46,0,0,1,205.01,230.79l21.1774-52.2282s3.0049-8.2992,18.6018-15.0245a28.6181,28.6181,0,0,1,15.74,0,181.5825,181.5825,0,0,1,35.3435-49.5094,177.8611,177.8611,0,0,1,28.6181-25.0409c10.3025-5.2944,8.7286,12.8782,8.7286,12.8782Z"/><path class="cls-6" d="M327.6391,88.9874c6.5822,0,5.4374,14.3091,5.4374,14.3091H331.36a180.4372,180.4372,0,0,0-57.2364,71.5454c-17.6,42.9272-28.6181,71.5454-28.6181,71.5454l-9.0147,22.036a10.4457,10.4457,0,0,1-8.4424,4.865h-2.8618c-7.4407-2.0032-5.8667-7.4407-5.8667-7.4407l2.7187-7.5838a22.8946,22.8946,0,0,1-16.0262-12.7351A19.46,19.46,0,0,1,205.01,231.22l21.1774-52.2281s3.0049-8.2993,18.6018-15.0245a30.479,30.479,0,0,1,8.4424-1.1448,33.6294,33.6294,0,0,1,7.2976.8586,181.5817,181.5817,0,0,1,35.3435-49.6525,177.8611,177.8611,0,0,1,28.6181-25.0409,9.2993,9.2993,0,0,1,3.148,0m0-5.0082h0a13.3072,13.3072,0,0,0-5.7236,1.574,176.2851,176.2851,0,0,0-30.1922,25.47,175.4293,175.4293,0,0,0-33.6263,46.9337h-4.5789a33.9115,33.9115,0,0,0-10.0164,1.431,36.7738,36.7738,0,0,0-21.75,18.0294l-21.0343,52.0851a23.7522,23.7522,0,0,0,0,17.8863,24.8978,24.8978,0,0,0,14.309,14.3091L214.025,264.56a10.4457,10.4457,0,0,0,1.0016,8.1562,12.7354,12.7354,0,0,0,8.2993,5.8667,14.311,14.311,0,0,0,4.15,0,15.1676,15.1676,0,0,0,12.7351-7.2976h0l8.8717-22.1791s11.1611-28.6182,28.6181-71.5454a178.1487,178.1487,0,0,1,55.3761-68.97l1.7171-1.1447a4.8651,4.8651,0,0,0,4.0066-4.15,24.4685,24.4685,0,0,0-3.72-16.3124,9.0149,9.0149,0,0,0-6.7252-3.0049Z"/><path class="cls-7" d="M279.7037,164.2531l14.3091,3.2911a1.431,1.431,0,0,1,1.0016,2.1464L252.9457,273.2883a2.5754,2.5754,0,0,1-2.5756,1.2878l-14.3091-3.291a1.5738,1.5738,0,0,1-1.1447-2.1464L276.8419,165.541a2.0035,2.0035,0,0,1,2.8618-1.2879Z"/><path class="cls-8" d="M251.2286,278.1534h-1.1447l-14.3091-3.2911a5.1513,5.1513,0,0,1-3.4342-2.5756,5.2949,5.2949,0,0,1,0-4.4358l41.7825-103.5978a6.01,6.01,0,0,1,6.7253-3.4341l14.3091,3.2911a5.2947,5.2947,0,0,1,3.72,7.0114L256.6661,275.0054A6.01,6.01,0,0,1,251.2286,278.1534ZM239.4952,268.28l11.018,2.5757,40.4947-100.1636L280.133,168.26Z"/><path class="cls-9" d="M471.0161,343.5459c-3.4342,20.8913-52.0851,74.55-89.2887,120.0532-19.031,23.1807-40.4947,39.35-65.5355,35.3434h0c-62.2446-3.148-23.8962,7.4408-130.07-3.5772-101.3083-16.7416-12.02-58.238-12.02-58.238v-6.4391c-104.5994,55.9485,12.7351,68.97,12.7351,68.97a535.4485,535.4485,0,0,0,81.7048,5.58,349.1391,349.1391,0,0,1,47.6493,0A69.2559,69.2559,0,0,0,373.4282,480.77c42.9272-45.9321,98.4464-112.8986,101.8806-135.0777Z"/><polygon class="cls-5" points="478.314 343.117 475.023 355.566 465.436 349.842 469.442 339.826 478.314 343.117"/></svg>