<svg id="Layer_1" data-name="Layer 1" xmlns="http://www.w3.org/2000/svg" viewBox="0 0 828.3394 599.7798"><defs><style>.cls-1{fill:#787878;}.cls-2{fill:#d5d6d5;}.cls-3{fill:#2d2d2d;}.cls-4{fill:#606161;}.cls-5{fill:#494c49;}.cls-6{fill:#707676;}.cls-7{fill:#737575;}.cls-8{fill:#474748;}.cls-9{fill:#a0a0a0;}.cls-10{fill:#3c3e3f;}.cls-11{fill:#dbdbda;}.cls-12{fill:#34393d;}.cls-13{fill:#595b5c;}.cls-14{fill:#4e5152;}.cls-15{opacity:0.57;}.cls-16{fill:#d6de23;}</style></defs><rect class="cls-1" x="157.0533" y="309.4053" width="376.4859" height="143.9144"/><rect class="cls-2" x="169.3261" y="320.2215" width="352.9075" height="121.2453"/><ellipse class="cls-3" cx="628.8423" cy="453.2246" rx="72.5134" ry="40.0105"/><path class="cls-4" d="M697.4633,326.5881v-153.5c0-54.7376-29.8734-99.11-66.7235-99.11H628.098c-36.85,0-66.7235,44.3727-66.7235,99.11v153.5Z"/><polygon class="cls-5" points="561.374 181.661 697.463 181.661 697.463 149.06 697.463 146.985 561.374 146.985 561.374 181.661"/><path class="cls-5" d="M630.74,73.9774H628.098c-36.85,0-66.7235,30.7069-66.7235,68.5866v4.421H697.4633v-4.421C697.4633,104.6843,667.59,73.9774,630.74,73.9774Z"/><rect class="cls-6" x="611.8313" y="155.5799" width="85.632" height="3.7047"/><rect class="cls-6" x="611.8313" y="144.7622" width="85.632" height="3.7047"/><rect class="cls-6" x="611.8313" y="134.6855" width="85.632" height="3.7047"/><rect class="cls-7" x="561.3745" y="326.5881" width="136.0888" height="25.7846"/><rect class="cls-8" x="584.1522" y="352.3727" width="87.7946" height="25.7846"/><rect class="cls-9" x="561.3745" y="322.8835" width="136.0888" height="6.9648"/><path class="cls-8" d="M561.3745,322.8835H539.75s-3.7482,124.1808,82.1723,126.6259,92.2636-90.4683,92.552-126.6259H697.4633v-7.5576H721.971s.2883,141.0741-88.8038,142.556-101.2016-94.247-100.9133-133.6648l-.0049-8.8912h29.1255Z"/><rect class="cls-10" x="554.9594" y="308.3611" width="6.4151" height="22.2281"/><rect class="cls-10" x="697.4633" y="308.3611" width="6.4151" height="22.2281"/><ellipse class="cls-9" cx="628.8423" cy="452.8082" rx="6.5594" ry="4.2621"/><path class="cls-11" d="M632.0559,387.042l-11.9069-1.1379c-6.6856,50.0055-72.1445,98.5625-154.4184,145.7,0,0-81.44,55.248-135.9544,35.709l1.3,7.235s40.4279,19.8946,140.1478-36.6985c.2735-.1508.54-.3029.8123-.4543l.0034.0028.5184-.2945q8.6493-4.7967,16.9324-9.6116c20.6442-11.7184,46.7326-26.5294.4713-.2762C572.0454,479.4326,626.2985,430.5931,632.0559,387.042Z"/><rect class="cls-12" x="615.5074" y="374.5372" width="25.0842" height="16.5123"/><path class="cls-11" d="M154.2188,413.49c10.1957-10.15-181.5038,72.44-70.8043,146.4527l3.1709-6.8371s-64.7067-32.8888-13.19-84.04c21.3564-21.2048,51.7564-43.4029,83.7567-49.0317l-.7814-6.5695C156.371,413.3559,150.8839,416.81,154.2188,413.49Z"/><polygon class="cls-13" points="157.152 429.25 153.009 429.25 153.009 405.333 157.053 405.333 157.152 429.25"/><rect class="cls-14" x="193.097" y="340.7871" width="304.3983" height="81.1509"/><g class="cls-15"><path class="cls-16" d="M223.7813,403.7474a16.4537,16.4537,0,0,1-9.6111-2.6,15.1305,15.1305,0,0,1-5.4746-7.0867,27.4425,27.4425,0,0,1-1.7641-10.0825,25.0743,25.0743,0,0,1,1.977-10.265,15.3831,15.3831,0,0,1,14.8728-9.6111,17.7359,17.7359,0,0,1,7.68,1.536,13.8888,13.8888,0,0,1,5.2465,4.258,18.2888,18.2888,0,0,1,2.9959,6.2959,29.9341,29.9341,0,0,1,.958,7.7558,27.8886,27.8886,0,0,1-.9732,7.4516,19.3967,19.3967,0,0,1-3.0111,6.3415,14.4061,14.4061,0,0,1-5.2314,4.38A16.7729,16.7729,0,0,1,223.7813,403.7474Zm.0913-9.2461a7.197,7.197,0,0,0,4.79-1.6272,9.9134,9.9134,0,0,0,2.8894-4.2276,16.5663,16.5663,0,0,0,.9429-5.5963,21.4752,21.4752,0,0,0-.4106-4.2429,11.9369,11.9369,0,0,0-1.3687-3.6194,7.0051,7.0051,0,0,0-2.5092-2.5244,7.5253,7.5253,0,0,0-3.8627-.9277,6.6874,6.6874,0,0,0-4.5014,1.6272,10.5424,10.5424,0,0,0-2.9046,4.3646,17.2714,17.2714,0,0,0-1.0341,6.0981,17.7327,17.7327,0,0,0,.7755,5.4291,7.7877,7.7877,0,0,0,2.54,3.817A7.1174,7.1174,0,0,0,223.8726,394.5013Z"/><path class="cls-16" d="M256.1275,402.47c-1.1406,0-2.3572-.03-3.6194-.0912-1.2622-.0761-2.4332-.1521-3.4977-.2585-1.0645-.0913-1.9009-.1825-2.5092-.2586.0152-.1825.03-.7147.03-1.5815v-7.8014c0-1.6424,0-3.3457.0152-5.1249s.0152-3.513.0152-5.2314c0-2.0986-.0152-4.182-.03-6.2655-.0152-2.0682-.0456-4-.076-5.7788-.0457-1.7792-.1065-3.2544-.1977-4.41.365,0,.9428.0152,1.7184.0456s1.6424.076,2.57.1369c.9276.0456,1.8249.1216,2.7069.2129.882.076,1.6272.1825,2.2507.2737,1.2166,1.81,2.4028,3.65,3.5281,5.5355,1.1406,1.87,2.22,3.7714,3.2392,5.6724,1.0189,1.8857,1.9922,3.7866,2.8894,5.6723.9124,1.8858,1.7488,3.7563,2.5244,5.5812L266.56,366.1851c.5474,0,1.2318.03,2.053.0761s1.6728.1216,2.54.1977c.882.0912,1.688.1824,2.418.2889a12.6738,12.6738,0,0,1,1.6728.3346c.0608.8364.1217,1.7792.1977,2.859.0608,1.0645.1065,2.205.1521,3.4368.03,1.2166.076,2.4788.1064,3.7867.0457,1.2926.0609,2.6005.0913,3.8931.0152,1.3078.0152,2.5548.0152,3.7562,0,1.9466-.0152,3.8627-.0608,5.7636s-.1217,3.665-.1977,5.2922q-.137,2.4408-.2738,4.106a13.2886,13.2886,0,0,1-.3041,2.2051c-.5323.03-1.08.0456-1.6728.0456-.5931.0152-1.1862.0152-1.7945.0152-.8668,0-1.7337-.0152-2.57-.0608a17.6331,17.6331,0,0,1-2.1138-.1977c-.1673-.3346-.4866-.9125-.9124-1.7641-.4411-.8516-.9885-1.87-1.6272-3.0719-.6387-1.2166-1.3231-2.5244-2.0835-3.9387-.7451-1.4143-1.5207-2.8742-2.2963-4.38-.7908-1.5056-1.5663-2.9655-2.3419-4.395-.76-1.43-1.4751-2.7221-2.1138-3.9083.0608.5323.1216,1.3383.1672,2.4484.0609,1.11.1217,2.3876.1673,3.8171s.0913,2.935.1217,4.4862.076,3.0567.1064,4.5318q.0685,2.2126.0913,3.9691C256.1123,400.9341,256.1275,401.8313,256.1275,402.47Z"/><path class="cls-16" d="M298.0543,372.2833a12.5962,12.5962,0,0,1-.2433-1.7641c-.0608-.7907-.1216-1.6119-.1673-2.4788s-.076-1.6424-.1064-2.3267-.0456-1.1558-.0456-1.3991c2.0986-.1521,4.4862-.3041,7.1779-.4258s5.4138-.1825,8.1816-.1825c2.0834,0,4.106.0456,6.0829.1369,1.977.1064,3.7867.2585,5.4139.5018q.0228,2.3952-.1369,4.471a24.374,24.374,0,0,1-.3954,3.1327c-.38-.03-.8972-.03-1.5664-.03-.6539,0-1.399-.0152-2.22-.03-.806-.0152-1.612-.03-2.4028-.0456s-1.4751-.0152-2.053-.0152c.0152.7147.0608,1.764.1216,3.1479.0457,1.3991.1217,2.9807.1825,4.7751.0761,1.7945.1673,3.665.2586,5.642q.1368,2.9427.2737,5.794c.076,1.9009.1521,3.6194.2129,5.1858.076,1.5663.1369,2.8437.1825,3.8626s.0608,1.612.0608,1.81q-1.1177.16-2.92.3194-1.8021.1368-3.6042.2281c-1.2014.0608-2.1594.0912-2.8894.0912-.0608-1.1405-.1216-2.5092-.1673-4.1212-.0608-1.612-.1216-3.3608-.1672-5.2313-.0457-1.8858-.0913-3.8171-.1217-5.7941s-.0608-3.8931-.0912-5.7788c-.0153-1.87-.0153-3.6193-.0153-5.2161,0-.8821,0-1.7185.0153-2.494,0-.76.0152-1.46.03-2.0682-.6387.0456-1.3383.0912-2.0834.1216q-1.1406.0456-2.3268.0913c-.7908.03-1.5663.0456-2.3267.076C299.4382,372.2833,298.7235,372.2833,298.0543,372.2833Z"/><path class="cls-16" d="M329.0319,402.1811c-.1065-.8364-.1977-2.1138-.3194-3.8019-.1065-1.688-.2129-3.6345-.3194-5.8548-.1064-2.2051-.1977-4.547-.2737-7.0106-.076-2.4484-.1369-4.8816-.1825-7.2844s-.0608-4.6078-.0608-6.63c0-1.3383.0152-2.54.03-3.65q.0456-1.6423.1369-2.7373c.1825-.0305.6387-.0609,1.3534-.1065.7-.0456,1.5512-.0912,2.5093-.1369.9732-.03,1.9009-.0608,2.8133-.0912s1.6424-.0456,2.2051-.0456q-.0456,1.5283-.0456,3.4673v3.68c0,1.4447.0152,2.935.0456,4.4557.0456,1.536.076,2.6157.1217,3.2544.4106-.03.8668-.076,1.3838-.1216.5171-.0609,1.0646-.0913,1.6272-.1217s1.11-.0456,1.6576-.076c.5323-.0152,1.0493-.0305,1.5208-.0609.4562-.0152.882-.0152,1.2318-.0152.0152-.6235.0456-1.5359.076-2.7373.0152-1.2014.0608-2.54.0913-4.0148s.076-2.92.1216-4.3493c.0456-1.4143.1065-2.6157.1673-3.6194.4258-.0456.9429-.0608,1.5512-.076s1.2166-.0152,1.81-.0152c1.1862,0,2.3116.0152,3.3761.0608,1.0493.0456,1.8553.0913,2.4028.1673-.0761.5475-.1673,1.3687-.2434,2.4636-.0912,1.0949-.1672,2.3876-.2585,3.8779-.076,1.4751-.1673,3.0871-.2281,4.836-.076,1.7488-.1521,3.5433-.2129,5.3834-.076,1.84-.1369,3.65-.1825,5.4442-.076,2.0683-.1369,4.0908-.1825,6.0526-.0456,1.977-.0912,3.7714-.1216,5.3682s-.0457,2.8894-.0609,3.8475c-.4258.0456-1.0645.076-1.9617.1216q-1.3459.0457-2.9655.0913c-1.0949.03-2.1594.0456-3.2391.0456v-14.888c-.3954.0152-.8212.03-1.3079.0456-.4714,0-.9733.0152-1.49.0456-.5171.0152-1.0341.03-1.5512.03-.5322,0-1.0189,0-1.49.0152h-1.1862c.0609,1.0493.1065,2.2963.1673,3.741s.1065,2.9047.1673,4.3646.1064,2.7525.1521,3.8931c.0456,1.1253.076,1.87.076,2.2659a17.29,17.29,0,0,1-1.84.1825c-.806.0456-1.6576.0912-2.57.1368-.8972.03-1.764.0609-2.5852.0761C330.142,402.1811,329.4881,402.1811,329.0319,402.1811Z"/><path class="cls-16" d="M379.4749,402.6829c-1.81-.1368-3.6194-.2585-5.4291-.35-1.7945-.1065-3.6194-.1825-5.4747-.2586-1.5055-.076-3.0414-.1672-4.6078-.2433-1.5664-.0912-3.1023-.1825-4.5926-.2585-.1369-3.2392-.2282-6.3719-.289-9.4286-.0456-3.0567-.076-5.9309-.076-8.6074q0-6.4556.1216-10.9646c.0913-2.9958.1673-5.1553.2434-6.4631,3.5281-.6843,6.7977-1.171,9.8239-1.49s5.566-.5171,7.6038-.5931c2.0225-.0761,3.3-.1217,3.8018-.1217,0,1.2622-.03,2.4788-.1064,3.6954-.0761,1.2014-.1673,2.4636-.289,3.8019l-12.0291,1.0037c-.03.2585-.0456.6539-.0608,1.1861q-.0228.8213-.0456,1.7337c0,.6235-.0152,1.2014-.0152,1.7336v1.1862c.441,0,.9885,0,1.6728-.0152.6843,0,1.4447-.0152,2.2507-.0456l2.4636-.0456q1.2318-.0457,2.3267-.0457c.7148-.0152,1.3383-.03,1.84-.0456L378.4864,386c-.2433-.03-.7148-.0456-1.43-.076s-1.536-.0609-2.4636-.1065c-.9277-.03-1.8553-.0608-2.7982-.076-.9276-.03-1.764-.0457-2.4636-.0609-.7147-.03-1.2014-.03-1.4751-.03-.0152.1977-.03.5171-.03.9733-.0152.441-.03.9581-.03,1.5207-.0152.5779-.0152,1.1558-.0152,1.7641s-.0153,1.171-.0153,1.688c-.0152.5019-.0152.9125-.0152,1.2166.2434,0,.8973,0,1.9618-.0152,1.08,0,2.1747-.0152,3.3-.0152.9277,0,1.87.03,2.8134.0608.9276.0457,1.81.0913,2.6157.1369s1.46.0912,1.9617.1217c0,.7755-.03,1.6576-.1064,2.646-.0761,1.0037-.1521,1.977-.2434,2.9351-.076.9733-.1825,1.81-.2737,2.54A9.0136,9.0136,0,0,1,379.4749,402.6829Z"/><path class="cls-16" d="M410.939,402.7133c-.4562,0-1.11-.0152-1.9313-.0456-.8364-.03-1.7185-.0608-2.6613-.0912s-1.87-.0609-2.7526-.1065c-.8972-.03-1.6272-.076-2.2051-.1064.1977-1.2014.4867-2.7222.8517-4.5775.3649-1.84.7907-3.8931,1.2622-6.159.4866-2.2507,1.0037-4.6078,1.5511-7.0562.5475-2.4636,1.1254-4.8968,1.7033-7.3148.5778-2.4332,1.14-4.73,1.688-6.9193s1.0341-4.1213,1.49-5.8245c1.9162-.2433,3.7867-.4562,5.642-.6235,1.84-.1673,3.6345-.2433,5.3834-.2433.9885,0,1.9922.03,2.9806.0912s1.977.1521,2.95.289c.35,1.688.73,3.6345,1.0949,5.84q.57,3.2849,1.1406,7.7558c.38,2.9807.7756,6.4784,1.1557,10.4931.38,4.03.7756,8.6987,1.171,14.0365q-.9352.114-2.6461.2737c-1.1405.0912-2.3419.1673-3.6041.2129s-2.3572.076-3.3153.076c-.0456-.5626-.076-1.2013-.1064-1.9161-.0152-.7147-.0608-1.4751-.0913-2.2811-.0456-.806-.076-1.6272-.1064-2.4484-.0152-.8212-.0456-1.612-.0608-2.4028-.0152-.7755-.0457-1.49-.0609-2.1138-.5931,0-1.247.0152-1.9465.0456-.6843.0152-1.3839.0609-2.0834.1065-.7148.0456-1.3687.1064-1.9922.1673-.6083.0456-1.1558.1064-1.6272.1672s-.806.1065-1.0189.1369c-.2737,1.2926-.5322,2.6157-.7756,3.9387-.2433,1.3383-.4714,2.57-.6539,3.7106C411.1823,400.98,411.0455,401.9378,410.939,402.7133Zm3.0111-18.5682c.441-.076,1.11-.1673,2.0226-.2585.9276-.0913,1.8857-.1825,2.8742-.2281.9884-.0609,1.7944-.1065,2.4179-.1217-.03-.4106-.076-1.171-.1368-2.2963s-.1217-2.3572-.1825-3.6954c-.0608-1.3535-.1369-2.5853-.1977-3.7106s-.1217-1.901-.1825-2.3268c-.3041,0-.7452.0152-1.3535.0609-.593.0456-1.1861.076-1.7488.1368-.5627.0456-.9429.0761-1.171.0913-.1216.5626-.2737,1.3382-.4714,2.3419s-.4106,2.1138-.6235,3.3152c-.2281,1.2014-.4562,2.3876-.6691,3.5586C414.3151,382.1681,414.1174,383.2174,413.95,384.1451Z"/><path class="cls-16" d="M445.49,402.7894c-.73,0-1.5968,0-2.6005-.03q-1.5055-.0228-3.0567-.0913c-1.0341-.0608-1.9465-.1368-2.7525-.2433-.0305-1.2622-.0761-2.859-.1065-4.8207-.0456-1.9618-.076-4.0452-.1064-6.2655-.0305-2.2051-.0457-4.3189-.0457-6.3263q0-4.6307.0761-9.8848.0684-5.2693.1825-10.8733c.3193-.0152.8212-.0456,1.5207-.0608.6843-.0153,1.4751-.0457,2.3419-.0761.8821-.03,1.7185-.0456,2.54-.0456.806-.0152,1.5055-.0152,2.0682-.0152.1064,2.053.1977,4.3493.2737,6.8585.0761,2.5245.1369,5.0793.1673,7.71.0456,2.6157.0608,5.14.0608,7.5429,0,1.2014,0,2.4332-.0152,3.7258s-.0152,2.5853-.0456,3.8627c-.0152,1.2774-.0456,2.5092-.1064,3.665s-.1217,2.19-.1673,3.1175C445.6575,401.4663,445.5815,402.2115,445.49,402.7894Z"/><path class="cls-16" d="M453.2765,403.0023c-.0913-2.1595-.2129-4.8056-.38-7.9383q-.2738-4.699-.5171-10.0673-.251-5.3605-.5018-10.66c-.1673-3.5433-.3346-6.7825-.4715-9.7327q1.1178-.1141,2.8286-.2282c1.1558-.076,2.3876-.1672,3.7106-.2433,1.3383-.076,2.6461-.1368,3.9235-.1977,1.2623-.0608,2.4028-.0912,3.3913-.0912a23.42,23.42,0,0,1,4.3493.4258,12.5882,12.5882,0,0,1,4,1.46,7.8862,7.8862,0,0,1,2.9046,2.9655,9.9335,9.9335,0,0,1,1.0949,4.9576,11.2982,11.2982,0,0,1-1.4751,5.6115,9.2738,9.2738,0,0,1-3.9235,3.8475c.441.806.9124,1.7945,1.4447,2.9806.5171,1.1862,1.0493,2.4484,1.5816,3.7867s1.0493,2.6765,1.5359,3.9995.9277,2.5245,1.3079,3.6194c.38,1.11.6691,1.9922.8516,2.6917a10.5705,10.5705,0,0,1-2.1747.9885c-.9124.3041-1.84.5779-2.7982.8212s-1.7944.441-2.494.5931-1.1253.2433-1.2774.2585c-.1521-.7756-.38-1.7945-.7-3.0567s-.7-2.6157-1.11-4.0908c-.4258-1.46-.8364-2.8894-1.2622-4.3037-.4106-1.3991-.7908-2.6765-1.1558-3.8018s-.6539-1.9618-.8364-2.494c-.4258.1064-.8668.2129-1.3078.2889s-.8516.1217-1.2318.1521c-.3954.03-.7452.0608-1.0645.076.076.4562.1673,1.2014.2433,2.2051.0912,1.0189.1673,2.19.2737,3.4977.0913,1.323.1825,2.6917.2586,4.0756.0912,1.3991.1672,2.7221.2281,3.9539s.1064,2.2507.1216,3.0415a18.555,18.555,0,0,1-2.7373.38c-1.08.0912-2.19.152-3.3456.1825S454.3106,403.0023,453.2765,403.0023Zm7.482-24.3167c.5931,0,1.1862-.03,1.7945-.076a21.6227,21.6227,0,0,0,2.1746-.3042,10.5772,10.5772,0,0,0,2.92-.882,3.7222,3.7222,0,0,0,1.5967-1.4447,4.1191,4.1191,0,0,0,.4867-2.0682,3.1521,3.1521,0,0,0-.7-2.2811,3.2525,3.2525,0,0,0-1.9313-.9125,19.4218,19.4218,0,0,0-2.8438-.1825c-.3041,0-.6539,0-1.08.0153l-1.2318.0912c-.4106.0456-.7908.076-1.1254.1217-.3345.03-.5778.0608-.73.076.0152.3346.0608.7756.1064,1.3078.0609.5323.1217,1.1254.1825,1.7641.0456.6387.1065,1.2622.1521,1.8857.0456.6387.0912,1.2014.1369,1.7185C460.7129,378.0165,460.7433,378.4119,460.7585,378.6856Z"/></g><path class="cls-11" d="M86.5554,553.1058c-.8515.0113,43.6442,18.3211,137.0316-3.5778,0,0,30.3056-9.68,106.1592,17.7849l1.3,7.235s-70.16-29.1241-110.6871-17.7418c-30.978,4.9769-26.54,10.1382-73.7017,10.8755s-63.273-7.7391-63.273-7.7391Z"/></svg>