<svg id="Layer_1" data-name="Layer 1" xmlns="http://www.w3.org/2000/svg" viewBox="0 0 828.3394 599.7798"><defs><style>.cls-1{fill:#fff;}.cls-2{fill:#0b7139;}.cls-3{opacity:0.31;}.cls-4{fill:#3e8742;}.cls-5{fill:#5e8385;}.cls-6{fill:#acb1ac;}</style></defs><polygon class="cls-1" points="666.996 171.329 460.927 171.329 460.927 508.135 727.874 508.135 727.874 232.208 727.874 171.329 666.996 171.329"/><path class="cls-2" d="M727.8746,171.3293V508.1352H460.9266V171.3293h266.948m7.2449-7.245H453.6817V515.38H735.12V164.0843Z"/><rect class="cls-1" x="483.3297" y="298.4657" width="168.0066" height="26.402"/><path class="cls-2" d="M649.162,300.64v22.055H485.5038V300.64H649.162m2.1739-2.1738H483.33v26.4026H651.3359V298.4657Z"/><rect class="cls-1" x="648.7234" y="298.4657" width="28.9096" height="26.402"/><path class="cls-2" d="M675.4585,300.64v22.055H650.8972V300.64h24.5613m2.1738-2.1738H648.7234v26.4026h28.9089V298.4657Z"/><rect class="cls-1" x="675.6679" y="298.4657" width="28.2617" height="26.402"/><path class="cls-2" d="M701.755,300.64v22.055H677.8411V300.64H701.755m2.1738-2.1738H675.6672v26.4026h28.2616V298.4657Z"/><rect class="cls-1" x="483.3297" y="322.3018" width="168.0066" height="26.402"/><path class="cls-2" d="M649.162,324.4756v22.055H485.5038v-22.055H649.162m2.1739-2.1738H483.33v26.4026H651.3359V322.3018Z"/><rect class="cls-1" x="648.7234" y="322.3018" width="28.9096" height="26.402"/><path class="cls-2" d="M675.4585,324.4756v22.055H650.8972v-22.055h24.5613m2.1738-2.1738H648.7234v26.4026h28.9089V322.3018Z"/><rect class="cls-1" x="675.6679" y="322.3018" width="28.2617" height="26.402"/><path class="cls-2" d="M701.755,324.4756v22.055H677.8411v-22.055H701.755m2.1738-2.1738H675.6672v26.4026h28.2616V322.3018Z"/><rect class="cls-1" x="483.3297" y="346.5127" width="168.0066" height="26.402"/><path class="cls-2" d="M649.162,348.6867v22.0549H485.5038V348.6867H649.162m2.1739-2.1738H483.33v26.4026H651.3359V346.5129Z"/><rect class="cls-1" x="648.7234" y="346.5127" width="28.9096" height="26.402"/><path class="cls-2" d="M675.4585,348.6867v22.0549H650.8972V348.6867h24.5613m2.1738-2.1738H648.7234v26.4026h28.9089V346.5129Z"/><rect class="cls-1" x="675.6679" y="346.5127" width="28.2617" height="26.402"/><path class="cls-2" d="M701.755,348.6867v22.0549H677.8411V348.6867H701.755m2.1738-2.1738H675.6672v26.4026h28.2616V346.5129Z"/><rect class="cls-1" x="483.3297" y="370.9869" width="168.0066" height="26.402"/><path class="cls-2" d="M649.162,373.1613v22.0532H485.5038V373.1613H649.162m2.1739-2.1738H483.33v26.4008H651.3359V370.9875Z"/><rect class="cls-1" x="648.7234" y="370.9869" width="28.9096" height="26.402"/><path class="cls-2" d="M675.4585,373.1613v22.0532H650.8972V373.1613h24.5613m2.1738-2.1738H648.7234v26.4008h28.9089V370.9875Z"/><rect class="cls-1" x="675.6679" y="370.9869" width="28.2617" height="26.402"/><path class="cls-2" d="M701.755,373.1613v22.0532H677.8411V373.1613H701.755m2.1738-2.1738H675.6672v26.4008h28.2616V370.9875Z"/><rect class="cls-1" x="483.3297" y="395.0843" width="168.0066" height="26.402"/><path class="cls-2" d="M649.162,397.2574v22.055H485.5038v-22.055H649.162m2.1739-2.1738H483.33v26.4026H651.3359V395.0836Z"/><rect class="cls-1" x="648.7234" y="395.0843" width="28.9096" height="26.402"/><path class="cls-2" d="M675.4585,397.2574v22.055H650.8972v-22.055h24.5613m2.1738-2.1738H648.7234v26.4026h28.9089V395.0836Z"/><rect class="cls-1" x="675.6679" y="395.0843" width="28.2617" height="26.402"/><path class="cls-2" d="M701.755,397.2574v22.055H677.8411v-22.055H701.755m2.1738-2.1738H675.6672v26.4026h28.2616V395.0836Z"/><rect class="cls-1" x="483.3297" y="420.708" width="168.0066" height="26.402"/><path class="cls-2" d="M649.162,422.8818v22.0549H485.5038V422.8818H649.162m2.1739-2.1739H483.33v26.4026H651.3359V420.7079Z"/><rect class="cls-1" x="648.7234" y="420.708" width="28.9096" height="26.402"/><path class="cls-2" d="M675.4585,422.8818v22.0549H650.8972V422.8818h24.5613m2.1738-2.1739H648.7234v26.4026h28.9089V420.7079Z"/><rect class="cls-1" x="675.6679" y="420.708" width="28.2617" height="26.402"/><path class="cls-2" d="M701.755,422.8818v22.0549H677.8411V422.8818H701.755m2.1738-2.1739H675.6672v26.4026h28.2616V420.7079Z"/><g class="cls-3"><rect class="cls-2" x="490.2726" y="207.6542" width="79.5872" height="9.4594"/></g><g class="cls-3"><rect class="cls-2" x="490.2726" y="477.7252" width="79.5872" height="9.4594"/></g><g class="cls-3"><rect class="cls-2" x="490.2726" y="237.4675" width="157.2682" height="9.4594"/></g><g class="cls-3"><rect class="cls-2" x="490.2726" y="256.307" width="157.2682" height="9.4594"/></g><path class="cls-2" d="M685.5381,442.573s-1.5311-11.8271,11.1-14.61C696.6382,427.9629,688.2174,433.7092,685.5381,442.573Z"/><path class="cls-2" d="M679.2225,429.7779s20.6692,5.2635,16.5545,10.3455c0,0-1.7224-4.1745-16.5545-10.043l-.4725-.2S678.5825,429.7439,679.2225,429.7779Z"/><path class="cls-2" d="M661.032,415.59s-1.5311-11.8271,11.1-14.61C672.1321,400.98,663.7113,406.7265,661.032,415.59Z"/><path class="cls-2" d="M654.7164,402.7953s20.6692,5.2634,16.5545,10.3454c0,0-1.7224-4.1745-16.5545-10.043l-.4725-.2S654.0764,402.7612,654.7164,402.7953Z"/><path class="cls-2" d="M685.5381,393.12s-1.5311-11.8271,11.1-14.61C696.6382,378.51,688.2174,384.2559,685.5381,393.12Z"/><path class="cls-2" d="M679.2225,380.3246s20.6692,5.2635,16.5545,10.3455c0,0-1.7224-4.1745-16.5545-10.043l-.4725-.2S678.5825,380.2906,679.2225,380.3246Z"/><path class="cls-2" d="M661.032,365.1011s-1.5311-11.8271,11.1-14.61C672.1321,350.491,663.7113,356.2373,661.032,365.1011Z"/><path class="cls-2" d="M654.7164,352.306s20.6692,5.2635,16.5545,10.3454c0,0-1.7224-4.1744-16.5545-10.0429l-.4725-.2S654.0764,352.272,654.7164,352.306Z"/><path class="cls-2" d="M685.3784,339.4777s-1.5311-11.8271,11.1-14.61C696.4786,324.8677,688.0577,330.6139,685.3784,339.4777Z"/><path class="cls-2" d="M679.0628,326.6827s20.6693,5.2634,16.5545,10.3454c0,0-1.7224-4.1745-16.5545-10.043l-.4725-.2S678.4228,326.6486,679.0628,326.6827Z"/><path class="cls-2" d="M655.5312,321.9141s-1.5311-11.827,11.1-14.61C666.6314,307.3041,658.2106,313.05,655.5312,321.9141Z"/><path class="cls-2" d="M649.2156,309.1191s20.6693,5.2634,16.5546,10.3454c0,0-1.7225-4.1745-16.5546-10.0429l-.4725-.2S648.5757,309.085,649.2156,309.1191Z"/><g class="cls-3"><rect class="cls-2" x="491.3663" y="307.4376" width="105.1422" height="8.4581"/></g><g class="cls-3"><rect class="cls-2" x="491.3663" y="331.2738" width="114.4588" height="8.4581"/></g><g class="cls-3"><rect class="cls-2" x="491.3663" y="355.1099" width="140.7145" height="8.4581"/></g><g class="cls-3"><rect class="cls-2" x="491.3663" y="379.9588" width="133.2613" height="8.4581"/></g><g class="cls-3"><rect class="cls-2" x="491.3663" y="404.0563" width="117.6772" height="8.4581"/></g><g class="cls-3"><rect class="cls-2" x="491.3663" y="429.68" width="140.7145" height="8.4581"/></g><polygon class="cls-1" points="335.708 277.163 81.454 277.163 81.454 511.021 410.821 511.021 410.821 319.433 335.708 277.163"/><path class="cls-2" d="M335.7075,277.1625l75.1131,42.27V511.02H81.4541V277.1625H335.7075m1.8979-7.2449H74.2092V518.265H418.0655V315.1966l-3.6932-2.0765L339.261,270.848l-1.6556-.93Z"/><g class="cls-3"><rect class="cls-2" x="101.1875" y="302.8572" width="93.3627" height="14.0236"/></g><g class="cls-3"><rect class="cls-2" x="312.9552" y="356.6053" width="66.2818" height="11.6713"/></g><g class="cls-3"><rect class="cls-2" x="312.9552" y="380.3343" width="66.2818" height="11.6713"/></g><g class="cls-3"><rect class="cls-2" x="312.9552" y="404.9723" width="66.2818" height="11.6713"/></g><g class="cls-3"><rect class="cls-2" x="101.1875" y="356.6053" width="66.2818" height="11.6713"/></g><g class="cls-3"><rect class="cls-2" x="101.1875" y="380.3343" width="66.2818" height="11.6713"/></g><g class="cls-3"><rect class="cls-2" x="101.1875" y="404.9723" width="66.2818" height="11.6713"/></g><g class="cls-3"><rect class="cls-2" x="134.3284" y="444.6822" width="229.0457" height="11.6713"/></g><g class="cls-3"><rect class="cls-2" x="184.2616" y="349.0823" width="111.9014" height="75.055"/></g><g class="cls-3"><rect class="cls-2" x="134.3284" y="466.4166" width="229.0457" height="11.6713"/></g><polygon class="cls-1" points="491.994 104.06 237.74 104.06 237.74 519.621 567.107 519.621 567.107 179.174 491.994 104.06"/><path class="cls-2" d="M491.9935,104.0608l75.113,75.113V519.6217H237.74V104.0608H491.9935m3.0016-7.245h-264.5V526.8666H574.3515V176.1722l-2.1226-2.1225L497.1176,98.9384l-2.1225-2.1226Z"/><path class="cls-2" d="M491.9935,104.0608l75.113,75.113-75.113.1044V104.0608m5.1241-5.1224-12.369,5.1224v75.2174l7.2555,7.2449,75.113-.1044,5.1118-12.369L497.1176,98.9384Z"/><g class="cls-3"><rect class="cls-2" x="257.4733" y="173.4426" width="127.9496" height="11.6713"/></g><g class="cls-3"><rect class="cls-2" x="385.4229" y="217.3579" width="150.0999" height="11.6713"/></g><g class="cls-3"><rect class="cls-2" x="385.4229" y="246.9225" width="150.0999" height="11.6713"/></g><g class="cls-3"><rect class="cls-2" x="385.4229" y="271.5605" width="150.0999" height="11.6713"/></g><g class="cls-3"><rect class="cls-2" x="257.4733" y="301.1252" width="278.0495" height="11.6713"/></g><g class="cls-3"><rect class="cls-2" x="257.4733" y="205.5253" width="111.9014" height="75.055"/></g><g class="cls-3"><rect class="cls-2" x="257.4733" y="338.4764" width="278.0495" height="11.6713"/></g><g class="cls-3"><rect class="cls-2" x="257.4733" y="375.7141" width="156.1292" height="11.6713"/></g><g class="cls-3"><rect class="cls-2" x="257.4733" y="400.3521" width="156.1292" height="11.6713"/></g><g class="cls-3"><rect class="cls-2" x="257.4733" y="425.3368" width="156.1292" height="11.6713"/></g><g class="cls-3"><rect class="cls-2" x="257.4733" y="449.0535" width="156.1292" height="11.6713"/></g><g class="cls-3"><rect class="cls-2" x="257.4733" y="484.8695" width="67.0529" height="11.6713"/></g><path class="cls-4" d="M481.4418,414.9693,446.594,434.8412a40.2712,40.2712,0,0,0,69.606.0761Z"/><path class="cls-5" d="M446.5489,434.9292l34.8481-19.8718V374.3716a40.3134,40.3134,0,0,0-34.8936,60.4843C446.5177,434.881,446.5344,434.9044,446.5489,434.9292Z"/><path class="cls-6" d="M481.397,415.0193l34.7581,19.948a40.2479,40.2479,0,0,0-34.7581-60.6337Z"/><circle class="cls-1" cx="481.397" cy="414.9693" r="33.5327"/></svg>