<svg xmlns="http://www.w3.org/2000/svg" preserveAspectRatio="xMidYMid meet"  width="2088.2169" height="70.0767" viewBox="0 0 2088.2169 70.0767"><defs><style>.cls-1{fill:#72ae73;}</style></defs><g id="Layer_2" data-name="Layer 2"><g id="Layer_2-2" data-name="Layer 2"><path class="cls-1" d="M2072.4718,21.2873A51.0453,51.0453,0,0,0,2085.4488,5.88,54.2849,54.2849,0,0,0,2088.2169,0H0L18.9731,36.4136c3.4.5557,15.3988,2.4825,34.1136,5.1229,20.5116,2.8935,53.5156,7.26,94.2573,11.6289,45.7866,4.91,91.8149,8.8219,136.8063,11.6273,56.2269,3.5063,110.9828,5.284,162.7453,5.284,36.83,0,72.7223-.9046,106.6808-2.6891,37.1306-1.9511,72.8962-5.0037,106.3021-9.0733,31.4346-3.8293,67.9077-7.17,108.4061-9.9316,37.2561-2.54,78.8021-4.6491,123.4848-6.27,77.2214-2.7993,165.6138-4.2192,262.7236-4.22,112.1048,0,216.0455,1.9174,283.5,3.5263,73.0892,1.7434,120.2809,3.51,120.749,3.5273l.0781.0027.078.0072c.31.0272,31.5682,2.7446,78.2531,5.4286,27.4222,1.5767,54.7152,2.8332,81.1215,3.734,33.002,1.1257,64.703,1.6969,94.222,1.6969,50.8718,0,95.9074-1.69,133.8569-5.0215,21.6574-1.9013,41.3223-4.371,58.4483-7.34,18.4445-3.1972,34.4152-7.0558,47.47-11.4683A66.0348,66.0348,0,0,0,2072.4718,21.2873Z"/></g></g></svg>
