<svg xmlns="http://www.w3.org/2000/svg" width="2088.2169" height="70.0767" preserveAspectRatio="xMidYMid meet" viewBox="0 0 2088.2169 70.0767"><defs><style>.cls-1{fill:#72ae73;}</style></defs><g id="Layer_2" data-name="Layer 2"><g id="Layer_2-2" data-name="Layer 2"><path class="cls-1" d="M15.7451,48.7894A51.0477,51.0477,0,0,0,2.7682,64.1972,54.3043,54.3043,0,0,0,0,70.0767H2088.2169l-18.9731-36.4136c-3.3995-.5556-15.3988-2.4824-34.1135-5.1228-20.5116-2.8935-53.5156-7.26-94.2574-11.629-45.7865-4.91-91.8149-8.8218-136.8062-11.6273C1747.84,1.7778,1693.0838,0,1641.3213,0c-36.83,0-72.7223.9046-106.6807,2.6891-37.1306,1.9511-72.8962,5.0037-106.3022,9.0734-31.4346,3.8292-67.9076,7.17-108.4061,9.9315-37.256,2.54-78.802,4.6491-123.4848,6.27-77.2213,2.7993-165.6138,4.2192-262.7236,4.22-112.1048,0-216.0454-1.9174-283.5-3.5262-73.0893-1.7435-120.281-3.51-120.749-3.5273l-.0781-.0028-.0781-.0072c-.31-.0271-31.5681-2.7445-78.253-5.4286-27.4222-1.5767-54.7152-2.8332-81.1216-3.734-33.002-1.1257-64.703-1.6968-94.2219-1.6968-50.8719,0-95.9075,1.69-133.857,5.0214-21.6574,1.9013-41.3223,4.371-58.4483,7.34-18.4445,3.1971-34.4152,7.0557-47.47,11.4683A66.0319,66.0319,0,0,0,15.7451,48.7894Z"/></g></g></svg>
