<svg xmlns="http://www.w3.org/2000/svg" width="225.0572" height="225.2477" viewBox="0 0 225.0572 225.2477"><g id="Layer_2" data-name="Layer 2"><path d="M7.79,112.65A104.7556,104.7556,0,0,0,112.5129,217.5009h.0183A104.7334,104.7334,0,0,0,186.6363,38.7548a104.1027,104.1027,0,0,0-74.03-30.7321l-.1113,0A104.7528,104.7528,0,0,0,7.79,112.65ZM112.48,15.4932l.1492,0a97.2689,97.2689,0,0,1-.0844,194.5377h-.0356A97.2689,97.2689,0,0,1,112.48,15.4932Z"/><path d="M101.3405,112.81c3.6732,4.0024,7.26,7.9125,10.8487,11.8206q7.4868,8.1528,14.97,16.3088a5.75,5.75,0,0,1,.6655,7.3114,5.5816,5.5816,0,0,1-8.6852.6818c-4.169-4.1667-8.27-8.401-12.3971-12.61q-9.2612-9.4458-18.5181-18.8958-4.5795-4.6711-.0134-9.3164,15.2135-15.52,30.4252-31.0414c2.387-2.4349,5.1989-2.9,7.6406-1.2733a5.69,5.69,0,0,1,.937,8.7107c-4.5873,5.0726-9.24,10.0861-13.8661,15.1235q-5.6153,6.1143-11.23,12.2287C101.878,112.1193,101.668,112.4069,101.3405,112.81Z"/></g></svg>