<svg id="Layer_1" data-name="Layer 1" xmlns="http://www.w3.org/2000/svg" viewBox="0 0 300 300"><defs><style>.cls-1{fill:#f4f5f0;}.cls-2{fill:#4a984d;}.cls-3{fill:#72ae73;}</style></defs><circle class="cls-1" cx="148.42" cy="155.47" r="125"/><path class="cls-2" d="M148.42,36.47a119,119,0,0,1,84.15,203.15A119,119,0,1,1,64.28,71.33a118.2,118.2,0,0,1,84.14-34.86m0-6a125,125,0,1,0,125,125,125,125,0,0,0-125-125Z"/><rect class="cls-2" x="87.8" y="81.99" width="1.86" height="42.58" rx="0.67" transform="translate(-46.44 119.64) rotate(-56.23)"/><path class="cls-3" d="M174,157.37c.76-4.45,2.37-29.45,2.37-29.45l.08-.07c-1.74-2.61-6.28-7.53-15.84-7.3h0c-.61,0-1.13,0-1.61,0l-11-.16h-.36l-3.52.18-.06.1,0-.1h0c-8.31-.34-22-4.33-28-7.89-6.19-3.69-6.67-2.56-6.67-2.56s-3.11-.52-5,3.41,1.59,7,1.59,7c14.39,8.27,26.11,10.7,31.84,11.42,2.62,25.91,1.59,28.52,1.59,28.52l-2,58.52a6.75,6.75,0,0,0,6.54,5.59c5.77.29,7.1-5.78,7.1-5.78l1.42-42.23a5,5,0,0,1,4.37-3.13,4.17,4.17,0,0,1,4.34,2.94s1.14,37.21,1.8,42.9,7.19,5.3,7.19,5.3c6.71-1.14,6.17-6,6.17-6Z"/><circle class="cls-3" cx="155.98" cy="103.27" r="12.32"/><rect class="cls-2" x="157.38" y="145.15" width="18.49" height="24.98" rx="4.05" transform="translate(-60.83 187.29) rotate(-50.84)"/><path class="cls-3" d="M161.74,121.17a28.52,28.52,0,0,1,15.13,2c8.16,3.35,17.63,11.47,13.06,19-9.18,15.21-5.36,8.58-5.36,8.58l-7.86,12.81s-2.36,4.6-7.69,1.78-.84-7.43-.84-7.43l12.38-19.83s-9-6-14.15-5.55S161.74,121.17,161.74,121.17Z"/></svg>