<svg id="Layer_1" data-name="Layer 1" xmlns="http://www.w3.org/2000/svg" viewBox="0 0 828.3394 599.7798"><defs><style>.cls-1{fill:#fff;}.cls-2{fill:#0f713a;}.cls-3{fill:#4c984d;}.cls-4{opacity:0.31;}.cls-5{fill:#0b7139;}</style></defs><polygon class="cls-1" points="188.509 206.414 181.991 157.6 653.624 108.983 660.229 157.699 188.509 206.414 188.509 206.414"/><rect class="cls-1" x="191.9837" y="217.3072" width="469.6949" height="285.5647"/><path class="cls-2" d="M666.1443,506.9042H187.518V213.2749H666.1443Zm-474.1606-4.0323H661.6786V217.3072H191.9837Z"/><polygon class="cls-3" points="251.823 200.457 254.272 150.671 219.309 154.233 217.029 204.002 251.823 200.457"/><polygon class="cls-3" points="213.986 217.371 205.687 261.536 240.459 261.536 248.923 217.371 213.986 217.371"/><polygon class="cls-3" points="307.355 194.8 309.799 145.014 274.841 148.575 272.556 198.345 307.355 194.8"/><polygon class="cls-3" points="269.87 217.371 261.567 261.536 296.339 261.536 304.802 217.371 269.87 217.371"/><polygon class="cls-3" points="362.883 189.143 365.331 139.357 330.368 142.919 328.088 192.688 362.883 189.143"/><polygon class="cls-3" points="325.75 217.371 317.447 261.536 352.219 261.536 360.682 217.371 325.75 217.371"/><polygon class="cls-3" points="418.41 183.486 420.859 133.7 385.896 137.262 383.616 187.031 418.41 183.486"/><polygon class="cls-3" points="381.63 217.371 373.331 261.536 408.103 261.536 416.566 217.371 381.63 217.371"/><polygon class="cls-3" points="473.938 177.83 476.386 128.043 441.423 131.605 439.143 181.374 473.938 177.83"/><polygon class="cls-3" points="437.509 217.371 429.211 261.536 463.983 261.536 472.446 217.371 437.509 217.371"/><polygon class="cls-3" points="529.465 172.173 531.918 122.386 496.955 125.948 494.675 175.717 529.465 172.173"/><polygon class="cls-3" points="493.389 217.371 485.091 261.536 519.863 261.536 528.326 217.371 493.389 217.371"/><polygon class="cls-3" points="549.273 217.371 540.975 261.536 575.742 261.536 584.21 217.371 549.273 217.371"/><polygon class="cls-3" points="584.997 166.515 587.446 116.729 552.483 120.291 550.203 170.06 584.997 166.515"/><polygon class="cls-3" points="640.525 160.859 642.973 111.072 608.01 114.634 605.73 164.403 640.525 160.859"/><polygon class="cls-3" points="605.153 217.371 596.855 261.536 631.622 261.536 640.09 217.371 605.153 217.371"/><rect class="cls-2" x="188.5092" y="261.536" width="476.6442" height="4.4392"/><g class="cls-4"><path class="cls-5" d="M353.8042,389.1606c-.0054,0,.3691.1017.3691.1017l-.1-.2977S353.81,389.1606,353.8042,389.1606Z"/><path class="cls-5" d="M624.2833,298.5577v-5.5934H234.1389v5.5934H360.2038v76.0991H234.1389V380.25H468.8557v26.6746H234.1389v5.5922H468.8557v29.88H234.1389v5.5923H624.2833V442.397H475.0518v-29.88H624.2833v-5.5922H475.0518V380.25H624.2833v-5.5935H497.0812V298.5577ZM490.8852,374.6568H366.4V298.5577H490.8852Z"/><rect class="cls-5" x="234.1389" y="480.0919" width="390.1444" height="5.5947"/></g><path class="cls-2" d="M187.0518,209.0848,180.24,154.5671l475.6089-48.4523,6.8119,54.5181Zm-1.8735-50.9627,5.8106,46.5035,466.7334-47.5478-5.8107-46.5038Z"/></svg>