<svg id="Layer_1" data-name="Layer 1" xmlns="http://www.w3.org/2000/svg" viewBox="0 0 828.3394 599.7798"><defs><style>.cls-1{fill:#0f713a;}.cls-2{fill:#4c984d;}.cls-3{opacity:0.31;}.cls-4{fill:#0b7139;}</style></defs><path class="cls-1" d="M628.85,476.0491H183.3208V202.7246H628.85Zm-441.3719-3.7535h437.215V206.478H187.4777Z"/><polygon class="cls-2" points="243.179 190.793 245.458 144.45 212.913 147.765 210.791 194.093 243.179 190.793"/><polygon class="cls-2" points="207.958 206.538 200.234 247.648 232.601 247.648 240.479 206.538 207.958 206.538"/><polygon class="cls-2" points="294.871 185.527 297.146 139.184 264.605 142.499 262.479 188.827 294.871 185.527"/><polygon class="cls-2" points="259.978 206.538 252.249 247.648 284.617 247.648 292.495 206.538 259.978 206.538"/><polygon class="cls-2" points="346.559 180.262 348.838 133.918 316.293 137.233 314.171 183.561 346.559 180.262"/><polygon class="cls-2" points="311.994 206.538 304.265 247.648 336.632 247.648 344.51 206.538 311.994 206.538"/><polygon class="cls-2" points="398.246 174.996 400.526 128.652 367.981 131.968 365.858 178.295 398.246 174.996"/><polygon class="cls-2" points="364.009 206.538 356.285 247.648 388.652 247.648 396.53 206.538 364.009 206.538"/><polygon class="cls-2" points="449.934 169.73 452.213 123.387 419.668 126.702 417.546 173.03 449.934 169.73"/><polygon class="cls-2" points="416.025 206.538 408.301 247.648 440.668 247.648 448.546 206.538 416.025 206.538"/><polygon class="cls-2" points="501.622 164.465 503.905 118.121 471.36 121.436 469.238 167.764 501.622 164.465"/><polygon class="cls-2" points="468.041 206.538 460.316 247.648 492.683 247.648 500.562 206.538 468.041 206.538"/><polygon class="cls-2" points="520.06 206.538 512.336 247.648 544.699 247.648 552.581 206.538 520.06 206.538"/><polygon class="cls-2" points="553.314 159.199 555.593 112.855 523.048 116.17 520.926 162.498 553.314 159.199"/><polygon class="cls-2" points="605.001 153.933 607.281 107.589 574.736 110.905 572.613 157.232 605.001 153.933"/><polygon class="cls-2" points="572.076 206.538 564.352 247.648 596.715 247.648 604.597 206.538 572.076 206.538"/><rect class="cls-1" x="184.2435" y="247.6484" width="443.6837" height="4.1322"/><g class="cls-3"><path class="cls-4" d="M338.1082,366.4476c-.0051,0,.3435.0946.3435.0946l-.0934-.2771S338.1132,366.4476,338.1082,366.4476Z"/><path class="cls-4" d="M589.8833,282.11v-5.2067H226.7178V282.11H344.0652v70.8368H226.7178v5.2066h218.486v24.83H226.7178v5.2055h218.486v27.8137H226.7178v5.2056H589.8833v-5.2056H450.9713V388.1889h138.912v-5.2055H450.9713v-24.83h138.912v-5.2066H471.4774V282.11ZM465.71,352.9468H349.8328V282.11H465.71Z"/><rect class="cls-4" x="226.7178" y="451.0909" width="363.1655" height="5.2078"/></g><path class="cls-1" d="M182.8869,198.8242l-6.3409-50.7477,442.72-45.1018,6.3409,50.7481Zm-1.744-47.4385,5.4089,43.2877,434.4581-44.26-5.4088-43.2881Z"/></svg>