<svg id="Layer_1" data-name="Layer 1" xmlns="http://www.w3.org/2000/svg" viewBox="0 0 70.6128 43.6108"><defs><style>.cls-1{fill:#4b974b;}.cls-2{fill:#787878;}.cls-3{fill:#d6d6d6;}.cls-4{fill:#2d2d2d;}.cls-5{fill:#606161;}.cls-6{fill:#484c49;}.cls-7{fill:#6f7575;}.cls-8{fill:#737576;}.cls-9{fill:#464748;}.cls-10{fill:#a09f9f;}.cls-11{fill:#3c3e3f;}.cls-12{fill:#dcdbdb;}.cls-13{fill:#35393d;}.cls-14{fill:#595b5c;}.cls-15{fill:#4d5051;}.cls-16{opacity:0.57;}.cls-17{fill:#d7df23;}</style></defs><rect class="cls-1" width="70.6128" height="43.6108"/><rect class="cls-2" x="38.986" y="25.4903" width="18.2658" height="6.9822"/><rect class="cls-3" x="39.5814" y="26.015" width="17.1219" height="5.8824"/><ellipse class="cls-4" cx="61.8756" cy="32.4679" rx="3.5181" ry="1.9412"/><path class="cls-5" d="M65.2048,26.3239V18.8766c0-2.6557-1.4493-4.8085-3.2372-4.8085H61.84c-1.7879,0-3.2372,2.1528-3.2372,4.8085v7.4473Z"/><polygon class="cls-6" points="58.602 19.293 65.205 19.293 65.205 17.711 65.205 17.61 58.602 17.61 58.602 19.293"/><path class="cls-6" d="M61.9676,14.0681H61.84a3.2833,3.2833,0,0,0-3.2372,3.3276V17.61h6.6025v-.2145A3.2833,3.2833,0,0,0,61.9676,14.0681Z"/><rect class="cls-7" x="61.0503" y="18.0272" width="4.1546" height="0.1797"/><rect class="cls-7" x="61.0503" y="17.5023" width="4.1546" height="0.1797"/><rect class="cls-7" x="61.0503" y="17.0134" width="4.1546" height="0.1797"/><rect class="cls-8" x="58.6023" y="26.3239" width="6.6026" height="1.251"/><rect class="cls-9" x="59.7074" y="27.5749" width="4.2595" height="1.251"/><rect class="cls-10" x="58.6023" y="26.1442" width="6.6026" height="0.3379"/><path class="cls-9" d="M58.6023,26.1442H57.5531s-.1818,6.0248,3.9868,6.1434,4.4763-4.3892,4.49-6.1434h-.8254v-.3667h1.1891s.0139,6.8445-4.3085,6.9163-4.91-4.5725-4.896-6.4849l0-.4314h1.4131Z"/><rect class="cls-11" x="58.291" y="25.4396" width="0.3112" height="1.0784"/><rect class="cls-11" x="65.2048" y="25.4396" width="0.3112" height="1.0784"/><ellipse class="cls-10" cx="61.8756" cy="32.4477" rx="0.3182" ry="0.2068"/><path class="cls-12" d="M62.0315,29.2569l-.5777-.0552c-.3244,2.4261-3.5,4.7819-7.4919,7.0689,0,0-3.9512,2.68-6.596,1.7325l.0631.351s1.9614.9652,6.7995-1.7805l.0394-.022,0,0,.0252-.0143q.42-.2326.8215-.4663c1.0016-.5686,2.2673-1.2871.0229-.0134C59.12,33.7394,61.7522,31.37,62.0315,29.2569Z"/><rect class="cls-13" x="61.2286" y="28.6502" width="1.217" height="0.8011"/><path class="cls-12" d="M38.8484,30.54c.4947-.4924-8.8059,3.5145-3.4352,7.1054l.1539-.3317s-3.1394-1.5957-.64-4.0774a8.2642,8.2642,0,0,1,4.0636-2.3788l-.038-.3188C38.9528,30.5336,38.6866,30.7012,38.8484,30.54Z"/><rect class="cls-14" x="38.7897" y="30.1444" width="0.1986" height="1.1604"/><rect class="cls-15" x="40.7347" y="27.0128" width="14.7684" height="3.9372"/><g class="cls-16"><path class="cls-17" d="M42.2234,30.0674a.7982.7982,0,0,1-.4663-.1261.7342.7342,0,0,1-.2656-.3439,1.3315,1.3315,0,0,1-.0856-.4891,1.2171,1.2171,0,0,1,.0959-.4981.7462.7462,0,0,1,.7216-.4663.86.86,0,0,1,.3726.0746.6739.6739,0,0,1,.2545.2066.8871.8871,0,0,1,.1454.3054,1.4519,1.4519,0,0,1,.0464.3763,1.35,1.35,0,0,1-.0472.3615.94.94,0,0,1-.1461.3077.6986.6986,0,0,1-.2538.2125A.8134.8134,0,0,1,42.2234,30.0674Zm.0044-.4486A.3491.3491,0,0,0,42.46,29.54a.481.481,0,0,0,.14-.2051.8051.8051,0,0,0,.0457-.2715,1.0406,1.0406,0,0,0-.02-.2059.5769.5769,0,0,0-.0664-.1756.34.34,0,0,0-.1217-.1225.3653.3653,0,0,0-.1874-.045.3243.3243,0,0,0-.2184.079.5116.5116,0,0,0-.1409.2117.8384.8384,0,0,0-.05.2959.86.86,0,0,0,.0376.2634.3784.3784,0,0,0,.1232.1852A.3453.3453,0,0,0,42.2278,29.6188Z"/><path class="cls-17" d="M43.7927,30.0054c-.0553,0-.1144-.0014-.1756-.0044s-.118-.0074-.17-.0125-.0922-.0089-.1217-.0126c.0007-.0088.0014-.0346.0014-.0767v-.3785c0-.08,0-.1623.0008-.2486s.0007-.17.0007-.2538c0-.1019-.0007-.2029-.0015-.304s-.0022-.1941-.0036-.28-.0052-.1579-.01-.214c.0177,0,.0457.0008.0833.0023s.08.0036.1247.0066.0886.0059.1314.01.0789.0089.1091.0133c.0591.0878.1166.1771.1712.2686s.1077.1829.1572.2752.0966.1837.14.2752.0848.1822.1224.2708l-.0546-1.0972c.0266,0,.06.0015.1.0037s.0812.0059.1233.01.0819.0089.1173.014a.613.613,0,0,1,.0811.0163c.003.0405.0059.0863.01.1387s.0052.107.0074.1667.0037.12.0052.1837.0029.1262.0044.1889.0007.124.0007.1822c0,.0945-.0007.1875-.0029.28s-.0059.1778-.01.2567-.0089.1454-.0133.1992a.65.65,0,0,1-.0147.107c-.0259.0015-.0524.0022-.0812.0022s-.0576.0008-.0871.0008c-.042,0-.0841-.0008-.1247-.003a.8251.8251,0,0,1-.1025-.01c-.0081-.0162-.0236-.0442-.0443-.0855s-.0479-.0908-.0789-.1491-.0642-.1225-.1011-.1911-.0738-.1394-.1114-.2125S43.9,29.2,43.8621,29.13s-.0716-.1321-.1026-.19c.0029.0258.0059.0649.0081.1188s.0059.1158.0081.1852.0045.1424.0059.2176.0037.1483.0052.22.0037.1357.0044.1926S43.7927,29.9745,43.7927,30.0054Z"/><path class="cls-17" d="M45.8269,28.5409a.6051.6051,0,0,1-.0119-.0856c-.0029-.0384-.0059-.0782-.0081-.12s-.0037-.08-.0051-.1128-.0022-.0561-.0022-.0679c.1018-.0074.2176-.0148.3482-.0207s.2627-.0088.3969-.0088c.1011,0,.1993.0022.2952.0066s.1837.0125.2626.0244q.0012.1161-.0066.2169a1.188,1.188,0,0,1-.0192.152c-.0184-.0015-.0435-.0015-.076-.0015s-.0679-.0008-.1077-.0015l-.1166-.0022c-.0384-.0007-.0716-.0007-.1-.0007.0007.0346.003.0855.0059.1527s.0059.1446.0089.2317.0081.1778.0125.2737l.0133.2811c.0037.0922.0074.1756.01.2516s.0067.138.0089.1874.0029.0782.0029.0878q-.0541.0078-.1416.0155t-.1749.0111c-.0583.0029-.1048.0044-.14.0044-.0029-.0554-.0059-.1218-.0081-.2s-.0059-.163-.0081-.2538-.0044-.1852-.0059-.2811l-.0044-.28c-.0008-.0907-.0008-.1756-.0008-.253,0-.0428,0-.0834.0008-.121s.0007-.0709.0014-.1c-.031.0022-.0649.0045-.101.0059l-.1129.0045c-.0384.0014-.076.0022-.1129.0037S45.8593,28.5409,45.8269,28.5409Z"/><path class="cls-17" d="M47.33,29.9914c-.0052-.04-.01-.1025-.0155-.1844s-.01-.1764-.0155-.2841-.01-.2206-.0133-.34-.0066-.2368-.0088-.3534-.003-.2236-.003-.3217c0-.0649.0007-.1232.0015-.1771s.0037-.0974.0066-.1328c.0089-.0015.031-.0029.0657-.0052s.0752-.0044.1217-.0066l.1365-.0044c.0443-.0015.08-.0022.107-.0022q-.0023.0741-.0022.1682v.1785c0,.07.0007.1424.0022.2162s.0037.1269.0059.1579l.0671-.0059c.0251-.0029.0517-.0044.079-.0059s.0538-.0022.08-.0037.0509-.0015.0738-.0029.0428-.0008.06-.0008l.0036-.1328c.0008-.0583.003-.1232.0045-.1948s.0037-.1416.0059-.211.0051-.1269.0081-.1756c.0206-.0022.0457-.0029.0752-.0037s.0591-.0007.0878-.0007c.0576,0,.1122.0007.1638.0029s.09.0045.1166.0082c-.0037.0265-.0081.0664-.0118.1195s-.0081.1158-.0125.1881-.0081.15-.0111.2347-.0074.1719-.01.2611-.0067.1771-.0089.2642c-.0037.1-.0066.1984-.0088.2936s-.0045.183-.0059.2605-.0023.14-.003.1866c-.0206.0023-.0516.0037-.0952.0059l-.1438.0045c-.0532.0014-.1048.0022-.1572.0022v-.7223l-.0634.0022c-.0229,0-.0473.0007-.0724.0022s-.05.0015-.0752.0015-.0494,0-.0723.0007h-.0576c.003.0509.0052.1114.0082.1815s.0051.1409.0081.2118.0051.1335.0073.1888.0037.0908.0037.11a.8337.8337,0,0,1-.0892.0088l-.1247.0067c-.0436.0014-.0856.0029-.1255.0037S47.3519,29.9914,47.33,29.9914Z"/><path class="cls-17" d="M49.7771,30.0158c-.0878-.0067-.1756-.0126-.2634-.017s-.1756-.0088-.2656-.0125c-.0731-.0037-.1476-.0081-.2236-.0118s-.1505-.0089-.2228-.0126c-.0066-.1571-.0111-.3091-.014-.4574s-.0037-.2878-.0037-.4176q0-.3132.0059-.532c.0044-.1453.0081-.25.0118-.3136.1712-.0332.33-.0568.4766-.0723s.27-.0251.3689-.0287.16-.0059.1845-.0059c0,.0612-.0015.12-.0052.1792s-.0081.12-.014.1845l-.5836.0487c-.0015.0125-.0022.0317-.0029.0575l-.0023.0842c0,.03-.0007.0582-.0007.0841V28.83c.0214,0,.048,0,.0812-.0007s.07-.0008.1092-.0022l.1195-.0023c.04-.0014.0775-.0022.1129-.0022l.0892-.0022-.0059.3859c-.0118-.0015-.0346-.0022-.0693-.0037s-.0745-.0029-.1195-.0052-.09-.0029-.1358-.0036-.0856-.0023-.12-.003-.0583-.0015-.0716-.0015c-.0007.01-.0015.0251-.0015.0472s-.0014.0465-.0014.0738-.0008.0561-.0008.0856-.0007.0568-.0007.0819-.0008.0443-.0008.059c.0119,0,.0436,0,.0952-.0007s.1055-.0007.16-.0007c.045,0,.0908.0014.1365.0029s.0878.0044.1269.0067.0709.0044.0952.0059c0,.0376-.0015.08-.0052.1283s-.0073.096-.0118.1424-.0088.0878-.0132.1232A.4454.4454,0,0,1,49.7771,30.0158Z"/><path class="cls-17" d="M51.3036,30.0173c-.0221,0-.0538-.0008-.0937-.0023l-.1291-.0044c-.0457-.0015-.0907-.0029-.1335-.0052s-.079-.0036-.107-.0051c.01-.0583.0236-.1321.0413-.2221s.0384-.1889.0612-.2988.0487-.2236.0753-.3424.0546-.2375.0826-.3548.0554-.2295.0819-.3357.05-.2.0723-.2826c.093-.0118.1838-.0222.2738-.03s.1763-.0118.2612-.0118c.0479,0,.0966.0015.1446.0044s.0959.0074.1431.0141c.017.0819.0354.1763.0531.2833s.0369.2317.0554.3763.0376.3143.056.5091.0377.422.0568.681c-.03.0036-.073.0081-.1283.0132s-.1137.0082-.1749.01-.1144.0037-.1608.0037c-.0023-.0273-.0037-.0583-.0052-.093s-.003-.0716-.0044-.1107-.0037-.0789-.0052-.1188-.0022-.0782-.0029-.1165-.0023-.0723-.003-.1026c-.0288,0-.06.0007-.0944.0022s-.0672.003-.1011.0052-.0664.0051-.0967.0081-.056.0052-.0789.0081l-.05.0067c-.0132.0627-.0258.1269-.0376.191s-.0229.1247-.0317.18S51.3088,29.98,51.3036,30.0173Zm.1461-.9009c.0214-.0037.0539-.0081.0982-.0126s.0914-.0088.1394-.011.0871-.0052.1173-.0059c-.0015-.02-.0037-.0568-.0066-.1114s-.0059-.1144-.0089-.1793-.0066-.1255-.01-.18-.0059-.0922-.0088-.1128c-.0148,0-.0362.0007-.0657.0029s-.0575.0037-.0848.0067l-.0569.0044c-.0059.0273-.0132.0649-.0228.1136s-.02.1026-.03.1608-.0221.1159-.0324.1727S51.4578,29.0714,51.45,29.1164Z"/><path class="cls-17" d="M52.98,30.0209c-.0354,0-.0774,0-.1261-.0014s-.0981-.0022-.1483-.0045-.0945-.0066-.1336-.0118c-.0014-.0612-.0037-.1387-.0051-.2339s-.0037-.1962-.0052-.3039-.0022-.21-.0022-.307q0-.2246.0037-.48t.0088-.5276c.0155-.0007.04-.0022.0738-.0029s.0716-.0022.1136-.0037.0834-.0022.1233-.0022.073-.0008.1-.0008c.0052.1.01.211.0133.3328s.0066.2464.0081.3741.0029.2493.0029.3659c0,.0583,0,.1181-.0007.1808s-.0007.1254-.0022.1874-.0022.1217-.0052.1778-.0059.1062-.0081.1512S52.9844,29.9929,52.98,30.0209Z"/><path class="cls-17" d="M53.3577,30.0313c-.0044-.1048-.01-.2332-.0184-.3852s-.017-.315-.0251-.4884-.0163-.346-.0244-.5172-.0162-.3291-.0228-.4722q.0541-.0055.1372-.0111c.0561-.0037.1158-.0081.18-.0118s.1284-.0066.19-.01.1165-.0044.1645-.0044a1.1344,1.1344,0,0,1,.211.0207.6109.6109,0,0,1,.1941.0708.3827.3827,0,0,1,.1409.1439.4819.4819,0,0,1,.0531.24.5474.5474,0,0,1-.0716.2722.4493.4493,0,0,1-.19.1867c.0214.0391.0443.0871.07.1446s.0509.1188.0767.1837.0509.13.0745.1941.045.1225.0635.1756.0324.0966.0413.1306a.5172.5172,0,0,1-.1055.0479c-.0443.0148-.0893.0281-.1358.04s-.087.0214-.121.0288-.0546.0118-.0619.0125c-.0074-.0376-.0185-.0871-.034-.1483s-.0339-.1269-.0538-.1985-.0406-.14-.0613-.2088-.0384-.13-.0561-.1844-.0317-.0952-.0405-.121c-.0207.0051-.0421.01-.0635.014s-.0413.0059-.06.0074l-.0516.0037c.0037.0221.0081.0582.0118.1069s.0081.1063.0133.17.0088.1306.0125.1978.0081.132.0111.1918.0052.1092.0059.1476a.9048.9048,0,0,1-.1328.0184c-.0524.0044-.1063.0074-.1623.0089S53.4079,30.0313,53.3577,30.0313Zm.363-1.18c.0288,0,.0576-.0015.0871-.0037s.0649-.0074.1055-.0147a.5159.5159,0,0,0,.1416-.0428.18.18,0,0,0,.0775-.07.2.2,0,0,0,.0236-.1.1526.1526,0,0,0-.0339-.1106.1581.1581,0,0,0-.0937-.0443.9419.9419,0,0,0-.138-.0089c-.0147,0-.0317,0-.0524.0008l-.06.0044c-.02.0022-.0384.0037-.0546.0059l-.0355.0037c.0008.0162.003.0376.0052.0635s.0059.0545.0089.0855.0051.0613.0073.0915.0045.0583.0067.0834Z"/></g><path class="cls-12" d="M35.5656,37.3138c-.0413.0005,2.1175.8889,6.6483-.1736,0,0,1.47-.47,5.1505.8629l.0631.351s-3.4039-1.413-5.37-.8608a13.4222,13.4222,0,0,1-3.5757.5277,7.2107,7.2107,0,0,1-3.07-.3755Z"/></svg>